<svg xmlns="http://www.w3.org/2000/svg" xmlns:xlink="http://www.w3.org/1999/xlink" width="5000" zoomAndPan="magnify" viewBox="0 0 3750 3749.999967" height="5000" preserveAspectRatio="xMidYMid meet" version="1.0"><defs><g/></defs><g fill="#ffffff" fill-opacity="1"><g transform="translate(2107.832121, 1592.152296)"><g><path d="M -1210.109375 676.03125 C -1214.171875 672.59375 -1217.84375 668.726562 -1221.125 664.4375 C -1224.40625 660.144531 -1226.515625 655.03125 -1227.453125 649.09375 C -1228.535156 642.53125 -1226.191406 637.535156 -1220.421875 634.109375 C -1216.984375 632.390625 -1213.625 632.148438 -1210.34375 633.390625 C -1207.0625 634.640625 -1204.71875 637.140625 -1203.3125 640.890625 C -1199.570312 651.203125 -1193.910156 659.363281 -1186.328125 665.375 C -1178.753906 671.382812 -1170.519531 676.65625 -1161.625 681.1875 C -1141.945312 691.488281 -1121.644531 699.878906 -1100.71875 706.359375 C -1079.789062 712.847656 -1058.707031 718.507812 -1037.46875 723.34375 C -1002.019531 730.84375 -954.816406 735.722656 -895.859375 737.984375 C -836.910156 740.253906 -771.285156 739.394531 -698.984375 735.40625 C -626.679688 731.425781 -552.660156 723.695312 -476.921875 712.21875 C -401.179688 700.738281 -328.679688 684.96875 -259.421875 664.90625 C -190.160156 644.84375 -129.332031 619.859375 -76.9375 589.953125 C -24.550781 560.046875 14.523438 524.789062 40.296875 484.1875 C 61.835938 448.894531 66.128906 411.648438 53.171875 372.453125 C 43.804688 345.585938 30.378906 321.144531 12.890625 299.125 C -13.191406 266.175781 -42.082031 235.960938 -73.78125 208.484375 C -100.488281 184.117188 -127.429688 159.753906 -154.609375 135.390625 C -180.992188 111.960938 -207.460938 88.226562 -234.015625 64.1875 C -263.523438 37.007812 -292.570312 9.523438 -321.15625 -18.265625 C -323.800781 -20.921875 -326.53125 -23.5 -329.34375 -26 C -344.8125 -40.363281 -358.398438 -56.289062 -370.109375 -73.78125 C -382.128906 -93.769531 -384.429688 -109.269531 -377.015625 -120.28125 C -369.597656 -131.289062 -355.503906 -138.75 -334.734375 -142.65625 C -313.960938 -146.5625 -289.832031 -147.769531 -262.34375 -146.28125 C -234.863281 -144.800781 -207.1875 -141.363281 -179.3125 -135.96875 C -151.4375 -130.582031 -126.679688 -124.140625 -105.046875 -116.640625 C -83.421875 -109.148438 -68.160156 -101.425781 -59.265625 -93.46875 C -41.460938 -76.914062 -40.289062 -59.425781 -55.75 -41 C -72.457031 -22.101562 -92.835938 -8.359375 -116.890625 0.234375 C -151.710938 13.660156 -186.925781 14.753906 -222.53125 3.515625 C -229.40625 1.015625 -235.960938 -2.265625 -242.203125 -6.328125 C -242.828125 -6.640625 -243.375 -7.03125 -243.84375 -7.5 C -245.5625 -8.4375 -246.734375 -9.835938 -247.359375 -11.703125 C -247.984375 -13.578125 -247.671875 -15.609375 -246.421875 -17.796875 C -243.609375 -21.234375 -240.175781 -22.25 -236.125 -20.84375 C -232.21875 -19.4375 -228.546875 -17.71875 -225.109375 -15.6875 C -200.429688 -3.351562 -175.050781 -0.773438 -148.96875 -7.953125 C -122.894531 -15.140625 -100.878906 -29.351562 -82.921875 -50.59375 C -75.109375 -60.90625 -74.71875 -69.925781 -81.75 -77.65625 C -88.78125 -85.382812 -99.515625 -91.941406 -113.953125 -97.328125 C -128.398438 -102.710938 -142.925781 -106.925781 -157.53125 -109.96875 C -172.132812 -113.019531 -183.023438 -115.09375 -190.203125 -116.1875 C -191.609375 -116.1875 -192.625 -116.34375 -193.25 -116.65625 C -194.65625 -116.65625 -196.375 -116.8125 -198.40625 -117.125 C -207.613281 -119.15625 -220.222656 -121.300781 -236.234375 -123.5625 C -252.242188 -125.832031 -268.757812 -127.394531 -285.78125 -128.25 C -302.800781 -129.101562 -317.398438 -127.96875 -329.578125 -124.84375 C -341.765625 -121.726562 -348.640625 -115.71875 -350.203125 -106.8125 C -351.765625 -97.914062 -344.96875 -84.722656 -329.8125 -67.234375 C -313.726562 -48.648438 -296.707031 -30.613281 -278.75 -13.125 C -234.082031 30.132812 -188.25 72.066406 -141.25 112.671875 C -124.382812 127.816406 -107.519531 142.960938 -90.65625 158.109375 C -62.539062 183.410156 -34.898438 209.335938 -7.734375 235.890625 C 17.410156 260.242188 39.585938 287.023438 58.796875 316.234375 C 72.535156 337.472656 82.140625 360.347656 87.609375 384.859375 C 95.878906 424.992188 88.460938 462.082031 65.359375 496.125 C 40.054688 534.226562 3.359375 567.957031 -44.734375 597.3125 C -92.835938 626.675781 -148.585938 651.742188 -211.984375 672.515625 C -275.390625 693.285156 -342.929688 710.113281 -414.609375 723 C -486.285156 735.882812 -558.707031 745.019531 -631.875 750.40625 C -705.039062 755.789062 -775.195312 757.625 -842.34375 755.90625 C -909.5 754.1875 -970.285156 749.109375 -1024.703125 740.671875 C -1079.128906 732.242188 -1123.753906 720.613281 -1158.578125 705.78125 C -1177.003906 698.59375 -1194.179688 688.675781 -1210.109375 676.03125 Z M -1210.109375 676.03125 "/></g></g><g transform="translate(1762.554575, 1592.152296)"><g><path d="M -37.25 55.515625 L -36.546875 55.515625 C -13.898438 55.828125 1.007812 60.863281 8.1875 70.625 C 15.375 80.382812 15.066406 93.382812 7.265625 109.625 C 0.703125 121.957031 -7.570312 132.734375 -17.5625 141.953125 C -21 145.078125 -24.515625 147.578125 -28.109375 149.453125 C -31.703125 151.328125 -35.765625 152.265625 -40.296875 152.265625 C -42.941406 152.734375 -45.984375 152.265625 -49.421875 150.859375 C -50.515625 150.546875 -51.609375 150.15625 -52.703125 149.6875 C -55.359375 150.15625 -57.9375 151.015625 -60.4375 152.265625 C -61.0625 152.734375 -61.921875 153.125 -63.015625 153.4375 C -68.160156 155.457031 -73.625 156.3125 -79.40625 156 C -81.75 156 -84.171875 156 -86.671875 156 C -95.878906 154.601562 -102.828125 150.738281 -107.515625 144.40625 C -112.203125 138.082031 -113.84375 130.394531 -112.4375 121.34375 C -111.65625 115.875 -109.9375 110.71875 -107.28125 105.875 C -89.320312 73.707031 -66.445312 56.921875 -38.65625 55.515625 Z M -74.25 139.375 C -61.914062 139.84375 -50.945312 136.289062 -41.34375 128.71875 C -31.738281 121.144531 -24.59375 112.4375 -19.90625 102.59375 C -15.226562 92.757812 -13.941406 84.679688 -16.046875 78.359375 C -18.148438 72.035156 -24.671875 70.273438 -35.609375 73.078125 C -47.941406 76.828125 -58.832031 83.851562 -68.28125 94.15625 C -77.726562 104.46875 -83.503906 114.269531 -85.609375 123.5625 C -87.722656 132.851562 -83.9375 138.125 -74.25 139.375 Z M -74.25 139.375 "/></g></g><g transform="translate(1638.170332, 1592.152296)"><g><path d="M -169.9375 119.34375 C -173.613281 117.238281 -173.890625 112.125 -170.765625 104 C -166.234375 98.070312 -161.390625 92.53125 -156.234375 87.375 C -151.085938 82.21875 -145.46875 77.609375 -139.375 73.546875 C -138.90625 73.546875 -138.671875 73.390625 -138.671875 73.078125 C -134.609375 70.273438 -130.316406 67.859375 -125.796875 65.828125 C -88.472656 52.390625 -69.421875 60.273438 -68.640625 89.484375 C -53.484375 76.367188 -43.332031 68.328125 -38.1875 65.359375 C -25.84375 58.015625 -12.488281 54.734375 1.875 55.515625 C 12.488281 56.140625 19.707031 59.378906 23.53125 65.234375 C 27.363281 71.085938 27.015625 79.015625 22.484375 89.015625 C 15.617188 104.785156 5.859375 118.835938 -6.796875 131.171875 C -21.628906 144.921875 -38.101562 155.929688 -56.21875 164.203125 C -65.894531 169.046875 -76.046875 170.921875 -86.671875 169.828125 C -97.285156 169.203125 -103.6875 163.191406 -105.875 151.796875 C -106.8125 148.359375 -105.953125 145.3125 -103.296875 142.65625 C -99.867188 139.53125 -95.890625 138.828125 -91.359375 140.546875 C -91.046875 140.546875 -90.613281 140.625 -90.0625 140.78125 C -89.519531 140.9375 -89.09375 141.171875 -88.78125 141.484375 C -84.25 147.734375 -79.679688 150.347656 -75.078125 149.328125 C -70.472656 148.316406 -65.59375 146.25 -60.4375 143.125 C -36.382812 129.070312 -18.503906 109.472656 -6.796875 84.328125 C -6.171875 83.234375 -5.78125 82.019531 -5.625 80.6875 C -5.46875 79.363281 -5.859375 78.3125 -6.796875 77.53125 C -9.609375 76.59375 -12.726562 76.785156 -16.15625 78.109375 C -19.59375 79.441406 -23.03125 81.394531 -26.46875 83.96875 C -29.90625 86.550781 -32.796875 88.703125 -35.140625 90.421875 C -35.453125 90.890625 -35.609375 91.125 -35.609375 91.125 C -47.003906 100.644531 -58.171875 110.40625 -69.109375 120.40625 C -73.941406 125.550781 -79.953125 128.4375 -87.140625 129.0625 C -97.441406 129.0625 -101.734375 124.457031 -100.015625 115.25 C -99.085938 111.8125 -98.078125 108.375 -96.984375 104.9375 C -92.921875 90.101562 -92.757812 81.394531 -96.5 78.8125 C -100.25 76.238281 -105.988281 76.238281 -113.71875 78.8125 C -121.457031 81.394531 -129.191406 86.316406 -136.921875 93.578125 C -144.648438 100.835938 -151.164062 107.472656 -156.46875 113.484375 C -161.78125 119.503906 -166.269531 121.457031 -169.9375 119.34375 Z M -169.9375 119.34375 "/></g></g><g transform="translate(1482.865709, 1592.152296)"><g><path d="M -112.4375 143.8125 C -111.03125 133.039062 -105.953125 126.015625 -97.203125 122.734375 C -88.460938 119.460938 -85.613281 123.757812 -88.65625 135.625 C -91.707031 147.5 -86.359375 150.503906 -72.609375 144.640625 C -58.867188 138.785156 -47.550781 131.410156 -38.65625 122.515625 C -24.90625 108.453125 -12.722656 93.300781 -2.109375 77.0625 C -1.015625 75.65625 -0.15625 74.484375 0.46875 73.546875 C 3.59375 69.023438 6.71875 64.734375 9.84375 60.671875 C 11.875 57.859375 14.253906 56.097656 16.984375 55.390625 C 19.710938 54.691406 22.484375 54.578125 25.296875 55.046875 C 27.953125 55.359375 29.984375 56.375 31.390625 58.09375 C 32.796875 59.8125 32.953125 61.84375 31.859375 64.1875 C 30.140625 68.40625 28.109375 72.695312 25.765625 77.0625 C 11.710938 103.144531 -2.570312 129.300781 -17.09375 155.53125 C -17.40625 155.84375 -17.5625 156.15625 -17.5625 156.46875 C -19.59375 160.53125 -22.015625 164.28125 -24.828125 167.71875 C -27.953125 171.15625 -31.546875 172.5625 -35.609375 171.9375 C -39.671875 171.3125 -42.398438 168.890625 -43.796875 164.671875 C -45.515625 159.203125 -47 156.117188 -48.25 155.421875 C -49.5 154.722656 -52.3125 155.226562 -56.6875 156.9375 C -66.050781 160.375 -75.1875 162.796875 -84.09375 164.203125 C -93 165.609375 -100.300781 165.253906 -106 163.140625 C -111.695312 161.035156 -113.84375 154.59375 -112.4375 143.8125 Z M -112.4375 143.8125 "/></g></g><g transform="translate(1365.743065, 1592.152296)"><g><path d="M -93.109375 98.734375 C -84.753906 88.816406 -74.875 79.71875 -63.46875 71.4375 C -52.070312 63.164062 -39.191406 57.582031 -24.828125 54.6875 C -10.460938 51.800781 0.695312 52.859375 8.65625 57.859375 C 16.625 62.859375 18.191406 73.945312 13.359375 91.125 C 7.109375 108.925781 -1.484375 125.867188 -12.421875 141.953125 C -14.910156 145.390625 -18.5 147.8125 -23.1875 149.21875 C -26.625 150 -29.628906 149.410156 -32.203125 147.453125 C -34.785156 145.503906 -35.765625 143.046875 -35.140625 140.078125 C -32.796875 134.453125 -30.21875 128.828125 -27.40625 123.203125 C -24.59375 117.585938 -22.71875 113.921875 -21.78125 112.203125 C -16.320312 102.210938 -12.5 91.75 -10.3125 80.8125 C -10.3125 74.5625 -18.664062 74.171875 -35.375 79.640625 C -52.082031 85.109375 -68.320312 95.140625 -84.09375 109.734375 C -99.863281 124.335938 -107.394531 128.632812 -106.6875 122.625 C -105.988281 116.613281 -101.460938 108.648438 -93.109375 98.734375 Z M -52.234375 177.09375 C -51.453125 176.46875 -49.847656 175.722656 -47.421875 174.859375 C -45.003906 174.003906 -42.429688 173.378906 -39.703125 172.984375 C -36.972656 172.597656 -34.828125 173.03125 -33.265625 174.28125 C -31.703125 175.53125 -31.625 178.03125 -33.03125 181.78125 C -35.53125 188.332031 -38.144531 194.066406 -40.875 198.984375 C -43.601562 203.910156 -47.15625 209.335938 -51.53125 215.265625 C -54.34375 217.921875 -57.390625 219.363281 -60.671875 219.59375 C -63.953125 219.832031 -66.679688 218.972656 -68.859375 217.015625 C -71.046875 215.066406 -71.671875 212.378906 -70.734375 208.953125 C -67.304688 196.609375 -61.140625 185.988281 -52.234375 177.09375 Z M -52.234375 177.09375 "/></g></g><g transform="translate(1274.387403, 1592.152296)"><g><path d="M -185.515625 116.890625 C -188.015625 113.765625 -184.890625 108.0625 -176.140625 99.78125 C -167.398438 91.507812 -158.109375 84.5625 -148.265625 78.9375 C -138.429688 73.320312 -127.035156 67.703125 -114.078125 62.078125 C -105.484375 58.328125 -96.34375 57.078125 -86.65625 58.328125 C -76.976562 59.578125 -72.140625 65.429688 -72.140625 75.890625 C -72.140625 86.359375 -74.5625 96.742188 -79.40625 107.046875 C -84.25 117.671875 -85.300781 123.140625 -82.5625 123.453125 C -79.832031 123.765625 -74.175781 121.1875 -65.59375 115.71875 C -43.257812 101.039062 -22.488281 84.253906 -3.28125 65.359375 C 1.875 59.109375 8.429688 55.671875 16.390625 55.046875 C 20.453125 55.046875 23.613281 56.332031 25.875 58.90625 C 28.144531 61.488281 28.421875 64.265625 26.703125 67.234375 C 12.960938 92.679688 -0.929688 117.820312 -14.984375 142.65625 C -18.109375 147.8125 -22.796875 151.015625 -29.046875 152.265625 C -31.703125 152.734375 -34.160156 151.910156 -36.421875 149.796875 C -38.691406 147.691406 -39.828125 145.3125 -39.828125 142.65625 C -39.515625 140.15625 -38.5 137.1875 -36.78125 133.75 C -36 131.71875 -35.253906 129.765625 -34.546875 127.890625 C -33.847656 126.023438 -33.613281 124.46875 -33.84375 123.21875 C -34.082031 121.96875 -35.0625 121.578125 -36.78125 122.046875 C -39.125 123.296875 -41.460938 124.625 -43.796875 126.03125 C -49.734375 129.457031 -55.4375 132.734375 -60.90625 135.859375 C -65.75 138.671875 -70.820312 141.171875 -76.125 143.359375 C -81.4375 145.546875 -86.984375 147.03125 -92.765625 147.8125 C -102.128906 148.4375 -108.765625 146.328125 -112.671875 141.484375 C -116.578125 136.640625 -117.046875 129.925781 -114.078125 121.34375 C -110.953125 113.53125 -107.671875 105.800781 -104.234375 98.15625 C -100.023438 90.96875 -99.320312 85.5 -102.125 81.75 C -104.9375 78 -117.976562 82.296875 -141.25 94.640625 L -158.8125 104.9375 C -175.363281 115.5625 -184.265625 119.546875 -185.515625 116.890625 Z M -185.515625 116.890625 "/></g></g><g transform="translate(1102.685609, 1592.152296)"><g><path d="M -190.203125 109.15625 C -187.390625 106.65625 -184.425781 104.390625 -181.3125 102.359375 C -171.3125 96.117188 -162.289062 91.203125 -154.25 87.609375 C -146.207031 84.015625 -136.722656 80.34375 -125.796875 76.59375 C -109.546875 71.757812 -99.117188 72.851562 -94.515625 79.875 C -89.910156 86.90625 -89.171875 96.664062 -92.296875 109.15625 C -96.660156 126.957031 -99.191406 139.992188 -99.890625 148.265625 C -100.597656 156.546875 -97.867188 159.398438 -91.703125 156.828125 C -85.535156 154.253906 -74.332031 145.703125 -58.09375 131.171875 C -35.445312 111.648438 -16.082031 89.320312 0 64.1875 C 2.03125 60.75 4.53125 57.9375 7.5 55.75 C 10.46875 53.5625 14.132812 52.46875 18.5 52.46875 C 22.71875 52.46875 25.765625 53.5625 27.640625 55.75 C 29.515625 57.9375 29.59375 60.90625 27.875 64.65625 C 18.664062 84.957031 9.21875 105.101562 -0.46875 125.09375 C -17.019531 159.757812 -33.335938 194.269531 -49.421875 228.625 C -61.453125 254.394531 -73.320312 280.160156 -85.03125 305.921875 C -92.21875 321.066406 -99.242188 336.21875 -106.109375 351.375 C -106.734375 352.613281 -107.4375 353.9375 -108.21875 355.34375 C -108.84375 357.0625 -109.582031 358.78125 -110.4375 360.5 C -111.300781 362.21875 -112.28125 364.09375 -113.375 366.125 C -114.3125 367.84375 -116.066406 369.25 -118.640625 370.34375 C -121.222656 371.4375 -123.800781 372.140625 -126.375 372.453125 C -128.945312 372.765625 -130.9375 372.609375 -132.34375 371.984375 C -134.375 370.578125 -135.503906 369.09375 -135.734375 367.53125 C -135.972656 365.96875 -135.703125 364.328125 -134.921875 362.609375 C -134.609375 362.296875 -134.453125 361.75 -134.453125 360.96875 C -131.328125 351.757812 -128.050781 342.859375 -124.625 334.265625 C -104.789062 286.484375 -83.160156 239.398438 -59.734375 193.015625 C -58.015625 189.890625 -55.984375 186.144531 -53.640625 181.78125 C -50.203125 175.53125 -47 169.398438 -44.03125 163.390625 C -41.070312 157.378906 -40.097656 153.359375 -41.109375 151.328125 C -42.117188 149.296875 -46.765625 150.851562 -55.046875 156 C -57.546875 157.71875 -59.8125 159.4375 -61.84375 161.15625 C -68.394531 165.53125 -74.875 169.671875 -81.28125 173.578125 C -86.90625 177.328125 -93.148438 179.359375 -100.015625 179.671875 C -116.421875 180.765625 -125.632812 173.34375 -127.65625 157.40625 C -128.4375 151.007812 -128.203125 144.6875 -126.953125 138.4375 C -125.710938 132.1875 -124.234375 126.019531 -122.515625 119.9375 C -122.203125 118.21875 -121.890625 116.5 -121.578125 114.78125 C -118.765625 104.15625 -119.503906 98.0625 -123.796875 96.5 C -128.085938 94.945312 -134.097656 95.804688 -141.828125 99.078125 C -149.566406 102.359375 -157.414062 106.34375 -165.375 111.03125 C -170.84375 113.84375 -175.644531 116.265625 -179.78125 118.296875 C -183.914062 120.328125 -187 121.1875 -189.03125 120.875 C -192.78125 120.25 -194.5 118.722656 -194.1875 116.296875 C -193.875 113.878906 -192.546875 111.5 -190.203125 109.15625 Z M -190.203125 109.15625 "/></g></g><g transform="translate(923.95646, 1592.152296)"><g><path d="M -37.25 55.515625 L -36.546875 55.515625 C -13.898438 55.828125 1.007812 60.863281 8.1875 70.625 C 15.375 80.382812 15.066406 93.382812 7.265625 109.625 C 0.703125 121.957031 -7.570312 132.734375 -17.5625 141.953125 C -21 145.078125 -24.515625 147.578125 -28.109375 149.453125 C -31.703125 151.328125 -35.765625 152.265625 -40.296875 152.265625 C -42.941406 152.734375 -45.984375 152.265625 -49.421875 150.859375 C -50.515625 150.546875 -51.609375 150.15625 -52.703125 149.6875 C -55.359375 150.15625 -57.9375 151.015625 -60.4375 152.265625 C -61.0625 152.734375 -61.921875 153.125 -63.015625 153.4375 C -68.160156 155.457031 -73.625 156.3125 -79.40625 156 C -81.75 156 -84.171875 156 -86.671875 156 C -95.878906 154.601562 -102.828125 150.738281 -107.515625 144.40625 C -112.203125 138.082031 -113.84375 130.394531 -112.4375 121.34375 C -111.65625 115.875 -109.9375 110.71875 -107.28125 105.875 C -89.320312 73.707031 -66.445312 56.921875 -38.65625 55.515625 Z M -74.25 139.375 C -61.914062 139.84375 -50.945312 136.289062 -41.34375 128.71875 C -31.738281 121.144531 -24.59375 112.4375 -19.90625 102.59375 C -15.226562 92.757812 -13.941406 84.679688 -16.046875 78.359375 C -18.148438 72.035156 -24.671875 70.273438 -35.609375 73.078125 C -47.941406 76.828125 -58.832031 83.851562 -68.28125 94.15625 C -77.726562 104.46875 -83.503906 114.269531 -85.609375 123.5625 C -87.722656 132.851562 -83.9375 138.125 -74.25 139.375 Z M -74.25 139.375 "/></g></g></g><g fill="#ffffff" fill-opacity="1"><g transform="translate(2084.563495, 1800.953457)"><g><path d="M 37.265625 -55.546875 L 36.5625 -55.546875 C 13.90625 -55.859375 -1.015625 -60.894531 -8.203125 -70.65625 C -15.390625 -80.425781 -15.078125 -93.4375 -7.265625 -109.6875 C -0.703125 -122.03125 7.578125 -132.8125 17.578125 -142.03125 C 21.015625 -145.15625 24.53125 -147.65625 28.125 -149.53125 C 31.71875 -151.40625 35.78125 -152.34375 40.3125 -152.34375 C 42.96875 -152.8125 46.015625 -152.34375 49.453125 -150.9375 C 50.546875 -150.625 51.640625 -150.234375 52.734375 -149.765625 C 55.390625 -150.234375 57.96875 -151.09375 60.46875 -152.34375 C 61.09375 -152.8125 61.953125 -153.203125 63.046875 -153.515625 C 68.203125 -155.546875 73.671875 -156.40625 79.453125 -156.09375 C 81.796875 -156.09375 84.21875 -156.09375 86.71875 -156.09375 C 95.9375 -154.6875 102.890625 -150.816406 107.578125 -144.484375 C 112.265625 -138.160156 113.90625 -130.46875 112.5 -121.40625 C 111.71875 -115.9375 110 -110.78125 107.34375 -105.9375 C 89.375 -73.75 66.484375 -56.953125 38.671875 -55.546875 Z M 74.296875 -139.453125 C 61.953125 -139.921875 50.972656 -136.363281 41.359375 -128.78125 C 31.753906 -121.207031 24.609375 -112.5 19.921875 -102.65625 C 15.234375 -92.8125 13.941406 -84.722656 16.046875 -78.390625 C 18.160156 -72.066406 24.6875 -70.3125 35.625 -73.125 C 47.96875 -76.875 58.863281 -83.90625 68.3125 -94.21875 C 77.769531 -104.53125 83.550781 -114.332031 85.65625 -123.625 C 87.769531 -132.925781 83.984375 -138.203125 74.296875 -139.453125 Z M 74.296875 -139.453125 "/></g></g><g transform="translate(2209.016612, 1800.953457)"><g><path d="M 170.03125 -119.40625 C 173.707031 -117.300781 173.984375 -112.1875 170.859375 -104.0625 C 166.328125 -98.125 161.484375 -92.578125 156.328125 -87.421875 C 151.171875 -82.265625 145.546875 -77.65625 139.453125 -73.59375 C 138.984375 -73.59375 138.75 -73.4375 138.75 -73.125 C 134.6875 -70.3125 130.390625 -67.890625 125.859375 -65.859375 C 88.515625 -52.421875 69.453125 -60.3125 68.671875 -89.53125 C 53.515625 -76.40625 43.359375 -68.359375 38.203125 -65.390625 C 25.859375 -58.046875 12.5 -54.765625 -1.875 -55.546875 C -12.5 -56.171875 -19.722656 -59.410156 -23.546875 -65.265625 C -27.378906 -71.128906 -27.03125 -79.0625 -22.5 -89.0625 C -15.625 -104.84375 -5.859375 -118.90625 6.796875 -131.25 C 21.640625 -145 38.125 -156.015625 56.25 -164.296875 C 65.9375 -169.140625 76.09375 -171.015625 86.71875 -169.921875 C 97.34375 -169.296875 103.75 -163.28125 105.9375 -151.875 C 106.875 -148.4375 106.015625 -145.390625 103.359375 -142.734375 C 99.921875 -139.609375 95.9375 -138.90625 91.40625 -140.625 C 91.09375 -140.625 90.660156 -140.703125 90.109375 -140.859375 C 89.566406 -141.015625 89.140625 -141.25 88.828125 -141.5625 C 84.296875 -147.8125 79.722656 -150.425781 75.109375 -149.40625 C 70.503906 -148.394531 65.625 -146.328125 60.46875 -143.203125 C 36.40625 -129.140625 18.515625 -109.53125 6.796875 -84.375 C 6.171875 -83.28125 5.78125 -82.066406 5.625 -80.734375 C 5.46875 -79.410156 5.859375 -78.359375 6.796875 -77.578125 C 9.609375 -76.640625 12.734375 -76.832031 16.171875 -78.15625 C 19.609375 -79.488281 23.046875 -81.441406 26.484375 -84.015625 C 29.921875 -86.597656 32.8125 -88.75 35.15625 -90.46875 C 35.46875 -90.9375 35.625 -91.171875 35.625 -91.171875 C 47.03125 -100.703125 58.203125 -110.46875 69.140625 -120.46875 C 73.984375 -125.625 80 -128.515625 87.1875 -129.140625 C 97.5 -129.140625 101.796875 -124.53125 100.078125 -115.3125 C 99.140625 -111.875 98.125 -108.4375 97.03125 -105 C 92.96875 -90.15625 92.8125 -81.441406 96.5625 -78.859375 C 100.3125 -76.285156 106.050781 -76.285156 113.78125 -78.859375 C 121.519531 -81.441406 129.253906 -86.363281 136.984375 -93.625 C 144.722656 -100.894531 151.25 -107.535156 156.5625 -113.546875 C 161.875 -119.566406 166.363281 -121.519531 170.03125 -119.40625 Z M 170.03125 -119.40625 "/></g></g><g transform="translate(2364.40723, 1800.953457)"><g><path d="M 112.5 -143.90625 C 111.09375 -133.125 106.015625 -126.09375 97.265625 -122.8125 C 88.515625 -119.53125 85.660156 -123.828125 88.703125 -135.703125 C 91.753906 -147.578125 86.40625 -150.582031 72.65625 -144.71875 C 58.90625 -138.863281 47.578125 -131.484375 38.671875 -122.578125 C 24.921875 -108.515625 12.734375 -93.359375 2.109375 -77.109375 C 1.015625 -75.703125 0.15625 -74.53125 -0.46875 -73.59375 C -3.59375 -69.0625 -6.71875 -64.765625 -9.84375 -60.703125 C -11.875 -57.890625 -14.253906 -56.128906 -16.984375 -55.421875 C -19.722656 -54.722656 -22.5 -54.609375 -25.3125 -55.078125 C -27.96875 -55.390625 -30 -56.40625 -31.40625 -58.125 C -32.8125 -59.84375 -32.96875 -61.875 -31.875 -64.21875 C -30.15625 -68.4375 -28.125 -72.734375 -25.78125 -77.109375 C -11.71875 -103.203125 2.578125 -129.375 17.109375 -155.625 C 17.421875 -155.9375 17.578125 -156.25 17.578125 -156.5625 C 19.609375 -160.625 22.03125 -164.375 24.84375 -167.8125 C 27.96875 -171.25 31.5625 -172.65625 35.625 -172.03125 C 39.6875 -171.40625 42.421875 -168.984375 43.828125 -164.765625 C 45.546875 -159.296875 47.03125 -156.207031 48.28125 -155.5 C 49.53125 -154.800781 52.34375 -155.3125 56.71875 -157.03125 C 66.09375 -160.46875 75.234375 -162.890625 84.140625 -164.296875 C 93.046875 -165.703125 100.347656 -165.347656 106.046875 -163.234375 C 111.753906 -161.128906 113.90625 -154.6875 112.5 -143.90625 Z M 112.5 -143.90625 "/></g></g><g transform="translate(2481.594726, 1800.953457)"><g><path d="M 93.15625 -98.78125 C 84.800781 -88.863281 74.921875 -79.765625 63.515625 -71.484375 C 52.109375 -63.203125 39.21875 -57.613281 24.84375 -54.71875 C 10.46875 -51.832031 -0.703125 -52.890625 -8.671875 -57.890625 C -16.640625 -62.890625 -18.203125 -73.984375 -13.359375 -91.171875 C -7.109375 -108.984375 1.484375 -125.9375 12.421875 -142.03125 C 14.921875 -145.46875 18.515625 -147.890625 23.203125 -149.296875 C 26.640625 -150.078125 29.644531 -149.488281 32.21875 -147.53125 C 34.800781 -145.582031 35.78125 -143.125 35.15625 -140.15625 C 32.8125 -134.53125 30.234375 -128.90625 27.421875 -123.28125 C 24.609375 -117.65625 22.734375 -113.984375 21.796875 -112.265625 C 16.328125 -102.265625 12.5 -91.796875 10.3125 -80.859375 C 10.3125 -74.609375 18.671875 -74.21875 35.390625 -79.6875 C 52.109375 -85.15625 68.359375 -95.191406 84.140625 -109.796875 C 99.921875 -124.410156 107.457031 -128.707031 106.75 -122.6875 C 106.050781 -116.675781 101.519531 -108.707031 93.15625 -98.78125 Z M 52.265625 -177.1875 C 51.484375 -176.5625 49.878906 -175.816406 47.453125 -174.953125 C 45.035156 -174.097656 42.457031 -173.472656 39.71875 -173.078125 C 36.988281 -172.691406 34.84375 -173.125 33.28125 -174.375 C 31.71875 -175.625 31.640625 -178.125 33.046875 -181.875 C 35.546875 -188.4375 38.160156 -194.175781 40.890625 -199.09375 C 43.628906 -204.019531 47.1875 -209.453125 51.5625 -215.390625 C 54.375 -218.046875 57.421875 -219.488281 60.703125 -219.71875 C 63.984375 -219.957031 66.71875 -219.097656 68.90625 -217.140625 C 71.09375 -215.191406 71.71875 -212.5 70.78125 -209.0625 C 67.34375 -196.71875 61.171875 -186.09375 52.265625 -177.1875 Z M 52.265625 -177.1875 "/></g></g><g transform="translate(2573.000973, 1800.953457)"><g><path d="M 185.625 -116.953125 C 188.125 -113.828125 185 -108.125 176.25 -99.84375 C 167.5 -91.5625 158.203125 -84.609375 148.359375 -78.984375 C 138.515625 -73.359375 127.109375 -67.734375 114.140625 -62.109375 C 105.546875 -58.359375 96.40625 -57.109375 86.71875 -58.359375 C 77.03125 -59.609375 72.1875 -65.46875 72.1875 -75.9375 C 72.1875 -86.40625 74.609375 -96.796875 79.453125 -107.109375 C 84.296875 -117.734375 85.347656 -123.203125 82.609375 -123.515625 C 79.878906 -123.828125 74.21875 -121.25 65.625 -115.78125 C 43.28125 -101.09375 22.5 -84.296875 3.28125 -65.390625 C -1.875 -59.140625 -8.4375 -55.703125 -16.40625 -55.078125 C -20.46875 -55.078125 -23.628906 -56.363281 -25.890625 -58.9375 C -28.160156 -61.519531 -28.4375 -64.296875 -26.71875 -67.265625 C -12.96875 -92.734375 0.9375 -117.890625 15 -142.734375 C 18.125 -147.890625 22.8125 -151.09375 29.0625 -152.34375 C 31.71875 -152.8125 34.175781 -151.988281 36.4375 -149.875 C 38.707031 -147.769531 39.84375 -145.390625 39.84375 -142.734375 C 39.53125 -140.234375 38.515625 -137.265625 36.796875 -133.828125 C 36.015625 -131.796875 35.269531 -129.84375 34.5625 -127.96875 C 33.863281 -126.09375 33.628906 -124.53125 33.859375 -123.28125 C 34.097656 -122.03125 35.078125 -121.640625 36.796875 -122.109375 C 39.140625 -123.359375 41.484375 -124.6875 43.828125 -126.09375 C 49.765625 -129.53125 55.46875 -132.8125 60.9375 -135.9375 C 65.78125 -138.75 70.859375 -141.25 76.171875 -143.4375 C 81.484375 -145.625 87.03125 -147.109375 92.8125 -147.890625 C 102.1875 -148.515625 108.828125 -146.40625 112.734375 -141.5625 C 116.640625 -136.71875 117.109375 -130 114.140625 -121.40625 C 111.015625 -113.59375 107.734375 -105.859375 104.296875 -98.203125 C 100.078125 -91.015625 99.375 -85.546875 102.1875 -81.796875 C 105 -78.046875 118.046875 -82.34375 141.328125 -94.6875 L 158.90625 -105 C 175.46875 -115.625 184.375 -119.609375 185.625 -116.953125 Z M 185.625 -116.953125 "/></g></g><g transform="translate(2744.797841, 1800.953457)"><g><path d="M 190.3125 -109.21875 C 187.5 -106.71875 184.53125 -104.453125 181.40625 -102.421875 C 171.40625 -96.171875 162.378906 -91.25 154.328125 -87.65625 C 146.285156 -84.0625 136.796875 -80.390625 125.859375 -76.640625 C 109.609375 -71.796875 99.175781 -72.890625 94.5625 -79.921875 C 89.957031 -86.953125 89.21875 -96.71875 92.34375 -109.21875 C 96.71875 -127.03125 99.253906 -140.078125 99.953125 -148.359375 C 100.660156 -156.640625 97.925781 -159.488281 91.75 -156.90625 C 85.582031 -154.332031 74.375 -145.78125 58.125 -131.25 C 35.46875 -111.71875 16.09375 -89.375 0 -64.21875 C -2.03125 -60.78125 -4.53125 -57.96875 -7.5 -55.78125 C -10.46875 -53.59375 -14.140625 -52.5 -18.515625 -52.5 C -22.734375 -52.5 -25.78125 -53.59375 -27.65625 -55.78125 C -29.53125 -57.96875 -29.609375 -60.9375 -27.890625 -64.6875 C -18.671875 -85 -9.21875 -105.15625 0.46875 -125.15625 C 17.03125 -159.84375 33.359375 -194.375 49.453125 -228.75 C 61.484375 -254.53125 73.359375 -280.3125 85.078125 -306.09375 C 92.265625 -321.25 99.296875 -336.40625 106.171875 -351.5625 C 106.796875 -352.8125 107.5 -354.140625 108.28125 -355.546875 C 108.90625 -357.265625 109.644531 -358.984375 110.5 -360.703125 C 111.363281 -362.421875 112.34375 -364.296875 113.4375 -366.328125 C 114.375 -368.046875 116.128906 -369.453125 118.703125 -370.546875 C 121.285156 -371.640625 123.863281 -372.34375 126.4375 -372.65625 C 129.019531 -372.96875 131.015625 -372.8125 132.421875 -372.1875 C 134.453125 -370.78125 135.582031 -369.296875 135.8125 -367.734375 C 136.050781 -366.171875 135.78125 -364.53125 135 -362.8125 C 134.6875 -362.5 134.53125 -361.953125 134.53125 -361.171875 C 131.40625 -351.953125 128.125 -343.046875 124.6875 -334.453125 C 104.84375 -286.640625 83.203125 -239.53125 59.765625 -193.125 C 58.046875 -190 56.015625 -186.25 53.671875 -181.875 C 50.234375 -175.625 47.03125 -169.488281 44.0625 -163.46875 C 41.09375 -157.457031 40.113281 -153.4375 41.125 -151.40625 C 42.144531 -149.375 46.796875 -150.9375 55.078125 -156.09375 C 57.578125 -157.8125 59.84375 -159.53125 61.875 -161.25 C 68.4375 -165.625 74.921875 -169.765625 81.328125 -173.671875 C 86.953125 -177.421875 93.203125 -179.453125 100.078125 -179.765625 C 116.484375 -180.859375 125.703125 -173.4375 127.734375 -157.5 C 128.515625 -151.09375 128.28125 -144.765625 127.03125 -138.515625 C 125.78125 -132.265625 124.296875 -126.09375 122.578125 -120 C 122.265625 -118.28125 121.953125 -116.5625 121.640625 -114.84375 C 118.828125 -104.21875 119.566406 -98.125 123.859375 -96.5625 C 128.160156 -95 134.175781 -95.859375 141.90625 -99.140625 C 149.644531 -102.421875 157.5 -106.40625 165.46875 -111.09375 C 170.9375 -113.90625 175.738281 -116.328125 179.875 -118.359375 C 184.019531 -120.390625 187.109375 -121.25 189.140625 -120.9375 C 192.890625 -120.3125 194.609375 -118.785156 194.296875 -116.359375 C 193.984375 -113.941406 192.65625 -111.5625 190.3125 -109.21875 Z M 190.3125 -109.21875 "/></g></g><g transform="translate(2923.625955, 1800.953457)"><g><path d="M 37.265625 -55.546875 L 36.5625 -55.546875 C 13.90625 -55.859375 -1.015625 -60.894531 -8.203125 -70.65625 C -15.390625 -80.425781 -15.078125 -93.4375 -7.265625 -109.6875 C -0.703125 -122.03125 7.578125 -132.8125 17.578125 -142.03125 C 21.015625 -145.15625 24.53125 -147.65625 28.125 -149.53125 C 31.71875 -151.40625 35.78125 -152.34375 40.3125 -152.34375 C 42.96875 -152.8125 46.015625 -152.34375 49.453125 -150.9375 C 50.546875 -150.625 51.640625 -150.234375 52.734375 -149.765625 C 55.390625 -150.234375 57.96875 -151.09375 60.46875 -152.34375 C 61.09375 -152.8125 61.953125 -153.203125 63.046875 -153.515625 C 68.203125 -155.546875 73.671875 -156.40625 79.453125 -156.09375 C 81.796875 -156.09375 84.21875 -156.09375 86.71875 -156.09375 C 95.9375 -154.6875 102.890625 -150.816406 107.578125 -144.484375 C 112.265625 -138.160156 113.90625 -130.46875 112.5 -121.40625 C 111.71875 -115.9375 110 -110.78125 107.34375 -105.9375 C 89.375 -73.75 66.484375 -56.953125 38.671875 -55.546875 Z M 74.296875 -139.453125 C 61.953125 -139.921875 50.972656 -136.363281 41.359375 -128.78125 C 31.753906 -121.207031 24.609375 -112.5 19.921875 -102.65625 C 15.234375 -92.8125 13.941406 -84.722656 16.046875 -78.390625 C 18.160156 -72.066406 24.6875 -70.3125 35.625 -73.125 C 47.96875 -76.875 58.863281 -83.90625 68.3125 -94.21875 C 77.769531 -104.53125 83.550781 -114.332031 85.65625 -123.625 C 87.769531 -132.925781 83.984375 -138.203125 74.296875 -139.453125 Z M 74.296875 -139.453125 "/></g></g></g></svg>