<svg xmlns="http://www.w3.org/2000/svg" xmlns:xlink="http://www.w3.org/1999/xlink" width="500" zoomAndPan="magnify" viewBox="0 0 375 374.999991" height="500" preserveAspectRatio="xMidYMid meet" version="1.0"><defs><g/><clipPath id="e7ba0d0712"><path d="M 79.957031 114.109375 L 292 114.109375 L 292 326.359375 L 79.957031 326.359375 Z M 79.957031 114.109375 " clip-rule="nonzero"/></clipPath><clipPath id="ef5259eac3"><path d="M 113.855469 113.835938 L 257.230469 113.835938 C 258.351562 113.835938 259.46875 113.890625 260.582031 114.003906 C 261.699219 114.113281 262.804688 114.277344 263.90625 114.492188 C 265.003906 114.710938 266.089844 114.984375 267.160156 115.308594 C 268.234375 115.632812 269.289062 116.007812 270.324219 116.4375 C 271.359375 116.867188 272.371094 117.34375 273.359375 117.871094 C 274.347656 118.398438 275.304688 118.972656 276.238281 119.59375 C 277.167969 120.214844 278.070312 120.882812 278.933594 121.589844 C 279.800781 122.300781 280.628906 123.050781 281.421875 123.84375 C 282.214844 124.632812 282.964844 125.460938 283.675781 126.328125 C 284.386719 127.191406 285.054688 128.089844 285.675781 129.019531 C 286.300781 129.949219 286.875 130.90625 287.402344 131.894531 C 287.933594 132.878906 288.410156 133.890625 288.839844 134.925781 C 289.269531 135.957031 289.644531 137.011719 289.96875 138.082031 C 290.296875 139.152344 290.566406 140.234375 290.785156 141.332031 C 291.003906 142.429688 291.167969 143.535156 291.277344 144.648438 C 291.386719 145.761719 291.445312 146.878906 291.445312 147.996094 L 291.445312 292.015625 C 291.445312 293.136719 291.386719 294.25 291.277344 295.363281 C 291.167969 296.476562 291.003906 297.582031 290.785156 298.679688 C 290.566406 299.777344 290.296875 300.863281 289.96875 301.933594 C 289.644531 303.003906 289.269531 304.054688 288.839844 305.089844 C 288.410156 306.121094 287.933594 307.132812 287.402344 308.117188 C 286.875 309.105469 286.300781 310.0625 285.675781 310.996094 C 285.054688 311.925781 284.386719 312.820312 283.675781 313.6875 C 282.964844 314.550781 282.214844 315.378906 281.421875 316.171875 C 280.628906 316.960938 279.800781 317.710938 278.933594 318.421875 C 278.070312 319.132812 277.167969 319.796875 276.238281 320.417969 C 275.304688 321.039062 274.347656 321.613281 273.359375 322.140625 C 272.371094 322.667969 271.359375 323.148438 270.324219 323.574219 C 269.289062 324.003906 268.234375 324.378906 267.160156 324.703125 C 266.089844 325.027344 265.003906 325.300781 263.90625 325.519531 C 262.804688 325.738281 261.699219 325.902344 260.582031 326.011719 C 259.46875 326.121094 258.351562 326.175781 257.230469 326.175781 L 113.855469 326.175781 C 112.734375 326.175781 111.617188 326.121094 110.5 326.011719 C 109.386719 325.902344 108.28125 325.738281 107.179688 325.519531 C 106.082031 325.300781 104.996094 325.03125 103.921875 324.703125 C 102.851562 324.378906 101.796875 324.003906 100.761719 323.574219 C 99.726562 323.148438 98.714844 322.667969 97.726562 322.140625 C 96.738281 321.613281 95.777344 321.039062 94.847656 320.417969 C 93.914062 319.796875 93.015625 319.132812 92.148438 318.421875 C 91.285156 317.710938 90.453125 316.960938 89.664062 316.171875 C 88.871094 315.378906 88.117188 314.550781 87.40625 313.6875 C 86.695312 312.820312 86.03125 311.925781 85.40625 310.996094 C 84.785156 310.0625 84.210938 309.105469 83.679688 308.117188 C 83.152344 307.132812 82.675781 306.121094 82.246094 305.089844 C 81.816406 304.054688 81.441406 303.003906 81.113281 301.933594 C 80.789062 300.863281 80.515625 299.777344 80.300781 298.679688 C 80.082031 297.582031 79.917969 296.476562 79.804688 295.363281 C 79.695312 294.25 79.640625 293.136719 79.640625 292.015625 L 79.640625 147.996094 C 79.640625 146.878906 79.695312 145.761719 79.804688 144.648438 C 79.917969 143.535156 80.082031 142.429688 80.300781 141.332031 C 80.515625 140.234375 80.789062 139.152344 81.113281 138.082031 C 81.441406 137.011719 81.816406 135.957031 82.246094 134.925781 C 82.675781 133.890625 83.152344 132.878906 83.679688 131.894531 C 84.210938 130.90625 84.785156 129.949219 85.40625 129.019531 C 86.03125 128.089844 86.695312 127.191406 87.40625 126.328125 C 88.117188 125.460938 88.871094 124.632812 89.664062 123.84375 C 90.453125 123.050781 91.285156 122.300781 92.148438 121.589844 C 93.015625 120.882812 93.914062 120.214844 94.847656 119.59375 C 95.777344 118.972656 96.738281 118.398438 97.726562 117.871094 C 98.714844 117.34375 99.726562 116.867188 100.761719 116.4375 C 101.796875 116.007812 102.851562 115.632812 103.921875 115.308594 C 104.996094 114.984375 106.082031 114.710938 107.179688 114.492188 C 108.28125 114.277344 109.386719 114.113281 110.5 114.003906 C 111.617188 113.890625 112.734375 113.835938 113.855469 113.835938 Z M 113.855469 113.835938 " clip-rule="nonzero"/></clipPath><linearGradient x1="255.753641" gradientTransform="matrix(1.654444, 0, 0, 1.651793, -342.638777, -588.719646)" y1="554.19634" x2="382.744498" gradientUnits="userSpaceOnUse" y2="424.986849" id="7ac472732d"><stop stop-opacity="1" stop-color="rgb(0%, 0%, 0%)" offset="0"/><stop stop-opacity="1" stop-color="rgb(0.105286%, 0.105286%, 0.105286%)" offset="0.0625"/><stop stop-opacity="1" stop-color="rgb(0.309753%, 0.309753%, 0.309753%)" offset="0.0703125"/><stop stop-opacity="1" stop-color="rgb(0.506592%, 0.506592%, 0.506592%)" offset="0.078125"/><stop stop-opacity="1" stop-color="rgb(0.70343%, 0.70343%, 0.70343%)" offset="0.0859375"/><stop stop-opacity="1" stop-color="rgb(0.901794%, 0.901794%, 0.901794%)" offset="0.09375"/><stop stop-opacity="1" stop-color="rgb(1.098633%, 1.098633%, 1.098633%)" offset="0.101562"/><stop stop-opacity="1" stop-color="rgb(1.295471%, 1.295471%, 1.295471%)" offset="0.109375"/><stop stop-opacity="1" stop-color="rgb(1.49231%, 1.49231%, 1.49231%)" offset="0.117187"/><stop stop-opacity="1" stop-color="rgb(1.689148%, 1.689148%, 1.689148%)" offset="0.125"/><stop stop-opacity="1" stop-color="rgb(1.885986%, 1.885986%, 1.885986%)" offset="0.132812"/><stop stop-opacity="1" stop-color="rgb(2.082825%, 2.082825%, 2.082825%)" offset="0.140625"/><stop stop-opacity="1" stop-color="rgb(2.281189%, 2.281189%, 2.281189%)" offset="0.148438"/><stop stop-opacity="1" stop-color="rgb(2.478027%, 2.478027%, 2.478027%)" offset="0.15625"/><stop stop-opacity="1" stop-color="rgb(2.674866%, 2.674866%, 2.674866%)" offset="0.164062"/><stop stop-opacity="1" stop-color="rgb(2.871704%, 2.871704%, 2.871704%)" offset="0.171875"/><stop stop-opacity="1" stop-color="rgb(3.068542%, 3.068542%, 3.068542%)" offset="0.179688"/><stop stop-opacity="1" stop-color="rgb(3.265381%, 3.265381%, 3.265381%)" offset="0.1875"/><stop stop-opacity="1" stop-color="rgb(3.463745%, 3.463745%, 3.463745%)" offset="0.195312"/><stop stop-opacity="1" stop-color="rgb(3.660583%, 3.660583%, 3.660583%)" offset="0.203125"/><stop stop-opacity="1" stop-color="rgb(3.857422%, 3.857422%, 3.857422%)" offset="0.210938"/><stop stop-opacity="1" stop-color="rgb(4.05426%, 4.05426%, 4.05426%)" offset="0.21875"/><stop stop-opacity="1" stop-color="rgb(4.251099%, 4.251099%, 4.251099%)" offset="0.226562"/><stop stop-opacity="1" stop-color="rgb(4.447937%, 4.447937%, 4.447937%)" offset="0.234375"/><stop stop-opacity="1" stop-color="rgb(4.646301%, 4.646301%, 4.646301%)" offset="0.242187"/><stop stop-opacity="1" stop-color="rgb(4.84314%, 4.84314%, 4.84314%)" offset="0.25"/><stop stop-opacity="1" stop-color="rgb(5.039978%, 5.039978%, 5.039978%)" offset="0.257812"/><stop stop-opacity="1" stop-color="rgb(5.236816%, 5.236816%, 5.236816%)" offset="0.265625"/><stop stop-opacity="1" stop-color="rgb(5.433655%, 5.433655%, 5.433655%)" offset="0.273437"/><stop stop-opacity="1" stop-color="rgb(5.630493%, 5.630493%, 5.630493%)" offset="0.28125"/><stop stop-opacity="1" stop-color="rgb(5.828857%, 5.828857%, 5.828857%)" offset="0.289062"/><stop stop-opacity="1" stop-color="rgb(6.025696%, 6.025696%, 6.025696%)" offset="0.296875"/><stop stop-opacity="1" stop-color="rgb(6.222534%, 6.222534%, 6.222534%)" offset="0.304688"/><stop stop-opacity="1" stop-color="rgb(6.419373%, 6.419373%, 6.419373%)" offset="0.3125"/><stop stop-opacity="1" stop-color="rgb(6.616211%, 6.616211%, 6.616211%)" offset="0.320312"/><stop stop-opacity="1" stop-color="rgb(6.813049%, 6.813049%, 6.813049%)" offset="0.328125"/><stop stop-opacity="1" stop-color="rgb(7.011414%, 7.011414%, 7.011414%)" offset="0.335938"/><stop stop-opacity="1" stop-color="rgb(7.208252%, 7.208252%, 7.208252%)" offset="0.34375"/><stop stop-opacity="1" stop-color="rgb(7.40509%, 7.40509%, 7.40509%)" offset="0.351562"/><stop stop-opacity="1" stop-color="rgb(7.601929%, 7.601929%, 7.601929%)" offset="0.359375"/><stop stop-opacity="1" stop-color="rgb(7.798767%, 7.798767%, 7.798767%)" offset="0.367188"/><stop stop-opacity="1" stop-color="rgb(7.995605%, 7.995605%, 7.995605%)" offset="0.375"/><stop stop-opacity="1" stop-color="rgb(8.19397%, 8.19397%, 8.19397%)" offset="0.382812"/><stop stop-opacity="1" stop-color="rgb(8.390808%, 8.390808%, 8.390808%)" offset="0.390625"/><stop stop-opacity="1" stop-color="rgb(8.587646%, 8.587646%, 8.587646%)" offset="0.398438"/><stop stop-opacity="1" stop-color="rgb(8.784485%, 8.784485%, 8.784485%)" offset="0.40625"/><stop stop-opacity="1" stop-color="rgb(8.981323%, 8.981323%, 8.981323%)" offset="0.414062"/><stop stop-opacity="1" stop-color="rgb(9.178162%, 9.178162%, 9.178162%)" offset="0.421875"/><stop stop-opacity="1" stop-color="rgb(9.375%, 9.375%, 9.375%)" offset="0.429687"/><stop stop-opacity="1" stop-color="rgb(9.573364%, 9.573364%, 9.573364%)" offset="0.4375"/><stop stop-opacity="1" stop-color="rgb(9.770203%, 9.770203%, 9.770203%)" offset="0.445312"/><stop stop-opacity="1" stop-color="rgb(9.967041%, 9.967041%, 9.967041%)" offset="0.453125"/><stop stop-opacity="1" stop-color="rgb(10.163879%, 10.163879%, 10.163879%)" offset="0.460938"/><stop stop-opacity="1" stop-color="rgb(10.360718%, 10.360718%, 10.360718%)" offset="0.46875"/><stop stop-opacity="1" stop-color="rgb(10.557556%, 10.557556%, 10.557556%)" offset="0.476562"/><stop stop-opacity="1" stop-color="rgb(10.75592%, 10.75592%, 10.75592%)" offset="0.484375"/><stop stop-opacity="1" stop-color="rgb(10.952759%, 10.952759%, 10.952759%)" offset="0.492187"/><stop stop-opacity="1" stop-color="rgb(11.149597%, 11.149597%, 11.149597%)" offset="0.494581"/><stop stop-opacity="1" stop-color="rgb(11.248779%, 11.248779%, 11.248779%)" offset="0.5"/><stop stop-opacity="1" stop-color="rgb(11.346436%, 11.346436%, 11.346436%)" offset="0.505419"/><stop stop-opacity="1" stop-color="rgb(11.445618%, 11.445618%, 11.445618%)" offset="0.507812"/><stop stop-opacity="1" stop-color="rgb(11.543274%, 11.543274%, 11.543274%)" offset="0.515625"/><stop stop-opacity="1" stop-color="rgb(11.740112%, 11.740112%, 11.740112%)" offset="0.523438"/><stop stop-opacity="1" stop-color="rgb(11.938477%, 11.938477%, 11.938477%)" offset="0.53125"/><stop stop-opacity="1" stop-color="rgb(12.135315%, 12.135315%, 12.135315%)" offset="0.539062"/><stop stop-opacity="1" stop-color="rgb(12.332153%, 12.332153%, 12.332153%)" offset="0.546875"/><stop stop-opacity="1" stop-color="rgb(12.528992%, 12.528992%, 12.528992%)" offset="0.554688"/><stop stop-opacity="1" stop-color="rgb(12.72583%, 12.72583%, 12.72583%)" offset="0.5625"/><stop stop-opacity="1" stop-color="rgb(12.922668%, 12.922668%, 12.922668%)" offset="0.570312"/><stop stop-opacity="1" stop-color="rgb(13.121033%, 13.121033%, 13.121033%)" offset="0.578125"/><stop stop-opacity="1" stop-color="rgb(13.317871%, 13.317871%, 13.317871%)" offset="0.585938"/><stop stop-opacity="1" stop-color="rgb(13.514709%, 13.514709%, 13.514709%)" offset="0.59375"/><stop stop-opacity="1" stop-color="rgb(13.711548%, 13.711548%, 13.711548%)" offset="0.601562"/><stop stop-opacity="1" stop-color="rgb(13.908386%, 13.908386%, 13.908386%)" offset="0.609375"/><stop stop-opacity="1" stop-color="rgb(14.105225%, 14.105225%, 14.105225%)" offset="0.617188"/><stop stop-opacity="1" stop-color="rgb(14.303589%, 14.303589%, 14.303589%)" offset="0.625"/><stop stop-opacity="1" stop-color="rgb(14.500427%, 14.500427%, 14.500427%)" offset="0.632812"/><stop stop-opacity="1" stop-color="rgb(14.697266%, 14.697266%, 14.697266%)" offset="0.640625"/><stop stop-opacity="1" stop-color="rgb(14.894104%, 14.894104%, 14.894104%)" offset="0.648437"/><stop stop-opacity="1" stop-color="rgb(15.090942%, 15.090942%, 15.090942%)" offset="0.65625"/><stop stop-opacity="1" stop-color="rgb(15.287781%, 15.287781%, 15.287781%)" offset="0.664062"/><stop stop-opacity="1" stop-color="rgb(15.486145%, 15.486145%, 15.486145%)" offset="0.671875"/><stop stop-opacity="1" stop-color="rgb(15.682983%, 15.682983%, 15.682983%)" offset="0.679687"/><stop stop-opacity="1" stop-color="rgb(15.879822%, 15.879822%, 15.879822%)" offset="0.6875"/><stop stop-opacity="1" stop-color="rgb(16.07666%, 16.07666%, 16.07666%)" offset="0.695312"/><stop stop-opacity="1" stop-color="rgb(16.273499%, 16.273499%, 16.273499%)" offset="0.703125"/><stop stop-opacity="1" stop-color="rgb(16.470337%, 16.470337%, 16.470337%)" offset="0.710938"/><stop stop-opacity="1" stop-color="rgb(16.667175%, 16.667175%, 16.667175%)" offset="0.71875"/><stop stop-opacity="1" stop-color="rgb(16.86554%, 16.86554%, 16.86554%)" offset="0.726562"/><stop stop-opacity="1" stop-color="rgb(17.062378%, 17.062378%, 17.062378%)" offset="0.734375"/><stop stop-opacity="1" stop-color="rgb(17.259216%, 17.259216%, 17.259216%)" offset="0.742188"/><stop stop-opacity="1" stop-color="rgb(17.456055%, 17.456055%, 17.456055%)" offset="0.75"/><stop stop-opacity="1" stop-color="rgb(17.652893%, 17.652893%, 17.652893%)" offset="0.757812"/><stop stop-opacity="1" stop-color="rgb(17.849731%, 17.849731%, 17.849731%)" offset="0.765625"/><stop stop-opacity="1" stop-color="rgb(18.048096%, 18.048096%, 18.048096%)" offset="0.773438"/><stop stop-opacity="1" stop-color="rgb(18.244934%, 18.244934%, 18.244934%)" offset="0.78125"/><stop stop-opacity="1" stop-color="rgb(18.441772%, 18.441772%, 18.441772%)" offset="0.789062"/><stop stop-opacity="1" stop-color="rgb(18.638611%, 18.638611%, 18.638611%)" offset="0.796875"/><stop stop-opacity="1" stop-color="rgb(18.835449%, 18.835449%, 18.835449%)" offset="0.804687"/><stop stop-opacity="1" stop-color="rgb(19.032288%, 19.032288%, 19.032288%)" offset="0.8125"/><stop stop-opacity="1" stop-color="rgb(19.230652%, 19.230652%, 19.230652%)" offset="0.820312"/><stop stop-opacity="1" stop-color="rgb(19.42749%, 19.42749%, 19.42749%)" offset="0.828125"/><stop stop-opacity="1" stop-color="rgb(19.624329%, 19.624329%, 19.624329%)" offset="0.835938"/><stop stop-opacity="1" stop-color="rgb(19.821167%, 19.821167%, 19.821167%)" offset="0.84375"/><stop stop-opacity="1" stop-color="rgb(20.018005%, 20.018005%, 20.018005%)" offset="0.851562"/><stop stop-opacity="1" stop-color="rgb(20.214844%, 20.214844%, 20.214844%)" offset="0.859375"/><stop stop-opacity="1" stop-color="rgb(20.413208%, 20.413208%, 20.413208%)" offset="0.867188"/><stop stop-opacity="1" stop-color="rgb(20.610046%, 20.610046%, 20.610046%)" offset="0.875"/><stop stop-opacity="1" stop-color="rgb(20.806885%, 20.806885%, 20.806885%)" offset="0.882812"/><stop stop-opacity="1" stop-color="rgb(21.003723%, 21.003723%, 21.003723%)" offset="0.890625"/><stop stop-opacity="1" stop-color="rgb(21.200562%, 21.200562%, 21.200562%)" offset="0.898438"/><stop stop-opacity="1" stop-color="rgb(21.3974%, 21.3974%, 21.3974%)" offset="0.90625"/><stop stop-opacity="1" stop-color="rgb(21.595764%, 21.595764%, 21.595764%)" offset="0.914062"/><stop stop-opacity="1" stop-color="rgb(21.792603%, 21.792603%, 21.792603%)" offset="0.921875"/><stop stop-opacity="1" stop-color="rgb(21.989441%, 21.989441%, 21.989441%)" offset="0.929688"/><stop stop-opacity="1" stop-color="rgb(22.186279%, 22.186279%, 22.186279%)" offset="0.9375"/><stop stop-opacity="1" stop-color="rgb(22.341919%, 22.341919%, 22.341919%)" offset="1"/></linearGradient></defs><g clip-path="url(#e7ba0d0712)"><g clip-path="url(#ef5259eac3)"><path fill="url(#7ac472732d)" d="M 79.957031 114.109375 L 79.957031 326.175781 L 291.445312 326.175781 L 291.445312 114.109375 Z M 79.957031 114.109375 " fill-rule="nonzero"/></g></g><path fill="#ffffff" d="M 187.128906 205.230469 C 192.539062 205.230469 196.640625 204.074219 199.433594 201.707031 C 202.230469 199.339844 203.625 195.894531 203.625 191.3125 C 203.625 186.789062 202.230469 183.355469 199.433594 181.007812 C 196.621094 178.597656 192.539062 177.394531 187.128906 177.394531 L 168.136719 177.394531 L 168.136719 205.234375 L 187.128906 205.234375 M 188.289062 262.761719 C 195.183594 262.761719 200.355469 261.324219 203.800781 258.445312 C 207.308594 255.566406 209.0625 251.21875 209.0625 245.40625 C 209.0625 239.707031 207.339844 235.449219 203.890625 232.632812 C 200.445312 229.753906 195.246094 228.316406 188.289062 228.316406 L 168.140625 228.316406 L 168.140625 262.761719 L 188.289062 262.761719 M 220.210938 215.457031 C 227.582031 217.570312 233.285156 221.476562 237.328125 227.171875 C 241.371094 232.867188 243.390625 239.859375 243.390625 248.140625 C 243.390625 260.824219 239.050781 270.28125 230.375 276.507812 C 221.695312 282.734375 208.503906 285.84375 190.789062 285.84375 L 133.816406 285.84375 L 133.816406 154.347656 L 185.351562 154.347656 C 203.835938 154.347656 217.210938 157.105469 225.472656 162.625 C 233.792969 168.148438 237.957031 176.988281 237.957031 189.144531 C 237.957031 195.546875 236.441406 201.007812 233.410156 205.53125 C 230.378906 209.992188 225.964844 213.292969 220.214844 215.484375 " fill-opacity="1" fill-rule="nonzero"/><g fill="#000000" fill-opacity="1"><g transform="translate(33.636781, 85.921518)"><g><path d="M 19.359375 -33.84375 C 21.898438 -33.84375 24.113281 -33.492188 26 -32.796875 C 27.882812 -32.109375 29.335938 -31.117188 30.359375 -29.828125 C 31.390625 -28.546875 31.90625 -27.035156 31.90625 -25.296875 C 31.90625 -23.523438 31.382812 -21.976562 30.34375 -20.65625 C 29.300781 -19.34375 27.878906 -18.441406 26.078125 -17.953125 C 28.234375 -17.535156 29.929688 -16.554688 31.171875 -15.015625 C 32.410156 -13.472656 33.03125 -11.609375 33.03125 -9.421875 C 33.03125 -7.515625 32.5 -5.84375 31.4375 -4.40625 C 30.375 -2.976562 28.859375 -1.882812 26.890625 -1.125 C 24.929688 -0.375 22.628906 0 19.984375 0 L 3.28125 0 L 3.28125 -33.84375 Z M 18.875 -20.375 C 20.101562 -20.375 21.070312 -20.671875 21.78125 -21.265625 C 22.488281 -21.859375 22.84375 -22.6875 22.84375 -23.75 C 22.84375 -24.78125 22.488281 -25.578125 21.78125 -26.140625 C 21.070312 -26.703125 20.101562 -26.96875 18.875 -26.9375 L 12.125 -26.9375 L 12.125 -20.375 Z M 18.875 -6.859375 C 20.425781 -6.859375 21.648438 -7.175781 22.546875 -7.8125 C 23.453125 -8.457031 23.90625 -9.363281 23.90625 -10.53125 C 23.90625 -11.59375 23.453125 -12.4375 22.546875 -13.0625 C 21.648438 -13.6875 20.425781 -13.984375 18.875 -13.953125 L 12.125 -13.953125 L 12.125 -6.859375 Z M 18.875 -6.859375 "/></g></g></g><g fill="#000000" fill-opacity="1"><g transform="translate(68.197787, 85.921518)"><g><path d="M 19.40625 -34.375 C 22.851562 -34.375 25.96875 -33.617188 28.75 -32.109375 C 31.53125 -30.597656 33.71875 -28.519531 35.3125 -25.875 C 36.90625 -23.238281 37.703125 -20.28125 37.703125 -17 C 37.703125 -13.675781 36.90625 -10.675781 35.3125 -8 C 33.71875 -5.332031 31.53125 -3.226562 28.75 -1.6875 C 25.96875 -0.144531 22.851562 0.625 19.40625 0.625 C 15.96875 0.625 12.851562 -0.132812 10.0625 -1.65625 C 7.28125 -3.1875 5.09375 -5.296875 3.5 -7.984375 C 1.90625 -10.671875 1.109375 -13.675781 1.109375 -17 C 1.109375 -20.28125 1.90625 -23.238281 3.5 -25.875 C 5.09375 -28.519531 7.28125 -30.597656 10.0625 -32.109375 C 12.851562 -33.617188 15.96875 -34.375 19.40625 -34.375 Z M 19.5 -26.890625 C 17.832031 -26.890625 16.28125 -26.453125 14.84375 -25.578125 C 13.414062 -24.710938 12.28125 -23.515625 11.4375 -21.984375 C 10.601562 -20.460938 10.1875 -18.785156 10.1875 -16.953125 C 10.1875 -15.078125 10.613281 -13.375 11.46875 -11.84375 C 12.320312 -10.320312 13.457031 -9.117188 14.875 -8.234375 C 16.289062 -7.347656 17.832031 -6.90625 19.5 -6.90625 C 21.175781 -6.90625 22.710938 -7.347656 24.109375 -8.234375 C 25.515625 -9.117188 26.617188 -10.320312 27.421875 -11.84375 C 28.222656 -13.375 28.625 -15.078125 28.625 -16.953125 C 28.625 -18.785156 28.222656 -20.460938 27.421875 -21.984375 C 26.617188 -23.515625 25.515625 -24.710938 24.109375 -25.578125 C 22.710938 -26.453125 21.175781 -26.890625 19.5 -26.890625 Z M 19.5 -26.890625 "/></g></g></g><g fill="#000000" fill-opacity="1"><g transform="translate(107.00652, 85.921518)"><g><path d="M 19.40625 -34.375 C 22.851562 -34.375 25.96875 -33.617188 28.75 -32.109375 C 31.53125 -30.597656 33.71875 -28.519531 35.3125 -25.875 C 36.90625 -23.238281 37.703125 -20.28125 37.703125 -17 C 37.703125 -13.675781 36.90625 -10.675781 35.3125 -8 C 33.71875 -5.332031 31.53125 -3.226562 28.75 -1.6875 C 25.96875 -0.144531 22.851562 0.625 19.40625 0.625 C 15.96875 0.625 12.851562 -0.132812 10.0625 -1.65625 C 7.28125 -3.1875 5.09375 -5.296875 3.5 -7.984375 C 1.90625 -10.671875 1.109375 -13.675781 1.109375 -17 C 1.109375 -20.28125 1.90625 -23.238281 3.5 -25.875 C 5.09375 -28.519531 7.28125 -30.597656 10.0625 -32.109375 C 12.851562 -33.617188 15.96875 -34.375 19.40625 -34.375 Z M 19.5 -26.890625 C 17.832031 -26.890625 16.28125 -26.453125 14.84375 -25.578125 C 13.414062 -24.710938 12.28125 -23.515625 11.4375 -21.984375 C 10.601562 -20.460938 10.1875 -18.785156 10.1875 -16.953125 C 10.1875 -15.078125 10.613281 -13.375 11.46875 -11.84375 C 12.320312 -10.320312 13.457031 -9.117188 14.875 -8.234375 C 16.289062 -7.347656 17.832031 -6.90625 19.5 -6.90625 C 21.175781 -6.90625 22.710938 -7.347656 24.109375 -8.234375 C 25.515625 -9.117188 26.617188 -10.320312 27.421875 -11.84375 C 28.222656 -13.375 28.625 -15.078125 28.625 -16.953125 C 28.625 -18.785156 28.222656 -20.460938 27.421875 -21.984375 C 26.617188 -23.515625 25.515625 -24.710938 24.109375 -25.578125 C 22.710938 -26.453125 21.175781 -26.890625 19.5 -26.890625 Z M 19.5 -26.890625 "/></g></g></g><g fill="#000000" fill-opacity="1"><g transform="translate(145.815252, 85.921518)"><g><path d="M 0.34375 -26.546875 L 0.34375 -33.84375 L 29.359375 -33.84375 L 29.359375 -26.546875 L 19.21875 -26.546875 L 19.21875 0 L 10.375 0 L 10.375 -26.546875 Z M 0.34375 -26.546875 "/></g></g></g><g fill="#000000" fill-opacity="1"><g transform="translate(175.45277, 85.921518)"><g><path d="M 26.609375 -23.65625 C 24.804688 -24.71875 22.878906 -25.585938 20.828125 -26.265625 C 18.785156 -26.941406 17.070312 -27.28125 15.6875 -27.28125 C 14.59375 -27.28125 13.734375 -27.078125 13.109375 -26.671875 C 12.484375 -26.273438 12.171875 -25.6875 12.171875 -24.90625 C 12.171875 -24.164062 12.441406 -23.546875 12.984375 -23.046875 C 13.535156 -22.554688 14.210938 -22.15625 15.015625 -21.84375 C 15.816406 -21.539062 17.007812 -21.148438 18.59375 -20.671875 C 20.9375 -19.992188 22.875 -19.316406 24.40625 -18.640625 C 25.9375 -17.960938 27.25 -16.921875 28.34375 -15.515625 C 29.4375 -14.117188 29.984375 -12.296875 29.984375 -10.046875 C 29.984375 -7.785156 29.382812 -5.859375 28.1875 -4.265625 C 27 -2.679688 25.367188 -1.484375 23.296875 -0.671875 C 21.222656 0.128906 18.914062 0.53125 16.375 0.53125 C 13.570312 0.53125 10.773438 0.0390625 7.984375 -0.9375 C 5.203125 -1.914062 2.796875 -3.257812 0.765625 -4.96875 L 4.203125 -11.875 C 5.910156 -10.363281 7.929688 -9.125 10.265625 -8.15625 C 12.597656 -7.195312 14.664062 -6.71875 16.46875 -6.71875 C 17.78125 -6.71875 18.816406 -6.957031 19.578125 -7.4375 C 20.335938 -7.914062 20.71875 -8.625 20.71875 -9.5625 C 20.71875 -10.332031 20.429688 -10.972656 19.859375 -11.484375 C 19.296875 -12.003906 18.585938 -12.414062 17.734375 -12.71875 C 16.890625 -13.03125 15.691406 -13.394531 14.140625 -13.8125 C 11.828125 -14.457031 9.910156 -15.109375 8.390625 -15.765625 C 6.878906 -16.421875 5.582031 -17.414062 4.5 -18.75 C 3.425781 -20.09375 2.890625 -21.875 2.890625 -24.09375 C 2.890625 -26.1875 3.445312 -28.019531 4.5625 -29.59375 C 5.675781 -31.175781 7.253906 -32.390625 9.296875 -33.234375 C 11.335938 -34.085938 13.710938 -34.515625 16.421875 -34.515625 C 18.859375 -34.515625 21.269531 -34.164062 23.65625 -33.46875 C 26.039062 -32.78125 28.132812 -31.859375 29.9375 -30.703125 Z M 26.609375 -23.65625 "/></g></g></g><g fill="#000000" fill-opacity="1"><g transform="translate(206.634908, 85.921518)"><g><path d="M 0.34375 -26.546875 L 0.34375 -33.84375 L 29.359375 -33.84375 L 29.359375 -26.546875 L 19.21875 -26.546875 L 19.21875 0 L 10.375 0 L 10.375 -26.546875 Z M 0.34375 -26.546875 "/></g></g></g><g fill="#000000" fill-opacity="1"><g transform="translate(236.272426, 85.921518)"><g><path d="M 33.609375 0 L 23.609375 0 L 18.6875 -9.359375 L 12.125 -9.359375 L 12.125 0 L 3.28125 0 L 3.28125 -33.84375 L 18.484375 -33.84375 C 22.960938 -33.84375 26.429688 -32.800781 28.890625 -30.71875 C 31.359375 -28.644531 32.59375 -25.726562 32.59375 -21.96875 C 32.59375 -19.425781 32.078125 -17.226562 31.046875 -15.375 C 30.015625 -13.519531 28.515625 -12.082031 26.546875 -11.0625 Z M 12.125 -26.796875 L 12.125 -16.421875 L 18.546875 -16.421875 C 20.347656 -16.421875 21.738281 -16.867188 22.71875 -17.765625 C 23.695312 -18.671875 24.1875 -19.972656 24.1875 -21.671875 C 24.1875 -23.316406 23.695312 -24.582031 22.71875 -25.46875 C 21.738281 -26.351562 20.347656 -26.796875 18.546875 -26.796875 Z M 12.125 -26.796875 "/></g></g></g><g fill="#000000" fill-opacity="1"><g transform="translate(271.21959, 85.921518)"><g><path d="M 37.5625 0 L 28.140625 0 L 25.828125 -5.984375 L 11.203125 -5.984375 L 8.828125 0 L -0.234375 0 L 14.296875 -33.84375 L 23.375 -33.84375 Z M 18.59375 -24.8125 L 13.859375 -12.75 L 23.21875 -12.75 Z M 18.59375 -24.8125 "/></g></g></g><g fill="#000000" fill-opacity="1"><g transform="translate(308.531951, 85.921518)"><g><path d="M 18.15625 -33.84375 C 22.46875 -33.84375 25.8125 -32.800781 28.1875 -30.71875 C 30.570312 -28.644531 31.765625 -25.726562 31.765625 -21.96875 C 31.765625 -17.976562 30.570312 -14.878906 28.1875 -12.671875 C 25.8125 -10.460938 22.46875 -9.359375 18.15625 -9.359375 L 12.125 -9.359375 L 12.125 0 L 3.28125 0 L 3.28125 -33.84375 Z M 17.71875 -16.421875 C 19.519531 -16.421875 20.910156 -16.867188 21.890625 -17.765625 C 22.878906 -18.671875 23.375 -19.972656 23.375 -21.671875 C 23.375 -23.316406 22.878906 -24.582031 21.890625 -25.46875 C 20.910156 -26.351562 19.519531 -26.796875 17.71875 -26.796875 L 12.125 -26.796875 L 12.125 -16.421875 Z M 17.71875 -16.421875 "/></g></g></g></svg>