<svg xmlns="http://www.w3.org/2000/svg" xmlns:xlink="http://www.w3.org/1999/xlink" width="500" zoomAndPan="magnify" viewBox="0 0 375 374.999991" height="500" preserveAspectRatio="xMidYMid meet" version="1.0"><defs><g/></defs><path fill="#000000" d="M 95.167969 293.945312 C 104.550781 300.035156 116.746094 301.4375 129.878906 295.351562 C 130.816406 295.820312 135.035156 302.84375 140.664062 298.628906 L 232.597656 229.792969 C 221.808594 227.917969 211.488281 222.300781 203.046875 214.339844 C 195.074219 206.378906 189.914062 196.542969 187.570312 185.773438 C 122.84375 275.683594 112.523438 278.023438 119.558594 285.519531 L 122.84375 288.796875 C 114.867188 291.605469 106.894531 291.136719 100.328125 286.921875 C 83.910156 275.683594 95.167969 256.015625 96.105469 240.5625 C 99.390625 222.769531 89.070312 206.847656 72.1875 203.566406 C 69.839844 203.101562 67.496094 204.972656 67.027344 207.3125 C 66.558594 209.65625 68.433594 211.996094 70.777344 212.464844 C 82.972656 214.808594 90.007812 225.578125 87.664062 238.6875 C 86.726562 251.332031 73.125 278.960938 95.167969 293.945312 Z M 155.675781 252.738281 L 171.152344 237.285156 C 173.964844 234.476562 178.1875 234.476562 181.003906 237.285156 C 183.816406 240.09375 183.816406 244.308594 181.003906 247.117188 L 165.523438 262.570312 C 162.710938 265.382812 158.488281 265.382812 155.675781 262.570312 C 152.859375 259.292969 152.859375 255.078125 155.675781 252.738281 Z M 155.675781 252.738281 " fill-opacity="1" fill-rule="nonzero"/><path fill="#000000" d="M 271.054688 213.871094 C 256.515625 206.847656 243.382812 197.949219 232.597656 186.710938 C 221.339844 175.472656 211.957031 161.890625 204.453125 146.4375 C 190.851562 165.167969 192.726562 191.394531 209.613281 208.25 C 226.5 224.640625 252.765625 226.515625 271.054688 213.871094 Z M 271.054688 213.871094 " fill-opacity="1" fill-rule="nonzero"/><path fill="#000000" d="M 277.621094 140.816406 C 259.332031 122.554688 230.25 122.085938 211.488281 138.945312 C 225.089844 170.320312 247.605469 193.265625 279.03125 207.3125 C 296.382812 188.582031 295.914062 159.082031 277.621094 140.816406 Z M 277.621094 140.816406 " fill-opacity="1" fill-rule="nonzero"/><path fill="#000000" d="M 160.832031 150.652344 C 160.832031 130.515625 139.726562 129.109375 139.257812 128.644531 L 129.410156 128.644531 C 129.410156 129.578125 129.410156 169.851562 129.410156 168.914062 C 127.0625 168.445312 124.25 167.976562 121.902344 168.445312 C 113.460938 169.851562 106.894531 175.9375 108.300781 182.027344 C 108.300781 183.433594 108.769531 184.367188 109.707031 185.304688 C 112.523438 189.519531 118.621094 191.859375 125.65625 190.925781 C 130.347656 189.988281 134.097656 188.113281 136.914062 185.304688 C 137.851562 184.367188 138.320312 183.433594 138.789062 182.496094 C 139.257812 181.089844 139.726562 179.683594 139.726562 178.28125 L 139.726562 138.945312 C 149.578125 141.285156 156.613281 148.308594 156.613281 159.082031 C 156.613281 160.953125 156.144531 163.296875 155.675781 165.167969 C 158.488281 161.421875 160.832031 156.269531 160.832031 150.652344 Z M 160.832031 150.652344 " fill-opacity="1" fill-rule="nonzero"/><path fill="#000000" d="M 278.09375 269.128906 C 278.09375 248.992188 256.984375 247.585938 256.515625 247.117188 L 246.667969 247.117188 L 246.667969 286.921875 C 236.347656 284.113281 223.683594 291.605469 225.089844 300.503906 C 225.089844 301.90625 225.558594 302.84375 226.5 303.78125 C 229.3125 307.996094 235.410156 310.335938 242.445312 309.398438 C 249.011719 308.464844 253.703125 304.71875 255.578125 300.972656 C 257.453125 297.691406 256.046875 298.628906 256.515625 257.421875 C 270.117188 260.699219 275.746094 272.875 272.464844 283.644531 C 276.214844 279.898438 278.09375 274.746094 278.09375 269.128906 Z M 278.09375 269.128906 " fill-opacity="1" fill-rule="nonzero"/><g fill="#000000" fill-opacity="1"><g transform="translate(100.216835, 81.299657)"><g><path d="M 27.359375 -22.03125 C 26.273438 -23.394531 24.988281 -24.476562 23.5 -25.28125 C 22.007812 -26.09375 20.535156 -26.5 19.078125 -26.5 C 17.398438 -26.5 15.867188 -26.078125 14.484375 -25.234375 C 13.109375 -24.398438 12.019531 -23.242188 11.21875 -21.765625 C 10.425781 -20.285156 10.03125 -18.644531 10.03125 -16.84375 C 10.03125 -15.03125 10.425781 -13.382812 11.21875 -11.90625 C 12.019531 -10.4375 13.109375 -9.28125 14.484375 -8.4375 C 15.867188 -7.601562 17.398438 -7.1875 19.078125 -7.1875 C 20.441406 -7.1875 21.867188 -7.535156 23.359375 -8.234375 C 24.847656 -8.929688 26.179688 -9.878906 27.359375 -11.078125 L 32.453125 -5.609375 C 30.640625 -3.710938 28.488281 -2.195312 26 -1.0625 C 23.507812 0.0625 21.046875 0.625 18.609375 0.625 C 15.304688 0.625 12.320312 -0.132812 9.65625 -1.65625 C 6.988281 -3.1875 4.894531 -5.265625 3.375 -7.890625 C 1.851562 -10.523438 1.09375 -13.476562 1.09375 -16.75 C 1.09375 -19.976562 1.867188 -22.894531 3.421875 -25.5 C 4.972656 -28.101562 7.101562 -30.148438 9.8125 -31.640625 C 12.53125 -33.128906 15.570312 -33.875 18.9375 -33.875 C 21.40625 -33.875 23.84375 -33.359375 26.25 -32.328125 C 28.664062 -31.296875 30.71875 -29.894531 32.40625 -28.125 Z M 27.359375 -22.03125 "/></g></g></g><g fill="#000000" fill-opacity="1"><g transform="translate(133.138004, 81.299657)"><g><path d="M 37.015625 0 L 27.734375 0 L 25.453125 -5.90625 L 11.03125 -5.90625 L 8.703125 0 L -0.234375 0 L 14.078125 -33.359375 L 23.03125 -33.359375 Z M 18.3125 -24.453125 L 13.65625 -12.5625 L 22.890625 -12.5625 Z M 18.3125 -24.453125 "/></g></g></g><g fill="#000000" fill-opacity="1"><g transform="translate(169.912656, 81.299657)"><g><path d="M 26.078125 -13.28125 L 26.03125 -33.359375 L 34.109375 -33.359375 L 34.109375 0 L 26.5 0 L 11.375 -19.9375 L 11.375 0 L 3.234375 0 L 3.234375 -33.359375 L 10.890625 -33.359375 Z M 26.078125 -13.28125 "/></g></g></g><g fill="#000000" fill-opacity="1"><g transform="translate(207.305767, 81.299657)"><g><path d="M 0.328125 -26.171875 L 0.328125 -33.359375 L 28.921875 -33.359375 L 28.921875 -26.171875 L 18.9375 -26.171875 L 18.9375 0 L 10.234375 0 L 10.234375 -26.171875 Z M 0.328125 -26.171875 "/></g></g></g><g fill="#000000" fill-opacity="1"><g transform="translate(236.516167, 81.299657)"><g><path d="M 19.125 -33.875 C 22.519531 -33.875 25.585938 -33.128906 28.328125 -31.640625 C 31.078125 -30.148438 33.234375 -28.101562 34.796875 -25.5 C 36.367188 -22.894531 37.15625 -19.976562 37.15625 -16.75 C 37.15625 -13.476562 36.367188 -10.523438 34.796875 -7.890625 C 33.234375 -5.265625 31.078125 -3.1875 28.328125 -1.65625 C 25.585938 -0.132812 22.519531 0.625 19.125 0.625 C 15.726562 0.625 12.65625 -0.128906 9.90625 -1.640625 C 7.164062 -3.148438 5.007812 -5.226562 3.4375 -7.875 C 1.875 -10.519531 1.09375 -13.476562 1.09375 -16.75 C 1.09375 -19.976562 1.875 -22.894531 3.4375 -25.5 C 5.007812 -28.101562 7.164062 -30.148438 9.90625 -31.640625 C 12.65625 -33.128906 15.726562 -33.875 19.125 -33.875 Z M 19.21875 -26.5 C 17.570312 -26.5 16.039062 -26.070312 14.625 -25.21875 C 13.21875 -24.363281 12.097656 -23.179688 11.265625 -21.671875 C 10.441406 -20.160156 10.03125 -18.503906 10.03125 -16.703125 C 10.03125 -14.859375 10.453125 -13.179688 11.296875 -11.671875 C 12.140625 -10.171875 13.257812 -8.984375 14.65625 -8.109375 C 16.050781 -7.234375 17.570312 -6.796875 19.21875 -6.796875 C 20.875 -6.796875 22.390625 -7.234375 23.765625 -8.109375 C 25.140625 -8.984375 26.222656 -10.171875 27.015625 -11.671875 C 27.816406 -13.179688 28.21875 -14.859375 28.21875 -16.703125 C 28.21875 -18.503906 27.816406 -20.160156 27.015625 -21.671875 C 26.222656 -23.179688 25.140625 -24.363281 23.765625 -25.21875 C 22.390625 -26.070312 20.875 -26.5 19.21875 -26.5 Z M 19.21875 -26.5 "/></g></g></g></svg>