<svg xmlns="http://www.w3.org/2000/svg" xmlns:xlink="http://www.w3.org/1999/xlink" width="500" zoomAndPan="magnify" viewBox="0 0 375 374.999991" height="500" preserveAspectRatio="xMidYMid meet" version="1.0"><defs><g/><clipPath id="3ee04fa60f"><path d="M 31 243 L 94 243 L 94 260 L 31 260 Z M 31 243 " clip-rule="nonzero"/></clipPath><clipPath id="22ce0c2b70"><path d="M 236.296875 73.078125 L 355.523438 254.988281 L 112.765625 414.089844 L -6.460938 232.179688 Z M 236.296875 73.078125 " clip-rule="nonzero"/></clipPath><clipPath id="d938a0f1e1"><path d="M 236.296875 73.078125 L 355.523438 254.988281 L 112.765625 414.089844 L -6.460938 232.179688 Z M 236.296875 73.078125 " clip-rule="nonzero"/></clipPath><clipPath id="13b34b39fc"><path d="M 236.296875 73.078125 L 355.523438 254.988281 L 112.765625 414.089844 L -6.460938 232.179688 Z M 236.296875 73.078125 " clip-rule="nonzero"/></clipPath><clipPath id="df4abf56aa"><path d="M 336 254 L 346 254 L 346 259 L 336 259 Z M 336 254 " clip-rule="nonzero"/></clipPath><clipPath id="75d2187d73"><path d="M 236.296875 73.078125 L 355.523438 254.988281 L 112.765625 414.089844 L -6.460938 232.179688 Z M 236.296875 73.078125 " clip-rule="nonzero"/></clipPath><clipPath id="cde143951f"><path d="M 236.296875 73.078125 L 355.523438 254.988281 L 112.765625 414.089844 L -6.460938 232.179688 Z M 236.296875 73.078125 " clip-rule="nonzero"/></clipPath><clipPath id="672d5ced12"><path d="M 236.296875 73.078125 L 355.523438 254.988281 L 112.765625 414.089844 L -6.460938 232.179688 Z M 236.296875 73.078125 " clip-rule="nonzero"/></clipPath><clipPath id="aaeeba256d"><path d="M 30 184 L 236 184 L 236 320 L 30 320 Z M 30 184 " clip-rule="nonzero"/></clipPath><clipPath id="817176bced"><path d="M 236.296875 73.078125 L 355.523438 254.988281 L 112.765625 414.089844 L -6.460938 232.179688 Z M 236.296875 73.078125 " clip-rule="nonzero"/></clipPath><clipPath id="d97bfd8046"><path d="M 236.296875 73.078125 L 355.523438 254.988281 L 112.765625 414.089844 L -6.460938 232.179688 Z M 236.296875 73.078125 " clip-rule="nonzero"/></clipPath><clipPath id="626e07c9ee"><path d="M 236.296875 73.078125 L 355.523438 254.988281 L 112.765625 414.089844 L -6.460938 232.179688 Z M 236.296875 73.078125 " clip-rule="nonzero"/></clipPath><clipPath id="11c27e5f5b"><path d="M 336 239 L 346 239 L 346 245 L 336 245 Z M 336 239 " clip-rule="nonzero"/></clipPath><clipPath id="07444da832"><path d="M 236.296875 73.078125 L 355.523438 254.988281 L 112.765625 414.089844 L -6.460938 232.179688 Z M 236.296875 73.078125 " clip-rule="nonzero"/></clipPath><clipPath id="9cc57a1171"><path d="M 236.296875 73.078125 L 355.523438 254.988281 L 112.765625 414.089844 L -6.460938 232.179688 Z M 236.296875 73.078125 " clip-rule="nonzero"/></clipPath><clipPath id="6172bda043"><path d="M 236.296875 73.078125 L 355.523438 254.988281 L 112.765625 414.089844 L -6.460938 232.179688 Z M 236.296875 73.078125 " clip-rule="nonzero"/></clipPath><clipPath id="af8da0a768"><path d="M 129 255 L 154 255 L 154 260 L 129 260 Z M 129 255 " clip-rule="nonzero"/></clipPath><clipPath id="679b90672b"><path d="M 236.296875 73.078125 L 355.523438 254.988281 L 112.765625 414.089844 L -6.460938 232.179688 Z M 236.296875 73.078125 " clip-rule="nonzero"/></clipPath><clipPath id="373d46c6fb"><path d="M 236.296875 73.078125 L 355.523438 254.988281 L 112.765625 414.089844 L -6.460938 232.179688 Z M 236.296875 73.078125 " clip-rule="nonzero"/></clipPath><clipPath id="59163fafbf"><path d="M 236.296875 73.078125 L 355.523438 254.988281 L 112.765625 414.089844 L -6.460938 232.179688 Z M 236.296875 73.078125 " clip-rule="nonzero"/></clipPath><clipPath id="9d630c6c96"><path d="M 21 249 L 29 249 L 29 256 L 21 256 Z M 21 249 " clip-rule="nonzero"/></clipPath><clipPath id="03a2fdf8d9"><path d="M 236.296875 73.078125 L 355.523438 254.988281 L 112.765625 414.089844 L -6.460938 232.179688 Z M 236.296875 73.078125 " clip-rule="nonzero"/></clipPath><clipPath id="72f9028921"><path d="M 236.296875 73.078125 L 355.523438 254.988281 L 112.765625 414.089844 L -6.460938 232.179688 Z M 236.296875 73.078125 " clip-rule="nonzero"/></clipPath><clipPath id="0fa2671141"><path d="M 236.296875 73.078125 L 355.523438 254.988281 L 112.765625 414.089844 L -6.460938 232.179688 Z M 236.296875 73.078125 " clip-rule="nonzero"/></clipPath><clipPath id="3e94417ff2"><path d="M 307 247 L 333 247 L 333 253 L 307 253 Z M 307 247 " clip-rule="nonzero"/></clipPath><clipPath id="8b92ad1c22"><path d="M 236.296875 73.078125 L 355.523438 254.988281 L 112.765625 414.089844 L -6.460938 232.179688 Z M 236.296875 73.078125 " clip-rule="nonzero"/></clipPath><clipPath id="dbd248a754"><path d="M 236.296875 73.078125 L 355.523438 254.988281 L 112.765625 414.089844 L -6.460938 232.179688 Z M 236.296875 73.078125 " clip-rule="nonzero"/></clipPath><clipPath id="de733b8911"><path d="M 236.296875 73.078125 L 355.523438 254.988281 L 112.765625 414.089844 L -6.460938 232.179688 Z M 236.296875 73.078125 " clip-rule="nonzero"/></clipPath><clipPath id="da3e80e3bb"><path d="M 121 238 L 130 238 L 130 268 L 121 268 Z M 121 238 " clip-rule="nonzero"/></clipPath><clipPath id="095687c214"><path d="M 236.296875 73.078125 L 355.523438 254.988281 L 112.765625 414.089844 L -6.460938 232.179688 Z M 236.296875 73.078125 " clip-rule="nonzero"/></clipPath><clipPath id="010921e524"><path d="M 236.296875 73.078125 L 355.523438 254.988281 L 112.765625 414.089844 L -6.460938 232.179688 Z M 236.296875 73.078125 " clip-rule="nonzero"/></clipPath><clipPath id="3ea9cc6cba"><path d="M 236.296875 73.078125 L 355.523438 254.988281 L 112.765625 414.089844 L -6.460938 232.179688 Z M 236.296875 73.078125 " clip-rule="nonzero"/></clipPath><clipPath id="d8fef3fce4"><path d="M 156 241 L 306 241 L 306 262 L 156 262 Z M 156 241 " clip-rule="nonzero"/></clipPath><clipPath id="e12b9445ea"><path d="M 236.296875 73.078125 L 355.523438 254.988281 L 112.765625 414.089844 L -6.460938 232.179688 Z M 236.296875 73.078125 " clip-rule="nonzero"/></clipPath><clipPath id="29cdd7b2b2"><path d="M 236.296875 73.078125 L 355.523438 254.988281 L 112.765625 414.089844 L -6.460938 232.179688 Z M 236.296875 73.078125 " clip-rule="nonzero"/></clipPath><clipPath id="095e06e48e"><path d="M 236.296875 73.078125 L 355.523438 254.988281 L 112.765625 414.089844 L -6.460938 232.179688 Z M 236.296875 73.078125 " clip-rule="nonzero"/></clipPath><clipPath id="fa0d155f8b"><path d="M 306 226 L 351 226 L 351 273 L 306 273 Z M 306 226 " clip-rule="nonzero"/></clipPath><clipPath id="d483e59e84"><path d="M 236.296875 73.078125 L 355.523438 254.988281 L 112.765625 414.089844 L -6.460938 232.179688 Z M 236.296875 73.078125 " clip-rule="nonzero"/></clipPath><clipPath id="1657be9136"><path d="M 236.296875 73.078125 L 355.523438 254.988281 L 112.765625 414.089844 L -6.460938 232.179688 Z M 236.296875 73.078125 " clip-rule="nonzero"/></clipPath><clipPath id="88cdf902cf"><path d="M 236.296875 73.078125 L 355.523438 254.988281 L 112.765625 414.089844 L -6.460938 232.179688 Z M 236.296875 73.078125 " clip-rule="nonzero"/></clipPath><clipPath id="ba2391603d"><path d="M 128 245 L 154 245 L 154 250 L 128 250 Z M 128 245 " clip-rule="nonzero"/></clipPath><clipPath id="710f5683b1"><path d="M 236.296875 73.078125 L 355.523438 254.988281 L 112.765625 414.089844 L -6.460938 232.179688 Z M 236.296875 73.078125 " clip-rule="nonzero"/></clipPath><clipPath id="e6a8704ad0"><path d="M 236.296875 73.078125 L 355.523438 254.988281 L 112.765625 414.089844 L -6.460938 232.179688 Z M 236.296875 73.078125 " clip-rule="nonzero"/></clipPath><clipPath id="1739473edc"><path d="M 236.296875 73.078125 L 355.523438 254.988281 L 112.765625 414.089844 L -6.460938 232.179688 Z M 236.296875 73.078125 " clip-rule="nonzero"/></clipPath><clipPath id="76672cfd87"><path d="M 127 250 L 154 250 L 154 255 L 127 255 Z M 127 250 " clip-rule="nonzero"/></clipPath><clipPath id="31324ce313"><path d="M 236.296875 73.078125 L 355.523438 254.988281 L 112.765625 414.089844 L -6.460938 232.179688 Z M 236.296875 73.078125 " clip-rule="nonzero"/></clipPath><clipPath id="c8ac5728ca"><path d="M 236.296875 73.078125 L 355.523438 254.988281 L 112.765625 414.089844 L -6.460938 232.179688 Z M 236.296875 73.078125 " clip-rule="nonzero"/></clipPath><clipPath id="6f311043d9"><path d="M 236.296875 73.078125 L 355.523438 254.988281 L 112.765625 414.089844 L -6.460938 232.179688 Z M 236.296875 73.078125 " clip-rule="nonzero"/></clipPath></defs><g fill="#000000" fill-opacity="1"><g transform="translate(15.347025, 89.811413)"><g><path d="M 2.65625 0 L 2.65625 -27.359375 L 10.421875 -27.359375 L 18.34375 -11.359375 L 26.234375 -27.359375 L 34 -27.359375 L 34 0 L 27.671875 0 L 27.640625 -17.328125 L 20.640625 -2.734375 L 16.046875 -2.734375 L 9.015625 -17.328125 L 9.015625 0 Z M 2.65625 0 "/></g></g></g><g fill="#000000" fill-opacity="1"><g transform="translate(51.991291, 89.811413)"><g><path d="M 9.328125 -11.28125 C 9.328125 -9.5625 9.832031 -8.179688 10.84375 -7.140625 C 11.863281 -6.097656 13.15625 -5.578125 14.71875 -5.578125 C 16.25 -5.578125 17.488281 -6.09375 18.4375 -7.125 C 19.382812 -8.15625 19.859375 -9.539062 19.859375 -11.28125 L 19.859375 -27.359375 L 27.015625 -27.359375 L 27.015625 -11.28125 C 27.015625 -8.914062 26.507812 -6.835938 25.5 -5.046875 C 24.5 -3.265625 23.066406 -1.894531 21.203125 -0.9375 C 19.347656 0.0195312 17.171875 0.5 14.671875 0.5 C 12.171875 0.5 9.976562 0.0195312 8.09375 -0.9375 C 6.207031 -1.894531 4.75 -3.265625 3.71875 -5.046875 C 2.695312 -6.835938 2.1875 -8.914062 2.1875 -11.28125 L 2.1875 -27.359375 L 9.328125 -27.359375 Z M 11.125 -29.703125 L 15.8125 -35.984375 L 21.546875 -33.8125 L 15.890625 -29.3125 Z M 11.125 -29.703125 "/></g></g></g><g fill="#000000" fill-opacity="1"><g transform="translate(81.220838, 89.811413)"><g><path d="M 21.5 -19.125 C 20.050781 -19.976562 18.5 -20.675781 16.84375 -21.21875 C 15.1875 -21.769531 13.800781 -22.046875 12.6875 -22.046875 C 11.800781 -22.046875 11.101562 -21.882812 10.59375 -21.5625 C 10.082031 -21.238281 9.828125 -20.765625 9.828125 -20.140625 C 9.828125 -19.546875 10.046875 -19.046875 10.484375 -18.640625 C 10.929688 -18.234375 11.476562 -17.90625 12.125 -17.65625 C 12.78125 -17.414062 13.75 -17.097656 15.03125 -16.703125 C 16.925781 -16.160156 18.488281 -15.613281 19.71875 -15.0625 C 20.957031 -14.519531 22.019531 -13.679688 22.90625 -12.546875 C 23.789062 -11.410156 24.234375 -9.9375 24.234375 -8.125 C 24.234375 -6.300781 23.75 -4.742188 22.78125 -3.453125 C 21.820312 -2.160156 20.503906 -1.191406 18.828125 -0.546875 C 17.148438 0.0976562 15.285156 0.421875 13.234375 0.421875 C 10.960938 0.421875 8.703125 0.0234375 6.453125 -0.765625 C 4.203125 -1.554688 2.257812 -2.640625 0.625 -4.015625 L 3.390625 -9.609375 C 4.773438 -8.378906 6.410156 -7.375 8.296875 -6.59375 C 10.179688 -5.8125 11.851562 -5.421875 13.3125 -5.421875 C 14.375 -5.421875 15.210938 -5.613281 15.828125 -6 C 16.441406 -6.394531 16.75 -6.972656 16.75 -7.734375 C 16.75 -8.359375 16.519531 -8.875 16.0625 -9.28125 C 15.601562 -9.695312 15.03125 -10.03125 14.34375 -10.28125 C 13.65625 -10.53125 12.6875 -10.820312 11.4375 -11.15625 C 9.5625 -11.675781 8.007812 -12.203125 6.78125 -12.734375 C 5.5625 -13.273438 4.515625 -14.082031 3.640625 -15.15625 C 2.773438 -16.238281 2.34375 -17.679688 2.34375 -19.484375 C 2.34375 -21.171875 2.789062 -22.648438 3.6875 -23.921875 C 4.582031 -25.203125 5.851562 -26.1875 7.5 -26.875 C 9.15625 -27.5625 11.078125 -27.90625 13.265625 -27.90625 C 15.242188 -27.90625 17.195312 -27.625 19.125 -27.0625 C 21.050781 -26.507812 22.742188 -25.765625 24.203125 -24.828125 Z M 21.5 -19.125 "/></g></g></g><g fill="#000000" fill-opacity="1"><g transform="translate(106.430847, 89.811413)"><g><path d="M 2.65625 0 L 2.65625 -27.359375 L 9.796875 -27.359375 L 9.796875 0 Z M 2.65625 0 "/></g></g></g><g fill="#000000" fill-opacity="1"><g transform="translate(118.879748, 89.811413)"><g><path d="M 22.4375 -18.078125 C 21.550781 -19.191406 20.5 -20.078125 19.28125 -20.734375 C 18.0625 -21.398438 16.851562 -21.734375 15.65625 -21.734375 C 14.269531 -21.734375 13.007812 -21.390625 11.875 -20.703125 C 10.75 -20.015625 9.859375 -19.066406 9.203125 -17.859375 C 8.554688 -16.648438 8.234375 -15.300781 8.234375 -13.8125 C 8.234375 -12.332031 8.554688 -10.988281 9.203125 -9.78125 C 9.859375 -8.570312 10.75 -7.617188 11.875 -6.921875 C 13.007812 -6.234375 14.269531 -5.890625 15.65625 -5.890625 C 16.769531 -5.890625 17.9375 -6.175781 19.15625 -6.75 C 20.382812 -7.320312 21.476562 -8.101562 22.4375 -9.09375 L 26.625 -4.609375 C 25.132812 -3.046875 23.367188 -1.800781 21.328125 -0.875 C 19.285156 0.0390625 17.265625 0.5 15.265625 0.5 C 12.554688 0.5 10.109375 -0.117188 7.921875 -1.359375 C 5.734375 -2.609375 4.015625 -4.3125 2.765625 -6.46875 C 1.515625 -8.632812 0.890625 -11.054688 0.890625 -13.734375 C 0.890625 -16.390625 1.523438 -18.785156 2.796875 -20.921875 C 4.078125 -23.054688 5.828125 -24.734375 8.046875 -25.953125 C 10.273438 -27.179688 12.769531 -27.796875 15.53125 -27.796875 C 17.5625 -27.796875 19.566406 -27.367188 21.546875 -26.515625 C 23.523438 -25.671875 25.203125 -24.519531 26.578125 -23.0625 Z M 22.4375 -18.078125 "/></g></g></g><g fill="#000000" fill-opacity="1"><g transform="translate(145.884891, 89.811413)"><g><path d="M 30.359375 0 L 22.75 0 L 20.875 -4.84375 L 9.0625 -4.84375 L 7.140625 0 L -0.1875 0 L 11.546875 -27.359375 L 18.890625 -27.359375 Z M 15.03125 -20.0625 L 11.203125 -10.296875 L 18.78125 -10.296875 Z M 15.03125 -20.0625 "/></g></g></g><g fill="#000000" fill-opacity="1"><g transform="translate(176.051045, 89.811413)"><g/></g></g><g fill="#000000" fill-opacity="1"><g transform="translate(186.587734, 89.811413)"><g><path d="M 30.359375 0 L 22.75 0 L 20.875 -4.84375 L 9.0625 -4.84375 L 7.140625 0 L -0.1875 0 L 11.546875 -27.359375 L 18.890625 -27.359375 Z M 15.03125 -20.0625 L 11.203125 -10.296875 L 18.78125 -10.296875 Z M 15.03125 -20.0625 "/></g></g></g><g fill="#000000" fill-opacity="1"><g transform="translate(216.753888, 89.811413)"><g><path d="M 15.6875 -27.796875 C 18.46875 -27.796875 20.984375 -27.179688 23.234375 -25.953125 C 25.492188 -24.734375 27.265625 -23.054688 28.546875 -20.921875 C 29.835938 -18.785156 30.484375 -16.390625 30.484375 -13.734375 C 30.484375 -11.054688 29.835938 -8.632812 28.546875 -6.46875 C 27.265625 -4.3125 25.492188 -2.609375 23.234375 -1.359375 C 20.984375 -0.117188 18.46875 0.5 15.6875 0.5 C 12.90625 0.5 10.390625 -0.113281 8.140625 -1.34375 C 5.890625 -2.582031 4.117188 -4.285156 2.828125 -6.453125 C 1.535156 -8.628906 0.890625 -11.054688 0.890625 -13.734375 C 0.890625 -16.390625 1.535156 -18.785156 2.828125 -20.921875 C 4.117188 -23.054688 5.890625 -24.734375 8.140625 -25.953125 C 10.390625 -27.179688 12.90625 -27.796875 15.6875 -27.796875 Z M 15.765625 -21.734375 C 14.410156 -21.734375 13.15625 -21.378906 12 -20.671875 C 10.84375 -19.972656 9.925781 -19.003906 9.25 -17.765625 C 8.570312 -16.535156 8.234375 -15.179688 8.234375 -13.703125 C 8.234375 -12.191406 8.578125 -10.816406 9.265625 -9.578125 C 9.953125 -8.347656 10.867188 -7.375 12.015625 -6.65625 C 13.160156 -5.9375 14.410156 -5.578125 15.765625 -5.578125 C 17.117188 -5.578125 18.359375 -5.9375 19.484375 -6.65625 C 20.617188 -7.375 21.507812 -8.347656 22.15625 -9.578125 C 22.8125 -10.816406 23.140625 -12.191406 23.140625 -13.703125 C 23.140625 -15.179688 22.8125 -16.535156 22.15625 -17.765625 C 21.507812 -19.003906 20.617188 -19.972656 19.484375 -20.671875 C 18.359375 -21.378906 17.117188 -21.734375 15.765625 -21.734375 Z M 15.765625 -21.734375 "/></g></g></g><g fill="#000000" fill-opacity="1"><g transform="translate(248.129788, 89.811413)"><g/></g></g><g fill="#000000" fill-opacity="1"><g transform="translate(258.666491, 89.811413)"><g><path d="M 10.53125 0 L -0.078125 -27.359375 L 7.609375 -27.359375 L 14.4375 -7.578125 L 21.3125 -27.359375 L 28.65625 -27.359375 L 17.953125 0 Z M 10.53125 0 "/></g></g></g><g fill="#000000" fill-opacity="1"><g transform="translate(287.23264, 89.811413)"><g><path d="M 2.65625 0 L 2.65625 -27.359375 L 9.796875 -27.359375 L 9.796875 0 Z M 2.65625 0 "/></g></g></g><g fill="#000000" fill-opacity="1"><g transform="translate(299.681527, 89.811413)"><g><path d="M 10.53125 0 L -0.078125 -27.359375 L 7.609375 -27.359375 L 14.4375 -7.578125 L 21.3125 -27.359375 L 28.65625 -27.359375 L 17.953125 0 Z M 10.53125 0 "/></g></g></g><g fill="#000000" fill-opacity="1"><g transform="translate(328.247676, 89.811413)"><g><path d="M 15.6875 -27.796875 C 18.46875 -27.796875 20.984375 -27.179688 23.234375 -25.953125 C 25.492188 -24.734375 27.265625 -23.054688 28.546875 -20.921875 C 29.835938 -18.785156 30.484375 -16.390625 30.484375 -13.734375 C 30.484375 -11.054688 29.835938 -8.632812 28.546875 -6.46875 C 27.265625 -4.3125 25.492188 -2.609375 23.234375 -1.359375 C 20.984375 -0.117188 18.46875 0.5 15.6875 0.5 C 12.90625 0.5 10.390625 -0.113281 8.140625 -1.34375 C 5.890625 -2.582031 4.117188 -4.285156 2.828125 -6.453125 C 1.535156 -8.628906 0.890625 -11.054688 0.890625 -13.734375 C 0.890625 -16.390625 1.535156 -18.785156 2.828125 -20.921875 C 4.117188 -23.054688 5.890625 -24.734375 8.140625 -25.953125 C 10.390625 -27.179688 12.90625 -27.796875 15.6875 -27.796875 Z M 15.765625 -21.734375 C 14.410156 -21.734375 13.15625 -21.378906 12 -20.671875 C 10.84375 -19.972656 9.925781 -19.003906 9.25 -17.765625 C 8.570312 -16.535156 8.234375 -15.179688 8.234375 -13.703125 C 8.234375 -12.191406 8.578125 -10.816406 9.265625 -9.578125 C 9.953125 -8.347656 10.867188 -7.375 12.015625 -6.65625 C 13.160156 -5.9375 14.410156 -5.578125 15.765625 -5.578125 C 17.117188 -5.578125 18.359375 -5.9375 19.484375 -6.65625 C 20.617188 -7.375 21.507812 -8.347656 22.15625 -9.578125 C 22.8125 -10.816406 23.140625 -12.191406 23.140625 -13.703125 C 23.140625 -15.179688 22.8125 -16.535156 22.15625 -17.765625 C 21.507812 -19.003906 20.617188 -19.972656 19.484375 -20.671875 C 18.359375 -21.378906 17.117188 -21.734375 15.765625 -21.734375 Z M 15.765625 -21.734375 "/></g></g></g><g fill="#000000" fill-opacity="1"><g transform="translate(24.241358, 154.236719)"><g><path d="M 13.078125 0 L -0.09375 -33.953125 L 9.453125 -33.953125 L 17.921875 -9.390625 L 26.453125 -33.953125 L 35.546875 -33.953125 L 22.28125 0 Z M 13.078125 0 "/></g></g></g><g fill="#000000" fill-opacity="1"><g transform="translate(59.691538, 154.236719)"><g><path d="M 3.296875 0 L 3.296875 -33.953125 L 12.15625 -33.953125 L 12.15625 0 Z M 3.296875 0 "/></g></g></g><g fill="#000000" fill-opacity="1"><g transform="translate(75.140458, 154.236719)"><g><path d="M 19.46875 -34.484375 C 22.925781 -34.484375 26.050781 -33.722656 28.84375 -32.203125 C 31.632812 -30.691406 33.828125 -28.609375 35.421875 -25.953125 C 37.023438 -23.304688 37.828125 -20.335938 37.828125 -17.046875 C 37.828125 -13.722656 37.023438 -10.71875 35.421875 -8.03125 C 33.828125 -5.351562 31.632812 -3.238281 28.84375 -1.6875 C 26.050781 -0.144531 22.925781 0.625 19.46875 0.625 C 16.019531 0.625 12.894531 -0.140625 10.09375 -1.671875 C 7.300781 -3.203125 5.101562 -5.316406 3.5 -8.015625 C 1.90625 -10.710938 1.109375 -13.722656 1.109375 -17.046875 C 1.109375 -20.335938 1.90625 -23.304688 3.5 -25.953125 C 5.101562 -28.609375 7.300781 -30.691406 10.09375 -32.203125 C 12.894531 -33.722656 16.019531 -34.484375 19.46875 -34.484375 Z M 19.5625 -26.984375 C 17.882812 -26.984375 16.328125 -26.546875 14.890625 -25.671875 C 13.453125 -24.796875 12.3125 -23.59375 11.46875 -22.0625 C 10.632812 -20.53125 10.21875 -18.84375 10.21875 -17 C 10.21875 -15.125 10.644531 -13.421875 11.5 -11.890625 C 12.351562 -10.359375 13.488281 -9.144531 14.90625 -8.25 C 16.332031 -7.363281 17.882812 -6.921875 19.5625 -6.921875 C 21.25 -6.921875 22.789062 -7.363281 24.1875 -8.25 C 25.59375 -9.144531 26.695312 -10.359375 27.5 -11.890625 C 28.3125 -13.421875 28.71875 -15.125 28.71875 -17 C 28.71875 -18.84375 28.3125 -20.53125 27.5 -22.0625 C 26.695312 -23.59375 25.59375 -24.796875 24.1875 -25.671875 C 22.789062 -26.546875 21.25 -26.984375 19.5625 -26.984375 Z M 19.5625 -26.984375 "/></g></g></g><g fill="#000000" fill-opacity="1"><g transform="translate(114.077537, 154.236719)"><g><path d="M 3.296875 0 L 3.296875 -33.953125 L 12.15625 -33.953125 L 12.15625 -7.5625 L 26.546875 -7.5625 L 26.546875 0 Z M 3.296875 0 "/></g></g></g><g fill="#000000" fill-opacity="1"><g transform="translate(141.343176, 154.236719)"><g><path d="M 19.46875 -34.484375 C 22.925781 -34.484375 26.050781 -33.722656 28.84375 -32.203125 C 31.632812 -30.691406 33.828125 -28.609375 35.421875 -25.953125 C 37.023438 -23.304688 37.828125 -20.335938 37.828125 -17.046875 C 37.828125 -13.722656 37.023438 -10.71875 35.421875 -8.03125 C 33.828125 -5.351562 31.632812 -3.238281 28.84375 -1.6875 C 26.050781 -0.144531 22.925781 0.625 19.46875 0.625 C 16.019531 0.625 12.894531 -0.140625 10.09375 -1.671875 C 7.300781 -3.203125 5.101562 -5.316406 3.5 -8.015625 C 1.90625 -10.710938 1.109375 -13.722656 1.109375 -17.046875 C 1.109375 -20.335938 1.90625 -23.304688 3.5 -25.953125 C 5.101562 -28.609375 7.300781 -30.691406 10.09375 -32.203125 C 12.894531 -33.722656 16.019531 -34.484375 19.46875 -34.484375 Z M 19.5625 -26.984375 C 17.882812 -26.984375 16.328125 -26.546875 14.890625 -25.671875 C 13.453125 -24.796875 12.3125 -23.59375 11.46875 -22.0625 C 10.632812 -20.53125 10.21875 -18.84375 10.21875 -17 C 10.21875 -15.125 10.644531 -13.421875 11.5 -11.890625 C 12.351562 -10.359375 13.488281 -9.144531 14.90625 -8.25 C 16.332031 -7.363281 17.882812 -6.921875 19.5625 -6.921875 C 21.25 -6.921875 22.789062 -7.363281 24.1875 -8.25 C 25.59375 -9.144531 26.695312 -10.359375 27.5 -11.890625 C 28.3125 -13.421875 28.71875 -15.125 28.71875 -17 C 28.71875 -18.84375 28.3125 -20.53125 27.5 -22.0625 C 26.695312 -23.59375 25.59375 -24.796875 24.1875 -25.671875 C 22.789062 -26.546875 21.25 -26.984375 19.5625 -26.984375 Z M 19.5625 -26.984375 "/></g></g></g><g fill="#000000" fill-opacity="1"><g transform="translate(180.280255, 154.236719)"><g><path d="M 26.546875 -13.515625 L 26.5 -33.953125 L 34.734375 -33.953125 L 34.734375 0 L 26.984375 0 L 11.578125 -20.296875 L 11.578125 0 L 3.296875 0 L 3.296875 -33.953125 L 11.09375 -33.953125 Z M 26.546875 -13.515625 "/></g></g></g><g fill="#000000" fill-opacity="1"><g transform="translate(218.34561, 154.236719)"><g><path d="M 27.859375 -22.421875 C 26.753906 -23.816406 25.441406 -24.925781 23.921875 -25.75 C 22.410156 -26.570312 20.910156 -26.984375 19.421875 -26.984375 C 17.710938 -26.984375 16.15625 -26.550781 14.75 -25.6875 C 13.34375 -24.832031 12.234375 -23.65625 11.421875 -22.15625 C 10.617188 -20.65625 10.21875 -18.984375 10.21875 -17.140625 C 10.21875 -15.304688 10.617188 -13.632812 11.421875 -12.125 C 12.234375 -10.625 13.34375 -9.445312 14.75 -8.59375 C 16.15625 -7.738281 17.710938 -7.3125 19.421875 -7.3125 C 20.804688 -7.3125 22.257812 -7.664062 23.78125 -8.375 C 25.300781 -9.09375 26.660156 -10.0625 27.859375 -11.28125 L 33.03125 -5.71875 C 31.195312 -3.78125 29.007812 -2.238281 26.46875 -1.09375 C 23.9375 0.0507812 21.425781 0.625 18.9375 0.625 C 15.582031 0.625 12.546875 -0.144531 9.828125 -1.6875 C 7.117188 -3.238281 4.988281 -5.351562 3.4375 -8.03125 C 1.882812 -10.71875 1.109375 -13.722656 1.109375 -17.046875 C 1.109375 -20.335938 1.898438 -23.304688 3.484375 -25.953125 C 5.066406 -28.609375 7.238281 -30.691406 10 -32.203125 C 12.757812 -33.722656 15.851562 -34.484375 19.28125 -34.484375 C 21.800781 -34.484375 24.285156 -33.957031 26.734375 -32.90625 C 29.191406 -31.863281 31.273438 -30.4375 32.984375 -28.625 Z M 27.859375 -22.421875 "/></g></g></g><g fill="#000000" fill-opacity="1"><g transform="translate(251.858624, 154.236719)"><g><path d="M 3.296875 0 L 3.296875 -33.953125 L 30.078125 -33.953125 L 30.078125 -26.890625 L 12.15625 -26.890625 L 12.15625 -20.53125 L 28.34375 -20.53125 L 28.34375 -13.515625 L 12.15625 -13.46875 L 12.15625 -7.078125 L 30.5625 -7.078125 L 30.5625 0 Z M 3.296875 0 "/></g></g></g><g fill="#000000" fill-opacity="1"><g transform="translate(284.54834, 154.236719)"><g><path d="M 3.296875 0 L 3.296875 -33.953125 L 12.15625 -33.953125 L 12.15625 -7.5625 L 26.546875 -7.5625 L 26.546875 0 Z M 3.296875 0 "/></g></g></g><g fill="#000000" fill-opacity="1"><g transform="translate(311.813979, 154.236719)"><g><path d="M 19.46875 -34.484375 C 22.925781 -34.484375 26.050781 -33.722656 28.84375 -32.203125 C 31.632812 -30.691406 33.828125 -28.609375 35.421875 -25.953125 C 37.023438 -23.304688 37.828125 -20.335938 37.828125 -17.046875 C 37.828125 -13.722656 37.023438 -10.71875 35.421875 -8.03125 C 33.828125 -5.351562 31.632812 -3.238281 28.84375 -1.6875 C 26.050781 -0.144531 22.925781 0.625 19.46875 0.625 C 16.019531 0.625 12.894531 -0.140625 10.09375 -1.671875 C 7.300781 -3.203125 5.101562 -5.316406 3.5 -8.015625 C 1.90625 -10.710938 1.109375 -13.722656 1.109375 -17.046875 C 1.109375 -20.335938 1.90625 -23.304688 3.5 -25.953125 C 5.101562 -28.609375 7.300781 -30.691406 10.09375 -32.203125 C 12.894531 -33.722656 16.019531 -34.484375 19.46875 -34.484375 Z M 19.5625 -26.984375 C 17.882812 -26.984375 16.328125 -26.546875 14.890625 -25.671875 C 13.453125 -24.796875 12.3125 -23.59375 11.46875 -22.0625 C 10.632812 -20.53125 10.21875 -18.84375 10.21875 -17 C 10.21875 -15.125 10.644531 -13.421875 11.5 -11.890625 C 12.351562 -10.359375 13.488281 -9.144531 14.90625 -8.25 C 16.332031 -7.363281 17.882812 -6.921875 19.5625 -6.921875 C 21.25 -6.921875 22.789062 -7.363281 24.1875 -8.25 C 25.59375 -9.144531 26.695312 -10.359375 27.5 -11.890625 C 28.3125 -13.421875 28.71875 -15.125 28.71875 -17 C 28.71875 -18.84375 28.3125 -20.53125 27.5 -22.0625 C 26.695312 -23.59375 25.59375 -24.796875 24.1875 -25.671875 C 22.789062 -26.546875 21.25 -26.984375 19.5625 -26.984375 Z M 19.5625 -26.984375 "/></g></g></g><g clip-path="url(#3ee04fa60f)"><g clip-path="url(#22ce0c2b70)"><g clip-path="url(#d938a0f1e1)"><g clip-path="url(#13b34b39fc)"><path fill="#000000" d="M 93.308594 259.816406 C 93.910156 256.820312 93.730469 253.753906 93.828125 250.710938 C 93.898438 248.492188 94.09375 245.953125 93.234375 243.855469 C 83.03125 245.300781 72.949219 248.550781 62.648438 249.152344 C 52.269531 249.769531 41.96875 248.113281 31.613281 247.828125 C 31.542969 248.136719 31.472656 248.464844 31.414062 248.789062 C 31.453125 251.574219 31.492188 254.332031 31.773438 257.105469 C 42.765625 256.542969 53.902344 254.132812 64.886719 255.304688 C 74.429688 256.328125 83.769531 258.632812 93.308594 259.816406 " fill-opacity="1" fill-rule="nonzero"/></g></g></g></g><g clip-path="url(#df4abf56aa)"><g clip-path="url(#75d2187d73)"><g clip-path="url(#cde143951f)"><g clip-path="url(#672d5ced12)"><path fill="#000000" d="M 344.226562 254.6875 C 343.242188 254.867188 341.953125 255.105469 340.714844 255.453125 L 339.777344 255.703125 C 339.085938 255.894531 338.386719 256.078125 337.695312 256.238281 L 336.738281 256.457031 L 337.035156 257.398438 C 337.121094 257.683594 337.230469 257.917969 337.359375 258.117188 C 337.839844 258.847656 338.578125 259.003906 339.503906 258.960938 L 339.878906 258.957031 C 340.753906 258.941406 341.65625 258.929688 342.566406 258.707031 C 344.601562 258.171875 345.089844 256.769531 345.28125 255.757812 L 345.53125 254.457031 L 344.226562 254.6875 " fill-opacity="1" fill-rule="nonzero"/></g></g></g></g><g clip-path="url(#aaeeba256d)"><g clip-path="url(#817176bced)"><g clip-path="url(#d97bfd8046)"><g clip-path="url(#626e07c9ee)"><path fill="#000000" d="M 194.785156 298.976562 C 197 299.199219 199.101562 299.160156 201.144531 299.019531 C 205.214844 298.726562 208.785156 297.796875 211.597656 296.589844 C 214.386719 295.351562 216.34375 293.796875 217.539062 292.570312 C 217.832031 292.253906 218.128906 291.992188 218.328125 291.722656 C 218.542969 291.480469 218.714844 291.253906 218.871094 291.082031 C 219.171875 290.726562 219.367188 290.554688 219.425781 290.59375 C 219.496094 290.628906 219.429688 290.875 219.238281 291.308594 C 219.152344 291.523438 219.027344 291.789062 218.863281 292.109375 C 218.695312 292.425781 218.445312 292.738281 218.1875 293.125 C 217.144531 294.601562 215.175781 296.484375 212.261719 297.984375 C 209.359375 299.46875 205.585938 300.597656 201.324219 301.027344 C 199.210938 301.238281 196.902344 301.320312 194.589844 301.105469 C 192.203125 300.910156 189.847656 300.246094 187.527344 299.550781 C 184.28125 298.535156 181.347656 297.527344 178.4375 297.226562 C 178.050781 297.195312 177.683594 297.152344 177.300781 297.121094 L 177.015625 297.089844 C 177.015625 297.089844 176.871094 297.09375 176.804688 297.09375 L 176.289062 297.125 C 175.617188 297.121094 174.890625 297.175781 174.175781 297.246094 C 173.488281 297.320312 172.714844 297.339844 172 297.375 C 171.273438 297.394531 170.507812 297.285156 169.792969 297.230469 L 169.082031 297.1875 L 169.027344 296.390625 C 168.84375 294.136719 167.871094 292.097656 166.777344 290.53125 C 165.683594 288.9375 164.382812 287.8125 163.222656 287.070312 C 160.882812 285.578125 159.117188 285.679688 159.113281 285.410156 C 159.109375 285.332031 159.523438 285.21875 160.328125 285.203125 C 161.15625 285.21875 162.367188 285.4375 163.746094 286.113281 C 165.121094 286.792969 166.664062 287.933594 167.980469 289.617188 C 169.1875 291.125 170.285156 293.042969 170.738281 295.417969 C 171.125 295.433594 171.527344 295.457031 171.941406 295.449219 C 172.613281 295.382812 173.25 295.351562 173.980469 295.246094 C 174.691406 295.167969 175.429688 295.082031 176.230469 295.058594 L 176.828125 295.03125 C 176.957031 295.023438 176.964844 295.019531 177.183594 295.023438 L 177.46875 295.042969 C 177.839844 295.070312 178.226562 295.101562 178.605469 295.128906 C 179.339844 295.15625 180.179688 295.324219 181 295.46875 C 181.84375 295.597656 182.617188 295.820312 183.410156 296.027344 C 185.003906 296.449219 186.574219 296.96875 188.167969 297.457031 C 190.4375 298.132812 192.644531 298.777344 194.785156 298.976562 Z M 121.445312 300.601562 C 120.839844 303 121.578125 305.414062 121.03125 307.785156 C 120.65625 307.679688 120.273438 307.566406 119.898438 307.460938 C 118.839844 307.164062 117.738281 306.875 116.648438 306.644531 C 113.664062 305.996094 110.742188 306.21875 108.253906 306.949219 C 106.859375 307.363281 105.839844 307.804688 104.796875 308.398438 C 103.738281 308.953125 102.800781 309.582031 101.914062 310.136719 C 100.175781 311.300781 98.675781 312.203125 97.601562 312.726562 C 96.496094 313.210938 95.867188 313.410156 95.804688 313.277344 C 95.71875 313.152344 96.214844 312.691406 97.160156 312.003906 C 98.0625 311.265625 99.386719 310.203125 101 308.882812 C 101.84375 308.226562 102.777344 307.503906 103.875 306.816406 C 104.941406 306.121094 106.335938 305.457031 107.601562 305.046875 C 110.40625 304.074219 113.769531 303.777344 117.082031 304.496094 C 117.851562 304.652344 118.582031 304.84375 119.300781 305.042969 C 119.414062 304.171875 119.472656 303.292969 119.496094 302.324219 C 119.511719 301.617188 119.546875 300.960938 119.632812 300.347656 L 119.691406 299.882812 L 119.714844 299.65625 L 119.722656 299.601562 L 119.734375 299.480469 C 119.746094 299.464844 119.777344 299.339844 119.777344 299.339844 C 119.859375 299.011719 119.949219 298.714844 120.027344 298.402344 C 120.726562 295.933594 122.070312 293.992188 123.410156 292.707031 C 124.050781 292.023438 124.757812 291.558594 125.328125 291.109375 C 125.945312 290.738281 126.480469 290.386719 126.933594 290.179688 C 127.820312 289.761719 128.34375 289.574219 128.429688 289.703125 C 128.492188 289.820312 128.109375 290.21875 127.339844 290.835938 C 126.980469 291.152344 126.546875 291.546875 126.027344 292.003906 C 125.566406 292.5 124.976562 293 124.46875 293.683594 C 122.914062 295.785156 122.078125 298.09375 121.445312 300.601562 Z M 91.308594 315.589844 C 90.253906 316.132812 88.695312 316.597656 86.738281 316.890625 C 85.765625 317.035156 84.671875 317.152344 83.5625 317.277344 C 82.347656 317.367188 81.203125 317.480469 79.875 317.496094 C 79.21875 317.519531 78.554688 317.542969 77.863281 317.53125 C 77.15625 317.492188 76.445312 317.460938 75.730469 317.429688 C 75.003906 317.382812 74.277344 317.207031 73.519531 317.09375 C 73.144531 317.019531 72.785156 316.992188 72.386719 316.867188 C 72.03125 316.78125 71.683594 316.679688 71.3125 316.582031 C 65.480469 315.070312 60.535156 312.5 57.332031 310.199219 C 54.113281 307.875 52.570312 305.964844 52.730469 305.777344 C 52.972656 305.507812 54.863281 306.984375 58.164062 308.902344 C 61.46875 310.789062 66.246094 313.011719 71.894531 314.472656 C 72.238281 314.566406 72.609375 314.664062 72.960938 314.765625 C 73.257812 314.851562 73.621094 314.886719 73.949219 314.957031 C 74.628906 315.058594 75.269531 315.253906 75.941406 315.289062 C 76.621094 315.34375 77.265625 315.386719 77.914062 315.441406 C 78.566406 315.464844 79.214844 315.484375 79.832031 315.488281 C 81.054688 315.519531 82.371094 315.476562 83.421875 315.46875 C 84.5625 315.425781 85.609375 315.375 86.570312 315.351562 C 88.476562 315.273438 89.996094 315.046875 90.96875 314.8125 C 91.472656 314.71875 91.878906 314.554688 92.160156 314.484375 C 92.449219 314.417969 92.617188 314.414062 92.65625 314.476562 C 92.683594 314.550781 92.601562 314.683594 92.367188 314.882812 C 92.148438 315.070312 91.851562 315.347656 91.308594 315.589844 Z M 42.949219 294.597656 C 42.289062 293.609375 41.566406 292.523438 40.796875 291.347656 C 40.410156 290.757812 40.027344 290.15625 39.605469 289.53125 C 39.191406 288.847656 38.835938 288.183594 38.425781 287.472656 C 36.886719 284.652344 35.519531 281.339844 34.605469 277.742188 C 33.695312 274.152344 33.285156 270.511719 33.210938 267.410156 C 33.1875 266.5625 33.121094 265.886719 33.242188 264.898438 C 33.28125 264.761719 33.273438 264.648438 33.324219 264.503906 C 33.386719 264.351562 33.464844 264.175781 33.546875 264.027344 C 33.683594 263.734375 34.089844 263.433594 34.339844 263.328125 C 34.890625 263.089844 35.265625 263.074219 35.636719 263 C 37.039062 262.832031 38.359375 262.75 39.550781 262.640625 C 41.957031 262.417969 43.871094 262.425781 45.21875 262.417969 C 46.554688 262.441406 47.308594 262.515625 47.316406 262.667969 C 47.320312 262.8125 46.605469 263.019531 45.292969 263.277344 C 43.976562 263.515625 42.046875 263.765625 39.742188 264.1875 C 38.578125 264.382812 37.300781 264.546875 35.929688 264.796875 C 35.613281 264.855469 35.28125 264.9375 35.171875 265.011719 C 35.175781 265.019531 35.171875 265.03125 35.164062 265.039062 C 35.152344 265.070312 35.160156 265.152344 35.136719 265.203125 C 35.097656 265.695312 35.160156 266.554688 35.214844 267.28125 C 35.417969 270.453125 35.859375 273.726562 36.738281 277.199219 C 37.589844 280.632812 38.835938 283.78125 40.214844 286.542969 C 40.574219 287.214844 40.902344 287.921875 41.257812 288.519531 C 41.621094 289.15625 41.992188 289.789062 42.335938 290.40625 C 43.023438 291.625 43.667969 292.75 44.269531 293.789062 C 46.746094 297.808594 48.253906 300.332031 48 300.519531 C 47.78125 300.707031 45.796875 298.472656 42.949219 294.597656 Z M 121.886719 274.78125 C 125.617188 274.316406 129.269531 274.570312 132.996094 274.359375 C 135.046875 274.332031 137.078125 274.035156 139.058594 273.46875 C 139.898438 273.222656 140.578125 272.855469 141.140625 272.410156 C 141.34375 272.027344 141.5 271.605469 141.636719 271.160156 C 139.109375 269.625 139.589844 262.382812 144.789062 266.710938 C 150.628906 271.582031 138.867188 279.152344 134.910156 279.949219 C 131.867188 280.558594 128.664062 280.128906 125.59375 280.175781 C 123.699219 280.199219 121.640625 280.164062 119.804688 280.652344 C 117.664062 281.222656 116.089844 281.730469 115.242188 283.855469 C 113.355469 288.617188 119.132812 284.777344 120.148438 288.546875 C 120.484375 289.789062 119.992188 290.976562 119.117188 291.878906 C 118.25 292.792969 117.089844 293.222656 115.886719 292.691406 C 115.621094 292.578125 115.394531 292.386719 115.195312 292.1875 C 109.726562 291.371094 109.136719 284.9375 112.613281 280.097656 C 114.691406 277.167969 118.375 275.230469 121.886719 274.78125 Z M 112.011719 223.234375 C 108.453125 218.484375 108.832031 211.898438 114.382812 211.039062 C 114.664062 210.761719 114.984375 210.519531 115.359375 210.398438 C 116.410156 210.003906 117.613281 210.558594 118.316406 211.359375 C 119.066406 212.222656 119.804688 213.453125 119.351562 214.636719 C 118.945312 215.679688 118.207031 216.457031 117.121094 216.78125 C 116.074219 217.09375 115.113281 216.90625 114.347656 216.429688 C 113.628906 217.5 113.359375 218.507812 113.523438 219.472656 C 115.117188 221.300781 118.738281 222.488281 119.988281 222.648438 C 121.792969 222.851562 123.601562 222.90625 125.425781 222.859375 C 128.316406 222.75 131.390625 222.375 134.273438 222.894531 C 136.488281 223.285156 138.734375 224.03125 140.550781 225.398438 C 143.324219 227.457031 148.308594 232.585938 144.476562 235.914062 C 139.347656 240.378906 138.75 233.152344 141.226562 231.539062 C 141.101562 231.144531 140.949219 230.753906 140.78125 230.410156 C 140.390625 230.109375 139.929688 229.855469 139.40625 229.648438 C 138.441406 229.375 137.464844 229.09375 136.496094 228.816406 C 134.433594 228.566406 132.378906 228.480469 130.3125 228.550781 C 127.316406 228.625 124.414062 228.652344 121.4375 228.328125 C 117.925781 227.945312 114.160156 226.113281 112.011719 223.234375 Z M 118.75 203.820312 L 118.71875 203.703125 C 118.703125 203.679688 118.6875 203.566406 118.6875 203.566406 L 118.675781 203.515625 L 118.644531 203.273438 L 118.582031 202.816406 C 118.488281 202.207031 118.421875 201.546875 118.398438 200.855469 C 118.355469 199.871094 118.277344 198.988281 118.15625 198.125 C 117.4375 198.347656 116.714844 198.546875 115.953125 198.714844 C 112.660156 199.5 109.285156 199.277344 106.449219 198.363281 C 105.175781 197.980469 103.761719 197.335938 102.683594 196.65625 C 101.582031 196 100.628906 195.292969 99.789062 194.652344 C 98.125 193.378906 96.789062 192.328125 95.855469 191.613281 C 94.90625 190.949219 94.402344 190.507812 94.472656 190.371094 C 94.535156 190.226562 95.175781 190.421875 96.289062 190.871094 C 97.378906 191.386719 98.890625 192.261719 100.648438 193.382812 C 101.546875 193.933594 102.503906 194.53125 103.570312 195.0625 C 104.632812 195.628906 105.65625 196.0625 107.066406 196.445312 C 109.574219 197.132812 112.492188 197.289062 115.476562 196.585938 C 116.554688 196.34375 117.640625 196.019531 118.699219 195.699219 L 119.824219 195.347656 C 119.871094 195.351562 119.839844 202.183594 119.933594 202.851562 C 120.265625 205.089844 122.085938 207.695312 123.5625 209.390625 C 124.074219 210.066406 124.679688 210.542969 125.160156 211.035156 C 125.679688 211.480469 126.125 211.859375 126.492188 212.164062 C 127.277344 212.789062 127.671875 213.164062 127.601562 213.28125 C 127.53125 213.402344 126.996094 213.242188 126.09375 212.835938 C 125.636719 212.644531 125.113281 212.296875 124.480469 211.9375 C 123.898438 211.5 123.171875 211.050781 122.53125 210.382812 C 121.167969 209.117188 119.773438 207.199219 119.03125 204.75 C 118.929688 204.453125 118.847656 204.140625 118.75 203.820312 Z M 44.992188 242.234375 C 43.652344 242.257812 41.742188 242.304688 39.335938 242.117188 C 38.136719 242.039062 36.8125 241.996094 35.414062 241.835938 C 35.035156 241.777344 34.652344 241.765625 34.105469 241.542969 C 33.855469 241.433594 33.433594 241.140625 33.308594 240.863281 C 33.207031 240.710938 33.121094 240.539062 33.070312 240.378906 C 33.015625 240.246094 33.011719 240.132812 32.984375 240.003906 C 32.824219 239.015625 32.886719 238.328125 32.890625 237.484375 C 32.894531 234.386719 33.234375 230.730469 34.074219 227.136719 C 34.894531 223.503906 36.199219 220.167969 37.675781 217.324219 C 38.0625 216.617188 38.398438 215.929688 38.816406 215.246094 C 39.195312 214.613281 39.582031 213.992188 39.949219 213.390625 C 40.707031 212.222656 41.390625 211.113281 42.03125 210.101562 C 44.8125 206.175781 46.734375 203.90625 46.957031 204.078125 C 47.21875 204.269531 45.761719 206.828125 43.371094 210.898438 C 42.796875 211.945312 42.191406 213.082031 41.515625 214.320312 C 41.179688 214.9375 40.828125 215.566406 40.464844 216.222656 C 40.140625 216.824219 39.824219 217.53125 39.476562 218.214844 C 38.164062 220.996094 36.988281 224.179688 36.195312 227.632812 C 35.402344 231.105469 35.039062 234.382812 34.910156 237.582031 C 34.863281 238.292969 34.816406 239.15625 34.863281 239.648438 C 34.886719 239.714844 34.890625 239.789062 34.882812 239.816406 C 34.898438 239.820312 34.882812 239.828125 34.882812 239.828125 L 34.898438 239.839844 C 34.898438 239.839844 34.898438 239.839844 34.898438 239.855469 C 35.011719 239.90625 35.359375 239.984375 35.667969 240.042969 C 37.039062 240.257812 38.3125 240.402344 39.480469 240.589844 C 41.808594 240.953125 43.738281 241.15625 45.050781 241.375 C 46.363281 241.605469 47.085938 241.792969 47.089844 241.9375 C 47.078125 242.09375 46.339844 242.191406 44.992188 242.234375 Z M 51.582031 198.738281 C 51.40625 198.554688 52.925781 196.605469 56.074219 194.214844 C 59.234375 191.84375 64.128906 189.183594 69.933594 187.550781 C 70.28125 187.460938 70.640625 187.351562 70.992188 187.246094 C 71.390625 187.121094 71.738281 187.085938 72.128906 187 C 72.863281 186.871094 73.597656 186.675781 74.328125 186.628906 C 75.050781 186.574219 75.75 186.527344 76.449219 186.464844 C 77.132812 186.449219 77.808594 186.460938 78.46875 186.460938 C 79.792969 186.46875 80.933594 186.550781 82.15625 186.613281 C 83.273438 186.722656 84.355469 186.8125 85.332031 186.933594 C 87.3125 187.179688 88.878906 187.609375 89.933594 188.144531 C 90.476562 188.382812 90.789062 188.65625 91.011719 188.839844 C 91.242188 189.03125 91.347656 189.15625 91.308594 189.234375 C 91.273438 189.304688 91.105469 189.289062 90.816406 189.230469 C 90.53125 189.175781 90.125 189.011719 89.621094 188.933594 C 88.640625 188.722656 87.101562 188.523438 85.210938 188.480469 C 84.246094 188.464844 83.191406 188.449219 82.054688 188.433594 C 80.996094 188.445312 79.691406 188.433594 78.464844 188.488281 C 77.84375 188.507812 77.207031 188.527344 76.542969 188.554688 C 75.917969 188.621094 75.253906 188.683594 74.582031 188.75 C 73.902344 188.804688 73.277344 189.011719 72.609375 189.121094 C 72.265625 189.207031 71.902344 189.242188 71.605469 189.34375 C 71.261719 189.445312 70.898438 189.546875 70.550781 189.660156 C 64.945312 191.230469 60.207031 193.550781 56.945312 195.507812 C 53.691406 197.480469 51.820312 198.992188 51.582031 198.738281 Z M 168.042969 205.777344 L 168.089844 204.984375 L 168.804688 204.914062 C 169.511719 204.847656 170.277344 204.730469 171 204.726562 C 171.71875 204.765625 172.5 204.753906 173.1875 204.816406 C 173.898438 204.882812 174.621094 204.921875 175.300781 204.90625 L 175.820312 204.921875 C 175.890625 204.921875 176.035156 204.917969 176.035156 204.917969 L 176.300781 204.890625 C 176.671875 204.851562 177.054688 204.804688 177.441406 204.757812 C 180.339844 204.394531 183.261719 203.320312 186.476562 202.246094 C 188.792969 201.511719 191.132812 200.800781 193.523438 200.550781 C 195.824219 200.292969 198.136719 200.324219 200.242188 200.503906 C 204.515625 200.832031 208.304688 201.894531 211.238281 203.324219 C 214.195312 204.765625 216.191406 206.617188 217.285156 208.074219 C 217.535156 208.441406 217.792969 208.765625 217.972656 209.054688 C 218.128906 209.363281 218.273438 209.632812 218.355469 209.851562 C 218.566406 210.292969 218.636719 210.519531 218.574219 210.5625 C 218.507812 210.601562 218.308594 210.4375 217.992188 210.089844 C 217.84375 209.914062 217.652344 209.695312 217.445312 209.445312 C 217.234375 209.199219 216.941406 208.9375 216.640625 208.632812 C 215.425781 207.425781 213.433594 205.910156 210.613281 204.726562 C 207.785156 203.566406 204.183594 202.71875 200.109375 202.5 C 198.0625 202.398438 195.960938 202.410156 193.75 202.679688 C 191.617188 202.925781 189.421875 203.601562 187.15625 204.324219 C 185.59375 204.851562 184.035156 205.402344 182.445312 205.855469 C 181.648438 206.058594 180.886719 206.320312 180.046875 206.460938 C 179.222656 206.625 178.394531 206.816406 177.65625 206.855469 C 177.28125 206.886719 176.894531 206.921875 176.519531 206.953125 L 176.242188 206.984375 C 176.027344 207.003906 176.011719 206.980469 175.878906 206.984375 L 175.285156 206.964844 C 174.476562 206.960938 173.753906 206.898438 173.035156 206.824219 C 172.292969 206.730469 171.664062 206.722656 170.980469 206.671875 C 170.574219 206.65625 170.179688 206.695312 169.792969 206.710938 C 169.378906 209.097656 168.320312 211.054688 167.160156 212.5625 C 165.878906 214.28125 164.359375 215.445312 163 216.167969 C 161.632812 216.871094 160.421875 217.105469 159.601562 217.132812 C 158.792969 217.148438 158.390625 217.039062 158.367188 216.949219 C 158.367188 216.691406 160.148438 216.773438 162.441406 215.210938 C 163.589844 214.449219 164.863281 213.308594 165.929688 211.6875 C 166.988281 210.097656 167.910156 208.035156 168.042969 205.777344 Z M 235.992188 259.972656 C 209.796875 261.699219 183.582031 263.484375 157.339844 264.363281 C 156.929688 264.378906 156.59375 264.261719 156.332031 264.054688 C 154.859375 263.542969 154.113281 262.007812 153.765625 260.210938 C 146.710938 260.558594 139.328125 260.929688 131.628906 261.300781 C 131.628906 263.464844 131.585938 265.617188 131.199219 267.769531 C 131.144531 268.03125 131.058594 268.246094 130.933594 268.421875 C 130.738281 268.957031 130.265625 269.359375 129.503906 269.324219 C 124.449219 269.03125 122.378906 265.964844 121.3125 262.113281 C 113.578125 261.964844 108.15625 261.582031 104.890625 261.277344 C 101.601562 260.910156 100.542969 260.558594 100.609375 260.296875 C 100.667969 260.019531 101.746094 259.894531 104.964844 259.898438 C 108.132812 259.859375 113.351562 260.007812 120.847656 260.15625 C 120.632812 259.082031 120.480469 257.984375 120.324219 256.894531 C 104.234375 256.273438 99.304688 255.648438 99.351562 255.128906 C 99.394531 254.613281 104.15625 254.367188 120.042969 254.941406 C 119.90625 253.984375 119.796875 252.886719 119.707031 251.691406 C 116.085938 251.484375 112.882812 251.402344 110.285156 251.273438 C 107.496094 251.144531 105.316406 251.003906 103.652344 250.878906 C 100.265625 250.550781 99.03125 250.210938 99.074219 249.941406 C 99.125 249.671875 100.398438 249.519531 103.695312 249.484375 C 105.355469 249.453125 107.550781 249.4375 110.339844 249.484375 C 112.894531 249.515625 115.894531 249.53125 119.617188 249.75 C 119.589844 248.359375 119.636719 246.917969 119.796875 245.515625 C 116.457031 245.792969 113.585938 246.027344 111.171875 246.210938 C 108.441406 246.410156 106.453125 246.515625 104.820312 246.539062 C 101.558594 246.621094 100.226562 246.289062 100.285156 246.035156 C 100.34375 245.757812 101.402344 245.609375 104.652344 245.171875 C 106.253906 244.964844 108.285156 244.714844 111 244.421875 C 113.542969 244.15625 116.605469 243.820312 120.113281 243.535156 C 120.984375 239.496094 123.117188 236.246094 127.804688 236.425781 C 128.015625 236.433594 128.203125 236.480469 128.378906 236.558594 C 129.1875 236.246094 130.179688 236.480469 130.4375 237.566406 C 130.878906 239.4375 130.78125 241.316406 130.808594 243.210938 C 139.191406 243.347656 146.949219 243.460938 154.117188 243.5625 C 154.328125 242.066406 154.636719 240.59375 155.078125 239.222656 C 155.328125 238.457031 155.964844 238.097656 156.609375 238.074219 C 156.730469 238.050781 156.878906 238.03125 157.011719 238.027344 C 183.292969 238.390625 209.542969 239.644531 235.796875 240.847656 C 233.3125 223.929688 223.394531 203.839844 204.785156 199.992188 C 194.835938 197.9375 185.734375 201.6875 176.210938 203.800781 C 173.691406 204.359375 171.621094 203.75 169.339844 202.765625 C 169.257812 202.742188 166.683594 201.085938 166.714844 201.234375 C 166.945312 202.59375 167.046875 203.269531 167.074219 204.625 C 167.28125 217.445312 144.542969 217.1875 136.871094 214.460938 C 131.222656 212.464844 124.988281 209.75 121.808594 204.375 C 119.921875 201.199219 120.597656 196.875 120.910156 193.136719 C 117.207031 194.371094 113.183594 196.152344 109.398438 195.496094 C 104.3125 194.621094 100.636719 191.539062 96.375 188.835938 C 84.496094 181.339844 69.003906 183.65625 57.53125 190.960938 C 39.386719 202.546875 30.023438 223.351562 30.496094 244.546875 C 41.132812 244.738281 51.945312 246.933594 62.574219 245.914062 C 72.847656 244.933594 82.851562 242.0625 93.082031 240.625 C 93.769531 240.148438 94.8125 240.125 95.40625 241.019531 C 97.304688 243.792969 97.183594 247.40625 97.066406 250.644531 C 96.929688 254.25 97.179688 257.851562 96.269531 261.390625 C 96.09375 262.109375 95.578125 262.46875 95.015625 262.542969 C 94.667969 262.917969 94.160156 263.160156 93.535156 263.09375 C 82.566406 261.84375 71.550781 258.28125 60.496094 258.296875 C 50.503906 258.304688 40.628906 260.023438 30.664062 260.390625 C 30.703125 281.878906 40.921875 304.421875 60.65625 314.421875 C 73.210938 320.785156 87.472656 322.152344 99.34375 313.621094 C 102.625 311.273438 106.71875 307.863281 111.007812 307.785156 C 114.9375 307.710938 118.492188 309.007812 122.199219 310.035156 C 121.871094 305.738281 121.230469 301.539062 123.460938 297.574219 C 126.335938 292.507812 134.285156 288.945312 139.71875 287.703125 C 148.808594 285.65625 168.003906 285.554688 168.082031 298.953125 C 168.085938 299.601562 167.125 302.195312 168.832031 300.601562 C 169.882812 299.605469 170.820312 299.183594 172.144531 298.566406 C 174.199219 297.628906 177.007812 297.996094 179.136719 298.589844 C 188.011719 301.050781 198.660156 304.332031 207.675781 300.886719 C 225.085938 294.21875 233.847656 277.46875 235.992188 259.972656 " fill-opacity="1" fill-rule="nonzero"/></g></g></g></g><g clip-path="url(#11c27e5f5b)"><g clip-path="url(#07444da832)"><g clip-path="url(#9cc57a1171)"><g clip-path="url(#6172bda043)"><path fill="#000000" d="M 336.621094 242.25 L 337.511719 242.484375 C 337.878906 242.574219 338.242188 242.675781 338.605469 242.78125 C 339.511719 243.039062 340.453125 243.296875 341.421875 243.4375 C 342.300781 243.550781 343.191406 243.695312 344.078125 243.832031 L 345.429688 244.039062 L 345.101562 242.707031 C 344.699219 241.035156 343.640625 240.117188 341.894531 239.894531 C 341.132812 239.792969 339.988281 239.691406 338.828125 239.777344 C 337.726562 239.863281 337.136719 240.332031 336.859375 241.367188 L 336.621094 242.25 " fill-opacity="1" fill-rule="nonzero"/></g></g></g></g><g clip-path="url(#af8da0a768)"><g clip-path="url(#679b90672b)"><g clip-path="url(#373d46c6fb)"><g clip-path="url(#59163fafbf)"><path fill="#000000" d="M 142.242188 258.835938 C 145.996094 258.652344 149.675781 258.480469 153.265625 258.300781 C 153.355469 258.296875 153.429688 258.292969 153.519531 258.292969 C 153.453125 257.324219 153.441406 256.367188 153.464844 255.519531 C 145.871094 255.71875 137.777344 255.90625 129.125 256.074219 C 129.414062 256.429688 129.75 256.699219 130.136719 256.785156 C 130.15625 256.796875 130.167969 256.800781 130.167969 256.800781 C 130.925781 256.859375 131.613281 257.355469 131.617188 258.332031 C 131.609375 258.664062 131.617188 259.011719 131.617188 259.355469 L 132.175781 259.328125 L 133.648438 259.261719 C 134.621094 259.203125 135.578125 259.15625 136.539062 259.117188 C 138.453125 259.023438 140.355469 258.925781 142.242188 258.835938 " fill-opacity="1" fill-rule="nonzero"/></g></g></g></g><g clip-path="url(#9d630c6c96)"><g clip-path="url(#03a2fdf8d9)"><g clip-path="url(#72f9028921)"><g clip-path="url(#0fa2671141)"><path fill="#000000" d="M 28.761719 252.824219 L 28.59375 252.378906 L 28.601562 251.988281 L 28.285156 251.714844 C 26.929688 250.53125 24.960938 250.164062 23.015625 249.792969 L 21.949219 249.589844 L 21.9375 250.679688 C 21.921875 251.90625 21.945312 253.152344 21.96875 254.402344 L 22.175781 255.480469 L 23.261719 255.234375 C 24.945312 254.871094 26.851562 254.453125 28.277344 253.246094 L 28.761719 252.824219 " fill-opacity="1" fill-rule="nonzero"/></g></g></g></g><g clip-path="url(#3e94417ff2)"><g clip-path="url(#8b92ad1c22)"><g clip-path="url(#dbd248a754)"><g clip-path="url(#de733b8911)"><path fill="#000000" d="M 332.0625 250.171875 L 332.042969 248.355469 C 325.570312 247.980469 314.613281 247.4375 308.625 247.246094 L 307.621094 247.210938 L 307.6875 248.210938 C 307.746094 249.199219 307.792969 250.191406 307.78125 251.179688 L 307.761719 252.15625 L 308.742188 252.105469 C 312.871094 251.890625 319.136719 251.320312 324.65625 250.816406 C 327.417969 250.578125 330.015625 250.34375 332.0625 250.171875 " fill-opacity="1" fill-rule="nonzero"/></g></g></g></g><g clip-path="url(#da3e80e3bb)"><g clip-path="url(#095687c214)"><g clip-path="url(#010921e524)"><g clip-path="url(#3ea9cc6cba)"><path fill="#000000" d="M 129.292969 259 L 128.789062 258.75 C 127.144531 257.941406 126.03125 255.984375 125.734375 253.382812 C 125.367188 250.167969 126.386719 246.882812 128.214844 245.390625 L 128.578125 245.09375 L 128.542969 244.628906 C 128.507812 243.914062 128.511719 243.191406 128.519531 242.472656 C 128.527344 241.535156 128.527344 240.566406 128.4375 239.59375 L 128.347656 238.730469 L 127.472656 238.78125 C 124.640625 238.953125 122.660156 241.753906 121.886719 246.660156 C 121.066406 251.941406 121.886719 259.554688 124.667969 263.804688 C 125.539062 265.132812 126.609375 266.136719 127.863281 266.632812 L 128.96875 267.070312 L 129.105469 265.890625 C 129.347656 263.867188 129.320312 261.8125 129.304688 259.832031 L 129.292969 259 " fill-opacity="1" fill-rule="nonzero"/></g></g></g></g><g clip-path="url(#d8fef3fce4)"><g clip-path="url(#e12b9445ea)"><g clip-path="url(#29cdd7b2b2)"><g clip-path="url(#095e06e48e)"><path fill="#000000" d="M 305.320312 247.285156 C 305.046875 247.113281 304.835938 246.839844 304.75 246.464844 C 255.765625 245.773438 206.839844 241.984375 157.863281 241.285156 C 157.671875 242.050781 157.535156 242.832031 157.425781 243.621094 C 165.367188 243.738281 172.554688 243.851562 179.035156 243.945312 C 192.386719 244.269531 202.78125 244.507812 210.726562 244.691406 C 218.652344 244.921875 224.132812 245.117188 227.609375 245.292969 C 231.097656 245.464844 232.585938 245.625 232.59375 245.757812 C 232.582031 245.890625 231.0625 246 227.5625 246.050781 C 224.074219 246.109375 218.589844 246.109375 210.660156 246.078125 C 202.738281 245.992188 192.347656 245.875 179.015625 245.753906 C 172.476562 245.675781 165.222656 245.597656 157.203125 245.496094 C 157.105469 246.628906 157.039062 247.742188 156.972656 248.839844 C 158.96875 248.832031 160.925781 248.820312 162.84375 248.800781 C 173.613281 248.761719 183.328125 248.707031 192.082031 248.679688 C 209.609375 248.617188 223.265625 248.582031 233.6875 248.550781 C 244.125 248.558594 251.320312 248.597656 255.917969 248.675781 C 260.507812 248.761719 262.496094 248.867188 262.496094 249.003906 C 262.503906 249.136719 260.519531 249.285156 255.929688 249.441406 C 251.347656 249.589844 244.152344 249.78125 233.722656 249.953125 C 223.285156 250.082031 209.613281 250.273438 192.082031 250.519531 C 181.726562 250.585938 170.039062 250.695312 156.855469 250.792969 C 156.816406 251.671875 156.769531 252.535156 156.753906 253.410156 C 158.578125 253.351562 160.375 253.320312 162.15625 253.28125 C 172.722656 253.019531 182.261719 252.804688 190.863281 252.59375 C 208.046875 252.234375 221.457031 251.941406 231.699219 251.722656 C 241.933594 251.542969 248.996094 251.449219 253.515625 251.445312 C 258.019531 251.449219 259.960938 251.519531 259.96875 251.652344 C 259.96875 251.789062 258.023438 251.980469 253.535156 252.21875 C 249.019531 252.457031 241.972656 252.765625 231.726562 253.136719 C 221.503906 253.457031 208.097656 253.90625 190.914062 254.457031 C 180.835938 254.71875 169.511719 255.089844 156.730469 255.4375 C 156.730469 256.0625 156.757812 256.679688 156.792969 257.304688 C 156.8125 257.523438 156.863281 257.808594 156.902344 258.132812 C 162.773438 257.84375 168.429688 257.582031 173.839844 257.324219 C 186.933594 256.703125 198.734375 256.144531 209.386719 255.644531 C 230.671875 254.648438 247.277344 253.871094 259.949219 253.289062 C 272.625 252.726562 281.382812 252.386719 286.96875 252.226562 C 289.761719 252.136719 291.769531 252.097656 293.074219 252.09375 C 294.378906 252.089844 294.984375 252.128906 295.003906 252.195312 C 295 252.253906 294.40625 252.359375 293.125 252.480469 C 291.835938 252.609375 289.835938 252.769531 287.050781 252.972656 C 281.5 253.378906 272.757812 253.933594 260.070312 254.667969 C 247.382812 255.351562 230.78125 256.269531 209.464844 257.449219 C 194.457031 258.183594 177.121094 259.039062 157.203125 260.027344 C 157.285156 260.601562 157.324219 261.027344 157.203125 261.015625 C 157.382812 261.027344 157.53125 261.066406 157.671875 261.109375 C 206.554688 259.457031 255.308594 254.667969 304.191406 252.984375 C 304.371094 252.652344 304.851562 252.429688 305.429688 252.34375 C 305.558594 250.667969 305.4375 248.972656 305.320312 247.285156 " fill-opacity="1" fill-rule="nonzero"/></g></g></g></g><g clip-path="url(#fa0d155f8b)"><g clip-path="url(#d483e59e84)"><g clip-path="url(#1657be9136)"><g clip-path="url(#88cdf902cf)"><path fill="#000000" d="M 330.460938 270.578125 C 331.351562 269.457031 331.171875 267.347656 330.933594 265.457031 L 330.835938 264.460938 C 330.777344 263.554688 330.71875 262.628906 330.160156 261.902344 L 329.914062 261.597656 L 329.519531 261.550781 C 329.316406 261.535156 329.152344 261.5625 328.960938 261.5625 C 328.722656 259.117188 328.683594 256.59375 328.546875 254.171875 C 329.195312 253.925781 329.839844 253.664062 330.476562 253.351562 L 334.265625 251.488281 L 334.273438 251.726562 L 335.1875 251.089844 C 335.507812 250.871094 335.855469 250.6875 336.203125 250.539062 L 346.21875 250.152344 C 345.828125 250.269531 345.089844 250.421875 343.742188 250.535156 L 342.957031 250.605469 C 342.203125 250.667969 341.375 250.734375 340.5 250.839844 C 339.253906 250.984375 337.949219 251.191406 336.804688 251.667969 C 336.160156 251.898438 335.667969 252.257812 335.222656 252.617188 L 334.515625 253.535156 L 334.519531 253.589844 C 334.46875 253.734375 334.558594 253.890625 334.601562 253.957031 L 334.667969 254.058594 L 334.734375 254.09375 C 334.773438 254.136719 334.820312 254.175781 334.882812 254.214844 L 335.128906 254.382812 L 335.367188 254.464844 C 335.847656 254.558594 336.46875 254.503906 337.257812 254.285156 C 337.664062 254.175781 338.066406 254.0625 338.476562 253.941406 C 339.253906 253.703125 340.054688 253.472656 340.84375 253.34375 C 342.152344 253.132812 343.441406 252.902344 344.746094 252.671875 C 346.457031 252.371094 348.238281 252.054688 349.988281 251.796875 L 350.144531 251.773438 L 350.222656 251.632812 C 350.535156 250.996094 350.667969 250.371094 350.625 249.664062 C 350.613281 249.578125 350.621094 249.484375 350.660156 249.332031 L 350.675781 249.253906 L 350.648438 249.179688 C 350.621094 249.085938 350.609375 248.980469 350.625 248.867188 C 350.644531 248.148438 350.496094 247.507812 350.167969 246.902344 L 350.085938 246.761719 L 348.574219 246.582031 C 345.726562 246.242188 342.78125 245.898438 340.039062 245.214844 C 339.648438 245.121094 339.257812 245.011719 338.871094 244.902344 C 337.992188 244.671875 337.082031 244.414062 336.175781 244.292969 C 335.949219 244.257812 335.757812 244.246094 335.582031 244.238281 L 335.3125 244.3125 C 335.222656 244.347656 335.136719 244.390625 335.039062 244.445312 L 334.769531 244.609375 C 334.710938 244.660156 334.660156 244.703125 334.601562 244.769531 L 334.535156 244.808594 L 334.492188 244.882812 C 334.445312 244.984375 334.363281 245.136719 334.441406 245.292969 L 334.65625 245.652344 L 335.199219 246.238281 C 335.628906 246.5625 336.113281 246.902344 336.742188 247.117188 C 337.910156 247.578125 339.21875 247.757812 340.464844 247.871094 C 341.285156 247.960938 342.0625 248.007812 342.773438 248.050781 C 343.105469 248.074219 343.417969 248.097656 343.714844 248.117188 C 345.242188 248.210938 346.023438 248.378906 346.355469 248.503906 C 346.085938 248.613281 345.464844 248.792969 344.066406 249.015625 L 340.386719 249.160156 L 338.09375 248.777344 C 337.441406 248.671875 336.851562 248.511719 336.273438 248.308594 C 335.898438 248.171875 335.539062 247.984375 335.148438 247.738281 L 334.253906 247.167969 L 334.25 247.351562 L 330.390625 245.558594 C 329.839844 245.304688 329.28125 245.09375 328.710938 244.886719 C 329.003906 242.417969 328.898438 239.917969 328.796875 237.4375 C 328.949219 237.429688 329.109375 237.414062 329.210938 237.394531 L 329.5625 237.34375 L 329.789062 237.082031 C 330.496094 236.234375 330.523438 235.066406 330.566406 233.933594 L 330.617188 232.902344 C 330.773438 230.933594 330.828125 228.941406 329.695312 228.046875 C 329.351562 227.761719 328.730469 227.472656 327.808594 227.75 C 324.972656 228.585938 325.210938 231.636719 325.347656 233.285156 L 325.367188 233.589844 C 325.40625 234.429688 325.472656 235.558594 326 236.359375 C 326.035156 236.417969 326.085938 236.472656 326.121094 236.53125 C 326.367188 236.835938 326.660156 237.039062 326.960938 237.1875 C 327.058594 239.554688 327.191406 241.957031 326.945312 244.324219 C 324.367188 243.617188 321.703125 243.3125 319.019531 243.253906 C 318.964844 240.765625 318.972656 238.28125 319.058594 235.792969 L 319.671875 235.914062 L 319.84375 235.015625 C 319.972656 234.339844 320 233.570312 320.027344 232.953125 C 320.035156 232.617188 320.054688 232.320312 320.089844 232.011719 C 320.582031 228.164062 320.160156 227.175781 319.683594 226.707031 C 319.390625 226.417969 319.007812 226.285156 318.597656 226.335938 C 316.011719 226.703125 316.226562 230.378906 316.3125 231.949219 L 316.332031 232.199219 C 316.351562 233.015625 316.421875 233.835938 316.53125 234.640625 L 316.765625 235.816406 L 317.230469 235.808594 C 317.152344 238.292969 317.148438 240.761719 317.195312 243.246094 C 315.304688 243.257812 313.417969 243.34375 311.539062 243.4375 C 310.367188 243.488281 309.199219 243.550781 308.046875 243.589844 L 306.042969 243.652344 L 307.402344 245.125 C 307.449219 245.160156 307.488281 245.21875 307.503906 245.277344 L 307.734375 245.804688 L 308.316406 245.824219 C 311.953125 245.929688 315.667969 246.257812 319.257812 246.566406 C 322.765625 246.859375 326.394531 247.175781 329.984375 247.292969 L 334.242188 247.445312 L 334.214844 248.238281 C 334.195312 249.023438 334.195312 249.820312 334.230469 250.617188 L 334.269531 251.386719 L 330.015625 251.625 C 326.472656 251.820312 322.894531 252.203125 319.421875 252.578125 C 315.800781 252.960938 312.050781 253.359375 308.351562 253.542969 L 307.332031 253.597656 L 307.484375 254.523438 L 307.441406 254.527344 L 306.914062 255.769531 L 308.269531 255.792969 C 309.402344 255.800781 310.546875 255.835938 311.695312 255.867188 C 313.640625 255.921875 315.601562 255.96875 317.566406 255.929688 C 317.667969 258.390625 317.792969 260.855469 317.917969 263.320312 C 317.71875 263.324219 317.503906 263.375 317.296875 263.546875 C 316.894531 263.855469 316.859375 264.285156 316.804688 264.949219 C 316.730469 265.804688 316.679688 266.667969 316.683594 267.539062 L 316.691406 267.933594 C 316.691406 268.957031 316.691406 270.71875 317.421875 271.820312 C 317.761719 272.335938 318.246094 272.714844 318.964844 272.789062 C 319.414062 272.847656 319.828125 272.699219 320.136719 272.371094 C 320.851562 271.644531 320.925781 270.023438 320.414062 266.8125 L 319.476562 266.753906 L 320.382812 266.628906 C 320.351562 266.421875 320.339844 266.144531 320.328125 265.832031 C 320.296875 265.296875 320.257812 264.6875 320.160156 264.15625 L 319.796875 263.304688 L 319.753906 263.308594 C 319.617188 260.832031 319.492188 258.351562 319.390625 255.871094 C 321.878906 255.753906 324.351562 255.429688 326.746094 254.75 C 326.878906 257.117188 326.945312 259.53125 327.191406 261.894531 C 326.550781 262.234375 326.121094 262.796875 325.953125 263.613281 C 325.75 264.554688 325.65625 265.433594 325.679688 266.285156 C 325.6875 267.316406 325.695312 268.945312 326.441406 270.082031 C 326.574219 270.28125 326.71875 270.46875 326.898438 270.625 C 327.484375 271.152344 328.234375 271.375 329.144531 271.292969 C 329.667969 271.242188 330.132812 270.996094 330.460938 270.578125 " fill-opacity="1" fill-rule="nonzero"/></g></g></g></g><g clip-path="url(#ba2391603d)"><g clip-path="url(#710f5683b1)"><g clip-path="url(#e6a8704ad0)"><g clip-path="url(#1739473edc)"><path fill="#000000" d="M 143.9375 245.332031 C 141.675781 245.300781 139.375 245.273438 137.027344 245.242188 C 135.859375 245.234375 134.667969 245.21875 133.460938 245.191406 C 132.867188 245.195312 132.269531 245.179688 131.660156 245.167969 L 130.90625 245.160156 C 130.941406 245.546875 130.855469 245.867188 130.6875 246.097656 C 130.535156 246.484375 130.242188 246.835938 129.773438 247.039062 C 129.113281 247.316406 128.648438 248.050781 128.34375 249 L 128.574219 249.007812 L 129.785156 249 C 130.589844 248.996094 131.378906 248.988281 132.171875 248.984375 C 133.757812 248.976562 135.3125 248.972656 136.851562 248.949219 C 139.953125 248.929688 142.976562 248.917969 145.921875 248.898438 C 148.550781 248.890625 151.121094 248.878906 153.652344 248.855469 C 153.6875 247.730469 153.765625 246.597656 153.886719 245.464844 C 150.683594 245.414062 147.371094 245.390625 143.9375 245.332031 " fill-opacity="1" fill-rule="nonzero"/></g></g></g></g><g clip-path="url(#76672cfd87)"><g clip-path="url(#31324ce313)"><g clip-path="url(#c8ac5728ca)"><g clip-path="url(#6f311043d9)"><path fill="#000000" d="M 128.003906 251.03125 C 127.929688 252.21875 128.046875 253.460938 128.351562 254.511719 L 128.613281 254.496094 L 129.78125 254.472656 C 130.554688 254.457031 131.332031 254.207031 132.105469 254.1875 C 133.652344 254.152344 135.171875 253.875 136.675781 253.84375 C 139.699219 253.792969 142.652344 253.722656 145.535156 253.664062 C 148.257812 253.609375 150.914062 253.550781 153.503906 253.480469 C 153.53125 252.621094 153.546875 251.726562 153.574219 250.832031 C 145.585938 250.902344 137.066406 250.972656 128.003906 251.03125 " fill-opacity="1" fill-rule="nonzero"/></g></g></g></g></svg>