<svg xmlns="http://www.w3.org/2000/svg" xmlns:xlink="http://www.w3.org/1999/xlink" width="500" zoomAndPan="magnify" viewBox="0 0 375 374.999991" height="500" preserveAspectRatio="xMidYMid meet" version="1.0"><defs><g/><clipPath id="f7855497eb"><path d="M 88.671875 112.492188 L 290.421875 112.492188 L 290.421875 338.242188 L 88.671875 338.242188 Z M 88.671875 112.492188 " clip-rule="nonzero"/></clipPath></defs><g clip-path="url(#f7855497eb)"><path fill="#000000" d="M 290.394531 112.492188 L 272.597656 314.476562 L 189.546875 338.242188 L 106.496094 314.476562 L 88.699219 112.492188 Z M 140.910156 243.1875 L 164.636719 243.1875 L 165.214844 258.039062 L 189.546875 266.347656 L 213.878906 258.039062 L 215.640625 231.308594 L 163.457031 231.308594 L 162.25 207.542969 L 216.84375 207.542969 L 218.605469 183.78125 L 136.761719 183.78125 L 134.976562 160.015625 L 243.539062 160.015625 L 240.574219 207.542969 L 236.402344 275.863281 L 189.546875 291.316406 L 142.691406 275.863281 Z M 140.910156 243.1875 " fill-opacity="1" fill-rule="evenodd"/></g><g fill="#000000" fill-opacity="1"><g transform="translate(129.213842, 90.200004)"><g><path d="M 33.34375 -26.859375 C 32.03125 -28.515625 30.460938 -29.835938 28.640625 -30.828125 C 26.828125 -31.816406 25.035156 -32.3125 23.265625 -32.3125 C 21.210938 -32.3125 19.34375 -31.796875 17.65625 -30.765625 C 15.976562 -29.742188 14.65625 -28.332031 13.6875 -26.53125 C 12.71875 -24.738281 12.234375 -22.738281 12.234375 -20.53125 C 12.234375 -18.320312 12.71875 -16.316406 13.6875 -14.515625 C 14.65625 -12.722656 15.976562 -11.316406 17.65625 -10.296875 C 19.34375 -9.273438 21.210938 -8.765625 23.265625 -8.765625 C 24.921875 -8.765625 26.65625 -9.1875 28.46875 -10.03125 C 30.289062 -10.882812 31.914062 -12.046875 33.34375 -13.515625 L 39.5625 -6.84375 C 37.351562 -4.519531 34.726562 -2.671875 31.6875 -1.296875 C 28.65625 0.0664062 25.648438 0.75 22.671875 0.75 C 18.648438 0.75 15.015625 -0.175781 11.765625 -2.03125 C 8.523438 -3.882812 5.972656 -6.414062 4.109375 -9.625 C 2.253906 -12.832031 1.328125 -16.429688 1.328125 -20.421875 C 1.328125 -24.359375 2.273438 -27.910156 4.171875 -31.078125 C 6.066406 -34.253906 8.664062 -36.75 11.96875 -38.5625 C 15.28125 -40.382812 18.984375 -41.296875 23.078125 -41.296875 C 26.097656 -41.296875 29.078125 -40.664062 32.015625 -39.40625 C 34.953125 -38.15625 37.445312 -36.445312 39.5 -34.28125 Z M 33.34375 -26.859375 "/></g></g></g><g fill="#000000" fill-opacity="1"><g transform="translate(169.347182, 90.200004)"><g><path d="M 31.953125 -28.421875 C 29.785156 -29.691406 27.472656 -30.734375 25.015625 -31.546875 C 22.566406 -32.359375 20.507812 -32.765625 18.84375 -32.765625 C 17.53125 -32.765625 16.492188 -32.519531 15.734375 -32.03125 C 14.984375 -31.550781 14.609375 -30.847656 14.609375 -29.921875 C 14.609375 -29.035156 14.9375 -28.289062 15.59375 -27.6875 C 16.257812 -27.09375 17.070312 -26.609375 18.03125 -26.234375 C 19 -25.867188 20.429688 -25.398438 22.328125 -24.828125 C 25.148438 -24.015625 27.476562 -23.203125 29.3125 -22.390625 C 31.15625 -21.578125 32.734375 -20.328125 34.046875 -18.640625 C 35.359375 -16.960938 36.015625 -14.769531 36.015625 -12.0625 C 36.015625 -9.351562 35.296875 -7.039062 33.859375 -5.125 C 32.429688 -3.21875 30.472656 -1.78125 27.984375 -0.8125 C 25.492188 0.15625 22.71875 0.640625 19.65625 0.640625 C 16.289062 0.640625 12.9375 0.0507812 9.59375 -1.125 C 6.25 -2.3125 3.359375 -3.925781 0.921875 -5.96875 L 5.046875 -14.265625 C 7.097656 -12.453125 9.523438 -10.960938 12.328125 -9.796875 C 15.128906 -8.640625 17.613281 -8.0625 19.78125 -8.0625 C 21.363281 -8.0625 22.609375 -8.347656 23.515625 -8.921875 C 24.421875 -9.503906 24.875 -10.359375 24.875 -11.484375 C 24.875 -12.410156 24.535156 -13.179688 23.859375 -13.796875 C 23.191406 -14.421875 22.34375 -14.914062 21.3125 -15.28125 C 20.289062 -15.644531 18.851562 -16.082031 17 -16.59375 C 14.207031 -17.363281 11.898438 -18.144531 10.078125 -18.9375 C 8.265625 -19.726562 6.710938 -20.925781 5.421875 -22.53125 C 4.128906 -24.132812 3.484375 -26.269531 3.484375 -28.9375 C 3.484375 -31.457031 4.148438 -33.660156 5.484375 -35.546875 C 6.816406 -37.441406 8.707031 -38.898438 11.15625 -39.921875 C 13.613281 -40.953125 16.46875 -41.46875 19.71875 -41.46875 C 22.65625 -41.46875 25.554688 -41.050781 28.421875 -40.21875 C 31.285156 -39.382812 33.796875 -38.273438 35.953125 -36.890625 Z M 31.953125 -28.421875 "/></g></g></g><g fill="#000000" fill-opacity="1"><g transform="translate(206.812698, 90.200004)"><g><path d="M 31.953125 -28.421875 C 29.785156 -29.691406 27.472656 -30.734375 25.015625 -31.546875 C 22.566406 -32.359375 20.507812 -32.765625 18.84375 -32.765625 C 17.53125 -32.765625 16.492188 -32.519531 15.734375 -32.03125 C 14.984375 -31.550781 14.609375 -30.847656 14.609375 -29.921875 C 14.609375 -29.035156 14.9375 -28.289062 15.59375 -27.6875 C 16.257812 -27.09375 17.070312 -26.609375 18.03125 -26.234375 C 19 -25.867188 20.429688 -25.398438 22.328125 -24.828125 C 25.148438 -24.015625 27.476562 -23.203125 29.3125 -22.390625 C 31.15625 -21.578125 32.734375 -20.328125 34.046875 -18.640625 C 35.359375 -16.960938 36.015625 -14.769531 36.015625 -12.0625 C 36.015625 -9.351562 35.296875 -7.039062 33.859375 -5.125 C 32.429688 -3.21875 30.472656 -1.78125 27.984375 -0.8125 C 25.492188 0.15625 22.71875 0.640625 19.65625 0.640625 C 16.289062 0.640625 12.9375 0.0507812 9.59375 -1.125 C 6.25 -2.3125 3.359375 -3.925781 0.921875 -5.96875 L 5.046875 -14.265625 C 7.097656 -12.453125 9.523438 -10.960938 12.328125 -9.796875 C 15.128906 -8.640625 17.613281 -8.0625 19.78125 -8.0625 C 21.363281 -8.0625 22.609375 -8.347656 23.515625 -8.921875 C 24.421875 -9.503906 24.875 -10.359375 24.875 -11.484375 C 24.875 -12.410156 24.535156 -13.179688 23.859375 -13.796875 C 23.191406 -14.421875 22.34375 -14.914062 21.3125 -15.28125 C 20.289062 -15.644531 18.851562 -16.082031 17 -16.59375 C 14.207031 -17.363281 11.898438 -18.144531 10.078125 -18.9375 C 8.265625 -19.726562 6.710938 -20.925781 5.421875 -22.53125 C 4.128906 -24.132812 3.484375 -26.269531 3.484375 -28.9375 C 3.484375 -31.457031 4.148438 -33.660156 5.484375 -35.546875 C 6.816406 -37.441406 8.707031 -38.898438 11.15625 -39.921875 C 13.613281 -40.953125 16.46875 -41.46875 19.71875 -41.46875 C 22.65625 -41.46875 25.554688 -41.050781 28.421875 -40.21875 C 31.285156 -39.382812 33.796875 -38.273438 35.953125 -36.890625 Z M 31.953125 -28.421875 "/></g></g></g></svg>