<svg xmlns="http://www.w3.org/2000/svg" xmlns:xlink="http://www.w3.org/1999/xlink" width="500" zoomAndPan="magnify" viewBox="0 0 375 374.999991" height="500" preserveAspectRatio="xMidYMid meet" version="1.0"><defs><g/><clipPath id="b39126597a"><path d="M 92.152344 160.304688 L 282.652344 160.304688 L 282.652344 350.804688 L 92.152344 350.804688 Z M 92.152344 160.304688 " clip-rule="nonzero"/></clipPath></defs><g clip-path="url(#b39126597a)"><path fill="#000000" d="M 145.875 341.296875 C 149.328125 336.085938 152.625 330.433594 155.765625 324.308594 C 151.359375 330.003906 147.1875 335.203125 143.195312 339.949219 C 144.082031 340.410156 144.972656 340.863281 145.875 341.296875 Z M 216.976562 240.445312 C 218.613281 273.511719 211.96875 302.027344 177.058594 308.484375 C 177.214844 307.523438 177.277344 306.542969 177.214844 305.550781 C 186.15625 302.132812 201.101562 288.273438 202.308594 276.117188 C 199.320312 290.410156 182.144531 299.953125 176.519531 302.230469 C 176.140625 301.183594 175.597656 300.125 174.863281 299.058594 C 202.03125 282.195312 198.238281 254.375 198.046875 250.949219 C 197.683594 257.570312 195.183594 269.945312 188.761719 278.632812 C 184.5 284.390625 175.261719 290.371094 169.523438 293.742188 C 162.589844 288.566406 155.757812 287.15625 147.757812 291.222656 L 147.75 291.191406 C 147.75 291.191406 139.796875 214.554688 227.242188 202.625 C 227.242188 202.625 215.652344 213.699219 216.976562 240.445312 Z M 187.402344 160.304688 C 134.796875 160.304688 92.152344 202.949219 92.152344 255.554688 C 92.152344 282.921875 103.691406 307.589844 122.171875 324.960938 C 125.207031 320.34375 128.25 315.363281 131.320312 309.988281 C 131.320312 309.988281 145.953125 288.597656 163.15625 299.378906 C 180.355469 310.167969 172.152344 320.914062 167.640625 328.113281 C 163.726562 334.351562 159.753906 340.105469 155.714844 345.40625 C 165.628906 348.902344 176.292969 350.804688 187.402344 350.804688 C 240.007812 350.804688 282.648438 308.160156 282.648438 255.554688 C 282.648438 202.949219 240.007812 160.308594 187.402344 160.304688 " fill-opacity="1" fill-rule="evenodd"/></g><g fill="#000000" fill-opacity="1"><g transform="translate(99.861091, 71.633374)"><g><path d="M 16.484375 -31.234375 C 19.742188 -31.234375 22.628906 -30.578125 25.140625 -29.265625 C 27.648438 -27.960938 29.601562 -26.128906 31 -23.765625 C 32.394531 -21.398438 33.09375 -18.691406 33.09375 -15.640625 C 33.09375 -12.578125 32.382812 -9.859375 30.96875 -7.484375 C 29.5625 -5.109375 27.570312 -3.265625 25 -1.953125 C 22.4375 -0.648438 19.492188 0 16.171875 0 L 3.03125 0 L 3.03125 -31.234375 Z M 16.703125 -6.59375 C 18.273438 -6.59375 19.671875 -6.960938 20.890625 -7.703125 C 22.109375 -8.441406 23.054688 -9.492188 23.734375 -10.859375 C 24.421875 -12.234375 24.765625 -13.796875 24.765625 -15.546875 C 24.765625 -17.328125 24.398438 -18.898438 23.671875 -20.265625 C 22.941406 -21.628906 21.9375 -22.691406 20.65625 -23.453125 C 19.382812 -24.210938 17.929688 -24.59375 16.296875 -24.59375 L 11.1875 -24.59375 L 11.1875 -6.59375 Z M 16.703125 -6.59375 "/></g></g></g><g fill="#000000" fill-opacity="1"><g transform="translate(133.979328, 71.633374)"><g><path d="M 3.03125 0 L 3.03125 -31.234375 L 27.65625 -31.234375 L 27.65625 -24.71875 L 11.1875 -24.71875 L 11.1875 -18.890625 L 26.0625 -18.890625 L 26.0625 -12.421875 L 11.1875 -12.390625 L 11.1875 -6.5 L 28.109375 -6.5 L 28.109375 0 Z M 3.03125 0 "/></g></g></g><g fill="#000000" fill-opacity="1"><g transform="translate(164.044353, 71.633374)"><g><path d="M 24.546875 -21.828125 C 22.878906 -22.804688 21.101562 -23.609375 19.21875 -24.234375 C 17.332031 -24.859375 15.753906 -25.171875 14.484375 -25.171875 C 13.472656 -25.171875 12.675781 -24.984375 12.09375 -24.609375 C 11.507812 -24.242188 11.21875 -23.703125 11.21875 -22.984375 C 11.21875 -22.304688 11.46875 -21.734375 11.96875 -21.265625 C 12.476562 -20.804688 13.101562 -20.4375 13.84375 -20.15625 C 14.59375 -19.875 15.695312 -19.507812 17.15625 -19.0625 C 19.320312 -18.4375 21.109375 -17.8125 22.515625 -17.1875 C 23.929688 -16.570312 25.140625 -15.617188 26.140625 -14.328125 C 27.148438 -13.035156 27.65625 -11.347656 27.65625 -9.265625 C 27.65625 -7.179688 27.101562 -5.40625 26 -3.9375 C 24.90625 -2.46875 23.398438 -1.363281 21.484375 -0.625 C 19.578125 0.113281 17.445312 0.484375 15.09375 0.484375 C 12.507812 0.484375 9.929688 0.03125 7.359375 -0.875 C 4.796875 -1.78125 2.582031 -3.019531 0.71875 -4.59375 L 3.875 -10.953125 C 5.445312 -9.554688 7.3125 -8.410156 9.46875 -7.515625 C 11.625 -6.628906 13.53125 -6.1875 15.1875 -6.1875 C 16.40625 -6.1875 17.363281 -6.410156 18.0625 -6.859375 C 18.757812 -7.304688 19.109375 -7.957031 19.109375 -8.8125 C 19.109375 -9.53125 18.847656 -10.125 18.328125 -10.59375 C 17.804688 -11.070312 17.148438 -11.453125 16.359375 -11.734375 C 15.578125 -12.015625 14.472656 -12.347656 13.046875 -12.734375 C 10.910156 -13.328125 9.144531 -13.925781 7.75 -14.53125 C 6.351562 -15.144531 5.15625 -16.066406 4.15625 -17.296875 C 3.164062 -18.535156 2.671875 -20.179688 2.671875 -22.234375 C 2.671875 -24.160156 3.179688 -25.847656 4.203125 -27.296875 C 5.234375 -28.753906 6.691406 -29.875 8.578125 -30.65625 C 10.460938 -31.445312 12.648438 -31.84375 15.140625 -31.84375 C 17.398438 -31.84375 19.628906 -31.523438 21.828125 -30.890625 C 24.023438 -30.253906 25.957031 -29.398438 27.625 -28.328125 Z M 24.546875 -21.828125 "/></g></g></g><g fill="#000000" fill-opacity="1"><g transform="translate(192.817696, 71.633374)"><g><path d="M 3.03125 0 L 3.03125 -31.234375 L 11.1875 -31.234375 L 11.1875 0 Z M 3.03125 0 "/></g></g></g><g fill="#000000" fill-opacity="1"><g transform="translate(207.0262, 71.633374)"><g><path d="M 23.703125 -15.953125 L 30.734375 -15.953125 L 30.734375 -3.515625 C 29.078125 -2.296875 27.035156 -1.304688 24.609375 -0.546875 C 22.191406 0.203125 19.898438 0.578125 17.734375 0.578125 C 14.578125 0.578125 11.726562 -0.125 9.1875 -1.53125 C 6.65625 -2.945312 4.660156 -4.882812 3.203125 -7.34375 C 1.753906 -9.8125 1.03125 -12.578125 1.03125 -15.640625 C 1.03125 -18.671875 1.78125 -21.410156 3.28125 -23.859375 C 4.78125 -26.304688 6.84375 -28.226562 9.46875 -29.625 C 12.09375 -31.019531 15.023438 -31.71875 18.265625 -31.71875 C 20.578125 -31.71875 22.890625 -31.289062 25.203125 -30.4375 C 27.523438 -29.59375 29.488281 -28.460938 31.09375 -27.046875 L 26.453125 -21.34375 C 25.328125 -22.40625 24.03125 -23.25 22.5625 -23.875 C 21.09375 -24.5 19.644531 -24.8125 18.21875 -24.8125 C 16.550781 -24.8125 15.050781 -24.410156 13.71875 -23.609375 C 12.382812 -22.804688 11.332031 -21.707031 10.5625 -20.3125 C 9.789062 -18.914062 9.40625 -17.359375 9.40625 -15.640625 C 9.40625 -13.878906 9.789062 -12.296875 10.5625 -10.890625 C 11.332031 -9.484375 12.398438 -8.378906 13.765625 -7.578125 C 15.128906 -6.773438 16.644531 -6.375 18.3125 -6.375 C 19.882812 -6.375 21.679688 -6.878906 23.703125 -7.890625 Z M 23.703125 -15.953125 "/></g></g></g><g fill="#000000" fill-opacity="1"><g transform="translate(240.119993, 71.633374)"><g><path d="M 24.40625 -12.421875 L 24.359375 -31.234375 L 31.9375 -31.234375 L 31.9375 0 L 24.8125 0 L 10.640625 -18.671875 L 10.640625 0 L 3.03125 0 L 3.03125 -31.234375 L 10.203125 -31.234375 Z M 24.40625 -12.421875 "/></g></g></g><g fill="#000000" fill-opacity="1"><g transform="translate(96.245055, 133.590035)"><g><path d="M 16.484375 -31.234375 C 19.742188 -31.234375 22.628906 -30.578125 25.140625 -29.265625 C 27.648438 -27.960938 29.601562 -26.128906 31 -23.765625 C 32.394531 -21.398438 33.09375 -18.691406 33.09375 -15.640625 C 33.09375 -12.578125 32.382812 -9.859375 30.96875 -7.484375 C 29.5625 -5.109375 27.570312 -3.265625 25 -1.953125 C 22.4375 -0.648438 19.492188 0 16.171875 0 L 3.03125 0 L 3.03125 -31.234375 Z M 16.703125 -6.59375 C 18.273438 -6.59375 19.671875 -6.960938 20.890625 -7.703125 C 22.109375 -8.441406 23.054688 -9.492188 23.734375 -10.859375 C 24.421875 -12.234375 24.765625 -13.796875 24.765625 -15.546875 C 24.765625 -17.328125 24.398438 -18.898438 23.671875 -20.265625 C 22.941406 -21.628906 21.9375 -22.691406 20.65625 -23.453125 C 19.382812 -24.210938 17.929688 -24.59375 16.296875 -24.59375 L 11.1875 -24.59375 L 11.1875 -6.59375 Z M 16.703125 -6.59375 "/></g></g></g><g fill="#000000" fill-opacity="1"><g transform="translate(130.363291, 133.590035)"><g><path d="M 3.03125 0 L 3.03125 -31.234375 L 11.1875 -31.234375 L 11.1875 0 Z M 3.03125 0 "/></g></g></g><g fill="#000000" fill-opacity="1"><g transform="translate(144.571795, 133.590035)"><g><path d="M 23.703125 -15.953125 L 30.734375 -15.953125 L 30.734375 -3.515625 C 29.078125 -2.296875 27.035156 -1.304688 24.609375 -0.546875 C 22.191406 0.203125 19.898438 0.578125 17.734375 0.578125 C 14.578125 0.578125 11.726562 -0.125 9.1875 -1.53125 C 6.65625 -2.945312 4.660156 -4.882812 3.203125 -7.34375 C 1.753906 -9.8125 1.03125 -12.578125 1.03125 -15.640625 C 1.03125 -18.671875 1.78125 -21.410156 3.28125 -23.859375 C 4.78125 -26.304688 6.84375 -28.226562 9.46875 -29.625 C 12.09375 -31.019531 15.023438 -31.71875 18.265625 -31.71875 C 20.578125 -31.71875 22.890625 -31.289062 25.203125 -30.4375 C 27.523438 -29.59375 29.488281 -28.460938 31.09375 -27.046875 L 26.453125 -21.34375 C 25.328125 -22.40625 24.03125 -23.25 22.5625 -23.875 C 21.09375 -24.5 19.644531 -24.8125 18.21875 -24.8125 C 16.550781 -24.8125 15.050781 -24.410156 13.71875 -23.609375 C 12.382812 -22.804688 11.332031 -21.707031 10.5625 -20.3125 C 9.789062 -18.914062 9.40625 -17.359375 9.40625 -15.640625 C 9.40625 -13.878906 9.789062 -12.296875 10.5625 -10.890625 C 11.332031 -9.484375 12.398438 -8.378906 13.765625 -7.578125 C 15.128906 -6.773438 16.644531 -6.375 18.3125 -6.375 C 19.882812 -6.375 21.679688 -6.878906 23.703125 -7.890625 Z M 23.703125 -15.953125 "/></g></g></g><g fill="#000000" fill-opacity="1"><g transform="translate(177.665588, 133.590035)"><g><path d="M 3.03125 0 L 3.03125 -31.234375 L 11.1875 -31.234375 L 11.1875 0 Z M 3.03125 0 "/></g></g></g><g fill="#000000" fill-opacity="1"><g transform="translate(191.874092, 133.590035)"><g><path d="M 0.3125 -24.5 L 0.3125 -31.234375 L 27.078125 -31.234375 L 27.078125 -24.5 L 17.734375 -24.5 L 17.734375 0 L 9.578125 0 L 9.578125 -24.5 Z M 0.3125 -24.5 "/></g></g></g><g fill="#000000" fill-opacity="1"><g transform="translate(219.222131, 133.590035)"><g><path d="M 34.65625 0 L 25.96875 0 L 23.828125 -5.53125 L 10.328125 -5.53125 L 8.15625 0 L -0.21875 0 L 13.1875 -31.234375 L 21.5625 -31.234375 Z M 17.15625 -22.890625 L 12.78125 -11.765625 L 21.421875 -11.765625 Z M 17.15625 -22.890625 "/></g></g></g><g fill="#000000" fill-opacity="1"><g transform="translate(253.652149, 133.590035)"><g><path d="M 3.03125 0 L 3.03125 -31.234375 L 11.1875 -31.234375 L 11.1875 -6.953125 L 24.40625 -6.953125 L 24.40625 0 Z M 3.03125 0 "/></g></g></g></svg>