<svg xmlns="http://www.w3.org/2000/svg" xmlns:xlink="http://www.w3.org/1999/xlink" width="500" zoomAndPan="magnify" viewBox="0 0 375 374.999991" height="500" preserveAspectRatio="xMidYMid meet" version="1.0"><defs><g/><clipPath id="4f4d9848d5"><path d="M 72.773438 169 L 291 169 L 291 323.964844 L 72.773438 323.964844 Z M 72.773438 169 " clip-rule="nonzero"/></clipPath><clipPath id="9158c31948"><path d="M 84 158.214844 L 302.273438 158.214844 L 302.273438 313 L 84 313 Z M 84 158.214844 " clip-rule="nonzero"/></clipPath></defs><g clip-path="url(#4f4d9848d5)"><path fill="#393939" d="M 273.320312 324.25 L 90.25 324.25 C 80.628906 324.25 72.800781 316.425781 72.800781 306.804688 L 72.800781 198.800781 C 72.800781 198.101562 72.882812 197.417969 73.03125 196.761719 C 72.882812 196.109375 72.800781 195.425781 72.800781 194.726562 L 72.800781 187.066406 C 72.800781 177.445312 80.628906 169.617188 90.25 169.617188 L 273.320312 169.617188 C 282.941406 169.617188 290.769531 177.445312 290.769531 187.066406 L 290.769531 194.726562 C 290.769531 195.425781 290.6875 196.109375 290.539062 196.761719 C 290.6875 197.417969 290.769531 198.101562 290.769531 198.800781 L 290.769531 306.804688 C 290.769531 316.425781 282.941406 324.25 273.320312 324.25 " fill-opacity="1" fill-rule="nonzero"/></g><g clip-path="url(#9158c31948)"><path fill="#ffffff" d="M 302.191406 175.644531 C 302.191406 166.023438 294.363281 158.199219 284.742188 158.199219 L 101.667969 158.199219 C 92.046875 158.199219 84.222656 166.023438 84.222656 175.644531 L 84.222656 183.304688 C 84.222656 184.003906 84.300781 184.6875 84.453125 185.34375 C 84.300781 186 84.222656 186.679688 84.222656 187.382812 L 84.222656 295.382812 C 84.222656 305.003906 92.046875 312.832031 101.667969 312.832031 L 284.742188 312.832031 C 294.363281 312.832031 302.191406 305.003906 302.191406 295.382812 L 302.191406 187.382812 C 302.191406 186.679688 302.109375 186 301.960938 185.34375 C 302.109375 184.6875 302.191406 184.003906 302.191406 183.304688 L 302.191406 175.644531 " fill-opacity="1" fill-rule="nonzero"/></g><path fill="#000000" d="M 123.605469 238.179688 C 123.605469 237.402344 124.046875 236.691406 124.75 236.351562 L 161.363281 218.503906 C 161.996094 218.195312 162.742188 218.238281 163.335938 218.609375 C 163.929688 218.980469 164.292969 219.632812 164.292969 220.335938 L 164.292969 236.289062 C 164.292969 237.117188 163.792969 237.863281 163.023438 238.175781 L 143.5625 246.113281 L 163.023438 254.050781 C 163.792969 254.363281 164.292969 255.109375 164.292969 255.9375 L 164.292969 271.980469 C 164.292969 272.683594 163.929688 273.335938 163.335938 273.707031 C 163.007812 273.914062 162.632812 274.019531 162.253906 274.019531 C 161.949219 274.019531 161.644531 273.949219 161.363281 273.8125 L 124.75 255.964844 C 124.046875 255.625 123.605469 254.914062 123.605469 254.136719 Z M 168.183594 279.15625 L 200.816406 210.945312 C 201.15625 210.234375 201.871094 209.785156 202.65625 209.785156 L 216.160156 209.785156 C 216.859375 209.785156 217.511719 210.144531 217.882812 210.738281 C 218.257812 211.328125 218.300781 212.070312 218 212.703125 L 185.363281 280.917969 C 185.027344 281.625 184.3125 282.074219 183.527344 282.074219 L 170.019531 282.074219 C 169.320312 282.074219 168.667969 281.714844 168.296875 281.125 C 167.921875 280.53125 167.878906 279.789062 168.183594 279.15625 Z M 220.757812 256.027344 C 220.757812 255.199219 221.261719 254.453125 222.027344 254.140625 L 241.488281 246.203125 L 222.027344 238.265625 C 221.261719 237.953125 220.757812 237.207031 220.757812 236.378906 L 220.757812 220.335938 C 220.757812 219.632812 221.121094 218.980469 221.714844 218.609375 C 222.308594 218.234375 223.058594 218.195312 223.6875 218.503906 L 260.300781 236.351562 C 261.003906 236.691406 261.445312 237.402344 261.445312 238.179688 L 261.445312 254.136719 C 261.445312 254.914062 261.003906 255.625 260.300781 255.964844 L 223.6875 273.8125 C 223.40625 273.949219 223.101562 274.019531 222.796875 274.019531 C 222.417969 274.019531 222.046875 273.914062 221.714844 273.707031 C 221.121094 273.335938 220.757812 272.683594 220.757812 271.980469 Z M 93.355469 295.382812 C 93.355469 299.964844 97.085938 303.695312 101.667969 303.695312 L 284.742188 303.695312 C 289.324219 303.695312 293.054688 299.964844 293.054688 295.382812 L 293.054688 187.382812 L 93.355469 187.382812 L 93.355469 295.382812 " fill-opacity="1" fill-rule="nonzero"/><path fill="#000000" d="M 131.003906 181.335938 C 127.890625 181.335938 125.355469 178.800781 125.355469 175.683594 C 125.355469 172.570312 127.890625 170.035156 131.003906 170.035156 C 134.121094 170.035156 136.65625 172.570312 136.65625 175.683594 C 136.65625 178.800781 134.121094 181.335938 131.003906 181.335938 Z M 117.644531 181.335938 C 114.53125 181.335938 111.996094 178.800781 111.996094 175.683594 C 111.996094 172.570312 114.53125 170.035156 117.644531 170.035156 C 120.761719 170.035156 123.296875 172.570312 123.296875 175.683594 C 123.296875 178.800781 120.761719 181.335938 117.644531 181.335938 Z M 104.285156 181.335938 C 101.171875 181.335938 98.636719 178.800781 98.636719 175.683594 C 98.636719 172.570312 101.171875 170.035156 104.285156 170.035156 C 107.402344 170.035156 109.9375 172.570312 109.9375 175.683594 C 109.9375 178.800781 107.402344 181.335938 104.285156 181.335938 Z M 284.742188 167.332031 L 101.667969 167.332031 C 97.085938 167.332031 93.355469 171.0625 93.355469 175.644531 L 93.355469 183.304688 L 293.054688 183.304688 L 293.054688 175.644531 C 293.054688 171.0625 289.324219 167.332031 284.742188 167.332031 " fill-opacity="1" fill-rule="nonzero"/><g fill="#000000" fill-opacity="1"><g transform="translate(13.110894, 75.433325)"><g><path d="M 12.28125 -23.25 C 14.707031 -23.25 16.851562 -22.757812 18.71875 -21.78125 C 20.59375 -20.8125 22.046875 -19.445312 23.078125 -17.6875 C 24.117188 -15.9375 24.640625 -13.921875 24.640625 -11.640625 C 24.640625 -9.367188 24.113281 -7.347656 23.0625 -5.578125 C 22.019531 -3.804688 20.539062 -2.429688 18.625 -1.453125 C 16.707031 -0.484375 14.515625 0 12.046875 0 L 2.25 0 L 2.25 -23.25 Z M 12.4375 -4.90625 C 13.613281 -4.90625 14.65625 -5.179688 15.5625 -5.734375 C 16.46875 -6.285156 17.171875 -7.070312 17.671875 -8.09375 C 18.179688 -9.113281 18.4375 -10.273438 18.4375 -11.578125 C 18.4375 -12.898438 18.164062 -14.070312 17.625 -15.09375 C 17.082031 -16.113281 16.335938 -16.90625 15.390625 -17.46875 C 14.441406 -18.03125 13.359375 -18.3125 12.140625 -18.3125 L 8.328125 -18.3125 L 8.328125 -4.90625 Z M 12.4375 -4.90625 "/></g></g></g><g fill="#000000" fill-opacity="1"><g transform="translate(38.514579, 75.433325)"><g><path d="M 2.25 0 L 2.25 -23.25 L 20.59375 -23.25 L 20.59375 -18.40625 L 8.328125 -18.40625 L 8.328125 -14.0625 L 19.40625 -14.0625 L 19.40625 -9.25 L 8.328125 -9.21875 L 8.328125 -4.84375 L 20.9375 -4.84375 L 20.9375 0 Z M 2.25 0 "/></g></g></g><g fill="#000000" fill-opacity="1"><g transform="translate(60.900332, 75.433325)"><g><path d="M 18.28125 -16.25 C 17.039062 -16.976562 15.71875 -17.570312 14.3125 -18.03125 C 12.90625 -18.5 11.726562 -18.734375 10.78125 -18.734375 C 10.03125 -18.734375 9.4375 -18.59375 9 -18.3125 C 8.570312 -18.039062 8.359375 -17.640625 8.359375 -17.109375 C 8.359375 -16.609375 8.546875 -16.1875 8.921875 -15.84375 C 9.296875 -15.5 9.757812 -15.21875 10.3125 -15 C 10.863281 -14.789062 11.679688 -14.523438 12.765625 -14.203125 C 14.378906 -13.734375 15.710938 -13.265625 16.765625 -12.796875 C 17.816406 -12.335938 18.71875 -11.625 19.46875 -10.65625 C 20.21875 -9.695312 20.59375 -8.445312 20.59375 -6.90625 C 20.59375 -5.351562 20.179688 -4.03125 19.359375 -2.9375 C 18.546875 -1.84375 17.425781 -1.019531 16 -0.46875 C 14.570312 0.0820312 12.988281 0.359375 11.25 0.359375 C 9.320312 0.359375 7.398438 0.0234375 5.484375 -0.640625 C 3.578125 -1.316406 1.925781 -2.242188 0.53125 -3.421875 L 2.890625 -8.15625 C 4.054688 -7.113281 5.441406 -6.257812 7.046875 -5.59375 C 8.648438 -4.9375 10.070312 -4.609375 11.3125 -4.609375 C 12.21875 -4.609375 12.929688 -4.773438 13.453125 -5.109375 C 13.972656 -5.441406 14.234375 -5.925781 14.234375 -6.5625 C 14.234375 -7.09375 14.035156 -7.535156 13.640625 -7.890625 C 13.253906 -8.242188 12.769531 -8.523438 12.1875 -8.734375 C 11.601562 -8.953125 10.78125 -9.203125 9.71875 -9.484375 C 8.125 -9.929688 6.804688 -10.378906 5.765625 -10.828125 C 4.734375 -11.285156 3.84375 -11.972656 3.09375 -12.890625 C 2.351562 -13.804688 1.984375 -15.023438 1.984375 -16.546875 C 1.984375 -17.984375 2.363281 -19.242188 3.125 -20.328125 C 3.894531 -21.410156 4.976562 -22.242188 6.375 -22.828125 C 7.78125 -23.421875 9.414062 -23.71875 11.28125 -23.71875 C 12.957031 -23.71875 14.613281 -23.476562 16.25 -23 C 17.882812 -22.53125 19.320312 -21.894531 20.5625 -21.09375 Z M 18.28125 -16.25 "/></g></g></g><g fill="#000000" fill-opacity="1"><g transform="translate(82.324334, 75.433325)"><g><path d="M 2.25 0 L 2.25 -23.25 L 20.59375 -23.25 L 20.59375 -18.40625 L 8.328125 -18.40625 L 8.328125 -14.0625 L 19.40625 -14.0625 L 19.40625 -9.25 L 8.328125 -9.21875 L 8.328125 -4.84375 L 20.9375 -4.84375 L 20.9375 0 Z M 2.25 0 "/></g></g></g><g fill="#000000" fill-opacity="1"><g transform="translate(104.710086, 75.433325)"><g><path d="M 18.171875 -9.25 L 18.140625 -23.25 L 23.78125 -23.25 L 23.78125 0 L 18.484375 0 L 7.921875 -13.90625 L 7.921875 0 L 2.25 0 L 2.25 -23.25 L 7.59375 -23.25 Z M 18.171875 -9.25 "/></g></g></g><g fill="#000000" fill-opacity="1"><g transform="translate(130.777059, 75.433325)"><g><path d="M 8.953125 0 L -0.0625 -23.25 L 6.46875 -23.25 L 12.28125 -6.4375 L 18.109375 -23.25 L 24.34375 -23.25 L 15.265625 0 Z M 8.953125 0 "/></g></g></g><g fill="#000000" fill-opacity="1"><g transform="translate(155.053169, 75.433325)"><g><path d="M 13.328125 -23.625 C 15.703125 -23.625 17.84375 -23.101562 19.75 -22.0625 C 21.664062 -21.019531 23.171875 -19.59375 24.265625 -17.78125 C 25.359375 -15.96875 25.90625 -13.929688 25.90625 -11.671875 C 25.90625 -9.398438 25.359375 -7.34375 24.265625 -5.5 C 23.171875 -3.664062 21.664062 -2.21875 19.75 -1.15625 C 17.84375 -0.09375 15.703125 0.4375 13.328125 0.4375 C 10.960938 0.4375 8.820312 -0.0859375 6.90625 -1.140625 C 5 -2.191406 3.5 -3.640625 2.40625 -5.484375 C 1.3125 -7.335938 0.765625 -9.398438 0.765625 -11.671875 C 0.765625 -13.929688 1.3125 -15.96875 2.40625 -17.78125 C 3.5 -19.59375 5 -21.019531 6.90625 -22.0625 C 8.820312 -23.101562 10.960938 -23.625 13.328125 -23.625 Z M 13.40625 -18.484375 C 12.25 -18.484375 11.175781 -18.179688 10.1875 -17.578125 C 9.207031 -16.984375 8.429688 -16.160156 7.859375 -15.109375 C 7.285156 -14.054688 7 -12.898438 7 -11.640625 C 7 -10.359375 7.289062 -9.191406 7.875 -8.140625 C 8.457031 -7.085938 9.234375 -6.257812 10.203125 -5.65625 C 11.179688 -5.050781 12.25 -4.75 13.40625 -4.75 C 14.550781 -4.75 15.601562 -5.050781 16.5625 -5.65625 C 17.53125 -6.257812 18.289062 -7.085938 18.84375 -8.140625 C 19.394531 -9.191406 19.671875 -10.359375 19.671875 -11.640625 C 19.671875 -12.898438 19.394531 -14.054688 18.84375 -15.109375 C 18.289062 -16.160156 17.53125 -16.984375 16.5625 -17.578125 C 15.601562 -18.179688 14.550781 -18.484375 13.40625 -18.484375 Z M 13.40625 -18.484375 "/></g></g></g><g fill="#000000" fill-opacity="1"><g transform="translate(181.717089, 75.433325)"><g><path d="M 2.25 0 L 2.25 -23.25 L 8.328125 -23.25 L 8.328125 -5.171875 L 18.171875 -5.171875 L 18.171875 0 Z M 2.25 0 "/></g></g></g><g fill="#000000" fill-opacity="1"><g transform="translate(200.388467, 75.433325)"><g><path d="M 8.953125 0 L -0.0625 -23.25 L 6.46875 -23.25 L 12.28125 -6.4375 L 18.109375 -23.25 L 24.34375 -23.25 L 15.265625 0 Z M 8.953125 0 "/></g></g></g><g fill="#000000" fill-opacity="1"><g transform="translate(224.664577, 75.433325)"><g><path d="M 2.25 0 L 2.25 -23.25 L 8.328125 -23.25 L 8.328125 0 Z M 2.25 0 "/></g></g></g><g fill="#000000" fill-opacity="1"><g transform="translate(235.243906, 75.433325)"><g><path d="M 2.25 0 L 2.25 -23.25 L 8.859375 -23.25 L 15.59375 -9.65625 L 22.296875 -23.25 L 28.890625 -23.25 L 28.890625 0 L 23.515625 0 L 23.484375 -14.734375 L 17.546875 -2.328125 L 13.640625 -2.328125 L 7.65625 -14.734375 L 7.65625 0 Z M 2.25 0 "/></g></g></g><g fill="#000000" fill-opacity="1"><g transform="translate(266.384972, 75.433325)"><g><path d="M 2.25 0 L 2.25 -23.25 L 20.59375 -23.25 L 20.59375 -18.40625 L 8.328125 -18.40625 L 8.328125 -14.0625 L 19.40625 -14.0625 L 19.40625 -9.25 L 8.328125 -9.21875 L 8.328125 -4.84375 L 20.9375 -4.84375 L 20.9375 0 Z M 2.25 0 "/></g></g></g><g fill="#000000" fill-opacity="1"><g transform="translate(288.770712, 75.433325)"><g><path d="M 18.171875 -9.25 L 18.140625 -23.25 L 23.78125 -23.25 L 23.78125 0 L 18.484375 0 L 7.921875 -13.90625 L 7.921875 0 L 2.25 0 L 2.25 -23.25 L 7.59375 -23.25 Z M 18.171875 -9.25 "/></g></g></g><g fill="#000000" fill-opacity="1"><g transform="translate(314.837696, 75.433325)"><g><path d="M 0.234375 -18.25 L 0.234375 -23.25 L 20.171875 -23.25 L 20.171875 -18.25 L 13.203125 -18.25 L 13.203125 0 L 7.125 0 L 7.125 -18.25 Z M 0.234375 -18.25 "/></g></g></g><g fill="#000000" fill-opacity="1"><g transform="translate(335.200442, 75.433325)"><g><path d="M 13.328125 -23.625 C 15.703125 -23.625 17.84375 -23.101562 19.75 -22.0625 C 21.664062 -21.019531 23.171875 -19.59375 24.265625 -17.78125 C 25.359375 -15.96875 25.90625 -13.929688 25.90625 -11.671875 C 25.90625 -9.398438 25.359375 -7.34375 24.265625 -5.5 C 23.171875 -3.664062 21.664062 -2.21875 19.75 -1.15625 C 17.84375 -0.09375 15.703125 0.4375 13.328125 0.4375 C 10.960938 0.4375 8.820312 -0.0859375 6.90625 -1.140625 C 5 -2.191406 3.5 -3.640625 2.40625 -5.484375 C 1.3125 -7.335938 0.765625 -9.398438 0.765625 -11.671875 C 0.765625 -13.929688 1.3125 -15.96875 2.40625 -17.78125 C 3.5 -19.59375 5 -21.019531 6.90625 -22.0625 C 8.820312 -23.101562 10.960938 -23.625 13.328125 -23.625 Z M 13.40625 -18.484375 C 12.25 -18.484375 11.175781 -18.179688 10.1875 -17.578125 C 9.207031 -16.984375 8.429688 -16.160156 7.859375 -15.109375 C 7.285156 -14.054688 7 -12.898438 7 -11.640625 C 7 -10.359375 7.289062 -9.191406 7.875 -8.140625 C 8.457031 -7.085938 9.234375 -6.257812 10.203125 -5.65625 C 11.179688 -5.050781 12.25 -4.75 13.40625 -4.75 C 14.550781 -4.75 15.601562 -5.050781 16.5625 -5.65625 C 17.53125 -6.257812 18.289062 -7.085938 18.84375 -8.140625 C 19.394531 -9.191406 19.671875 -10.359375 19.671875 -11.640625 C 19.671875 -12.898438 19.394531 -14.054688 18.84375 -15.109375 C 18.289062 -16.160156 17.53125 -16.984375 16.5625 -17.578125 C 15.601562 -18.179688 14.550781 -18.484375 13.40625 -18.484375 Z M 13.40625 -18.484375 "/></g></g></g><g fill="#000000" fill-opacity="1"><g transform="translate(46.028861, 133.933321)"><g/></g></g><g fill="#000000" fill-opacity="1"><g transform="translate(57.958548, 133.933321)"><g><path d="M 3 0 L 3 -30.953125 L 26.140625 -30.953125 L 26.09375 -24.5 L 11.078125 -24.5 L 11.078125 -17.625 L 24.953125 -17.625 L 24.953125 -11.171875 L 11.078125 -11.171875 L 11.078125 0 Z M 3 0 "/></g></g></g><g fill="#000000" fill-opacity="1"><g transform="translate(84.761433, 133.933321)"><g><path d="M 30.734375 0 L 21.59375 0 L 17.09375 -8.5625 L 11.078125 -8.5625 L 11.078125 0 L 3 0 L 3 -30.953125 L 16.90625 -30.953125 C 21 -30.953125 24.171875 -30 26.421875 -28.09375 C 28.679688 -26.195312 29.8125 -23.53125 29.8125 -20.09375 C 29.8125 -17.769531 29.335938 -15.757812 28.390625 -14.0625 C 27.453125 -12.375 26.082031 -11.054688 24.28125 -10.109375 Z M 11.078125 -24.5 L 11.078125 -15.015625 L 16.953125 -15.015625 C 18.597656 -15.015625 19.867188 -15.425781 20.765625 -16.25 C 21.671875 -17.070312 22.125 -18.265625 22.125 -19.828125 C 22.125 -21.328125 21.671875 -22.476562 20.765625 -23.28125 C 19.867188 -24.09375 18.597656 -24.5 16.953125 -24.5 Z M 11.078125 -24.5 "/></g></g></g><g fill="#000000" fill-opacity="1"><g transform="translate(116.730605, 133.933321)"><g><path d="M 17.75 -31.4375 C 20.894531 -31.4375 23.738281 -30.742188 26.28125 -29.359375 C 28.832031 -27.972656 30.835938 -26.070312 32.296875 -23.65625 C 33.753906 -21.25 34.484375 -18.546875 34.484375 -15.546875 C 34.484375 -12.515625 33.753906 -9.773438 32.296875 -7.328125 C 30.835938 -4.890625 28.832031 -2.960938 26.28125 -1.546875 C 23.738281 -0.128906 20.894531 0.578125 17.75 0.578125 C 14.601562 0.578125 11.753906 -0.117188 9.203125 -1.515625 C 6.660156 -2.921875 4.660156 -4.851562 3.203125 -7.3125 C 1.742188 -9.769531 1.015625 -12.515625 1.015625 -15.546875 C 1.015625 -18.546875 1.742188 -21.25 3.203125 -23.65625 C 4.660156 -26.070312 6.660156 -27.972656 9.203125 -29.359375 C 11.753906 -30.742188 14.601562 -31.4375 17.75 -31.4375 Z M 17.84375 -24.59375 C 16.3125 -24.59375 14.890625 -24.191406 13.578125 -23.390625 C 12.265625 -22.597656 11.222656 -21.503906 10.453125 -20.109375 C 9.691406 -18.710938 9.3125 -17.175781 9.3125 -15.5 C 9.3125 -13.789062 9.703125 -12.238281 10.484375 -10.84375 C 11.265625 -9.445312 12.300781 -8.34375 13.59375 -7.53125 C 14.894531 -6.71875 16.3125 -6.3125 17.84375 -6.3125 C 19.375 -6.3125 20.78125 -6.71875 22.0625 -7.53125 C 23.34375 -8.34375 24.347656 -9.445312 25.078125 -10.84375 C 25.816406 -12.238281 26.1875 -13.789062 26.1875 -15.5 C 26.1875 -17.175781 25.816406 -18.710938 25.078125 -20.109375 C 24.347656 -21.503906 23.34375 -22.597656 22.0625 -23.390625 C 20.78125 -24.191406 19.375 -24.59375 17.84375 -24.59375 Z M 17.84375 -24.59375 "/></g></g></g><g fill="#000000" fill-opacity="1"><g transform="translate(152.232281, 133.933321)"><g><path d="M 24.203125 -12.3125 L 24.15625 -30.953125 L 31.65625 -30.953125 L 31.65625 0 L 24.59375 0 L 10.546875 -18.5 L 10.546875 0 L 3 0 L 3 -30.953125 L 10.109375 -30.953125 Z M 24.203125 -12.3125 "/></g></g></g><g fill="#000000" fill-opacity="1"><g transform="translate(186.939142, 133.933321)"><g><path d="M 0.3125 -24.28125 L 0.3125 -30.953125 L 26.84375 -30.953125 L 26.84375 -24.28125 L 17.578125 -24.28125 L 17.578125 0 L 9.5 0 L 9.5 -24.28125 Z M 0.3125 -24.28125 "/></g></g></g><g fill="#000000" fill-opacity="1"><g transform="translate(214.05112, 133.933321)"><g><path d="M 2.421875 -11.046875 L 2.421875 -16.078125 L 14.125 -16.078125 L 14.125 -11.046875 Z M 2.421875 -11.046875 "/></g></g></g><g fill="#000000" fill-opacity="1"><g transform="translate(230.609736, 133.933321)"><g><path d="M 3 0 L 3 -30.953125 L 27.421875 -30.953125 L 27.421875 -24.5 L 11.078125 -24.5 L 11.078125 -18.71875 L 25.828125 -18.71875 L 25.828125 -12.3125 L 11.078125 -12.28125 L 11.078125 -6.453125 L 27.859375 -6.453125 L 27.859375 0 Z M 3 0 "/></g></g></g><g fill="#000000" fill-opacity="1"><g transform="translate(260.415231, 133.933321)"><g><path d="M 24.203125 -12.3125 L 24.15625 -30.953125 L 31.65625 -30.953125 L 31.65625 0 L 24.59375 0 L 10.546875 -18.5 L 10.546875 0 L 3 0 L 3 -30.953125 L 10.109375 -30.953125 Z M 24.203125 -12.3125 "/></g></g></g><g fill="#000000" fill-opacity="1"><g transform="translate(295.122092, 133.933321)"><g><path d="M 16.34375 -30.953125 C 19.570312 -30.953125 22.429688 -30.300781 24.921875 -29 C 27.410156 -27.707031 29.347656 -25.890625 30.734375 -23.546875 C 32.117188 -21.210938 32.8125 -18.53125 32.8125 -15.5 C 32.8125 -12.46875 32.109375 -9.773438 30.703125 -7.421875 C 29.304688 -5.066406 27.332031 -3.238281 24.78125 -1.9375 C 22.238281 -0.644531 19.320312 0 16.03125 0 L 3 0 L 3 -30.953125 Z M 16.5625 -6.53125 C 18.125 -6.53125 19.503906 -6.898438 20.703125 -7.640625 C 21.910156 -8.378906 22.851562 -9.425781 23.53125 -10.78125 C 24.207031 -12.132812 24.546875 -13.675781 24.546875 -15.40625 C 24.546875 -17.175781 24.1875 -18.738281 23.46875 -20.09375 C 22.75 -21.445312 21.753906 -22.5 20.484375 -23.25 C 19.222656 -24 17.78125 -24.375 16.15625 -24.375 L 11.078125 -24.375 L 11.078125 -6.53125 Z M 16.5625 -6.53125 "/></g></g></g></svg>