<svg xmlns="http://www.w3.org/2000/svg" xmlns:xlink="http://www.w3.org/1999/xlink" width="500" zoomAndPan="magnify" viewBox="0 0 375 374.999991" height="500" preserveAspectRatio="xMidYMid meet" version="1.0"><defs><clipPath id="9d30ed1b77"><path d="M 213 136 L 337.5 136 L 337.5 237 L 213 237 Z M 213 136 " clip-rule="nonzero"/></clipPath><clipPath id="2617d4ac34"><path d="M 38 119.046875 L 174 119.046875 L 174 255 L 38 255 Z M 38 119.046875 " clip-rule="nonzero"/></clipPath></defs><g clip-path="url(#9d30ed1b77)"><path fill="#000000" d="M 238.65625 171.8125 C 233.246094 171.8125 229.214844 174.46875 229.214844 180.863281 C 229.214844 185.632812 231.871094 189.023438 238.359375 189.023438 C 243.863281 189.023438 247.601562 185.777344 247.601562 180.660156 C 247.601562 174.855469 244.261719 171.8125 238.65625 171.8125 Z M 227.839844 216.953125 C 226.558594 218.527344 225.28125 220.199219 225.28125 222.125 C 225.28125 226.050781 230.292969 227.238281 237.179688 227.238281 C 242.882812 227.238281 250.652344 226.839844 250.652344 221.535156 C 250.652344 218.386719 246.914062 218.1875 242.191406 217.890625 L 227.875 216.914062 Z M 256.949219 172.101562 C 258.714844 174.371094 260.589844 177.511719 260.589844 182.039062 C 260.589844 192.949219 252 199.34375 239.640625 199.34375 C 236.460938 199.34375 233.675781 198.949219 231.871094 198.460938 L 228.625 203.628906 L 238.265625 204.21875 C 255.285156 205.300781 265.304688 205.796875 265.304688 218.867188 C 265.304688 230.183594 255.378906 236.5625 238.265625 236.5625 C 220.464844 236.5625 213.683594 232.039062 213.683594 224.234375 C 213.683594 219.8125 215.65625 217.449219 219.089844 214.203125 C 215.84375 212.835938 214.765625 210.371094 214.765625 207.71875 C 214.765625 205.554688 215.84375 203.582031 217.617188 201.753906 L 223.714844 195.851562 C 218.894531 193.496094 215.25 188.375 215.25 181.136719 C 215.25 169.828125 222.726562 162.0625 237.773438 162.0625 C 242.003906 162.0625 244.5625 162.453125 246.824219 163.050781 L 266.003906 163.050781 L 266.003906 171.40625 L 256.953125 172.09375 M 283.300781 154.230469 C 277.730469 154.230469 274.449219 150.984375 274.449219 145.375 C 274.449219 139.761719 277.695312 136.71875 283.300781 136.71875 C 289.003906 136.71875 292.25 139.773438 292.25 145.375 C 292.25 150.972656 289.003906 154.230469 283.304688 154.230469 Z M 270.574219 213.332031 L 270.574219 205.570312 L 275.59375 204.882812 C 276.96875 204.6875 277.167969 204.390625 277.167969 202.910156 L 277.167969 174.003906 C 277.167969 172.925781 276.875 172.238281 275.886719 171.9375 L 270.574219 170.070312 L 271.65625 162.109375 L 292.015625 162.109375 L 292.015625 202.925781 C 292.015625 204.503906 292.113281 204.695312 293.589844 204.898438 L 298.601562 205.585938 L 298.601562 213.34375 L 270.566406 213.34375 M 337.53125 209.527344 C 333.300781 211.59375 327.101562 213.503906 321.496094 213.503906 C 309.789062 213.503906 305.367188 208.789062 305.367188 197.667969 L 305.367188 171.898438 C 305.367188 171.3125 305.367188 170.914062 304.574219 170.914062 L 297.734375 170.914062 L 297.734375 162.164062 C 306.386719 161.210938 309.832031 156.851562 310.914062 146.132812 L 320.257812 146.132812 L 320.257812 160.097656 C 320.257812 160.78125 320.257812 161.082031 321.046875 161.082031 L 334.917969 161.082031 L 334.917969 170.914062 L 320.21875 170.914062 L 320.21875 194.375 C 320.21875 200.183594 321.601562 202.441406 326.898438 202.441406 C 329.65625 202.441406 332.46875 201.753906 334.867188 200.867188 L 337.523438 209.523438 " fill-opacity="1" fill-rule="nonzero"/></g><g clip-path="url(#2617d4ac34)"><path fill="#000000" d="M 170.703125 181.292969 L 111.746094 122.339844 C 108.355469 118.945312 102.847656 118.945312 99.449219 122.339844 L 87.210938 134.582031 L 102.738281 150.109375 C 106.347656 148.890625 110.484375 149.710938 113.351562 152.578125 C 114.039062 153.265625 114.613281 154.03125 115.082031 154.882812 C 115.554688 155.730469 115.894531 156.628906 116.113281 157.570312 C 116.328125 158.515625 116.414062 159.472656 116.359375 160.441406 C 116.308594 161.410156 116.121094 162.351562 115.804688 163.269531 L 130.769531 178.234375 C 134.347656 176.988281 138.566406 177.796875 141.460938 180.683594 C 142.101562 181.324219 142.652344 182.039062 143.105469 182.824219 C 143.5625 183.613281 143.90625 184.445312 144.140625 185.320312 C 144.378906 186.199219 144.496094 187.09375 144.496094 188 C 144.496094 188.910156 144.378906 189.800781 144.144531 190.679688 C 143.90625 191.558594 143.5625 192.390625 143.109375 193.175781 C 142.652344 193.964844 142.105469 194.675781 141.460938 195.320312 C 140.820312 195.960938 140.101562 196.507812 139.316406 196.960938 C 138.527344 197.414062 137.695312 197.757812 136.816406 197.992188 C 135.941406 198.226562 135.046875 198.347656 134.140625 198.347656 C 133.230469 198.347656 132.339844 198.226562 131.460938 197.992188 C 130.585938 197.757812 129.753906 197.414062 128.96875 196.960938 C 128.179688 196.503906 127.46875 195.957031 126.824219 195.3125 C 123.789062 192.273438 123.039062 187.804688 124.578125 184.0625 L 110.65625 170.144531 L 110.65625 206.871094 C 111.613281 207.363281 112.574219 208.007812 113.394531 208.828125 C 117.433594 212.867188 117.433594 219.417969 113.394531 223.460938 C 112.914062 223.945312 112.390625 224.371094 111.828125 224.75 C 111.261719 225.128906 110.664062 225.445312 110.039062 225.707031 C 109.410156 225.96875 108.761719 226.164062 108.097656 226.296875 C 107.429688 226.429688 106.757812 226.496094 106.078125 226.496094 C 105.398438 226.496094 104.726562 226.429688 104.058594 226.296875 C 103.394531 226.164062 102.746094 225.96875 102.117188 225.707031 C 101.492188 225.445312 100.894531 225.128906 100.332031 224.75 C 99.765625 224.371094 99.242188 223.945312 98.761719 223.460938 C 94.722656 219.414062 94.722656 212.867188 98.761719 208.828125 C 99.742188 207.851562 100.871094 207.097656 102.152344 206.570312 L 102.152344 169.507812 C 100.957031 169 99.765625 168.253906 98.761719 167.28125 C 98.035156 166.554688 97.433594 165.738281 96.949219 164.832031 C 96.464844 163.929688 96.125 162.972656 95.925781 161.964844 C 95.730469 160.957031 95.683594 159.945312 95.785156 158.921875 C 95.890625 157.902344 96.140625 156.917969 96.535156 155.972656 L 81.226562 140.660156 L 40.777344 181.015625 C 40.375 181.417969 40.015625 181.859375 39.699219 182.332031 C 39.382812 182.808594 39.117188 183.308594 38.898438 183.835938 C 38.679688 184.363281 38.515625 184.910156 38.40625 185.46875 C 38.292969 186.027344 38.238281 186.59375 38.238281 187.164062 C 38.238281 187.734375 38.292969 188.300781 38.40625 188.859375 C 38.515625 189.417969 38.679688 189.960938 38.898438 190.492188 C 39.117188 191.019531 39.382812 191.519531 39.699219 191.992188 C 40.015625 192.46875 40.375 192.910156 40.777344 193.3125 L 99.738281 252.261719 C 103.128906 255.65625 108.632812 255.65625 112.03125 252.261719 L 170.703125 193.589844 C 171.105469 193.1875 171.464844 192.746094 171.78125 192.269531 C 172.097656 191.796875 172.363281 191.292969 172.582031 190.765625 C 172.800781 190.238281 172.964844 189.695312 173.074219 189.136719 C 173.1875 188.578125 173.242188 188.011719 173.242188 187.441406 C 173.242188 186.871094 173.1875 186.304688 173.074219 185.746094 C 172.964844 185.183594 172.800781 184.640625 172.582031 184.113281 C 172.363281 183.585938 172.097656 183.085938 171.78125 182.609375 C 171.464844 182.136719 171.105469 181.695312 170.703125 181.292969 " fill-opacity="1" fill-rule="nonzero"/></g></svg>