<svg xmlns="http://www.w3.org/2000/svg" xmlns:xlink="http://www.w3.org/1999/xlink" width="500" zoomAndPan="magnify" viewBox="0 0 375 374.999991" height="500" preserveAspectRatio="xMidYMid meet" version="1.0"><defs><g/><clipPath id="5d38d38368"><path d="M 75.949219 113.648438 L 298.699219 113.648438 L 298.699219 336.398438 L 75.949219 336.398438 Z M 75.949219 113.648438 " clip-rule="nonzero"/></clipPath><clipPath id="529fa2ea88"><path d="M 100 153 L 290.65625 153 L 290.65625 344.421875 L 100 344.421875 Z M 100 153 " clip-rule="nonzero"/></clipPath></defs><g clip-path="url(#5d38d38368)"><path fill="#000000" d="M 298.699219 225.023438 C 298.699219 226.847656 298.65625 228.667969 298.566406 230.488281 C 298.476562 232.308594 298.339844 234.125 298.164062 235.941406 C 297.984375 237.753906 297.761719 239.5625 297.492188 241.367188 C 297.226562 243.167969 296.914062 244.964844 296.558594 246.753906 C 296.203125 248.539062 295.804688 250.316406 295.363281 252.085938 C 294.917969 253.855469 294.433594 255.609375 293.902344 257.355469 C 293.375 259.097656 292.804688 260.828125 292.1875 262.542969 C 291.574219 264.261719 290.917969 265.960938 290.222656 267.644531 C 289.523438 269.328125 288.785156 270.996094 288.007812 272.644531 C 287.226562 274.289062 286.40625 275.917969 285.546875 277.527344 C 284.6875 279.132812 283.789062 280.71875 282.855469 282.28125 C 281.917969 283.84375 280.941406 285.386719 279.929688 286.902344 C 278.917969 288.414062 277.867188 289.90625 276.78125 291.371094 C 275.695312 292.832031 274.574219 294.269531 273.417969 295.679688 C 272.261719 297.089844 271.070312 298.46875 269.847656 299.820312 C 268.625 301.167969 267.367188 302.488281 266.078125 303.777344 C 264.789062 305.066406 263.46875 306.324219 262.121094 307.546875 C 260.769531 308.769531 259.390625 309.960938 257.980469 311.117188 C 256.570312 312.273438 255.132812 313.394531 253.671875 314.480469 C 252.207031 315.566406 250.714844 316.617188 249.199219 317.628906 C 247.683594 318.640625 246.144531 319.617188 244.582031 320.554688 C 243.019531 321.492188 241.433594 322.386719 239.828125 323.246094 C 238.21875 324.105469 236.589844 324.925781 234.941406 325.707031 C 233.296875 326.484375 231.628906 327.222656 229.945312 327.921875 C 228.261719 328.617188 226.5625 329.273438 224.84375 329.886719 C 223.128906 330.503906 221.398438 331.074219 219.65625 331.601562 C 217.910156 332.132812 216.15625 332.617188 214.386719 333.0625 C 212.617188 333.503906 210.839844 333.902344 209.050781 334.257812 C 207.265625 334.613281 205.46875 334.925781 203.667969 335.191406 C 201.863281 335.460938 200.054688 335.683594 198.242188 335.863281 C 196.425781 336.042969 194.609375 336.175781 192.789062 336.265625 C 190.96875 336.355469 189.148438 336.398438 187.324219 336.398438 C 185.5 336.398438 183.679688 336.355469 181.859375 336.265625 C 180.039062 336.175781 178.222656 336.042969 176.40625 335.863281 C 174.59375 335.683594 172.785156 335.460938 170.980469 335.191406 C 169.179688 334.925781 167.382812 334.613281 165.597656 334.257812 C 163.808594 333.902344 162.03125 333.503906 160.261719 333.0625 C 158.496094 332.617188 156.738281 332.132812 154.992188 331.601562 C 153.25 331.074219 151.519531 330.503906 149.804688 329.886719 C 148.085938 329.273438 146.386719 328.617188 144.703125 327.921875 C 143.019531 327.222656 141.351562 326.484375 139.707031 325.707031 C 138.058594 324.925781 136.429688 324.105469 134.824219 323.246094 C 133.214844 322.386719 131.628906 321.492188 130.066406 320.554688 C 128.503906 319.617188 126.964844 318.640625 125.449219 317.628906 C 123.933594 316.617188 122.441406 315.566406 120.976562 314.480469 C 119.515625 313.394531 118.078125 312.273438 116.667969 311.117188 C 115.261719 309.960938 113.878906 308.769531 112.53125 307.546875 C 111.179688 306.324219 109.859375 305.066406 108.570312 303.777344 C 107.28125 302.488281 106.023438 301.167969 104.800781 299.820312 C 103.578125 298.46875 102.386719 297.089844 101.230469 295.679688 C 100.074219 294.269531 98.953125 292.832031 97.867188 291.371094 C 96.78125 289.90625 95.730469 288.414062 94.71875 286.902344 C 93.707031 285.386719 92.730469 283.84375 91.792969 282.28125 C 90.859375 280.71875 89.960938 279.132812 89.101562 277.527344 C 88.242188 275.917969 87.421875 274.289062 86.644531 272.644531 C 85.863281 270.996094 85.125 269.328125 84.425781 267.644531 C 83.730469 265.960938 83.074219 264.261719 82.460938 262.542969 C 81.847656 260.828125 81.273438 259.097656 80.746094 257.355469 C 80.214844 255.609375 79.730469 253.855469 79.289062 252.085938 C 78.84375 250.316406 78.445312 248.539062 78.089844 246.753906 C 77.734375 244.964844 77.421875 243.167969 77.15625 241.367188 C 76.886719 239.5625 76.664062 237.753906 76.484375 235.941406 C 76.308594 234.125 76.171875 232.308594 76.082031 230.488281 C 75.996094 228.667969 75.949219 226.847656 75.949219 225.023438 C 75.949219 223.199219 75.996094 221.378906 76.082031 219.558594 C 76.171875 217.738281 76.308594 215.921875 76.484375 214.105469 C 76.664062 212.292969 76.886719 210.484375 77.15625 208.683594 C 77.421875 206.878906 77.734375 205.082031 78.089844 203.296875 C 78.445312 201.507812 78.84375 199.730469 79.289062 197.960938 C 79.730469 196.195312 80.214844 194.4375 80.746094 192.691406 C 81.273438 190.949219 81.847656 189.21875 82.460938 187.503906 C 83.074219 185.785156 83.730469 184.085938 84.425781 182.402344 C 85.125 180.71875 85.863281 179.050781 86.644531 177.40625 C 87.421875 175.757812 88.242188 174.128906 89.101562 172.523438 C 89.960938 170.914062 90.859375 169.328125 91.792969 167.765625 C 92.730469 166.203125 93.707031 164.664062 94.71875 163.148438 C 95.730469 161.632812 96.78125 160.140625 97.867188 158.679688 C 98.953125 157.214844 100.074219 155.777344 101.230469 154.367188 C 102.386719 152.960938 103.578125 151.578125 104.800781 150.230469 C 106.023438 148.878906 107.28125 147.558594 108.570312 146.269531 C 109.859375 144.980469 111.179688 143.722656 112.53125 142.5 C 113.878906 141.277344 115.261719 140.085938 116.667969 138.929688 C 118.078125 137.773438 119.515625 136.652344 120.976562 135.566406 C 122.441406 134.480469 123.933594 133.429688 125.449219 132.417969 C 126.964844 131.40625 128.503906 130.429688 130.066406 129.496094 C 131.628906 128.558594 133.214844 127.660156 134.824219 126.800781 C 136.429688 125.941406 138.058594 125.121094 139.707031 124.34375 C 141.351562 123.5625 143.019531 122.824219 144.703125 122.125 C 146.386719 121.429688 148.085938 120.773438 149.804688 120.160156 C 151.519531 119.546875 153.25 118.972656 154.992188 118.445312 C 156.738281 117.914062 158.496094 117.429688 160.261719 116.988281 C 162.03125 116.542969 163.808594 116.144531 165.597656 115.789062 C 167.382812 115.433594 169.179688 115.121094 170.980469 114.855469 C 172.785156 114.585938 174.59375 114.363281 176.40625 114.183594 C 178.222656 114.007812 180.039062 113.871094 181.859375 113.78125 C 183.679688 113.695312 185.5 113.648438 187.324219 113.648438 C 189.148438 113.648438 190.96875 113.695312 192.789062 113.78125 C 194.609375 113.871094 196.425781 114.007812 198.242188 114.183594 C 200.054688 114.363281 201.863281 114.585938 203.667969 114.855469 C 205.46875 115.121094 207.265625 115.433594 209.050781 115.789062 C 210.839844 116.144531 212.617188 116.542969 214.386719 116.988281 C 216.15625 117.429688 217.910156 117.914062 219.65625 118.445312 C 221.398438 118.972656 223.128906 119.546875 224.84375 120.160156 C 226.5625 120.773438 228.261719 121.429688 229.945312 122.125 C 231.628906 122.824219 233.296875 123.5625 234.941406 124.34375 C 236.589844 125.121094 238.21875 125.941406 239.828125 126.800781 C 241.433594 127.660156 243.019531 128.558594 244.582031 129.496094 C 246.144531 130.429688 247.683594 131.40625 249.199219 132.417969 C 250.714844 133.429688 252.207031 134.480469 253.671875 135.566406 C 255.132812 136.652344 256.570312 137.773438 257.980469 138.929688 C 259.390625 140.085938 260.769531 141.277344 262.121094 142.5 C 263.46875 143.722656 264.789062 144.980469 266.078125 146.269531 C 267.367188 147.558594 268.625 148.878906 269.847656 150.230469 C 271.070312 151.578125 272.261719 152.960938 273.417969 154.367188 C 274.574219 155.777344 275.695312 157.214844 276.78125 158.679688 C 277.867188 160.140625 278.917969 161.632812 279.929688 163.148438 C 280.941406 164.664062 281.917969 166.203125 282.855469 167.765625 C 283.789062 169.328125 284.6875 170.914062 285.546875 172.523438 C 286.40625 174.128906 287.226562 175.757812 288.007812 177.40625 C 288.785156 179.050781 289.523438 180.71875 290.222656 182.402344 C 290.917969 184.085938 291.574219 185.785156 292.1875 187.503906 C 292.804688 189.21875 293.375 190.949219 293.902344 192.695312 C 294.433594 194.4375 294.917969 196.195312 295.363281 197.960938 C 295.804688 199.730469 296.203125 201.507812 296.558594 203.296875 C 296.914062 205.082031 297.226562 206.878906 297.492188 208.683594 C 297.761719 210.484375 297.984375 212.292969 298.164062 214.105469 C 298.339844 215.921875 298.476562 217.738281 298.566406 219.558594 C 298.65625 221.378906 298.699219 223.199219 298.699219 225.023438 Z M 298.699219 225.023438 " fill-opacity="1" fill-rule="nonzero"/></g><g clip-path="url(#529fa2ea88)"><path fill="#ffffff" d="M 236.632812 344.234375 C 236.003906 344.234375 235.382812 344.175781 234.765625 344.050781 C 234.148438 343.929688 233.550781 343.75 232.96875 343.507812 C 232.390625 343.265625 231.839844 342.972656 231.316406 342.625 C 230.792969 342.273438 230.308594 341.878906 229.867188 341.433594 C 229.421875 340.988281 229.023438 340.503906 228.675781 339.984375 C 228.328125 339.460938 228.03125 338.910156 227.792969 338.328125 C 227.550781 337.75 227.371094 337.148438 227.246094 336.535156 C 227.125 335.917969 227.0625 335.296875 227.0625 334.667969 L 227.0625 309.785156 C 227.210938 308.355469 227.210938 306.925781 227.058594 305.492188 C 226.90625 304.0625 226.609375 302.664062 226.164062 301.296875 C 225.71875 299.925781 225.136719 298.621094 224.417969 297.375 C 223.699219 296.128906 222.859375 294.96875 221.894531 293.902344 C 221.300781 293.253906 220.804688 292.539062 220.402344 291.757812 C 220.003906 290.972656 219.71875 290.152344 219.546875 289.289062 C 219.375 288.429688 219.324219 287.558594 219.390625 286.683594 C 219.457031 285.804688 219.640625 284.957031 219.941406 284.128906 C 220.242188 283.304688 220.652344 282.535156 221.164062 281.824219 C 221.679688 281.109375 222.277344 280.480469 222.964844 279.929688 C 223.652344 279.382812 224.402344 278.9375 225.210938 278.597656 C 226.019531 278.253906 226.859375 278.03125 227.734375 277.917969 C 251.082031 275.144531 272.613281 267.679688 272.613281 227.199219 C 272.617188 223.421875 272.074219 219.722656 270.980469 216.105469 C 269.890625 212.484375 268.296875 209.101562 266.203125 205.957031 C 265.246094 204.523438 264.4375 203.007812 263.777344 201.414062 C 263.121094 199.820312 262.621094 198.179688 262.285156 196.488281 C 261.949219 194.796875 261.78125 193.089844 261.777344 191.367188 C 261.777344 189.640625 261.945312 187.933594 262.277344 186.242188 C 263.148438 181.746094 263.148438 177.246094 262.277344 172.75 C 255.070312 175.1875 248.402344 178.664062 242.277344 183.179688 C 241.113281 184.007812 239.828125 184.546875 238.421875 184.800781 C 237.011719 185.050781 235.621094 184.988281 234.242188 184.617188 C 229.945312 183.402344 225.582031 182.488281 221.160156 181.875 C 216.738281 181.261719 212.292969 180.957031 207.828125 180.957031 C 203.363281 180.957031 198.917969 181.261719 194.496094 181.875 C 190.074219 182.488281 185.714844 183.402344 181.417969 184.617188 C 180.035156 184.988281 178.644531 185.050781 177.238281 184.800781 C 175.828125 184.546875 174.542969 184.007812 173.378906 183.179688 C 167.210938 178.609375 160.480469 175.132812 153.1875 172.75 C 152.265625 177.246094 152.265625 181.746094 153.1875 186.242188 C 153.496094 187.957031 153.640625 189.683594 153.621094 191.425781 C 153.597656 193.167969 153.414062 194.890625 153.058594 196.59375 C 152.707031 198.300781 152.195312 199.957031 151.523438 201.5625 C 150.855469 203.167969 150.035156 204.699219 149.070312 206.148438 C 146.988281 209.316406 145.398438 212.71875 144.308594 216.351562 C 143.214844 219.980469 142.667969 223.695312 142.660156 227.488281 C 142.660156 264.714844 160.652344 274.664062 187.636719 278.109375 C 188.519531 278.21875 189.371094 278.449219 190.191406 278.796875 C 191.007812 279.140625 191.765625 279.59375 192.457031 280.152344 C 193.152344 280.710938 193.753906 281.351562 194.269531 282.078125 C 194.785156 282.804688 195.1875 283.585938 195.484375 284.425781 C 195.761719 285.242188 195.925781 286.078125 195.980469 286.9375 C 196.03125 287.796875 195.96875 288.644531 195.792969 289.488281 C 195.617188 290.328125 195.332031 291.132812 194.9375 291.898438 C 194.542969 292.664062 194.054688 293.363281 193.472656 293.996094 C 192.542969 294.992188 191.726562 296.070312 191.019531 297.234375 C 190.3125 298.398438 189.730469 299.625 189.277344 300.910156 C 188.824219 302.195312 188.507812 303.511719 188.328125 304.863281 C 188.148438 306.210938 188.109375 307.566406 188.210938 308.925781 L 188.210938 334.667969 C 188.210938 335.296875 188.148438 335.917969 188.027344 336.535156 C 187.90625 337.148438 187.722656 337.75 187.484375 338.328125 C 187.242188 338.910156 186.945312 339.460938 186.597656 339.984375 C 186.25 340.503906 185.851562 340.988281 185.40625 341.433594 C 184.964844 341.878906 184.480469 342.273438 183.957031 342.625 C 183.433594 342.972656 182.882812 343.265625 182.304688 343.507812 C 181.722656 343.75 181.125 343.929688 180.507812 344.050781 C 179.890625 344.175781 179.269531 344.234375 178.640625 344.234375 C 178.011719 344.234375 177.390625 344.175781 176.773438 344.050781 C 176.160156 343.929688 175.558594 343.75 174.980469 343.507812 C 174.398438 343.265625 173.847656 342.972656 173.324219 342.625 C 172.800781 342.273438 172.320312 341.878906 171.875 341.433594 C 171.429688 340.988281 171.035156 340.503906 170.683594 339.984375 C 170.335938 339.460938 170.039062 338.910156 169.800781 338.328125 C 169.558594 337.75 169.378906 337.148438 169.253906 336.535156 C 169.132812 335.917969 169.070312 335.296875 169.070312 334.667969 L 169.070312 329.210938 C 166.730469 329.480469 164.378906 329.605469 162.023438 329.585938 C 159.664062 329.566406 157.320312 329.402344 154.980469 329.09375 C 152.644531 328.78125 150.335938 328.332031 148.054688 327.738281 C 145.773438 327.144531 143.535156 326.414062 141.34375 325.542969 C 139.152344 324.675781 137.023438 323.675781 134.957031 322.542969 C 132.886719 321.410156 130.898438 320.15625 128.984375 318.78125 C 127.070312 317.40625 125.246094 315.917969 123.515625 314.316406 C 121.785156 312.714844 120.160156 311.011719 118.640625 309.210938 C 115.472656 305.703125 111.773438 302.894531 107.539062 300.789062 C 106.929688 300.632812 106.339844 300.417969 105.773438 300.144531 C 105.207031 299.871094 104.671875 299.546875 104.167969 299.167969 C 103.664062 298.789062 103.203125 298.367188 102.785156 297.898438 C 102.363281 297.429688 101.996094 296.921875 101.675781 296.378906 C 101.355469 295.839844 101.089844 295.269531 100.882812 294.675781 C 100.675781 294.082031 100.527344 293.472656 100.4375 292.851562 C 100.347656 292.226562 100.324219 291.601562 100.359375 290.972656 C 100.394531 290.34375 100.488281 289.722656 100.648438 289.113281 C 100.804688 288.503906 101.019531 287.917969 101.292969 287.347656 C 101.566406 286.78125 101.890625 286.246094 102.269531 285.742188 C 102.648438 285.242188 103.070312 284.78125 103.539062 284.359375 C 104.011719 283.941406 104.515625 283.570312 105.058594 283.25 C 105.601562 282.929688 106.167969 282.667969 106.761719 282.460938 C 107.355469 282.25 107.964844 282.105469 108.589844 282.015625 C 109.210938 281.925781 109.839844 281.902344 110.46875 281.9375 C 111.097656 281.972656 111.714844 282.066406 112.324219 282.226562 C 116.003906 283.566406 119.464844 285.339844 122.703125 287.542969 C 125.945312 289.742188 128.863281 292.308594 131.464844 295.238281 C 141.03125 304.808594 150.601562 313.230469 168.785156 309.785156 C 168.460938 304.59375 169.195312 299.550781 170.984375 294.667969 C 151.273438 289.691406 123.136719 275.527344 123.136719 227.679688 C 123.125 222.011719 123.933594 216.464844 125.5625 211.039062 C 127.195312 205.609375 129.574219 200.535156 132.707031 195.8125 C 133.289062 194.941406 133.6875 193.992188 133.902344 192.964844 C 134.117188 191.941406 134.132812 190.910156 133.953125 189.878906 C 132.984375 184.714844 132.769531 179.519531 133.308594 174.292969 C 133.84375 169.066406 135.113281 164.023438 137.109375 159.160156 C 137.660156 157.847656 138.460938 156.714844 139.515625 155.761719 C 140.570312 154.808594 141.777344 154.121094 143.136719 153.707031 C 146.390625 152.75 158.066406 150.835938 180.171875 165.191406 C 189.121094 163.039062 198.195312 161.960938 207.398438 161.960938 C 216.601562 161.960938 225.675781 163.039062 234.625 165.191406 C 256.730469 150.835938 268.402344 152.652344 271.5625 153.707031 C 272.921875 154.121094 274.128906 154.808594 275.183594 155.761719 C 276.238281 156.714844 277.039062 157.847656 277.589844 159.160156 C 279.589844 164.039062 280.859375 169.097656 281.398438 174.339844 C 281.9375 179.582031 281.71875 184.796875 280.75 189.976562 C 280.550781 190.917969 280.542969 191.863281 280.726562 192.808594 C 280.90625 193.753906 281.265625 194.628906 281.800781 195.429688 C 284.941406 200.167969 287.328125 205.257812 288.957031 210.699219 C 290.589844 216.144531 291.390625 221.710938 291.371094 227.390625 C 291.371094 275.910156 263.425781 289.976562 243.523438 294.378906 C 245.292969 299.566406 245.996094 304.890625 245.628906 310.359375 L 245.628906 334.667969 C 245.628906 335.273438 245.574219 335.871094 245.460938 336.464844 C 245.347656 337.058594 245.179688 337.636719 244.957031 338.199219 C 244.734375 338.761719 244.464844 339.300781 244.140625 339.8125 C 243.816406 340.320312 243.445312 340.796875 243.03125 341.238281 C 242.617188 341.679688 242.164062 342.078125 241.675781 342.433594 C 241.183594 342.785156 240.667969 343.09375 240.117188 343.347656 C 239.570312 343.605469 239.003906 343.808594 238.417969 343.957031 C 237.832031 344.105469 237.238281 344.199219 236.632812 344.234375 Z M 236.632812 344.234375 " fill-opacity="1" fill-rule="nonzero"/></g><g fill="#000000" fill-opacity="1"><g transform="translate(92.730888, 85.921518)"><g><path d="M 25.6875 -17.28125 L 33.3125 -17.28125 L 33.3125 -3.8125 C 31.507812 -2.488281 29.296875 -1.414062 26.671875 -0.59375 C 24.046875 0.21875 21.5625 0.625 19.21875 0.625 C 15.800781 0.625 12.71875 -0.132812 9.96875 -1.65625 C 7.21875 -3.1875 5.050781 -5.285156 3.46875 -7.953125 C 1.894531 -10.628906 1.109375 -13.628906 1.109375 -16.953125 C 1.109375 -20.234375 1.921875 -23.203125 3.546875 -25.859375 C 5.171875 -28.515625 7.40625 -30.597656 10.25 -32.109375 C 13.101562 -33.617188 16.285156 -34.375 19.796875 -34.375 C 22.304688 -34.375 24.816406 -33.914062 27.328125 -33 C 29.835938 -32.082031 31.960938 -30.851562 33.703125 -29.3125 L 28.671875 -23.125 C 27.453125 -24.28125 26.046875 -25.195312 24.453125 -25.875 C 22.859375 -26.550781 21.289062 -26.890625 19.75 -26.890625 C 17.945312 -26.890625 16.320312 -26.453125 14.875 -25.578125 C 13.425781 -24.710938 12.28125 -23.523438 11.4375 -22.015625 C 10.601562 -20.503906 10.1875 -18.816406 10.1875 -16.953125 C 10.1875 -15.046875 10.601562 -13.328125 11.4375 -11.796875 C 12.28125 -10.273438 13.441406 -9.078125 14.921875 -8.203125 C 16.398438 -7.335938 18.039062 -6.90625 19.84375 -6.90625 C 21.550781 -6.90625 23.5 -7.453125 25.6875 -8.546875 Z M 25.6875 -17.28125 "/></g></g></g><g fill="#000000" fill-opacity="1"><g transform="translate(128.595182, 85.921518)"><g><path d="M 3.28125 0 L 3.28125 -33.84375 L 12.125 -33.84375 L 12.125 0 Z M 3.28125 0 "/></g></g></g><g fill="#000000" fill-opacity="1"><g transform="translate(143.993172, 85.921518)"><g><path d="M 0.34375 -26.546875 L 0.34375 -33.84375 L 29.359375 -33.84375 L 29.359375 -26.546875 L 19.21875 -26.546875 L 19.21875 0 L 10.375 0 L 10.375 -26.546875 Z M 0.34375 -26.546875 "/></g></g></g><g fill="#000000" fill-opacity="1"><g transform="translate(173.63069, 85.921518)"><g><path d="M 3.28125 0 L 3.28125 -33.84375 L 12.125 -33.84375 L 12.125 -20.03125 L 25.78125 -20.03125 L 25.78125 -33.84375 L 34.625 -33.84375 L 34.625 0 L 25.78125 0 L 25.78125 -12.984375 L 12.125 -12.984375 L 12.125 0 Z M 3.28125 0 "/></g></g></g><g fill="#000000" fill-opacity="1"><g transform="translate(211.522304, 85.921518)"><g><path d="M 11.546875 -13.953125 C 11.546875 -11.828125 12.171875 -10.117188 13.421875 -8.828125 C 14.679688 -7.546875 16.273438 -6.90625 18.203125 -6.90625 C 20.097656 -6.90625 21.632812 -7.539062 22.8125 -8.8125 C 23.988281 -10.082031 24.578125 -11.796875 24.578125 -13.953125 L 24.578125 -33.84375 L 33.40625 -33.84375 L 33.40625 -13.953125 C 33.40625 -11.023438 32.785156 -8.457031 31.546875 -6.25 C 30.304688 -4.039062 28.535156 -2.34375 26.234375 -1.15625 C 23.929688 0.03125 21.238281 0.625 18.15625 0.625 C 15.0625 0.625 12.347656 0.03125 10.015625 -1.15625 C 7.679688 -2.34375 5.878906 -4.039062 4.609375 -6.25 C 3.335938 -8.457031 2.703125 -11.023438 2.703125 -13.953125 L 2.703125 -33.84375 L 11.546875 -33.84375 Z M 11.546875 -13.953125 "/></g></g></g><g fill="#000000" fill-opacity="1"><g transform="translate(247.676213, 85.921518)"><g><path d="M 19.359375 -33.84375 C 21.898438 -33.84375 24.113281 -33.492188 26 -32.796875 C 27.882812 -32.109375 29.335938 -31.117188 30.359375 -29.828125 C 31.390625 -28.546875 31.90625 -27.035156 31.90625 -25.296875 C 31.90625 -23.523438 31.382812 -21.976562 30.34375 -20.65625 C 29.300781 -19.34375 27.878906 -18.441406 26.078125 -17.953125 C 28.234375 -17.535156 29.929688 -16.554688 31.171875 -15.015625 C 32.410156 -13.472656 33.03125 -11.609375 33.03125 -9.421875 C 33.03125 -7.515625 32.5 -5.84375 31.4375 -4.40625 C 30.375 -2.976562 28.859375 -1.882812 26.890625 -1.125 C 24.929688 -0.375 22.628906 0 19.984375 0 L 3.28125 0 L 3.28125 -33.84375 Z M 18.875 -20.375 C 20.101562 -20.375 21.070312 -20.671875 21.78125 -21.265625 C 22.488281 -21.859375 22.84375 -22.6875 22.84375 -23.75 C 22.84375 -24.78125 22.488281 -25.578125 21.78125 -26.140625 C 21.070312 -26.703125 20.101562 -26.96875 18.875 -26.9375 L 12.125 -26.9375 L 12.125 -20.375 Z M 18.875 -6.859375 C 20.425781 -6.859375 21.648438 -7.175781 22.546875 -7.8125 C 23.453125 -8.457031 23.90625 -9.363281 23.90625 -10.53125 C 23.90625 -11.59375 23.453125 -12.4375 22.546875 -13.0625 C 21.648438 -13.6875 20.425781 -13.984375 18.875 -13.953125 L 12.125 -13.953125 L 12.125 -6.859375 Z M 18.875 -6.859375 "/></g></g></g></svg>