<svg xmlns="http://www.w3.org/2000/svg" xmlns:xlink="http://www.w3.org/1999/xlink" width="500" zoomAndPan="magnify" viewBox="0 0 375 374.999991" height="500" preserveAspectRatio="xMidYMid meet" version="1.0"><defs><g/><clipPath id="5a07b2c317"><path d="M 78.136719 101 L 291 101 L 291 342.75 L 78.136719 342.75 Z M 78.136719 101 " clip-rule="nonzero"/></clipPath></defs><g clip-path="url(#5a07b2c317)"><path fill="#000000" d="M 290.800781 101.707031 L 271.4375 318.613281 L 184.402344 342.738281 L 97.613281 318.644531 L 78.269531 101.707031 L 290.796875 101.703125 L 290.804688 101.703125 Z M 290.800781 101.707031 " fill-opacity="1" fill-rule="nonzero"/></g><path fill="#393939" d="M 184.539062 324.296875 L 254.867188 304.800781 L 271.414062 119.445312 L 184.539062 119.441406 Z M 184.539062 324.296875 " fill-opacity="1" fill-rule="nonzero"/><path fill="#ebebeb" d="M 146.898438 172.65625 L 184.539062 172.65625 L 184.539062 146.046875 L 117.820312 146.046875 L 118.457031 153.1875 L 124.996094 226.507812 L 184.539062 226.507812 L 184.539062 199.90625 L 149.328125 199.90625 Z M 146.898438 172.65625 " fill-opacity="1" fill-rule="nonzero"/><path fill="#ebebeb" d="M 152.894531 239.8125 L 126.183594 239.8125 L 129.914062 281.59375 L 184.414062 296.722656 L 184.539062 296.6875 L 184.539062 269.003906 L 184.421875 269.039062 L 154.789062 261.03125 Z M 152.894531 239.8125 " fill-opacity="1" fill-rule="nonzero"/><path fill="#ffffff" d="M 184.445312 226.507812 L 217.210938 226.507812 L 214.121094 261.015625 L 184.445312 269.027344 L 184.445312 296.703125 L 238.988281 281.59375 L 239.390625 277.09375 L 245.644531 207.046875 L 246.296875 199.90625 L 184.445312 199.90625 Z M 184.445312 226.507812 " fill-opacity="1" fill-rule="nonzero"/><path fill="#ffffff" d="M 184.445312 172.589844 L 184.445312 172.65625 L 248.710938 172.65625 L 249.246094 166.675781 L 250.460938 153.1875 L 251.09375 146.046875 L 184.445312 146.046875 Z M 184.445312 172.589844 " fill-opacity="1" fill-rule="nonzero"/><g fill="#000000" fill-opacity="1"><g transform="translate(115.824679, 73.743077)"><g><path d="M 3.53125 0 L 3.53125 -36.453125 L 13.046875 -36.453125 L 13.046875 -21.578125 L 27.765625 -21.578125 L 27.765625 -36.453125 L 37.28125 -36.453125 L 37.28125 0 L 27.765625 0 L 27.765625 -13.984375 L 13.046875 -13.984375 L 13.046875 0 Z M 3.53125 0 "/></g></g></g><g fill="#000000" fill-opacity="1"><g transform="translate(156.641575, 73.743077)"><g><path d="M 0.359375 -28.59375 L 0.359375 -36.453125 L 31.609375 -36.453125 L 31.609375 -28.59375 L 20.703125 -28.59375 L 20.703125 0 L 11.1875 0 L 11.1875 -28.59375 Z M 0.359375 -28.59375 "/></g></g></g><g fill="#000000" fill-opacity="1"><g transform="translate(188.567145, 73.743077)"><g><path d="M 3.53125 0 L 3.53125 -36.453125 L 13.890625 -36.453125 L 24.4375 -15.125 L 34.9375 -36.453125 L 45.296875 -36.453125 L 45.296875 0 L 36.875 0 L 36.8125 -23.09375 L 27.515625 -3.640625 L 21.375 -3.640625 L 12.015625 -23.09375 L 12.015625 0 Z M 3.53125 0 "/></g></g></g><g fill="#000000" fill-opacity="1"><g transform="translate(237.391436, 73.743077)"><g><path d="M 3.53125 0 L 3.53125 -36.453125 L 13.046875 -36.453125 L 13.046875 -8.109375 L 28.5 -8.109375 L 28.5 0 Z M 3.53125 0 "/></g></g></g></svg>