<svg xmlns="http://www.w3.org/2000/svg" xmlns:xlink="http://www.w3.org/1999/xlink" width="500" zoomAndPan="magnify" viewBox="0 0 375 374.999991" height="500" preserveAspectRatio="xMidYMid meet" version="1.0"><defs><g/><clipPath id="d44ce868de"><path d="M 78.09375 114.25 L 297 114.25 L 297 352.75 L 78.09375 352.75 Z M 78.09375 114.25 " clip-rule="nonzero"/></clipPath></defs><g clip-path="url(#d44ce868de)"><path fill="#000000" d="M 295.996094 116.238281 C 295 115.242188 294.003906 114.25 292.015625 114.25 L 83.171875 114.25 C 82.175781 114.25 80.1875 115.242188 79.191406 116.238281 C 78.199219 117.230469 78.199219 118.226562 78.199219 120.210938 L 98.089844 318.960938 C 98.089844 320.949219 100.078125 322.9375 101.070312 322.9375 L 190.578125 352.75 C 191.570312 352.75 191.570312 352.75 192.566406 352.75 C 193.5625 352.75 193.5625 352.75 194.554688 352.75 L 274.117188 322.9375 C 276.105469 321.945312 277.097656 320.949219 277.097656 318.960938 L 296.988281 120.210938 C 296.988281 119.21875 296.988281 117.230469 295.996094 116.238281 Z M 185.605469 298.09375 C 184.609375 299.085938 183.617188 299.085938 182.621094 299.085938 C 182.621094 299.085938 181.625 299.085938 181.625 299.085938 L 146.820312 289.148438 C 144.828125 288.15625 143.835938 287.164062 142.839844 285.175781 L 137.867188 260.332031 C 136.875 257.351562 138.863281 255.363281 141.847656 254.367188 C 144.828125 253.375 146.820312 255.363281 147.8125 258.34375 L 151.792969 280.207031 L 177.648438 287.164062 L 177.648438 174.867188 L 122.949219 174.867188 C 119.96875 174.867188 117.976562 172.882812 117.976562 169.898438 C 117.976562 166.917969 119.96875 164.929688 122.949219 164.929688 L 182.621094 164.929688 C 185.605469 164.929688 187.59375 166.917969 187.59375 169.898438 L 187.59375 294.117188 C 187.59375 295.113281 186.597656 297.101562 185.605469 298.09375 Z M 257.207031 170.894531 L 252.234375 190.769531 C 251.242188 193.75 249.253906 194.742188 246.269531 194.742188 C 243.285156 193.75 242.292969 191.761719 242.292969 188.78125 L 245.273438 174.867188 L 206.488281 174.867188 L 206.488281 224.554688 L 241.296875 224.554688 C 242.292969 224.554688 244.28125 225.550781 245.273438 226.542969 C 246.269531 227.539062 246.269531 229.523438 246.269531 230.519531 L 236.324219 285.175781 C 236.324219 287.164062 234.335938 288.15625 233.339844 289.148438 L 203.503906 299.085938 C 202.511719 299.085938 202.511719 299.085938 201.515625 299.085938 C 199.527344 299.085938 197.539062 298.09375 196.542969 296.105469 C 195.550781 293.125 197.539062 291.136719 199.527344 290.144531 L 226.378906 281.199219 L 234.335938 235.488281 L 200.523438 235.488281 C 197.539062 235.488281 195.550781 233.5 195.550781 230.519531 L 195.550781 170.894531 C 195.550781 167.914062 197.539062 165.925781 200.523438 165.925781 L 250.246094 165.925781 C 252.234375 165.925781 253.230469 166.917969 254.226562 167.914062 C 257.207031 167.914062 257.207031 169.898438 257.207031 170.894531 Z M 257.207031 170.894531 " fill-opacity="1" fill-rule="nonzero"/></g><g fill="#000000" fill-opacity="1"><g transform="translate(32.0267, 82.209721)"><g><path d="M 23.140625 -10.921875 C 23.140625 -7.347656 22.09375 -4.566406 20 -2.578125 C 17.90625 -0.597656 15.054688 0.390625 11.453125 0.390625 C 6.753906 0.390625 2.859375 -1.414062 -0.234375 -5.03125 L 3.78125 -11.015625 C 4.96875 -9.804688 6.179688 -8.875 7.421875 -8.21875 C 8.671875 -7.5625 9.804688 -7.234375 10.828125 -7.234375 C 11.910156 -7.234375 12.765625 -7.566406 13.390625 -8.234375 C 14.015625 -8.910156 14.328125 -9.867188 14.328125 -11.109375 L 14.328125 -26.34375 L 2.828125 -26.34375 L 2.828125 -33.578125 L 23.140625 -33.578125 Z M 23.140625 -10.921875 "/></g></g></g><g fill="#000000" fill-opacity="1"><g transform="translate(57.841892, 82.209721)"><g><path d="M 37.265625 0 L 27.921875 0 L 25.625 -5.9375 L 11.109375 -5.9375 L 8.765625 0 L -0.234375 0 L 14.1875 -33.578125 L 23.1875 -33.578125 Z M 18.4375 -24.625 L 13.75 -12.640625 L 23.046875 -12.640625 Z M 18.4375 -24.625 "/></g></g></g><g fill="#000000" fill-opacity="1"><g transform="translate(94.864408, 82.209721)"><g><path d="M 12.9375 0 L -0.09375 -33.578125 L 9.34375 -33.578125 L 17.71875 -9.296875 L 26.15625 -33.578125 L 35.15625 -33.578125 L 22.03125 0 Z M 12.9375 0 "/></g></g></g><g fill="#000000" fill-opacity="1"><g transform="translate(129.923254, 82.209721)"><g><path d="M 37.265625 0 L 27.921875 0 L 25.625 -5.9375 L 11.109375 -5.9375 L 8.765625 0 L -0.234375 0 L 14.1875 -33.578125 L 23.1875 -33.578125 Z M 18.4375 -24.625 L 13.75 -12.640625 L 23.046875 -12.640625 Z M 18.4375 -24.625 "/></g></g></g><g fill="#000000" fill-opacity="1"><g transform="translate(166.94577, 82.209721)"><g><path d="M 26.390625 -23.46875 C 24.609375 -24.53125 22.703125 -25.394531 20.671875 -26.0625 C 18.640625 -26.726562 16.9375 -27.0625 15.5625 -27.0625 C 14.476562 -27.0625 13.625 -26.863281 13 -26.46875 C 12.382812 -26.070312 12.078125 -25.488281 12.078125 -24.71875 C 12.078125 -23.988281 12.347656 -23.375 12.890625 -22.875 C 13.429688 -22.375 14.097656 -21.972656 14.890625 -21.671875 C 15.691406 -21.367188 16.875 -20.976562 18.4375 -20.5 C 20.769531 -19.832031 22.691406 -19.160156 24.203125 -18.484375 C 25.722656 -17.816406 27.023438 -16.785156 28.109375 -15.390625 C 29.203125 -14.003906 29.75 -12.195312 29.75 -9.96875 C 29.75 -7.726562 29.15625 -5.816406 27.96875 -4.234375 C 26.789062 -2.660156 25.171875 -1.472656 23.109375 -0.671875 C 21.054688 0.128906 18.765625 0.53125 16.234375 0.53125 C 13.460938 0.53125 10.691406 0.046875 7.921875 -0.921875 C 5.160156 -1.898438 2.773438 -3.238281 0.765625 -4.9375 L 4.171875 -11.78125 C 5.859375 -10.28125 7.859375 -9.050781 10.171875 -8.09375 C 12.492188 -7.132812 14.550781 -6.65625 16.34375 -6.65625 C 17.644531 -6.65625 18.671875 -6.894531 19.421875 -7.375 C 20.171875 -7.851562 20.546875 -8.554688 20.546875 -9.484375 C 20.546875 -10.253906 20.265625 -10.894531 19.703125 -11.40625 C 19.148438 -11.914062 18.453125 -12.320312 17.609375 -12.625 C 16.765625 -12.925781 15.570312 -13.285156 14.03125 -13.703125 C 11.738281 -14.335938 9.835938 -14.984375 8.328125 -15.640625 C 6.828125 -16.296875 5.539062 -17.285156 4.46875 -18.609375 C 3.40625 -19.929688 2.875 -21.695312 2.875 -23.90625 C 2.875 -25.976562 3.425781 -27.796875 4.53125 -29.359375 C 5.632812 -30.929688 7.195312 -32.140625 9.21875 -32.984375 C 11.25 -33.828125 13.601562 -34.25 16.28125 -34.25 C 18.707031 -34.25 21.101562 -33.90625 23.46875 -33.21875 C 25.832031 -32.53125 27.910156 -31.613281 29.703125 -30.46875 Z M 26.390625 -23.46875 "/></g></g></g><g fill="#000000" fill-opacity="1"><g transform="translate(197.885683, 82.209721)"><g><path d="M 27.546875 -22.1875 C 26.460938 -23.550781 25.164062 -24.640625 23.65625 -25.453125 C 22.15625 -26.273438 20.671875 -26.6875 19.203125 -26.6875 C 17.515625 -26.6875 15.972656 -26.257812 14.578125 -25.40625 C 13.191406 -24.5625 12.097656 -23.394531 11.296875 -21.90625 C 10.503906 -20.425781 10.109375 -18.773438 10.109375 -16.953125 C 10.109375 -15.140625 10.503906 -13.488281 11.296875 -12 C 12.097656 -10.507812 13.191406 -9.34375 14.578125 -8.5 C 15.972656 -7.65625 17.515625 -7.234375 19.203125 -7.234375 C 20.578125 -7.234375 22.015625 -7.582031 23.515625 -8.28125 C 25.023438 -8.988281 26.367188 -9.945312 27.546875 -11.15625 L 32.671875 -5.65625 C 30.847656 -3.738281 28.679688 -2.210938 26.171875 -1.078125 C 23.671875 0.0546875 21.191406 0.625 18.734375 0.625 C 15.410156 0.625 12.40625 -0.140625 9.71875 -1.671875 C 7.039062 -3.203125 4.9375 -5.289062 3.40625 -7.9375 C 1.875 -10.59375 1.109375 -13.566406 1.109375 -16.859375 C 1.109375 -20.117188 1.890625 -23.054688 3.453125 -25.671875 C 5.015625 -28.296875 7.160156 -30.359375 9.890625 -31.859375 C 12.617188 -33.359375 15.675781 -34.109375 19.0625 -34.109375 C 21.550781 -34.109375 24.007812 -33.585938 26.4375 -32.546875 C 28.863281 -31.515625 30.925781 -30.101562 32.625 -28.3125 Z M 27.546875 -22.1875 "/></g></g></g><g fill="#000000" fill-opacity="1"><g transform="translate(231.028732, 82.209721)"><g><path d="M 33.34375 0 L 23.421875 0 L 18.546875 -9.296875 L 12.03125 -9.296875 L 12.03125 0 L 3.25 0 L 3.25 -33.578125 L 18.34375 -33.578125 C 22.78125 -33.578125 26.222656 -32.546875 28.671875 -30.484375 C 31.117188 -28.429688 32.34375 -25.535156 32.34375 -21.796875 C 32.34375 -19.273438 31.828125 -17.09375 30.796875 -15.25 C 29.773438 -13.414062 28.289062 -11.988281 26.34375 -10.96875 Z M 12.03125 -26.59375 L 12.03125 -16.28125 L 18.390625 -16.28125 C 20.179688 -16.28125 21.5625 -16.726562 22.53125 -17.625 C 23.507812 -18.519531 24 -19.816406 24 -21.515625 C 24 -23.140625 23.507812 -24.390625 22.53125 -25.265625 C 21.5625 -26.148438 20.179688 -26.59375 18.390625 -26.59375 Z M 12.03125 -26.59375 "/></g></g></g><g fill="#000000" fill-opacity="1"><g transform="translate(265.70442, 82.209721)"><g><path d="M 3.25 0 L 3.25 -33.578125 L 12.03125 -33.578125 L 12.03125 0 Z M 3.25 0 "/></g></g></g><g fill="#000000" fill-opacity="1"><g transform="translate(280.982785, 82.209721)"><g><path d="M 18.015625 -33.578125 C 22.296875 -33.578125 25.613281 -32.546875 27.96875 -30.484375 C 30.332031 -28.429688 31.515625 -25.535156 31.515625 -21.796875 C 31.515625 -17.835938 30.332031 -14.765625 27.96875 -12.578125 C 25.613281 -10.390625 22.296875 -9.296875 18.015625 -9.296875 L 12.03125 -9.296875 L 12.03125 0 L 3.25 0 L 3.25 -33.578125 Z M 17.578125 -16.28125 C 19.367188 -16.28125 20.75 -16.726562 21.71875 -17.625 C 22.695312 -18.519531 23.1875 -19.816406 23.1875 -21.515625 C 23.1875 -23.140625 22.695312 -24.390625 21.71875 -25.265625 C 20.75 -26.148438 19.367188 -26.59375 17.578125 -26.59375 L 12.03125 -26.59375 L 12.03125 -16.28125 Z M 17.578125 -16.28125 "/></g></g></g><g fill="#000000" fill-opacity="1"><g transform="translate(313.551111, 82.209721)"><g><path d="M 0.328125 -26.34375 L 0.328125 -33.578125 L 29.125 -33.578125 L 29.125 -26.34375 L 19.0625 -26.34375 L 19.0625 0 L 10.296875 0 L 10.296875 -26.34375 Z M 0.328125 -26.34375 "/></g></g></g></svg>