<svg xmlns="http://www.w3.org/2000/svg" xmlns:xlink="http://www.w3.org/1999/xlink" width="500" zoomAndPan="magnify" viewBox="0 0 375 374.999991" height="500" preserveAspectRatio="xMidYMid meet" version="1.0"><defs><g/><clipPath id="90dfc9ae72"><path d="M 75.949219 113.648438 L 298.699219 113.648438 L 298.699219 336.398438 L 75.949219 336.398438 Z M 75.949219 113.648438 " clip-rule="nonzero"/></clipPath><clipPath id="b5e9c7e049"><path d="M 163 300 L 218 300 L 218 314.980469 L 163 314.980469 Z M 163 300 " clip-rule="nonzero"/></clipPath><clipPath id="6cceff1c4b"><path d="M 136 135.730469 L 249 135.730469 L 249 273 L 136 273 Z M 136 135.730469 " clip-rule="nonzero"/></clipPath></defs><g clip-path="url(#90dfc9ae72)"><path fill="#000000" d="M 298.699219 225.023438 C 298.699219 226.847656 298.65625 228.667969 298.566406 230.488281 C 298.476562 232.308594 298.339844 234.125 298.164062 235.941406 C 297.984375 237.753906 297.761719 239.5625 297.492188 241.367188 C 297.226562 243.167969 296.914062 244.964844 296.558594 246.75 C 296.203125 248.539062 295.804688 250.316406 295.363281 252.085938 C 294.917969 253.855469 294.433594 255.609375 293.902344 257.355469 C 293.375 259.097656 292.804688 260.828125 292.1875 262.542969 C 291.574219 264.261719 290.917969 265.960938 290.222656 267.644531 C 289.523438 269.328125 288.785156 270.996094 288.007812 272.644531 C 287.226562 274.289062 286.40625 275.917969 285.546875 277.527344 C 284.6875 279.132812 283.789062 280.71875 282.855469 282.28125 C 281.917969 283.84375 280.941406 285.386719 279.929688 286.898438 C 278.917969 288.414062 277.867188 289.90625 276.78125 291.371094 C 275.695312 292.832031 274.574219 294.269531 273.417969 295.679688 C 272.261719 297.089844 271.070312 298.46875 269.847656 299.820312 C 268.625 301.167969 267.367188 302.488281 266.078125 303.777344 C 264.789062 305.066406 263.46875 306.324219 262.121094 307.546875 C 260.769531 308.769531 259.390625 309.960938 257.980469 311.117188 C 256.570312 312.273438 255.132812 313.394531 253.671875 314.480469 C 252.207031 315.566406 250.714844 316.617188 249.199219 317.628906 C 247.683594 318.640625 246.144531 319.617188 244.582031 320.554688 C 243.019531 321.492188 241.433594 322.386719 239.828125 323.246094 C 238.21875 324.105469 236.589844 324.925781 234.941406 325.707031 C 233.296875 326.484375 231.628906 327.222656 229.945312 327.921875 C 228.261719 328.617188 226.5625 329.273438 224.84375 329.886719 C 223.128906 330.503906 221.398438 331.074219 219.65625 331.601562 C 217.910156 332.132812 216.15625 332.617188 214.386719 333.0625 C 212.617188 333.503906 210.839844 333.902344 209.050781 334.257812 C 207.265625 334.613281 205.46875 334.925781 203.667969 335.191406 C 201.863281 335.460938 200.054688 335.683594 198.242188 335.863281 C 196.425781 336.042969 194.609375 336.175781 192.789062 336.265625 C 190.96875 336.355469 189.148438 336.398438 187.324219 336.398438 C 185.5 336.398438 183.679688 336.355469 181.859375 336.265625 C 180.039062 336.175781 178.222656 336.042969 176.40625 335.863281 C 174.59375 335.683594 172.785156 335.460938 170.980469 335.191406 C 169.179688 334.925781 167.382812 334.613281 165.597656 334.257812 C 163.808594 333.902344 162.03125 333.503906 160.261719 333.0625 C 158.496094 332.617188 156.738281 332.132812 154.992188 331.601562 C 153.25 331.074219 151.519531 330.503906 149.804688 329.886719 C 148.085938 329.273438 146.386719 328.617188 144.703125 327.921875 C 143.019531 327.222656 141.351562 326.484375 139.707031 325.707031 C 138.058594 324.925781 136.429688 324.105469 134.824219 323.246094 C 133.214844 322.386719 131.628906 321.492188 130.066406 320.554688 C 128.503906 319.617188 126.964844 318.640625 125.449219 317.628906 C 123.933594 316.617188 122.441406 315.566406 120.976562 314.480469 C 119.515625 313.394531 118.078125 312.273438 116.667969 311.117188 C 115.261719 309.960938 113.878906 308.769531 112.53125 307.546875 C 111.179688 306.324219 109.859375 305.066406 108.570312 303.777344 C 107.28125 302.488281 106.023438 301.167969 104.800781 299.820312 C 103.578125 298.46875 102.386719 297.089844 101.230469 295.679688 C 100.074219 294.269531 98.953125 292.832031 97.867188 291.371094 C 96.78125 289.90625 95.730469 288.414062 94.71875 286.898438 C 93.707031 285.386719 92.730469 283.84375 91.792969 282.28125 C 90.859375 280.71875 89.960938 279.132812 89.101562 277.527344 C 88.242188 275.917969 87.421875 274.289062 86.644531 272.644531 C 85.863281 270.996094 85.125 269.328125 84.425781 267.644531 C 83.730469 265.960938 83.074219 264.261719 82.460938 262.542969 C 81.847656 260.828125 81.273438 259.097656 80.746094 257.355469 C 80.214844 255.609375 79.730469 253.855469 79.289062 252.085938 C 78.84375 250.316406 78.445312 248.539062 78.089844 246.75 C 77.734375 244.964844 77.421875 243.167969 77.15625 241.367188 C 76.886719 239.5625 76.664062 237.753906 76.484375 235.941406 C 76.308594 234.125 76.171875 232.308594 76.082031 230.488281 C 75.996094 228.667969 75.949219 226.847656 75.949219 225.023438 C 75.949219 223.199219 75.996094 221.378906 76.082031 219.558594 C 76.171875 217.738281 76.308594 215.921875 76.484375 214.105469 C 76.664062 212.292969 76.886719 210.484375 77.15625 208.683594 C 77.421875 206.878906 77.734375 205.082031 78.089844 203.296875 C 78.445312 201.507812 78.84375 199.730469 79.289062 197.960938 C 79.730469 196.195312 80.214844 194.4375 80.746094 192.691406 C 81.273438 190.949219 81.847656 189.21875 82.460938 187.503906 C 83.074219 185.785156 83.730469 184.085938 84.425781 182.402344 C 85.125 180.71875 85.863281 179.050781 86.644531 177.40625 C 87.421875 175.757812 88.242188 174.128906 89.101562 172.523438 C 89.960938 170.914062 90.859375 169.328125 91.792969 167.765625 C 92.730469 166.203125 93.707031 164.664062 94.71875 163.148438 C 95.730469 161.632812 96.78125 160.140625 97.867188 158.679688 C 98.953125 157.214844 100.074219 155.777344 101.230469 154.367188 C 102.386719 152.960938 103.578125 151.578125 104.800781 150.230469 C 106.023438 148.878906 107.28125 147.558594 108.570312 146.269531 C 109.859375 144.980469 111.179688 143.722656 112.53125 142.5 C 113.878906 141.277344 115.261719 140.085938 116.667969 138.929688 C 118.078125 137.773438 119.515625 136.652344 120.976562 135.566406 C 122.441406 134.480469 123.933594 133.429688 125.449219 132.417969 C 126.964844 131.40625 128.503906 130.429688 130.066406 129.496094 C 131.628906 128.558594 133.214844 127.660156 134.824219 126.800781 C 136.429688 125.941406 138.058594 125.121094 139.707031 124.34375 C 141.351562 123.5625 143.019531 122.824219 144.703125 122.125 C 146.386719 121.429688 148.085938 120.773438 149.804688 120.160156 C 151.519531 119.546875 153.25 118.972656 154.992188 118.445312 C 156.738281 117.914062 158.496094 117.429688 160.261719 116.988281 C 162.03125 116.542969 163.808594 116.144531 165.597656 115.789062 C 167.382812 115.433594 169.179688 115.121094 170.980469 114.855469 C 172.785156 114.585938 174.59375 114.363281 176.40625 114.183594 C 178.222656 114.007812 180.039062 113.871094 181.859375 113.78125 C 183.679688 113.695312 185.5 113.648438 187.324219 113.648438 C 189.148438 113.648438 190.96875 113.695312 192.789062 113.78125 C 194.609375 113.871094 196.425781 114.007812 198.242188 114.183594 C 200.054688 114.363281 201.863281 114.585938 203.667969 114.855469 C 205.46875 115.121094 207.265625 115.433594 209.050781 115.789062 C 210.839844 116.144531 212.617188 116.542969 214.386719 116.988281 C 216.15625 117.429688 217.910156 117.914062 219.65625 118.445312 C 221.398438 118.972656 223.128906 119.546875 224.84375 120.160156 C 226.5625 120.773438 228.261719 121.429688 229.945312 122.125 C 231.628906 122.824219 233.296875 123.5625 234.941406 124.34375 C 236.589844 125.121094 238.21875 125.941406 239.828125 126.800781 C 241.433594 127.660156 243.019531 128.558594 244.582031 129.496094 C 246.144531 130.429688 247.683594 131.40625 249.199219 132.417969 C 250.714844 133.429688 252.207031 134.480469 253.671875 135.566406 C 255.132812 136.652344 256.570312 137.773438 257.980469 138.929688 C 259.390625 140.085938 260.769531 141.277344 262.121094 142.5 C 263.46875 143.722656 264.789062 144.980469 266.078125 146.269531 C 267.367188 147.558594 268.625 148.878906 269.847656 150.230469 C 271.070312 151.578125 272.261719 152.960938 273.417969 154.367188 C 274.574219 155.777344 275.695312 157.214844 276.78125 158.679688 C 277.867188 160.140625 278.917969 161.632812 279.929688 163.148438 C 280.941406 164.664062 281.917969 166.203125 282.855469 167.765625 C 283.789062 169.328125 284.6875 170.914062 285.546875 172.523438 C 286.40625 174.128906 287.226562 175.757812 288.007812 177.40625 C 288.785156 179.050781 289.523438 180.71875 290.222656 182.402344 C 290.917969 184.085938 291.574219 185.785156 292.1875 187.503906 C 292.804688 189.21875 293.375 190.949219 293.902344 192.691406 C 294.433594 194.4375 294.917969 196.195312 295.363281 197.960938 C 295.804688 199.730469 296.203125 201.507812 296.558594 203.296875 C 296.914062 205.082031 297.226562 206.878906 297.492188 208.683594 C 297.761719 210.484375 297.984375 212.292969 298.164062 214.105469 C 298.339844 215.921875 298.476562 217.738281 298.566406 219.558594 C 298.65625 221.378906 298.699219 223.199219 298.699219 225.023438 Z M 298.699219 225.023438 " fill-opacity="1" fill-rule="nonzero"/></g><g clip-path="url(#b5e9c7e049)"><path fill="#ffffff" d="M 202.398438 302.488281 C 199.339844 303.929688 196.125 304.671875 192.746094 304.722656 C 190.277344 304.695312 187.863281 304.304688 185.515625 303.539062 C 183.164062 302.777344 180.980469 301.683594 178.964844 300.253906 C 178.292969 301.972656 177.4375 303.59375 176.398438 305.121094 C 175.355469 306.644531 174.160156 308.035156 172.804688 309.285156 C 171.453125 310.539062 169.976562 311.625 168.375 312.546875 C 166.773438 313.464844 165.09375 314.191406 163.328125 314.730469 C 163.796875 314.730469 164.242188 314.730469 164.710938 314.730469 L 217.34375 314.730469 C 215.75 314.265625 214.21875 313.644531 212.75 312.867188 C 211.285156 312.09375 209.910156 311.179688 208.625 310.128906 C 207.339844 309.078125 206.175781 307.910156 205.125 306.621094 C 204.078125 305.335938 203.167969 303.957031 202.398438 302.488281 Z M 202.398438 302.488281 " fill-opacity="1" fill-rule="nonzero"/></g><g clip-path="url(#6cceff1c4b)"><path fill="#ffffff" d="M 145.253906 266.65625 C 145.464844 266.601562 145.65625 266.511719 145.835938 266.390625 C 146.171875 263.441406 146.550781 260.605469 146.976562 257.902344 C 146.886719 256.359375 147.125 254.871094 147.691406 253.433594 C 150.75 236.253906 155.015625 224.191406 160.914062 216.863281 C 161.007812 216.75 161.121094 216.65625 161.25 216.585938 C 161.378906 216.515625 161.519531 216.472656 161.667969 216.457031 C 161.8125 216.441406 161.960938 216.453125 162.101562 216.496094 C 162.242188 216.539062 162.371094 216.605469 162.488281 216.699219 C 162.601562 216.792969 162.695312 216.902344 162.769531 217.035156 C 162.839844 217.164062 162.882812 217.300781 162.898438 217.449219 C 162.914062 217.597656 162.902344 217.742188 162.859375 217.886719 C 162.816406 218.027344 162.75 218.15625 162.65625 218.273438 C 162.054688 219.03125 161.449219 219.859375 160.871094 220.730469 C 156.402344 227.429688 152.871094 237.617188 150.324219 251.3125 L 150.59375 251.3125 C 151.078125 251.238281 151.5625 251.238281 152.046875 251.3125 C 153.789062 251.691406 156.511719 253.144531 160.714844 257.363281 C 161.25 232.8125 175.324219 213.023438 192.746094 213.023438 C 208.117188 213.023438 220.960938 228.503906 224.019531 249.097656 C 224.746094 247.648438 225.683594 246.351562 226.832031 245.207031 C 227.976562 244.058594 229.273438 243.125 230.722656 242.398438 C 231.441406 242.128906 232.1875 241.988281 232.957031 241.972656 C 231.363281 234.460938 228.585938 227.417969 224.625 220.839844 C 224.042969 219.96875 223.460938 219.144531 222.859375 218.382812 C 222.761719 218.273438 222.6875 218.144531 222.644531 218.003906 C 222.597656 217.859375 222.582031 217.714844 222.597656 217.566406 C 222.613281 217.417969 222.65625 217.28125 222.726562 217.148438 C 222.800781 217.019531 222.898438 216.910156 223.015625 216.820312 C 223.128906 216.722656 223.257812 216.65625 223.398438 216.609375 C 223.539062 216.566406 223.683594 216.550781 223.832031 216.566406 C 223.976562 216.582031 224.117188 216.625 224.246094 216.695312 C 224.375 216.765625 224.488281 216.859375 224.578125 216.976562 C 229.046875 222.605469 232.753906 231.027344 235.527344 242.441406 C 241.488281 244.675781 241.648438 254.730469 241.78125 262.90625 C 241.78125 266.792969 241.78125 270.8125 242.695312 271.839844 C 243.613281 272.867188 245.554688 272.644531 248.28125 271.484375 C 248.59375 267.929688 248.75 264.78125 248.839844 262.121094 C 248.839844 257.902344 248.839844 255.199219 248.839844 255.199219 L 248.839844 252.359375 C 248.839844 230.023438 220.113281 191.398438 220.113281 191.398438 L 216.785156 162.359375 C 216.785156 135.707031 192.746094 135.953125 192.746094 135.953125 C 192.746094 135.953125 168.621094 135.707031 168.621094 162.246094 L 165.40625 191.398438 C 165.40625 191.398438 136.675781 230 136.675781 252.359375 L 136.675781 255.152344 C 136.675781 255.152344 136.566406 257.855469 136.675781 262.078125 C 136.675781 262.726562 136.675781 263.417969 136.675781 264.132812 C 140.316406 265.519531 144.046875 266.96875 145.253906 266.65625 Z M 192.636719 172.699219 C 199.335938 173.328125 210.015625 174.933594 210.507812 178.242188 C 210.863281 180.789062 206.730469 185.65625 205.90625 186.59375 C 204.183594 188.539062 198.199219 194.90625 192.792969 194.90625 C 187.386719 194.90625 181.398438 188.539062 179.703125 186.59375 C 178.875 185.65625 174.742188 180.789062 175.078125 178.242188 C 175.480469 174.867188 186.269531 173.328125 192.636719 172.699219 Z M 192.636719 172.699219 " fill-opacity="1" fill-rule="nonzero"/></g><path fill="#ffffff" d="M 192.746094 192.671875 C 195.671875 192.671875 200.164062 189.699219 204.164062 185.121094 C 207.222656 181.660156 208.339844 179.113281 208.25 178.53125 C 207.691406 177.390625 200.386719 175.671875 192.613281 174.914062 C 185.085938 175.671875 177.78125 177.390625 177.222656 178.574219 C 178.039062 181.097656 179.410156 183.273438 181.332031 185.097656 C 185.351562 189.699219 189.820312 192.671875 192.746094 192.671875 Z M 192.746094 192.671875 " fill-opacity="1" fill-rule="nonzero"/><path fill="#ffffff" d="M 198.777344 288.90625 C 196.210938 265.382812 198.578125 260.515625 200.589844 258.90625 C 201.089844 258.515625 201.65625 258.273438 202.285156 258.179688 C 202.914062 258.089844 203.523438 258.160156 204.117188 258.390625 C 206.167969 259.40625 207.886719 260.820312 209.277344 262.636719 C 211.800781 265.382812 213.566406 267.105469 215.199219 266.167969 C 216.359375 265.472656 218.011719 261.699219 219.664062 258.234375 C 220.515625 256.382812 221.386719 254.394531 222.347656 252.496094 C 220.113281 231.472656 207.824219 215.257812 192.835938 215.257812 C 176.371094 215.257812 162.992188 234.800781 162.992188 258.816406 C 162.992188 259.105469 162.992188 259.398438 162.992188 259.6875 C 165.71875 262.546875 168.980469 266.390625 172.953125 271.414062 C 174.519531 273.386719 175.949219 275.449219 177.242188 277.605469 C 178.167969 279.113281 178.921875 280.703125 179.503906 282.375 C 180.089844 284.046875 180.492188 285.757812 180.710938 287.515625 C 180.929688 289.273438 180.964844 291.03125 180.808594 292.796875 C 180.652344 294.558594 180.3125 296.285156 179.789062 297.976562 C 181.664062 299.382812 183.710938 300.46875 185.929688 301.230469 C 188.144531 301.996094 190.425781 302.398438 192.769531 302.445312 C 195.808594 302.433594 198.710938 301.800781 201.480469 300.546875 C 200.886719 299.203125 200.414062 297.820312 200.074219 296.390625 C 199.496094 293.921875 199.0625 291.425781 198.777344 288.90625 Z M 198.777344 288.90625 " fill-opacity="1" fill-rule="nonzero"/><path fill="#ffffff" d="M 171.125 272.777344 C 167.996094 268.800781 165.335938 265.652344 163.058594 263.105469 L 161.917969 261.855469 L 160.757812 260.605469 C 155.597656 255.242188 152.871094 253.769531 151.441406 253.523438 C 151.242188 253.492188 151.039062 253.492188 150.839844 253.523438 C 150.367188 253.578125 150.03125 253.824219 149.835938 254.257812 C 149.828125 254.3125 149.828125 254.363281 149.835938 254.414062 C 149.386719 255.597656 149.214844 256.820312 149.320312 258.078125 C 149.320312 258.703125 149.320312 259.332031 149.320312 259.957031 C 149.320312 260.582031 149.320312 260.671875 149.320312 261.027344 C 149.472656 262.160156 149.433594 263.28125 149.207031 264.398438 C 148.980469 265.519531 148.582031 266.566406 148.003906 267.550781 C 147.78125 267.804688 147.527344 268.019531 147.242188 268.199219 L 146.773438 268.488281 C 146.472656 268.648438 146.160156 268.773438 145.835938 268.871094 L 145.589844 268.871094 C 143.734375 269.203125 140.71875 268.109375 136.898438 266.636719 L 135.78125 266.1875 C 131.003906 264.289062 125.417969 262.101562 121.328125 262.101562 C 120.390625 262.003906 119.488281 262.144531 118.621094 262.519531 C 117.757812 262.890625 117.035156 263.453125 116.460938 264.199219 C 113.464844 268.667969 120.167969 275.683594 125.574219 281.355469 C 128.902344 284.863281 131.515625 287.613281 131.808594 289.667969 C 132.320312 293.464844 128.34375 294.917969 124.835938 296.210938 C 123.007812 296.695312 121.355469 297.53125 119.878906 298.714844 C 119.34375 299.339844 119.363281 299.765625 119.476562 300.078125 C 119.96875 301.796875 123.945312 305.570312 144.964844 311.671875 C 147.292969 312.34375 149.652344 312.882812 152.046875 313.277344 C 153.121094 313.441406 154.199219 313.527344 155.285156 313.542969 C 156.371094 313.554688 157.453125 313.488281 158.53125 313.351562 C 159.609375 313.210938 160.667969 313 161.71875 312.710938 C 162.765625 312.421875 163.785156 312.0625 164.785156 311.632812 C 165.78125 311.203125 166.742188 310.707031 167.671875 310.140625 C 168.597656 309.578125 169.484375 308.949219 170.324219 308.261719 C 171.164062 307.574219 171.953125 306.828125 172.6875 306.03125 C 173.425781 305.234375 174.101562 304.386719 174.71875 303.496094 C 175.695312 302.015625 176.492188 300.441406 177.109375 298.78125 L 177.558594 297.6875 C 177.558594 297.304688 177.757812 296.882812 177.871094 296.503906 C 178.269531 295.003906 178.515625 293.480469 178.609375 291.929688 C 178.703125 290.382812 178.636719 288.839844 178.417969 287.304688 C 178.195312 285.765625 177.824219 284.269531 177.296875 282.808594 C 176.773438 281.347656 176.109375 279.957031 175.300781 278.632812 C 174.019531 276.601562 172.628906 274.648438 171.125 272.777344 Z M 171.125 272.777344 " fill-opacity="1" fill-rule="nonzero"/><path fill="#ffffff" d="M 255.742188 271.238281 C 253.851562 271.417969 252.078125 271.976562 250.425781 272.914062 L 247.992188 273.960938 C 245.308594 274.988281 242.628906 275.480469 240.886719 273.113281 C 240.46875 272.484375 240.195312 271.800781 240.0625 271.058594 C 239.75 269.292969 239.585938 267.511719 239.570312 265.71875 C 239.570312 264.804688 239.570312 263.84375 239.570312 262.816406 C 239.570312 256.316406 239.347656 248.496094 236.285156 245.4375 C 235.890625 245.03125 235.4375 244.710938 234.921875 244.476562 C 234.640625 244.351562 234.351562 244.253906 234.050781 244.183594 L 233.714844 244.183594 C 232.945312 244.09375 232.199219 244.199219 231.484375 244.496094 C 228.847656 245.570312 226.546875 248.964844 224.535156 252.941406 L 223.574219 254.886719 C 223.21875 255.644531 222.882812 256.382812 222.546875 257.117188 C 222.210938 257.855469 221.921875 258.480469 221.632812 259.152344 C 219.664062 263.621094 218.125 267.039062 216.335938 268.085938 C 213.03125 270.03125 210.148438 266.902344 207.625 264.132812 C 206.472656 262.628906 205.066406 261.421875 203.402344 260.515625 C 203.1875 260.433594 202.964844 260.386719 202.734375 260.378906 C 202.453125 260.375 202.207031 260.460938 201.996094 260.648438 C 200.609375 261.765625 198.621094 266.882812 201.011719 288.660156 C 201.269531 291.070312 201.671875 293.453125 202.21875 295.808594 C 202.523438 297.054688 202.925781 298.269531 203.425781 299.449219 C 203.582031 299.785156 203.738281 300.121094 203.917969 300.457031 C 204.09375 300.792969 204.207031 301.125 204.386719 301.460938 C 204.613281 301.882812 204.855469 302.300781 205.105469 302.707031 C 205.359375 303.113281 205.628906 303.515625 205.90625 303.90625 C 206.183594 304.296875 206.476562 304.675781 206.777344 305.050781 C 207.082031 305.421875 207.394531 305.785156 207.722656 306.136719 C 208.046875 306.492188 208.382812 306.832031 208.730469 307.164062 C 209.078125 307.496094 209.433594 307.816406 209.800781 308.125 C 210.171875 308.433594 210.546875 308.730469 210.933594 309.019531 C 211.320312 309.304688 211.714844 309.574219 212.117188 309.835938 C 212.519531 310.097656 212.929688 310.34375 213.351562 310.578125 C 213.769531 310.8125 214.195312 311.035156 214.628906 311.242188 C 215.0625 311.449219 215.5 311.644531 215.945312 311.824219 C 216.390625 312.003906 216.839844 312.171875 217.296875 312.324219 C 217.75 312.476562 218.210938 312.613281 218.675781 312.734375 C 219.140625 312.859375 219.605469 312.964844 220.078125 313.058594 C 220.546875 313.152344 221.023438 313.230469 221.5 313.296875 C 221.972656 313.359375 222.453125 313.40625 222.929688 313.441406 C 223.410156 313.472656 223.890625 313.492188 224.367188 313.496094 C 224.847656 313.5 225.328125 313.488281 225.808594 313.460938 C 226.289062 313.433594 226.765625 313.390625 227.242188 313.335938 C 227.71875 313.277344 228.195312 313.207031 228.664062 313.121094 C 229.136719 313.03125 229.605469 312.929688 230.074219 312.816406 C 230.539062 312.699219 231 312.566406 231.457031 312.421875 C 231.914062 312.277344 232.367188 312.117188 232.816406 311.941406 C 233.261719 311.769531 233.703125 311.582031 234.140625 311.378906 C 234.578125 311.179688 235.003906 310.960938 235.425781 310.734375 C 235.851562 310.503906 236.265625 310.261719 236.671875 310.007812 C 237.078125 309.753906 237.476562 309.484375 237.867188 309.207031 C 238.257812 308.925781 238.636719 308.632812 239.007812 308.332031 C 239.382812 308.027344 239.742188 307.710938 240.09375 307.382812 C 240.445312 307.058594 240.789062 306.71875 241.117188 306.371094 C 241.449219 306.023438 241.769531 305.664062 242.074219 305.296875 C 242.382812 304.929688 242.679688 304.550781 242.964844 304.164062 C 244.402344 302.207031 245.71875 300.175781 246.917969 298.066406 C 257.640625 278.964844 257.84375 273.492188 257.015625 271.929688 C 256.886719 271.703125 256.707031 271.523438 256.480469 271.398438 C 256.25 271.273438 256.003906 271.21875 255.742188 271.238281 Z M 255.742188 271.238281 " fill-opacity="1" fill-rule="nonzero"/><g fill="#000000" fill-opacity="1"><g transform="translate(109.758231, 89.571557)"><g><path d="M 3.34375 0 L 3.34375 -34.546875 L 12.375 -34.546875 L 12.375 -7.6875 L 27 -7.6875 L 27 0 Z M 3.34375 0 "/></g></g></g><g fill="#000000" fill-opacity="1"><g transform="translate(137.501385, 89.571557)"><g><path d="M 3.34375 0 L 3.34375 -34.546875 L 12.375 -34.546875 L 12.375 0 Z M 3.34375 0 "/></g></g></g><g fill="#000000" fill-opacity="1"><g transform="translate(153.220863, 89.571557)"><g><path d="M 27 -13.75 L 26.953125 -34.546875 L 35.328125 -34.546875 L 35.328125 0 L 27.453125 0 L 11.78125 -20.65625 L 11.78125 0 L 3.34375 0 L 3.34375 -34.546875 L 11.28125 -34.546875 Z M 27 -13.75 "/></g></g></g><g fill="#000000" fill-opacity="1"><g transform="translate(191.952874, 89.571557)"><g><path d="M 11.78125 -14.25 C 11.78125 -12.070312 12.421875 -10.328125 13.703125 -9.015625 C 14.984375 -7.703125 16.609375 -7.046875 18.578125 -7.046875 C 20.515625 -7.046875 22.082031 -7.691406 23.28125 -8.984375 C 24.476562 -10.285156 25.078125 -12.039062 25.078125 -14.25 L 25.078125 -34.546875 L 34.109375 -34.546875 L 34.109375 -14.25 C 34.109375 -11.25 33.472656 -8.625 32.203125 -6.375 C 30.941406 -4.125 29.132812 -2.390625 26.78125 -1.171875 C 24.4375 0.0351562 21.6875 0.640625 18.53125 0.640625 C 15.375 0.640625 12.601562 0.0351562 10.21875 -1.171875 C 7.84375 -2.390625 6.003906 -4.125 4.703125 -6.375 C 3.410156 -8.625 2.765625 -11.25 2.765625 -14.25 L 2.765625 -34.546875 L 11.78125 -34.546875 Z M 11.78125 -14.25 "/></g></g></g><g fill="#000000" fill-opacity="1"><g transform="translate(228.861613, 89.571557)"><g><path d="M 12.46875 -17.59375 L 0.984375 -34.546875 L 11.484375 -34.546875 L 17.9375 -24.734375 L 24.4375 -34.546875 L 35.09375 -34.546875 L 23.703125 -18.03125 L 36.078125 0 L 25.28125 0 L 17.9375 -10.6875 L 10.75 0 L 0.203125 0 Z M 12.46875 -17.59375 "/></g></g></g></svg>