<svg xmlns="http://www.w3.org/2000/svg" xmlns:xlink="http://www.w3.org/1999/xlink" width="500" zoomAndPan="magnify" viewBox="0 0 375 374.999991" height="500" preserveAspectRatio="xMidYMid meet" version="1.0"><defs><g/><clipPath id="5b78bc7809"><path d="M 93.09375 163.777344 L 282.09375 163.777344 L 282.09375 352.777344 L 93.09375 352.777344 Z M 93.09375 163.777344 " clip-rule="nonzero"/></clipPath></defs><path fill="#000000" d="M 187.5625 265.738281 C 195.414062 265.738281 201.800781 259.386719 201.800781 251.53125 L 201.800781 222.007812 C 201.800781 214.15625 195.414062 207.769531 187.5625 207.769531 C 179.707031 207.769531 173.355469 214.15625 173.355469 222.007812 L 173.355469 251.53125 C 173.355469 259.351562 179.707031 265.738281 187.5625 265.738281 Z M 187.5625 265.738281 " fill-opacity="1" fill-rule="nonzero"/><g clip-path="url(#5b78bc7809)"><path fill="#000000" d="M 187.59375 163.777344 C 135.390625 163.777344 93.09375 206.074219 93.09375 258.277344 C 93.09375 310.480469 135.390625 352.777344 187.59375 352.777344 C 239.796875 352.777344 282.09375 310.480469 282.09375 258.277344 C 282.09375 206.074219 239.796875 163.777344 187.59375 163.777344 Z M 163.578125 222.007812 C 163.578125 208.746094 174.332031 197.992188 187.5625 197.992188 C 200.792969 197.992188 211.578125 208.777344 211.578125 222.007812 L 211.578125 251.53125 C 211.578125 264.761719 200.792969 275.515625 187.5625 275.515625 C 174.332031 275.515625 163.578125 264.761719 163.578125 251.53125 Z M 192.449219 287.472656 L 192.449219 308.785156 L 203.5625 308.785156 C 206.265625 308.785156 208.449219 310.96875 208.449219 313.671875 C 208.449219 316.378906 206.265625 318.5625 203.5625 318.5625 L 171.59375 318.5625 C 168.890625 318.5625 166.707031 316.378906 166.707031 313.671875 C 166.707031 310.96875 168.890625 308.785156 171.59375 308.785156 L 182.675781 308.785156 L 182.675781 287.472656 C 164.980469 285.0625 151.324219 269.910156 151.324219 251.53125 C 151.324219 248.828125 153.507812 246.644531 156.214844 246.644531 C 158.917969 246.644531 161.101562 248.828125 161.101562 251.53125 C 161.101562 266.164062 172.964844 278.058594 187.5625 278.058594 C 202.160156 278.058594 214.085938 266.164062 214.085938 251.53125 C 214.085938 248.828125 216.269531 246.644531 218.976562 246.644531 C 221.679688 246.644531 223.863281 248.828125 223.863281 251.53125 C 223.863281 269.878906 210.144531 285.0625 192.449219 287.472656 Z M 192.449219 287.472656 " fill-opacity="1" fill-rule="nonzero"/></g><g fill="#000000" fill-opacity="1"><g transform="translate(66.723437, 74.152744)"><g><path d="M 3.234375 0 L 3.234375 -33.359375 L 11.9375 -33.359375 L 11.9375 -7.421875 L 26.078125 -7.421875 L 26.078125 0 Z M 3.234375 0 "/></g></g></g><g fill="#000000" fill-opacity="1"><g transform="translate(93.507564, 74.152744)"><g><path d="M 19.125 -33.875 C 22.519531 -33.875 25.585938 -33.128906 28.328125 -31.640625 C 31.078125 -30.148438 33.234375 -28.101562 34.796875 -25.5 C 36.367188 -22.894531 37.15625 -19.976562 37.15625 -16.75 C 37.15625 -13.476562 36.367188 -10.523438 34.796875 -7.890625 C 33.234375 -5.265625 31.078125 -3.1875 28.328125 -1.65625 C 25.585938 -0.132812 22.519531 0.625 19.125 0.625 C 15.726562 0.625 12.65625 -0.128906 9.90625 -1.640625 C 7.164062 -3.148438 5.007812 -5.226562 3.4375 -7.875 C 1.875 -10.519531 1.09375 -13.476562 1.09375 -16.75 C 1.09375 -19.976562 1.875 -22.894531 3.4375 -25.5 C 5.007812 -28.101562 7.164062 -30.148438 9.90625 -31.640625 C 12.65625 -33.128906 15.726562 -33.875 19.125 -33.875 Z M 19.21875 -26.5 C 17.570312 -26.5 16.039062 -26.070312 14.625 -25.21875 C 13.21875 -24.363281 12.097656 -23.179688 11.265625 -21.671875 C 10.441406 -20.160156 10.03125 -18.503906 10.03125 -16.703125 C 10.03125 -14.859375 10.453125 -13.179688 11.296875 -11.671875 C 12.140625 -10.171875 13.257812 -8.984375 14.65625 -8.109375 C 16.050781 -7.234375 17.570312 -6.796875 19.21875 -6.796875 C 20.875 -6.796875 22.390625 -7.234375 23.765625 -8.109375 C 25.140625 -8.984375 26.222656 -10.171875 27.015625 -11.671875 C 27.816406 -13.179688 28.21875 -14.859375 28.21875 -16.703125 C 28.21875 -18.503906 27.816406 -20.160156 27.015625 -21.671875 C 26.222656 -23.179688 25.140625 -24.363281 23.765625 -25.21875 C 22.390625 -26.070312 20.875 -26.5 19.21875 -26.5 Z M 19.21875 -26.5 "/></g></g></g><g fill="#000000" fill-opacity="1"><g transform="translate(131.757014, 74.152744)"><g><path d="M 27.359375 -22.03125 C 26.273438 -23.394531 24.988281 -24.476562 23.5 -25.28125 C 22.007812 -26.09375 20.535156 -26.5 19.078125 -26.5 C 17.398438 -26.5 15.867188 -26.078125 14.484375 -25.234375 C 13.109375 -24.398438 12.019531 -23.242188 11.21875 -21.765625 C 10.425781 -20.285156 10.03125 -18.644531 10.03125 -16.84375 C 10.03125 -15.03125 10.425781 -13.382812 11.21875 -11.90625 C 12.019531 -10.4375 13.109375 -9.28125 14.484375 -8.4375 C 15.867188 -7.601562 17.398438 -7.1875 19.078125 -7.1875 C 20.441406 -7.1875 21.867188 -7.535156 23.359375 -8.234375 C 24.847656 -8.929688 26.179688 -9.878906 27.359375 -11.078125 L 32.453125 -5.609375 C 30.640625 -3.710938 28.488281 -2.195312 26 -1.0625 C 23.507812 0.0625 21.046875 0.625 18.609375 0.625 C 15.304688 0.625 12.320312 -0.132812 9.65625 -1.65625 C 6.988281 -3.1875 4.894531 -5.265625 3.375 -7.890625 C 1.851562 -10.523438 1.09375 -13.476562 1.09375 -16.75 C 1.09375 -19.976562 1.867188 -22.894531 3.421875 -25.5 C 4.972656 -28.101562 7.101562 -30.148438 9.8125 -31.640625 C 12.53125 -33.128906 15.570312 -33.875 18.9375 -33.875 C 21.40625 -33.875 23.84375 -33.359375 26.25 -32.328125 C 28.664062 -31.296875 30.71875 -29.894531 32.40625 -28.125 Z M 27.359375 -22.03125 "/></g></g></g><g fill="#000000" fill-opacity="1"><g transform="translate(164.678183, 74.152744)"><g><path d="M 11.375 -13.75 C 11.375 -11.65625 11.988281 -9.972656 13.21875 -8.703125 C 14.457031 -7.429688 16.03125 -6.796875 17.9375 -6.796875 C 19.8125 -6.796875 21.328125 -7.421875 22.484375 -8.671875 C 23.640625 -9.929688 24.21875 -11.625 24.21875 -13.75 L 24.21875 -33.359375 L 32.921875 -33.359375 L 32.921875 -13.75 C 32.921875 -10.863281 32.3125 -8.332031 31.09375 -6.15625 C 29.875 -3.988281 28.128906 -2.316406 25.859375 -1.140625 C 23.585938 0.0351562 20.929688 0.625 17.890625 0.625 C 14.847656 0.625 12.175781 0.0351562 9.875 -1.140625 C 7.570312 -2.316406 5.796875 -3.988281 4.546875 -6.15625 C 3.296875 -8.332031 2.671875 -10.863281 2.671875 -13.75 L 2.671875 -33.359375 L 11.375 -33.359375 Z M 11.375 -13.75 "/></g></g></g><g fill="#000000" fill-opacity="1"><g transform="translate(200.311061, 74.152744)"><g><path d="M 32.453125 -5.609375 C 30.890625 -3.960938 29.035156 -2.59375 26.890625 -1.5 C 24.753906 -0.40625 22.578125 0.265625 20.359375 0.515625 L 19.609375 2.671875 C 20.929688 2.953125 21.910156 3.429688 22.546875 4.109375 C 23.179688 4.796875 23.5 5.597656 23.5 6.515625 C 23.5 8.035156 22.921875 9.1875 21.765625 9.96875 C 20.609375 10.75 19.15625 11.140625 17.40625 11.140625 C 15.664062 11.140625 13.925781 10.820312 12.1875 10.1875 L 13.515625 6.375 C 14.242188 6.65625 15.050781 6.796875 15.9375 6.796875 C 16.507812 6.796875 16.96875 6.703125 17.3125 6.515625 C 17.664062 6.328125 17.84375 6.070312 17.84375 5.75 C 17.84375 5.40625 17.601562 5.132812 17.125 4.9375 C 16.65625 4.75 16.050781 4.65625 15.3125 4.65625 L 14.171875 4.65625 L 15.5625 0.375 C 12.769531 -0.0625 10.28125 -1.070312 8.09375 -2.65625 C 5.90625 -4.25 4.191406 -6.265625 2.953125 -8.703125 C 1.710938 -11.148438 1.09375 -13.832031 1.09375 -16.75 C 1.09375 -19.976562 1.867188 -22.894531 3.421875 -25.5 C 4.972656 -28.101562 7.101562 -30.148438 9.8125 -31.640625 C 12.53125 -33.128906 15.570312 -33.875 18.9375 -33.875 C 21.40625 -33.875 23.84375 -33.359375 26.25 -32.328125 C 28.664062 -31.296875 30.71875 -29.894531 32.40625 -28.125 L 27.359375 -22.03125 C 26.273438 -23.394531 24.988281 -24.476562 23.5 -25.28125 C 22.007812 -26.09375 20.535156 -26.5 19.078125 -26.5 C 17.398438 -26.5 15.867188 -26.078125 14.484375 -25.234375 C 13.109375 -24.398438 12.019531 -23.242188 11.21875 -21.765625 C 10.425781 -20.285156 10.03125 -18.644531 10.03125 -16.84375 C 10.03125 -15.03125 10.425781 -13.382812 11.21875 -11.90625 C 12.019531 -10.4375 13.109375 -9.28125 14.484375 -8.4375 C 15.867188 -7.601562 17.398438 -7.1875 19.078125 -7.1875 C 20.441406 -7.1875 21.867188 -7.535156 23.359375 -8.234375 C 24.847656 -8.929688 26.179688 -9.878906 27.359375 -11.078125 Z M 32.453125 -5.609375 "/></g></g></g><g fill="#000000" fill-opacity="1"><g transform="translate(233.23222, 74.152744)"><g><path d="M 37.015625 0 L 27.734375 0 L 25.453125 -5.90625 L 11.03125 -5.90625 L 8.703125 0 L -0.234375 0 L 14.078125 -33.359375 L 23.03125 -33.359375 Z M 18.3125 -24.453125 L 13.65625 -12.5625 L 22.890625 -12.5625 Z M 27.171875 -43.390625 C 27.171875 -40.921875 26.804688 -39.050781 26.078125 -37.78125 C 25.347656 -36.507812 24.175781 -35.875 22.5625 -35.875 C 21.800781 -35.875 21.101562 -35.992188 20.46875 -36.234375 C 19.832031 -36.472656 19.085938 -36.8125 18.234375 -37.25 C 17.335938 -37.757812 16.671875 -38.015625 16.234375 -38.015625 C 15.335938 -38.015625 14.890625 -37.347656 14.890625 -36.015625 L 10.09375 -36.015625 C 10.09375 -38.492188 10.457031 -40.375 11.1875 -41.65625 C 11.914062 -42.9375 13.101562 -43.578125 14.75 -43.578125 C 15.476562 -43.578125 16.175781 -43.445312 16.84375 -43.1875 C 17.507812 -42.9375 18.238281 -42.609375 19.03125 -42.203125 C 19.988281 -41.691406 20.65625 -41.4375 21.03125 -41.4375 C 21.957031 -41.4375 22.421875 -42.085938 22.421875 -43.390625 Z M 27.171875 -43.390625 "/></g></g></g><g fill="#000000" fill-opacity="1"><g transform="translate(270.006872, 74.152744)"><g><path d="M 19.125 -33.875 C 22.519531 -33.875 25.585938 -33.128906 28.328125 -31.640625 C 31.078125 -30.148438 33.234375 -28.101562 34.796875 -25.5 C 36.367188 -22.894531 37.15625 -19.976562 37.15625 -16.75 C 37.15625 -13.476562 36.367188 -10.523438 34.796875 -7.890625 C 33.234375 -5.265625 31.078125 -3.1875 28.328125 -1.65625 C 25.585938 -0.132812 22.519531 0.625 19.125 0.625 C 15.726562 0.625 12.65625 -0.128906 9.90625 -1.640625 C 7.164062 -3.148438 5.007812 -5.226562 3.4375 -7.875 C 1.875 -10.519531 1.09375 -13.476562 1.09375 -16.75 C 1.09375 -19.976562 1.875 -22.894531 3.4375 -25.5 C 5.007812 -28.101562 7.164062 -30.148438 9.90625 -31.640625 C 12.65625 -33.128906 15.726562 -33.875 19.125 -33.875 Z M 19.21875 -26.5 C 17.570312 -26.5 16.039062 -26.070312 14.625 -25.21875 C 13.21875 -24.363281 12.097656 -23.179688 11.265625 -21.671875 C 10.441406 -20.160156 10.03125 -18.503906 10.03125 -16.703125 C 10.03125 -14.859375 10.453125 -13.179688 11.296875 -11.671875 C 12.140625 -10.171875 13.257812 -8.984375 14.65625 -8.109375 C 16.050781 -7.234375 17.570312 -6.796875 19.21875 -6.796875 C 20.875 -6.796875 22.390625 -7.234375 23.765625 -8.109375 C 25.140625 -8.984375 26.222656 -10.171875 27.015625 -11.671875 C 27.816406 -13.179688 28.21875 -14.859375 28.21875 -16.703125 C 28.21875 -18.503906 27.816406 -20.160156 27.015625 -21.671875 C 26.222656 -23.179688 25.140625 -24.363281 23.765625 -25.21875 C 22.390625 -26.070312 20.875 -26.5 19.21875 -26.5 Z M 19.21875 -26.5 "/></g></g></g><g fill="#000000" fill-opacity="1"><g transform="translate(46.580767, 140.328561)"><g><path d="M 17.609375 -33.359375 C 21.097656 -33.359375 24.179688 -32.660156 26.859375 -31.265625 C 29.535156 -29.867188 31.617188 -27.90625 33.109375 -25.375 C 34.597656 -22.851562 35.34375 -19.960938 35.34375 -16.703125 C 35.34375 -13.429688 34.585938 -10.523438 33.078125 -7.984375 C 31.578125 -5.453125 29.453125 -3.488281 26.703125 -2.09375 C 23.960938 -0.695312 20.816406 0 17.265625 0 L 3.234375 0 L 3.234375 -33.359375 Z M 17.84375 -7.046875 C 19.519531 -7.046875 21.007812 -7.441406 22.3125 -8.234375 C 23.613281 -9.023438 24.628906 -10.148438 25.359375 -11.609375 C 26.085938 -13.066406 26.453125 -14.734375 26.453125 -16.609375 C 26.453125 -18.503906 26.0625 -20.179688 25.28125 -21.640625 C 24.507812 -23.109375 23.441406 -24.242188 22.078125 -25.046875 C 20.710938 -25.859375 19.15625 -26.265625 17.40625 -26.265625 L 11.9375 -26.265625 L 11.9375 -7.046875 Z M 17.84375 -7.046875 "/></g></g></g><g fill="#000000" fill-opacity="1"><g transform="translate(83.022405, 140.328561)"><g><path d="M 11.375 -13.75 C 11.375 -11.65625 11.988281 -9.972656 13.21875 -8.703125 C 14.457031 -7.429688 16.03125 -6.796875 17.9375 -6.796875 C 19.8125 -6.796875 21.328125 -7.421875 22.484375 -8.671875 C 23.640625 -9.929688 24.21875 -11.625 24.21875 -13.75 L 24.21875 -33.359375 L 32.921875 -33.359375 L 32.921875 -13.75 C 32.921875 -10.863281 32.3125 -8.332031 31.09375 -6.15625 C 29.875 -3.988281 28.128906 -2.316406 25.859375 -1.140625 C 23.585938 0.0351562 20.929688 0.625 17.890625 0.625 C 14.847656 0.625 12.175781 0.0351562 9.875 -1.140625 C 7.570312 -2.316406 5.796875 -3.988281 4.546875 -6.15625 C 3.296875 -8.332031 2.671875 -10.863281 2.671875 -13.75 L 2.671875 -33.359375 L 11.375 -33.359375 Z M 11.375 -13.75 "/></g></g></g><g fill="#000000" fill-opacity="1"><g transform="translate(118.655283, 140.328561)"><g><path d="M 19.078125 -33.359375 C 21.585938 -33.359375 23.769531 -33.015625 25.625 -32.328125 C 27.476562 -31.648438 28.910156 -30.675781 29.921875 -29.40625 C 30.941406 -28.132812 31.453125 -26.644531 31.453125 -24.9375 C 31.453125 -23.1875 30.9375 -21.660156 29.90625 -20.359375 C 28.875 -19.054688 27.46875 -18.171875 25.6875 -17.703125 C 27.8125 -17.285156 29.484375 -16.316406 30.703125 -14.796875 C 31.929688 -13.273438 32.546875 -11.4375 32.546875 -9.28125 C 32.546875 -7.40625 32.019531 -5.757812 30.96875 -4.34375 C 29.925781 -2.9375 28.4375 -1.859375 26.5 -1.109375 C 24.5625 -0.367188 22.296875 0 19.703125 0 L 3.234375 0 L 3.234375 -33.359375 Z M 18.609375 -20.078125 C 19.804688 -20.078125 20.753906 -20.367188 21.453125 -20.953125 C 22.148438 -21.546875 22.5 -22.363281 22.5 -23.40625 C 22.5 -24.425781 22.148438 -25.210938 21.453125 -25.765625 C 20.753906 -26.316406 19.804688 -26.578125 18.609375 -26.546875 L 11.9375 -26.546875 L 11.9375 -20.078125 Z M 18.609375 -6.75 C 20.128906 -6.75 21.332031 -7.066406 22.21875 -7.703125 C 23.101562 -8.335938 23.546875 -9.226562 23.546875 -10.375 C 23.546875 -11.414062 23.101562 -12.242188 22.21875 -12.859375 C 21.332031 -13.484375 20.128906 -13.78125 18.609375 -13.75 L 11.9375 -13.75 L 11.9375 -6.75 Z M 18.609375 -6.75 "/></g></g></g><g fill="#000000" fill-opacity="1"><g transform="translate(152.718227, 140.328561)"><g><path d="M 3.234375 0 L 3.234375 -33.359375 L 11.9375 -33.359375 L 11.9375 -7.421875 L 26.078125 -7.421875 L 26.078125 0 Z M 3.234375 0 "/></g></g></g><g fill="#000000" fill-opacity="1"><g transform="translate(179.502354, 140.328561)"><g><path d="M 37.015625 0 L 27.734375 0 L 25.453125 -5.90625 L 11.03125 -5.90625 L 8.703125 0 L -0.234375 0 L 14.078125 -33.359375 L 23.03125 -33.359375 Z M 18.3125 -24.453125 L 13.65625 -12.5625 L 22.890625 -12.5625 Z M 18.3125 -24.453125 "/></g></g></g><g fill="#000000" fill-opacity="1"><g transform="translate(216.276996, 140.328561)"><g><path d="M 25.3125 -17.03125 L 32.828125 -17.03125 L 32.828125 -3.765625 C 31.054688 -2.460938 28.875 -1.40625 26.28125 -0.59375 C 23.695312 0.21875 21.25 0.625 18.9375 0.625 C 15.570312 0.625 12.53125 -0.128906 9.8125 -1.640625 C 7.101562 -3.148438 4.972656 -5.21875 3.421875 -7.84375 C 1.867188 -10.476562 1.09375 -13.429688 1.09375 -16.703125 C 1.09375 -19.929688 1.894531 -22.851562 3.5 -25.46875 C 5.101562 -28.09375 7.304688 -30.148438 10.109375 -31.640625 C 12.921875 -33.128906 16.050781 -33.875 19.5 -33.875 C 21.976562 -33.875 24.453125 -33.421875 26.921875 -32.515625 C 29.398438 -31.609375 31.492188 -30.394531 33.203125 -28.875 L 28.265625 -22.796875 C 27.054688 -23.929688 25.664062 -24.832031 24.09375 -25.5 C 22.53125 -26.164062 20.984375 -26.5 19.453125 -26.5 C 17.679688 -26.5 16.082031 -26.070312 14.65625 -25.21875 C 13.226562 -24.363281 12.097656 -23.1875 11.265625 -21.6875 C 10.441406 -20.195312 10.03125 -18.535156 10.03125 -16.703125 C 10.03125 -14.828125 10.441406 -13.132812 11.265625 -11.625 C 12.097656 -10.125 13.242188 -8.941406 14.703125 -8.078125 C 16.160156 -7.222656 17.773438 -6.796875 19.546875 -6.796875 C 21.234375 -6.796875 23.15625 -7.335938 25.3125 -8.421875 Z M 25.3125 -17.03125 "/></g></g></g><g fill="#000000" fill-opacity="1"><g transform="translate(251.624437, 140.328561)"><g><path d="M 3.234375 0 L 3.234375 -33.359375 L 29.546875 -33.359375 L 29.546875 -26.40625 L 11.9375 -26.40625 L 11.9375 -20.171875 L 27.828125 -20.171875 L 27.828125 -13.28125 L 11.9375 -13.234375 L 11.9375 -6.953125 L 30.015625 -6.953125 L 30.015625 0 Z M 3.234375 0 "/></g></g></g><g fill="#000000" fill-opacity="1"><g transform="translate(283.736836, 140.328561)"><g><path d="M 3.234375 0 L 3.234375 -33.359375 L 12.703125 -33.359375 L 22.359375 -13.84375 L 31.96875 -33.359375 L 41.4375 -33.359375 L 41.4375 0 L 33.734375 0 L 33.6875 -21.125 L 25.171875 -3.328125 L 19.546875 -3.328125 L 10.984375 -21.125 L 10.984375 0 Z M 3.234375 0 "/></g></g></g></svg>