<svg xmlns="http://www.w3.org/2000/svg" xmlns:xlink="http://www.w3.org/1999/xlink" width="500" zoomAndPan="magnify" viewBox="0 0 375 374.999991" height="500" preserveAspectRatio="xMidYMid meet" version="1.0"><defs><clipPath id="7b52d5c6b5"><path d="M 38 206 L 162 206 L 162 266.183594 L 38 266.183594 Z M 38 206 " clip-rule="nonzero"/></clipPath></defs><g clip-path="url(#7b52d5c6b5)"><path fill="#000000" d="M 38.597656 252.691406 L 48.40625 252.691406 L 48.40625 213.960938 L 63.59375 247.738281 C 65.386719 251.808594 67.839844 253.269531 72.652344 253.269531 C 77.460938 253.269531 79.820312 251.824219 81.617188 247.738281 L 96.804688 213.960938 L 96.804688 252.707031 L 106.617188 252.707031 L 106.617188 214.027344 C 106.617188 210.253906 105.105469 208.425781 101.992188 207.484375 C 94.542969 205.160156 89.539062 207.171875 87.277344 212.203125 L 72.371094 245.535156 L 57.9375 212.1875 C 55.765625 207.15625 50.671875 205.144531 43.21875 207.46875 C 40.105469 208.414062 38.597656 210.238281 38.597656 214.011719 Z M 114.773438 221.15625 L 124.582031 221.15625 L 124.582031 242.503906 C 124.488281 243.664062 124.953125 246.386719 130.328125 246.46875 C 133.070312 246.511719 151.492188 246.46875 151.664062 246.46875 L 151.664062 221.050781 L 161.492188 221.050781 C 161.535156 221.050781 161.484375 255.707031 161.484375 255.855469 C 161.539062 264.40625 150.878906 266.261719 145.964844 266.40625 L 114.988281 266.40625 L 114.988281 259.804688 L 146.019531 259.800781 C 152.335938 259.132812 151.589844 255.996094 151.589844 254.9375 L 151.589844 252.367188 L 130.738281 252.367188 C 121.035156 252.277344 114.859375 248.042969 114.78125 243.171875 C 114.773438 242.734375 114.992188 221.367188 114.777344 221.15625 Z M 114.773438 221.15625 " fill-opacity="1" fill-rule="nonzero"/></g><path fill="#000000" d="M 169.054688 252.691406 L 197.261719 252.691406 C 200.5625 252.691406 203.773438 252 206.324219 250.804688 C 210.570312 248.855469 212.644531 246.214844 212.644531 242.753906 L 212.644531 235.585938 C 212.644531 232.753906 210.285156 230.113281 205.664062 228.351562 C 203.210938 227.40625 200.191406 226.90625 197.265625 226.90625 L 185.378906 226.90625 C 181.417969 226.90625 179.53125 225.710938 179.058594 223.070312 C 178.964844 222.753906 178.964844 222.488281 178.964844 222.1875 L 178.964844 217.722656 C 178.964844 217.472656 178.964844 217.21875 179.058594 216.90625 C 179.53125 214.890625 180.570312 214.324219 184.058594 213.996094 C 184.34375 213.996094 184.71875 213.933594 185.003906 213.933594 L 213.023438 213.933594 L 213.023438 207.394531 L 185.476562 207.394531 C 181.511719 207.394531 179.4375 207.644531 177.550781 208.210938 C 171.695312 210.035156 169.144531 212.945312 169.144531 217.976562 L 169.144531 223.699219 C 169.144531 228.101562 174.148438 231.875 182.542969 232.753906 C 183.488281 232.816406 184.429688 232.878906 185.371094 232.878906 L 195.558594 232.878906 C 195.9375 232.878906 196.316406 232.878906 196.597656 232.945312 C 199.710938 233.195312 201.035156 233.761719 201.976562 234.890625 C 202.558594 235.472656 202.730469 236.027344 202.730469 236.636719 L 202.730469 242.359375 C 202.730469 243.054688 202.261719 243.933594 201.316406 244.6875 C 200.46875 245.445312 199.054688 245.945312 197.164062 246.070312 C 196.789062 246.070312 196.503906 246.132812 196.128906 246.132812 L 169.054688 246.132812 Z M 273.847656 241.308594 C 273.847656 248.039062 278.847656 251.8125 288.941406 252.566406 C 289.882812 252.640625 290.824219 252.679688 291.769531 252.691406 L 317.335938 252.691406 L 317.335938 246.152344 L 291.582031 246.152344 C 285.828125 246.152344 283.65625 244.703125 283.65625 241.246094 L 283.65625 207.40625 L 273.84375 207.40625 L 273.84375 241.304688 Z M 218.902344 241.648438 L 218.902344 218.332031 C 218.902344 212.40625 223.0625 208.8125 231.285156 207.679688 C 232.164062 207.554688 233.046875 207.492188 233.933594 207.492188 L 252.558594 207.492188 C 253.476562 207.492188 254.390625 207.554688 255.300781 207.679688 C 263.523438 208.8125 267.683594 212.40625 267.683594 218.332031 L 267.683594 241.648438 C 267.683594 246.453125 265.917969 249.027344 261.84375 250.703125 L 271.507812 259.429688 L 260.117188 259.429688 L 252.296875 252.371094 L 244.425781 252.867188 L 233.933594 252.867188 C 232.136719 252.867188 230.246094 252.617188 228.167969 252.046875 C 221.914062 250.347656 218.902344 247.070312 218.902344 241.648438 Z M 229.492188 241.066406 C 229.492188 241.382812 229.585938 241.695312 229.683594 242.074219 C 230.261719 244.785156 232.800781 246.296875 236.660156 246.296875 L 245.574219 246.296875 L 237.390625 238.90625 L 248.78125 238.90625 L 255.90625 245.355469 C 257.222656 244.652344 258.085938 243.578125 258.378906 242.203125 C 258.472656 241.886719 258.472656 241.574219 258.472656 241.257812 L 258.472656 218.898438 C 258.472656 218.648438 258.472656 218.316406 258.378906 218.015625 C 257.796875 215.496094 255.257812 214.046875 251.476562 214.046875 L 236.6875 214.046875 C 232.324219 214.046875 229.503906 215.9375 229.503906 218.898438 L 229.503906 241.085938 Z M 229.492188 241.066406 " fill-opacity="1" fill-rule="nonzero"/><path fill="#000000" d="M 325.964844 196.554688 C 319.933594 196.394531 315.324219 196.953125 311.386719 198.613281 C 310.265625 199.085938 308.484375 199.097656 308.300781 200.5 C 308.914062 201.144531 309.011719 202.109375 309.5 202.898438 C 310.441406 204.421875 312.03125 206.460938 313.445312 207.53125 C 314.992188 208.699219 316.585938 209.949219 318.246094 210.960938 C 321.199219 212.761719 324.496094 213.789062 327.335938 215.589844 C 329.011719 216.652344 330.675781 217.992188 332.308594 219.191406 C 333.117188 219.785156 333.660156 220.707031 334.707031 221.078125 L 334.707031 220.90625 C 334.15625 220.203125 334.015625 219.238281 333.507812 218.507812 L 331.28125 216.277344 C 329.097656 213.371094 326.332031 210.84375 323.390625 208.730469 C 321.046875 207.046875 315.792969 204.773438 314.816406 202.042969 L 314.644531 201.871094 C 316.308594 201.679688 318.253906 201.082031 319.792969 200.671875 C 322.371094 199.980469 324.675781 200.15625 327.339844 199.472656 L 330.941406 198.441406 L 330.941406 197.753906 C 329.59375 196.375 328.632812 194.546875 327.167969 193.296875 C 323.328125 190.023438 319.136719 186.761719 314.820312 184.035156 C 312.429688 182.523438 309.46875 181.542969 306.933594 180.261719 C 306.078125 179.828125 304.582031 179.605469 304.015625 178.886719 C 302.683594 177.1875 301.960938 175.035156 300.933594 173.070312 C 298.78125 168.925781 296.664062 164.398438 294.757812 160.039062 C 293.457031 157.0625 292.605469 154.132812 290.984375 151.460938 C 283.199219 138.660156 274.816406 130.933594 261.832031 123.339844 C 259.070312 121.726562 255.746094 121.085938 252.226562 120.253906 L 246.570312 119.910156 C 245.417969 119.429688 244.21875 118.019531 243.136719 117.335938 C 238.835938 114.617188 227.804688 108.707031 224.617188 116.464844 C 222.605469 121.367188 227.621094 126.152344 229.417969 128.640625 C 230.679688 130.386719 232.292969 132.335938 233.191406 134.300781 C 233.78125 135.585938 233.886719 136.878906 234.390625 138.246094 C 235.636719 141.589844 236.722656 145.257812 238.335938 148.363281 C 239.148438 149.933594 240.046875 151.585938 241.078125 152.992188 C 241.710938 153.855469 242.796875 154.234375 242.964844 155.566406 C 241.90625 157.050781 241.84375 159.347656 241.25 161.226562 C 238.570312 169.675781 239.578125 180.179688 243.480469 186.4375 C 244.675781 188.355469 247.492188 192.472656 251.367188 190.894531 C 254.753906 189.511719 253.984375 185.238281 254.96875 181.464844 C 255.1875 180.605469 255.054688 179.980469 255.484375 179.40625 L 255.484375 179.578125 L 258.570312 185.75 C 260.855469 189.429688 264.910156 193.273438 268.347656 195.871094 C 270.128906 197.214844 271.546875 199.542969 273.832031 200.328125 L 273.832031 200.15625 L 273.664062 200.15625 C 273.214844 199.460938 272.519531 199.171875 271.945312 198.617188 C 270.605469 197.300781 269.109375 195.664062 268 194.15625 C 264.875 189.914062 262.113281 185.273438 259.597656 180.4375 C 258.398438 178.128906 257.351562 175.582031 256.34375 173.234375 C 255.953125 172.328125 255.957031 170.960938 255.140625 170.492188 C 254.03125 172.214844 252.398438 173.601562 251.539062 175.636719 C 250.167969 178.886719 249.992188 182.847656 249.484375 186.957031 C 249.183594 187.0625 249.316406 186.988281 249.140625 187.125 C 246.75 186.550781 245.910156 184.09375 245.023438 181.980469 C 242.777344 176.644531 242.363281 168.058594 244.339844 161.917969 C 244.847656 160.328125 247.160156 155.324219 246.222656 153.859375 C 245.777344 152.394531 244.304688 151.53125 243.480469 150.425781 C 242.460938 149.042969 241.441406 147.222656 240.734375 145.625 C 238.898438 141.464844 238.039062 136.796875 236.105469 132.589844 C 235.179688 130.582031 233.621094 128.546875 232.335938 126.773438 C 230.910156 124.796875 229.320312 123.335938 228.21875 120.957031 C 227.828125 120.105469 227.292969 118.746094 227.875 117.871094 C 227.933594 117.613281 228.054688 117.390625 228.238281 117.207031 C 228.425781 117.019531 228.648438 116.898438 228.90625 116.839844 C 229.898438 116.074219 232.671875 117.09375 233.707031 117.527344 C 236.457031 118.671875 238.753906 119.757812 241.082031 121.300781 C 242.203125 122.027344 243.332031 123.476562 244.683594 123.875 L 246.222656 123.875 C 248.636719 124.429688 251.34375 124.050781 253.597656 124.734375 C 257.582031 125.945312 261.15625 127.828125 264.402344 129.878906 C 274.285156 136.117188 282.367188 145.003906 287.894531 155.617188 C 288.785156 157.320312 289.167969 158.953125 289.953125 160.761719 C 291.535156 164.394531 293.523438 168.167969 295.097656 171.734375 C 296.667969 175.296875 298.195312 178.890625 300.414062 181.851562 C 301.582031 183.410156 306.085938 184.246094 308.132812 185.109375 C 309.566406 185.714844 311.917969 186.347656 313.277344 187.167969 C 315.871094 188.734375 318.386719 190.597656 320.824219 192.316406 C 322.039062 193.171875 325.78125 195.054688 325.96875 196.601562 Z M 325.964844 196.554688 " fill-opacity="1" fill-rule="nonzero"/><path fill="#000000" d="M 249.316406 131.21875 C 248.058594 131.195312 247.167969 131.355469 246.226562 131.5625 L 246.226562 131.734375 L 246.398438 131.734375 C 247 132.964844 248.058594 133.757812 248.800781 134.820312 L 250.515625 138.421875 L 250.6875 138.25 C 251.75 137.5 252.234375 136.304688 252.226562 134.476562 C 251.800781 134.027344 251.738281 133.464844 251.371094 132.929688 C 250.878906 132.21875 249.917969 131.8125 249.3125 131.214844 Z M 249.316406 131.21875 " fill-opacity="1" fill-rule="evenodd"/><path fill="#000000" d="M 321.949219 245.964844 C 321.949219 250.28125 325.363281 253.195312 329.179688 253.195312 C 332.996094 253.195312 336.410156 250.28125 336.410156 245.964844 C 336.410156 241.644531 332.996094 238.734375 329.179688 238.734375 C 325.363281 238.734375 321.949219 241.644531 321.949219 245.964844 Z M 334.789062 245.964844 C 334.789062 249.242188 332.285156 251.691406 329.175781 251.691406 C 326.035156 251.691406 323.5625 249.242188 323.5625 245.964844 C 323.5625 242.6875 326.03125 240.238281 329.175781 240.238281 C 332.28125 240.238281 334.789062 242.6875 334.789062 245.964844 Z M 331.125 250.089844 L 332.742188 250.089844 L 330.375 246.46875 C 331.644531 246.332031 332.609375 245.714844 332.609375 244.210938 C 332.609375 242.53125 331.546875 241.839844 329.503906 241.839844 L 326.285156 241.839844 L 326.285156 250.09375 L 327.671875 250.09375 L 327.671875 246.527344 L 328.964844 246.527344 L 331.125 250.09375 Z M 327.671875 245.367188 L 327.671875 242.996094 L 329.273438 242.996094 C 330.101562 242.996094 331.105469 243.148438 331.105469 244.113281 C 331.105469 245.269531 330.199219 245.367188 329.15625 245.367188 Z M 327.671875 245.367188 " fill-opacity="1" fill-rule="evenodd"/></svg>