<svg xmlns="http://www.w3.org/2000/svg" xmlns:xlink="http://www.w3.org/1999/xlink" width="500" zoomAndPan="magnify" viewBox="0 0 375 374.999991" height="500" preserveAspectRatio="xMidYMid meet" version="1.0"><defs><clipPath id="e66786620b"><path d="M 37.5 108.410156 L 337.5 108.410156 L 337.5 266.660156 L 37.5 266.660156 Z M 37.5 108.410156 " clip-rule="nonzero"/></clipPath><clipPath id="689c5b6b4c"><path d="M 337.5 187.5 C 337.5 188.789062 337.441406 190.078125 337.320312 191.367188 C 337.199219 192.65625 337.019531 193.945312 336.777344 195.230469 C 336.535156 196.515625 336.238281 197.792969 335.875 199.070312 C 335.515625 200.347656 335.097656 201.621094 334.617188 202.886719 C 334.140625 204.152344 333.601562 205.410156 333.003906 206.660156 C 332.40625 207.914062 331.753906 209.15625 331.039062 210.394531 C 330.328125 211.628906 329.558594 212.851562 328.730469 214.070312 C 327.90625 215.285156 327.019531 216.488281 326.082031 217.679688 C 325.140625 218.871094 324.148438 220.050781 323.097656 221.21875 C 322.046875 222.386719 320.945312 223.539062 319.789062 224.675781 C 318.632812 225.816406 317.421875 226.9375 316.160156 228.042969 C 314.898438 229.152344 313.585938 230.242188 312.21875 231.316406 C 310.855469 232.386719 309.445312 233.441406 307.980469 234.480469 C 306.519531 235.515625 305.007812 236.535156 303.453125 237.53125 C 301.894531 238.53125 300.292969 239.507812 298.644531 240.460938 C 296.992188 241.417969 295.300781 242.355469 293.566406 243.265625 C 291.832031 244.179688 290.054688 245.070312 288.234375 245.9375 C 286.414062 246.800781 284.554688 247.644531 282.660156 248.464844 C 280.761719 249.28125 278.828125 250.078125 276.855469 250.84375 C 274.882812 251.613281 272.875 252.359375 270.835938 253.074219 C 268.792969 253.792969 266.722656 254.480469 264.617188 255.144531 C 262.511719 255.808594 260.375 256.445312 258.210938 257.054688 C 256.042969 257.660156 253.851562 258.242188 251.632812 258.792969 C 249.414062 259.347656 247.171875 259.867188 244.902344 260.363281 C 242.632812 260.855469 240.34375 261.320312 238.035156 261.753906 C 235.722656 262.191406 233.390625 262.59375 231.042969 262.96875 C 228.695312 263.34375 226.328125 263.6875 223.945312 264.003906 C 221.566406 264.316406 219.171875 264.597656 216.761719 264.851562 C 214.355469 265.101562 211.9375 265.324219 209.507812 265.511719 C 207.082031 265.703125 204.644531 265.859375 202.203125 265.988281 C 199.757812 266.113281 197.3125 266.207031 194.859375 266.269531 C 192.410156 266.335938 189.953125 266.367188 187.5 266.367188 C 185.046875 266.367188 182.589844 266.335938 180.140625 266.269531 C 177.6875 266.207031 175.242188 266.113281 172.796875 265.988281 C 170.355469 265.859375 167.917969 265.703125 165.492188 265.511719 C 163.0625 265.324219 160.644531 265.101562 158.238281 264.851562 C 155.828125 264.597656 153.433594 264.316406 151.054688 264.003906 C 148.671875 263.6875 146.304688 263.34375 143.957031 262.96875 C 141.609375 262.59375 139.277344 262.191406 136.964844 261.753906 C 134.65625 261.320312 132.367188 260.855469 130.097656 260.363281 C 127.828125 259.867188 125.585938 259.347656 123.367188 258.792969 C 121.148438 258.242188 118.957031 257.660156 116.789062 257.054688 C 114.625 256.445312 112.488281 255.808594 110.382812 255.144531 C 108.277344 254.480469 106.207031 253.792969 104.164062 253.074219 C 102.125 252.359375 100.117188 251.613281 98.144531 250.84375 C 96.171875 250.078125 94.238281 249.28125 92.339844 248.464844 C 90.445312 247.644531 88.585938 246.800781 86.765625 245.9375 C 84.945312 245.070312 83.167969 244.179688 81.433594 243.265625 C 79.699219 242.355469 78.007812 241.417969 76.355469 240.464844 C 74.707031 239.507812 73.105469 238.53125 71.546875 237.53125 C 69.992188 236.535156 68.480469 235.515625 67.019531 234.480469 C 65.554688 233.441406 64.144531 232.386719 62.78125 231.316406 C 61.414062 230.242188 60.101562 229.152344 58.839844 228.042969 C 57.578125 226.9375 56.367188 225.816406 55.210938 224.675781 C 54.054688 223.539062 52.953125 222.386719 51.902344 221.21875 C 50.851562 220.050781 49.859375 218.871094 48.917969 217.679688 C 47.980469 216.488281 47.09375 215.285156 46.269531 214.070312 C 45.441406 212.851562 44.671875 211.628906 43.957031 210.394531 C 43.246094 209.15625 42.589844 207.914062 41.996094 206.660156 C 41.398438 205.410156 40.859375 204.152344 40.382812 202.886719 C 39.902344 201.621094 39.484375 200.347656 39.125 199.070312 C 38.761719 197.792969 38.464844 196.515625 38.222656 195.230469 C 37.980469 193.945312 37.800781 192.65625 37.679688 191.367188 C 37.558594 190.078125 37.5 188.789062 37.5 187.5 C 37.5 186.207031 37.558594 184.917969 37.679688 183.628906 C 37.800781 182.339844 37.980469 181.054688 38.222656 179.769531 C 38.464844 178.484375 38.761719 177.203125 39.125 175.925781 C 39.484375 174.648438 39.902344 173.378906 40.382812 172.113281 C 40.859375 170.847656 41.398438 169.585938 41.996094 168.335938 C 42.589844 167.082031 43.246094 165.839844 43.957031 164.605469 C 44.671875 163.371094 45.441406 162.144531 46.269531 160.929688 C 47.09375 159.714844 47.980469 158.511719 48.917969 157.316406 C 49.859375 156.125 50.851562 154.945312 51.902344 153.777344 C 52.953125 152.613281 54.054688 151.460938 55.210938 150.320312 C 56.367188 149.183594 57.578125 148.058594 58.839844 146.953125 C 60.101562 145.847656 61.414062 144.757812 62.78125 143.683594 C 64.144531 142.609375 65.554688 141.554688 67.019531 140.519531 C 68.480469 139.480469 69.992188 138.464844 71.546875 137.464844 C 73.105469 136.46875 74.707031 135.492188 76.355469 134.535156 C 78.007812 133.578125 79.699219 132.644531 81.433594 131.730469 C 83.167969 130.820312 84.945312 129.929688 86.765625 129.0625 C 88.585938 128.195312 90.445312 127.351562 92.339844 126.535156 C 94.238281 125.714844 96.171875 124.921875 98.144531 124.152344 C 100.117188 123.382812 102.125 122.640625 104.164062 121.921875 C 106.207031 121.207031 108.277344 120.515625 110.382812 119.851562 C 112.488281 119.1875 114.625 118.550781 116.789062 117.945312 C 118.957031 117.335938 121.148438 116.753906 123.367188 116.203125 C 125.585938 115.652344 127.828125 115.128906 130.097656 114.636719 C 132.367188 114.140625 134.65625 113.675781 136.964844 113.242188 C 139.277344 112.808594 141.609375 112.402344 143.957031 112.027344 C 146.304688 111.652344 148.671875 111.308594 151.054688 110.996094 C 153.433594 110.683594 155.828125 110.398438 158.238281 110.148438 C 160.644531 109.894531 163.0625 109.675781 165.492188 109.484375 C 167.917969 109.296875 170.355469 109.136719 172.796875 109.011719 C 175.242188 108.886719 177.6875 108.789062 180.140625 108.726562 C 182.589844 108.664062 185.046875 108.632812 187.5 108.632812 C 189.953125 108.632812 192.410156 108.664062 194.859375 108.726562 C 197.3125 108.789062 199.757812 108.886719 202.203125 109.011719 C 204.644531 109.136719 207.082031 109.296875 209.507812 109.484375 C 211.9375 109.675781 214.355469 109.894531 216.761719 110.148438 C 219.171875 110.398438 221.566406 110.683594 223.945312 110.996094 C 226.328125 111.308594 228.695312 111.652344 231.042969 112.027344 C 233.390625 112.402344 235.722656 112.808594 238.035156 113.242188 C 240.34375 113.675781 242.632812 114.140625 244.902344 114.636719 C 247.171875 115.128906 249.414062 115.652344 251.632812 116.203125 C 253.851562 116.753906 256.042969 117.335938 258.210938 117.945312 C 260.375 118.550781 262.511719 119.1875 264.617188 119.851562 C 266.722656 120.515625 268.792969 121.207031 270.835938 121.921875 C 272.875 122.640625 274.882812 123.382812 276.855469 124.152344 C 278.828125 124.921875 280.761719 125.714844 282.660156 126.535156 C 284.554688 127.351562 286.414062 128.195312 288.234375 129.0625 C 290.054688 129.929688 291.832031 130.820312 293.566406 131.730469 C 295.300781 132.644531 296.992188 133.578125 298.644531 134.535156 C 300.292969 135.492188 301.894531 136.46875 303.453125 137.464844 C 305.007812 138.464844 306.519531 139.480469 307.980469 140.519531 C 309.445312 141.554688 310.855469 142.609375 312.21875 143.683594 C 313.585938 144.757812 314.898438 145.847656 316.160156 146.953125 C 317.421875 148.058594 318.632812 149.183594 319.789062 150.320312 C 320.945312 151.460938 322.046875 152.613281 323.097656 153.777344 C 324.148438 154.945312 325.140625 156.125 326.082031 157.316406 C 327.019531 158.511719 327.90625 159.714844 328.730469 160.929688 C 329.558594 162.144531 330.328125 163.371094 331.042969 164.605469 C 331.753906 165.839844 332.40625 167.082031 333.003906 168.335938 C 333.601562 169.585938 334.140625 170.847656 334.617188 172.113281 C 335.097656 173.378906 335.515625 174.648438 335.875 175.925781 C 336.238281 177.203125 336.535156 178.484375 336.777344 179.769531 C 337.019531 181.054688 337.199219 182.339844 337.320312 183.628906 C 337.441406 184.917969 337.5 186.207031 337.5 187.5 Z M 337.5 187.5 " clip-rule="nonzero"/></clipPath><radialGradient gradientTransform="matrix(1, 0, 0, 1, 127.106248, 204.629395)" gradientUnits="userSpaceOnUse" r="196.9884" cx="0.453921" id="ca3b98dcde" cy="-68.261748" fx="0.453921" fy="-68.261748"><stop stop-opacity="1" stop-color="rgb(64.84375%, 64.84375%, 64.84375%)" offset="0"/><stop stop-opacity="1" stop-color="rgb(64.335632%, 64.335632%, 64.335632%)" offset="0.00390625"/><stop stop-opacity="1" stop-color="rgb(63.827515%, 63.827515%, 63.827515%)" offset="0.0078125"/><stop stop-opacity="1" stop-color="rgb(63.319397%, 63.319397%, 63.319397%)" offset="0.0117188"/><stop stop-opacity="1" stop-color="rgb(62.809753%, 62.809753%, 62.809753%)" offset="0.015625"/><stop stop-opacity="1" stop-color="rgb(62.301636%, 62.301636%, 62.301636%)" offset="0.0195312"/><stop stop-opacity="1" stop-color="rgb(61.793518%, 61.793518%, 61.793518%)" offset="0.0234375"/><stop stop-opacity="1" stop-color="rgb(61.283875%, 61.283875%, 61.283875%)" offset="0.0273438"/><stop stop-opacity="1" stop-color="rgb(60.775757%, 60.775757%, 60.775757%)" offset="0.03125"/><stop stop-opacity="1" stop-color="rgb(60.267639%, 60.267639%, 60.267639%)" offset="0.0351562"/><stop stop-opacity="1" stop-color="rgb(59.757996%, 59.757996%, 59.757996%)" offset="0.0390625"/><stop stop-opacity="1" stop-color="rgb(59.249878%, 59.249878%, 59.249878%)" offset="0.0429688"/><stop stop-opacity="1" stop-color="rgb(58.74176%, 58.74176%, 58.74176%)" offset="0.046875"/><stop stop-opacity="1" stop-color="rgb(58.232117%, 58.232117%, 58.232117%)" offset="0.0507812"/><stop stop-opacity="1" stop-color="rgb(57.723999%, 57.723999%, 57.723999%)" offset="0.0546875"/><stop stop-opacity="1" stop-color="rgb(57.215881%, 57.215881%, 57.215881%)" offset="0.0585938"/><stop stop-opacity="1" stop-color="rgb(56.706238%, 56.706238%, 56.706238%)" offset="0.0625"/><stop stop-opacity="1" stop-color="rgb(56.19812%, 56.19812%, 56.19812%)" offset="0.0664062"/><stop stop-opacity="1" stop-color="rgb(55.690002%, 55.690002%, 55.690002%)" offset="0.0703125"/><stop stop-opacity="1" stop-color="rgb(55.181885%, 55.181885%, 55.181885%)" offset="0.0742188"/><stop stop-opacity="1" stop-color="rgb(54.672241%, 54.672241%, 54.672241%)" offset="0.078125"/><stop stop-opacity="1" stop-color="rgb(54.164124%, 54.164124%, 54.164124%)" offset="0.0820312"/><stop stop-opacity="1" stop-color="rgb(53.656006%, 53.656006%, 53.656006%)" offset="0.0859375"/><stop stop-opacity="1" stop-color="rgb(53.146362%, 53.146362%, 53.146362%)" offset="0.0898438"/><stop stop-opacity="1" stop-color="rgb(52.638245%, 52.638245%, 52.638245%)" offset="0.09375"/><stop stop-opacity="1" stop-color="rgb(52.130127%, 52.130127%, 52.130127%)" offset="0.0976562"/><stop stop-opacity="1" stop-color="rgb(51.620483%, 51.620483%, 51.620483%)" offset="0.101562"/><stop stop-opacity="1" stop-color="rgb(51.112366%, 51.112366%, 51.112366%)" offset="0.105469"/><stop stop-opacity="1" stop-color="rgb(50.604248%, 50.604248%, 50.604248%)" offset="0.109375"/><stop stop-opacity="1" stop-color="rgb(50.094604%, 50.094604%, 50.094604%)" offset="0.113281"/><stop stop-opacity="1" stop-color="rgb(49.586487%, 49.586487%, 49.586487%)" offset="0.117188"/><stop stop-opacity="1" stop-color="rgb(49.078369%, 49.078369%, 49.078369%)" offset="0.121094"/><stop stop-opacity="1" stop-color="rgb(48.568726%, 48.568726%, 48.568726%)" offset="0.125"/><stop stop-opacity="1" stop-color="rgb(48.060608%, 48.060608%, 48.060608%)" offset="0.128906"/><stop stop-opacity="1" stop-color="rgb(47.55249%, 47.55249%, 47.55249%)" offset="0.132812"/><stop stop-opacity="1" stop-color="rgb(47.044373%, 47.044373%, 47.044373%)" offset="0.136719"/><stop stop-opacity="1" stop-color="rgb(46.534729%, 46.534729%, 46.534729%)" offset="0.140625"/><stop stop-opacity="1" stop-color="rgb(46.026611%, 46.026611%, 46.026611%)" offset="0.144531"/><stop stop-opacity="1" stop-color="rgb(45.518494%, 45.518494%, 45.518494%)" offset="0.148438"/><stop stop-opacity="1" stop-color="rgb(45.00885%, 45.00885%, 45.00885%)" offset="0.152344"/><stop stop-opacity="1" stop-color="rgb(44.500732%, 44.500732%, 44.500732%)" offset="0.15625"/><stop stop-opacity="1" stop-color="rgb(43.992615%, 43.992615%, 43.992615%)" offset="0.160156"/><stop stop-opacity="1" stop-color="rgb(43.482971%, 43.482971%, 43.482971%)" offset="0.164062"/><stop stop-opacity="1" stop-color="rgb(42.974854%, 42.974854%, 42.974854%)" offset="0.167969"/><stop stop-opacity="1" stop-color="rgb(42.466736%, 42.466736%, 42.466736%)" offset="0.171875"/><stop stop-opacity="1" stop-color="rgb(41.957092%, 41.957092%, 41.957092%)" offset="0.175781"/><stop stop-opacity="1" stop-color="rgb(41.448975%, 41.448975%, 41.448975%)" offset="0.179688"/><stop stop-opacity="1" stop-color="rgb(40.940857%, 40.940857%, 40.940857%)" offset="0.183594"/><stop stop-opacity="1" stop-color="rgb(40.431213%, 40.431213%, 40.431213%)" offset="0.1875"/><stop stop-opacity="1" stop-color="rgb(39.923096%, 39.923096%, 39.923096%)" offset="0.191406"/><stop stop-opacity="1" stop-color="rgb(39.414978%, 39.414978%, 39.414978%)" offset="0.195312"/><stop stop-opacity="1" stop-color="rgb(38.90686%, 38.90686%, 38.90686%)" offset="0.199219"/><stop stop-opacity="1" stop-color="rgb(38.397217%, 38.397217%, 38.397217%)" offset="0.203125"/><stop stop-opacity="1" stop-color="rgb(37.889099%, 37.889099%, 37.889099%)" offset="0.207031"/><stop stop-opacity="1" stop-color="rgb(37.380981%, 37.380981%, 37.380981%)" offset="0.210938"/><stop stop-opacity="1" stop-color="rgb(36.871338%, 36.871338%, 36.871338%)" offset="0.214844"/><stop stop-opacity="1" stop-color="rgb(36.36322%, 36.36322%, 36.36322%)" offset="0.21875"/><stop stop-opacity="1" stop-color="rgb(35.855103%, 35.855103%, 35.855103%)" offset="0.222656"/><stop stop-opacity="1" stop-color="rgb(35.345459%, 35.345459%, 35.345459%)" offset="0.226562"/><stop stop-opacity="1" stop-color="rgb(34.837341%, 34.837341%, 34.837341%)" offset="0.230469"/><stop stop-opacity="1" stop-color="rgb(34.329224%, 34.329224%, 34.329224%)" offset="0.234375"/><stop stop-opacity="1" stop-color="rgb(33.81958%, 33.81958%, 33.81958%)" offset="0.238281"/><stop stop-opacity="1" stop-color="rgb(33.311462%, 33.311462%, 33.311462%)" offset="0.242188"/><stop stop-opacity="1" stop-color="rgb(32.803345%, 32.803345%, 32.803345%)" offset="0.246094"/><stop stop-opacity="1" stop-color="rgb(32.293701%, 32.293701%, 32.293701%)" offset="0.25"/><stop stop-opacity="1" stop-color="rgb(31.785583%, 31.785583%, 31.785583%)" offset="0.253906"/><stop stop-opacity="1" stop-color="rgb(31.277466%, 31.277466%, 31.277466%)" offset="0.257812"/><stop stop-opacity="1" stop-color="rgb(30.769348%, 30.769348%, 30.769348%)" offset="0.261719"/><stop stop-opacity="1" stop-color="rgb(30.259705%, 30.259705%, 30.259705%)" offset="0.265625"/><stop stop-opacity="1" stop-color="rgb(29.751587%, 29.751587%, 29.751587%)" offset="0.269531"/><stop stop-opacity="1" stop-color="rgb(29.243469%, 29.243469%, 29.243469%)" offset="0.273438"/><stop stop-opacity="1" stop-color="rgb(28.733826%, 28.733826%, 28.733826%)" offset="0.277344"/><stop stop-opacity="1" stop-color="rgb(28.225708%, 28.225708%, 28.225708%)" offset="0.28125"/><stop stop-opacity="1" stop-color="rgb(27.71759%, 27.71759%, 27.71759%)" offset="0.285156"/><stop stop-opacity="1" stop-color="rgb(27.207947%, 27.207947%, 27.207947%)" offset="0.289062"/><stop stop-opacity="1" stop-color="rgb(26.699829%, 26.699829%, 26.699829%)" offset="0.292969"/><stop stop-opacity="1" stop-color="rgb(26.191711%, 26.191711%, 26.191711%)" offset="0.296875"/><stop stop-opacity="1" stop-color="rgb(25.682068%, 25.682068%, 25.682068%)" offset="0.300781"/><stop stop-opacity="1" stop-color="rgb(25.17395%, 25.17395%, 25.17395%)" offset="0.304688"/><stop stop-opacity="1" stop-color="rgb(24.665833%, 24.665833%, 24.665833%)" offset="0.308594"/><stop stop-opacity="1" stop-color="rgb(24.156189%, 24.156189%, 24.156189%)" offset="0.3125"/><stop stop-opacity="1" stop-color="rgb(23.648071%, 23.648071%, 23.648071%)" offset="0.316406"/><stop stop-opacity="1" stop-color="rgb(23.139954%, 23.139954%, 23.139954%)" offset="0.320312"/><stop stop-opacity="1" stop-color="rgb(22.631836%, 22.631836%, 22.631836%)" offset="0.324219"/><stop stop-opacity="1" stop-color="rgb(22.122192%, 22.122192%, 22.122192%)" offset="0.328125"/><stop stop-opacity="1" stop-color="rgb(21.614075%, 21.614075%, 21.614075%)" offset="0.332031"/><stop stop-opacity="1" stop-color="rgb(21.105957%, 21.105957%, 21.105957%)" offset="0.335938"/><stop stop-opacity="1" stop-color="rgb(20.596313%, 20.596313%, 20.596313%)" offset="0.339844"/><stop stop-opacity="1" stop-color="rgb(20.088196%, 20.088196%, 20.088196%)" offset="0.34375"/><stop stop-opacity="1" stop-color="rgb(19.580078%, 19.580078%, 19.580078%)" offset="0.347656"/><stop stop-opacity="1" stop-color="rgb(19.070435%, 19.070435%, 19.070435%)" offset="0.351562"/><stop stop-opacity="1" stop-color="rgb(18.562317%, 18.562317%, 18.562317%)" offset="0.355469"/><stop stop-opacity="1" stop-color="rgb(18.054199%, 18.054199%, 18.054199%)" offset="0.359375"/><stop stop-opacity="1" stop-color="rgb(17.544556%, 17.544556%, 17.544556%)" offset="0.363281"/><stop stop-opacity="1" stop-color="rgb(17.036438%, 17.036438%, 17.036438%)" offset="0.367188"/><stop stop-opacity="1" stop-color="rgb(16.52832%, 16.52832%, 16.52832%)" offset="0.371094"/><stop stop-opacity="1" stop-color="rgb(16.018677%, 16.018677%, 16.018677%)" offset="0.375"/><stop stop-opacity="1" stop-color="rgb(15.510559%, 15.510559%, 15.510559%)" offset="0.378906"/><stop stop-opacity="1" stop-color="rgb(15.002441%, 15.002441%, 15.002441%)" offset="0.382812"/><stop stop-opacity="1" stop-color="rgb(14.494324%, 14.494324%, 14.494324%)" offset="0.386719"/><stop stop-opacity="1" stop-color="rgb(13.98468%, 13.98468%, 13.98468%)" offset="0.390625"/><stop stop-opacity="1" stop-color="rgb(13.476562%, 13.476562%, 13.476562%)" offset="0.394531"/><stop stop-opacity="1" stop-color="rgb(12.968445%, 12.968445%, 12.968445%)" offset="0.398438"/><stop stop-opacity="1" stop-color="rgb(12.458801%, 12.458801%, 12.458801%)" offset="0.402344"/><stop stop-opacity="1" stop-color="rgb(11.950684%, 11.950684%, 11.950684%)" offset="0.40625"/><stop stop-opacity="1" stop-color="rgb(11.442566%, 11.442566%, 11.442566%)" offset="0.410156"/><stop stop-opacity="1" stop-color="rgb(10.932922%, 10.932922%, 10.932922%)" offset="0.414062"/><stop stop-opacity="1" stop-color="rgb(10.424805%, 10.424805%, 10.424805%)" offset="0.417969"/><stop stop-opacity="1" stop-color="rgb(9.916687%, 9.916687%, 9.916687%)" offset="0.421875"/><stop stop-opacity="1" stop-color="rgb(9.407043%, 9.407043%, 9.407043%)" offset="0.425781"/><stop stop-opacity="1" stop-color="rgb(8.898926%, 8.898926%, 8.898926%)" offset="0.429688"/><stop stop-opacity="1" stop-color="rgb(8.390808%, 8.390808%, 8.390808%)" offset="0.433594"/><stop stop-opacity="1" stop-color="rgb(7.881165%, 7.881165%, 7.881165%)" offset="0.4375"/><stop stop-opacity="1" stop-color="rgb(7.373047%, 7.373047%, 7.373047%)" offset="0.441406"/><stop stop-opacity="1" stop-color="rgb(6.864929%, 6.864929%, 6.864929%)" offset="0.445312"/><stop stop-opacity="1" stop-color="rgb(6.356812%, 6.356812%, 6.356812%)" offset="0.449219"/><stop stop-opacity="1" stop-color="rgb(5.847168%, 5.847168%, 5.847168%)" offset="0.453125"/><stop stop-opacity="1" stop-color="rgb(5.33905%, 5.33905%, 5.33905%)" offset="0.457031"/><stop stop-opacity="1" stop-color="rgb(4.830933%, 4.830933%, 4.830933%)" offset="0.460938"/><stop stop-opacity="1" stop-color="rgb(4.321289%, 4.321289%, 4.321289%)" offset="0.464844"/><stop stop-opacity="1" stop-color="rgb(3.813171%, 3.813171%, 3.813171%)" offset="0.46875"/><stop stop-opacity="1" stop-color="rgb(3.305054%, 3.305054%, 3.305054%)" offset="0.472656"/><stop stop-opacity="1" stop-color="rgb(2.79541%, 2.79541%, 2.79541%)" offset="0.476562"/><stop stop-opacity="1" stop-color="rgb(2.287292%, 2.287292%, 2.287292%)" offset="0.480469"/><stop stop-opacity="1" stop-color="rgb(1.779175%, 1.779175%, 1.779175%)" offset="0.484375"/><stop stop-opacity="1" stop-color="rgb(1.269531%, 1.269531%, 1.269531%)" offset="0.488281"/><stop stop-opacity="1" stop-color="rgb(0.761414%, 0.761414%, 0.761414%)" offset="0.492188"/><stop stop-opacity="1" stop-color="rgb(0.253296%, 0.253296%, 0.253296%)" offset="0.496094"/><stop stop-opacity="1" stop-color="rgb(0.253296%, 0.253296%, 0.253296%)" offset="0.5"/><stop stop-opacity="1" stop-color="rgb(0.761414%, 0.761414%, 0.761414%)" offset="0.503906"/><stop stop-opacity="1" stop-color="rgb(1.269531%, 1.269531%, 1.269531%)" offset="0.507812"/><stop stop-opacity="1" stop-color="rgb(1.779175%, 1.779175%, 1.779175%)" offset="0.511719"/><stop stop-opacity="1" stop-color="rgb(2.287292%, 2.287292%, 2.287292%)" offset="0.515625"/><stop stop-opacity="1" stop-color="rgb(2.79541%, 2.79541%, 2.79541%)" offset="0.519531"/><stop stop-opacity="1" stop-color="rgb(3.305054%, 3.305054%, 3.305054%)" offset="0.523438"/><stop stop-opacity="1" stop-color="rgb(3.813171%, 3.813171%, 3.813171%)" offset="0.527344"/><stop stop-opacity="1" stop-color="rgb(4.321289%, 4.321289%, 4.321289%)" offset="0.53125"/><stop stop-opacity="1" stop-color="rgb(4.830933%, 4.830933%, 4.830933%)" offset="0.535156"/><stop stop-opacity="1" stop-color="rgb(5.33905%, 5.33905%, 5.33905%)" offset="0.539062"/><stop stop-opacity="1" stop-color="rgb(5.847168%, 5.847168%, 5.847168%)" offset="0.542969"/><stop stop-opacity="1" stop-color="rgb(6.356812%, 6.356812%, 6.356812%)" offset="0.546875"/><stop stop-opacity="1" stop-color="rgb(6.864929%, 6.864929%, 6.864929%)" offset="0.550781"/><stop stop-opacity="1" stop-color="rgb(7.373047%, 7.373047%, 7.373047%)" offset="0.554688"/><stop stop-opacity="1" stop-color="rgb(7.881165%, 7.881165%, 7.881165%)" offset="0.558594"/><stop stop-opacity="1" stop-color="rgb(8.390808%, 8.390808%, 8.390808%)" offset="0.5625"/><stop stop-opacity="1" stop-color="rgb(8.898926%, 8.898926%, 8.898926%)" offset="0.566406"/><stop stop-opacity="1" stop-color="rgb(9.407043%, 9.407043%, 9.407043%)" offset="0.570312"/><stop stop-opacity="1" stop-color="rgb(9.916687%, 9.916687%, 9.916687%)" offset="0.574219"/><stop stop-opacity="1" stop-color="rgb(10.424805%, 10.424805%, 10.424805%)" offset="0.578125"/><stop stop-opacity="1" stop-color="rgb(10.932922%, 10.932922%, 10.932922%)" offset="0.582031"/><stop stop-opacity="1" stop-color="rgb(11.442566%, 11.442566%, 11.442566%)" offset="0.585938"/><stop stop-opacity="1" stop-color="rgb(11.950684%, 11.950684%, 11.950684%)" offset="0.589844"/><stop stop-opacity="1" stop-color="rgb(12.458801%, 12.458801%, 12.458801%)" offset="0.59375"/><stop stop-opacity="1" stop-color="rgb(12.968445%, 12.968445%, 12.968445%)" offset="0.597656"/><stop stop-opacity="1" stop-color="rgb(13.476562%, 13.476562%, 13.476562%)" offset="0.601562"/><stop stop-opacity="1" stop-color="rgb(13.98468%, 13.98468%, 13.98468%)" offset="0.605469"/><stop stop-opacity="1" stop-color="rgb(14.494324%, 14.494324%, 14.494324%)" offset="0.609375"/><stop stop-opacity="1" stop-color="rgb(15.002441%, 15.002441%, 15.002441%)" offset="0.613281"/><stop stop-opacity="1" stop-color="rgb(15.510559%, 15.510559%, 15.510559%)" offset="0.617188"/><stop stop-opacity="1" stop-color="rgb(16.018677%, 16.018677%, 16.018677%)" offset="0.621094"/><stop stop-opacity="1" stop-color="rgb(16.52832%, 16.52832%, 16.52832%)" offset="0.625"/><stop stop-opacity="1" stop-color="rgb(17.036438%, 17.036438%, 17.036438%)" offset="0.628906"/><stop stop-opacity="1" stop-color="rgb(17.544556%, 17.544556%, 17.544556%)" offset="0.632812"/><stop stop-opacity="1" stop-color="rgb(18.054199%, 18.054199%, 18.054199%)" offset="0.636719"/><stop stop-opacity="1" stop-color="rgb(18.562317%, 18.562317%, 18.562317%)" offset="0.640625"/><stop stop-opacity="1" stop-color="rgb(19.070435%, 19.070435%, 19.070435%)" offset="0.644531"/><stop stop-opacity="1" stop-color="rgb(19.580078%, 19.580078%, 19.580078%)" offset="0.648438"/><stop stop-opacity="1" stop-color="rgb(20.088196%, 20.088196%, 20.088196%)" offset="0.652344"/><stop stop-opacity="1" stop-color="rgb(20.596313%, 20.596313%, 20.596313%)" offset="0.65625"/><stop stop-opacity="1" stop-color="rgb(21.105957%, 21.105957%, 21.105957%)" offset="0.660156"/><stop stop-opacity="1" stop-color="rgb(21.614075%, 21.614075%, 21.614075%)" offset="0.664062"/><stop stop-opacity="1" stop-color="rgb(22.122192%, 22.122192%, 22.122192%)" offset="0.667969"/><stop stop-opacity="1" stop-color="rgb(22.631836%, 22.631836%, 22.631836%)" offset="0.671875"/><stop stop-opacity="1" stop-color="rgb(23.139954%, 23.139954%, 23.139954%)" offset="0.675781"/><stop stop-opacity="1" stop-color="rgb(23.648071%, 23.648071%, 23.648071%)" offset="0.679688"/><stop stop-opacity="1" stop-color="rgb(24.156189%, 24.156189%, 24.156189%)" offset="0.683594"/><stop stop-opacity="1" stop-color="rgb(24.665833%, 24.665833%, 24.665833%)" offset="0.6875"/><stop stop-opacity="1" stop-color="rgb(25.17395%, 25.17395%, 25.17395%)" offset="0.691406"/><stop stop-opacity="1" stop-color="rgb(25.682068%, 25.682068%, 25.682068%)" offset="0.695312"/><stop stop-opacity="1" stop-color="rgb(26.191711%, 26.191711%, 26.191711%)" offset="0.699219"/><stop stop-opacity="1" stop-color="rgb(26.699829%, 26.699829%, 26.699829%)" offset="0.703125"/><stop stop-opacity="1" stop-color="rgb(27.207947%, 27.207947%, 27.207947%)" offset="0.707031"/><stop stop-opacity="1" stop-color="rgb(27.71759%, 27.71759%, 27.71759%)" offset="0.710938"/><stop stop-opacity="1" stop-color="rgb(28.225708%, 28.225708%, 28.225708%)" offset="0.714844"/><stop stop-opacity="1" stop-color="rgb(28.733826%, 28.733826%, 28.733826%)" offset="0.71875"/><stop stop-opacity="1" stop-color="rgb(29.243469%, 29.243469%, 29.243469%)" offset="0.722656"/><stop stop-opacity="1" stop-color="rgb(29.751587%, 29.751587%, 29.751587%)" offset="0.726562"/><stop stop-opacity="1" stop-color="rgb(30.259705%, 30.259705%, 30.259705%)" offset="0.730469"/><stop stop-opacity="1" stop-color="rgb(30.769348%, 30.769348%, 30.769348%)" offset="0.734375"/><stop stop-opacity="1" stop-color="rgb(31.277466%, 31.277466%, 31.277466%)" offset="0.738281"/><stop stop-opacity="1" stop-color="rgb(31.785583%, 31.785583%, 31.785583%)" offset="0.742188"/><stop stop-opacity="1" stop-color="rgb(32.293701%, 32.293701%, 32.293701%)" offset="0.746094"/><stop stop-opacity="1" stop-color="rgb(32.803345%, 32.803345%, 32.803345%)" offset="0.75"/><stop stop-opacity="1" stop-color="rgb(33.311462%, 33.311462%, 33.311462%)" offset="0.753906"/><stop stop-opacity="1" stop-color="rgb(33.81958%, 33.81958%, 33.81958%)" offset="0.757812"/><stop stop-opacity="1" stop-color="rgb(34.329224%, 34.329224%, 34.329224%)" offset="0.761719"/><stop stop-opacity="1" stop-color="rgb(34.837341%, 34.837341%, 34.837341%)" offset="0.765625"/><stop stop-opacity="1" stop-color="rgb(35.345459%, 35.345459%, 35.345459%)" offset="0.769531"/><stop stop-opacity="1" stop-color="rgb(35.855103%, 35.855103%, 35.855103%)" offset="0.773438"/><stop stop-opacity="1" stop-color="rgb(36.36322%, 36.36322%, 36.36322%)" offset="0.777344"/><stop stop-opacity="1" stop-color="rgb(36.871338%, 36.871338%, 36.871338%)" offset="0.78125"/><stop stop-opacity="1" stop-color="rgb(37.380981%, 37.380981%, 37.380981%)" offset="0.785156"/><stop stop-opacity="1" stop-color="rgb(37.889099%, 37.889099%, 37.889099%)" offset="0.789062"/><stop stop-opacity="1" stop-color="rgb(38.397217%, 38.397217%, 38.397217%)" offset="0.792969"/><stop stop-opacity="1" stop-color="rgb(38.90686%, 38.90686%, 38.90686%)" offset="0.796875"/><stop stop-opacity="1" stop-color="rgb(39.414978%, 39.414978%, 39.414978%)" offset="0.800781"/><stop stop-opacity="1" stop-color="rgb(39.923096%, 39.923096%, 39.923096%)" offset="0.804688"/><stop stop-opacity="1" stop-color="rgb(40.431213%, 40.431213%, 40.431213%)" offset="0.808594"/><stop stop-opacity="1" stop-color="rgb(40.940857%, 40.940857%, 40.940857%)" offset="0.8125"/><stop stop-opacity="1" stop-color="rgb(41.448975%, 41.448975%, 41.448975%)" offset="0.816406"/><stop stop-opacity="1" stop-color="rgb(41.957092%, 41.957092%, 41.957092%)" offset="0.820312"/><stop stop-opacity="1" stop-color="rgb(42.466736%, 42.466736%, 42.466736%)" offset="0.824219"/><stop stop-opacity="1" stop-color="rgb(42.974854%, 42.974854%, 42.974854%)" offset="0.828125"/><stop stop-opacity="1" stop-color="rgb(43.482971%, 43.482971%, 43.482971%)" offset="0.832031"/><stop stop-opacity="1" stop-color="rgb(43.992615%, 43.992615%, 43.992615%)" offset="0.835938"/><stop stop-opacity="1" stop-color="rgb(44.500732%, 44.500732%, 44.500732%)" offset="0.839844"/><stop stop-opacity="1" stop-color="rgb(45.00885%, 45.00885%, 45.00885%)" offset="0.84375"/><stop stop-opacity="1" stop-color="rgb(45.518494%, 45.518494%, 45.518494%)" offset="0.847656"/><stop stop-opacity="1" stop-color="rgb(46.026611%, 46.026611%, 46.026611%)" offset="0.851562"/><stop stop-opacity="1" stop-color="rgb(46.534729%, 46.534729%, 46.534729%)" offset="0.855469"/><stop stop-opacity="1" stop-color="rgb(47.044373%, 47.044373%, 47.044373%)" offset="0.859375"/><stop stop-opacity="1" stop-color="rgb(47.55249%, 47.55249%, 47.55249%)" offset="0.863281"/><stop stop-opacity="1" stop-color="rgb(48.060608%, 48.060608%, 48.060608%)" offset="0.867188"/><stop stop-opacity="1" stop-color="rgb(48.568726%, 48.568726%, 48.568726%)" offset="0.871094"/><stop stop-opacity="1" stop-color="rgb(49.078369%, 49.078369%, 49.078369%)" offset="0.875"/><stop stop-opacity="1" stop-color="rgb(49.586487%, 49.586487%, 49.586487%)" offset="0.878906"/><stop stop-opacity="1" stop-color="rgb(50.094604%, 50.094604%, 50.094604%)" offset="0.882812"/><stop stop-opacity="1" stop-color="rgb(50.604248%, 50.604248%, 50.604248%)" offset="0.886719"/><stop stop-opacity="1" stop-color="rgb(51.112366%, 51.112366%, 51.112366%)" offset="0.890625"/><stop stop-opacity="1" stop-color="rgb(51.620483%, 51.620483%, 51.620483%)" offset="0.894531"/><stop stop-opacity="1" stop-color="rgb(52.130127%, 52.130127%, 52.130127%)" offset="0.898438"/><stop stop-opacity="1" stop-color="rgb(52.638245%, 52.638245%, 52.638245%)" offset="0.902344"/><stop stop-opacity="1" stop-color="rgb(53.146362%, 53.146362%, 53.146362%)" offset="0.90625"/><stop stop-opacity="1" stop-color="rgb(53.656006%, 53.656006%, 53.656006%)" offset="0.910156"/><stop stop-opacity="1" stop-color="rgb(54.164124%, 54.164124%, 54.164124%)" offset="0.914062"/><stop stop-opacity="1" stop-color="rgb(54.672241%, 54.672241%, 54.672241%)" offset="0.917969"/><stop stop-opacity="1" stop-color="rgb(55.181885%, 55.181885%, 55.181885%)" offset="0.921875"/><stop stop-opacity="1" stop-color="rgb(55.690002%, 55.690002%, 55.690002%)" offset="0.925781"/><stop stop-opacity="1" stop-color="rgb(56.19812%, 56.19812%, 56.19812%)" offset="0.929688"/><stop stop-opacity="1" stop-color="rgb(56.706238%, 56.706238%, 56.706238%)" offset="0.933594"/><stop stop-opacity="1" stop-color="rgb(57.215881%, 57.215881%, 57.215881%)" offset="0.9375"/><stop stop-opacity="1" stop-color="rgb(57.723999%, 57.723999%, 57.723999%)" offset="0.941406"/><stop stop-opacity="1" stop-color="rgb(58.232117%, 58.232117%, 58.232117%)" offset="0.945312"/><stop stop-opacity="1" stop-color="rgb(58.74176%, 58.74176%, 58.74176%)" offset="0.949219"/><stop stop-opacity="1" stop-color="rgb(59.249878%, 59.249878%, 59.249878%)" offset="0.953125"/><stop stop-opacity="1" stop-color="rgb(59.757996%, 59.757996%, 59.757996%)" offset="0.957031"/><stop stop-opacity="1" stop-color="rgb(60.267639%, 60.267639%, 60.267639%)" offset="0.960938"/><stop stop-opacity="1" stop-color="rgb(60.775757%, 60.775757%, 60.775757%)" offset="0.964844"/><stop stop-opacity="1" stop-color="rgb(61.283875%, 61.283875%, 61.283875%)" offset="0.96875"/><stop stop-opacity="1" stop-color="rgb(61.793518%, 61.793518%, 61.793518%)" offset="0.972656"/><stop stop-opacity="1" stop-color="rgb(62.301636%, 62.301636%, 62.301636%)" offset="0.976562"/><stop stop-opacity="1" stop-color="rgb(62.809753%, 62.809753%, 62.809753%)" offset="0.980469"/><stop stop-opacity="1" stop-color="rgb(63.319397%, 63.319397%, 63.319397%)" offset="0.984375"/><stop stop-opacity="1" stop-color="rgb(63.827515%, 63.827515%, 63.827515%)" offset="0.988281"/><stop stop-opacity="1" stop-color="rgb(64.335632%, 64.335632%, 64.335632%)" offset="0.992188"/><stop stop-opacity="1" stop-color="rgb(64.84375%, 64.84375%, 64.84375%)" offset="0.996094"/><stop stop-opacity="1" stop-color="rgb(65.098572%, 65.098572%, 65.098572%)" offset="1"/></radialGradient></defs><g clip-path="url(#e66786620b)"><g clip-path="url(#689c5b6b4c)"><path fill="url(#ca3b98dcde)" d="M 37.5 108.632812 L 37.5 266.367188 L 337.5 266.367188 L 337.5 108.632812 Z M 37.5 108.632812 " fill-rule="nonzero"/></g></g><path fill="#000000" d="M 331.640625 187.5 C 331.640625 188.695312 331.582031 189.886719 331.46875 191.082031 C 331.351562 192.273438 331.175781 193.464844 330.945312 194.65625 C 330.714844 195.84375 330.425781 197.03125 330.082031 198.210938 C 329.734375 199.394531 329.332031 200.570312 328.871094 201.742188 C 328.410156 202.914062 327.894531 204.078125 327.320312 205.238281 C 326.746094 206.398438 326.117188 207.546875 325.433594 208.691406 C 324.75 209.835938 324.007812 210.96875 323.214844 212.09375 C 322.421875 213.21875 321.570312 214.332031 320.667969 215.4375 C 319.765625 216.542969 318.808594 217.632812 317.800781 218.714844 C 316.792969 219.792969 315.734375 220.859375 314.621094 221.914062 C 313.507812 222.96875 312.347656 224.007812 311.132812 225.03125 C 309.921875 226.058594 308.660156 227.066406 307.347656 228.058594 C 306.039062 229.054688 304.679688 230.03125 303.273438 230.988281 C 301.871094 231.949219 300.417969 232.890625 298.921875 233.816406 C 297.425781 234.738281 295.886719 235.644531 294.300781 236.527344 C 292.71875 237.414062 291.089844 238.277344 289.421875 239.125 C 287.753906 239.96875 286.046875 240.792969 284.300781 241.59375 C 282.550781 242.398438 280.765625 243.175781 278.941406 243.933594 C 277.117188 244.691406 275.257812 245.425781 273.363281 246.140625 C 271.46875 246.851562 269.542969 247.539062 267.582031 248.203125 C 265.617188 248.867188 263.625 249.503906 261.601562 250.121094 C 259.578125 250.734375 257.527344 251.324219 255.449219 251.886719 C 253.367188 252.449219 251.261719 252.988281 249.128906 253.496094 C 246.996094 254.007812 244.839844 254.492188 242.660156 254.949219 C 240.480469 255.40625 238.28125 255.835938 236.058594 256.238281 C 233.839844 256.640625 231.597656 257.015625 229.34375 257.363281 C 227.085938 257.710938 224.8125 258.027344 222.523438 258.320312 C 220.234375 258.609375 217.933594 258.871094 215.621094 259.105469 C 213.308594 259.335938 210.984375 259.542969 208.648438 259.714844 C 206.316406 259.890625 203.976562 260.039062 201.628906 260.15625 C 199.28125 260.273438 196.929688 260.359375 194.574219 260.417969 C 192.214844 260.476562 189.859375 260.507812 187.5 260.507812 C 185.140625 260.507812 182.785156 260.476562 180.425781 260.417969 C 178.070312 260.359375 175.71875 260.273438 173.371094 260.15625 C 171.023438 260.039062 168.683594 259.890625 166.351562 259.714844 C 164.015625 259.542969 161.691406 259.335938 159.378906 259.105469 C 157.066406 258.871094 154.765625 258.609375 152.476562 258.320312 C 150.1875 258.027344 147.914062 257.710938 145.65625 257.363281 C 143.402344 257.015625 141.160156 256.640625 138.941406 256.238281 C 136.71875 255.835938 134.519531 255.40625 132.339844 254.949219 C 130.160156 254.492188 128.003906 254.007812 125.871094 253.496094 C 123.738281 252.988281 121.632812 252.449219 119.550781 251.886719 C 117.472656 251.324219 115.421875 250.734375 113.398438 250.121094 C 111.375 249.503906 109.382812 248.867188 107.417969 248.203125 C 105.457031 247.539062 103.53125 246.851562 101.636719 246.140625 C 99.742188 245.425781 97.882812 244.691406 96.058594 243.933594 C 94.234375 243.175781 92.449219 242.398438 90.699219 241.59375 C 88.953125 240.792969 87.246094 239.96875 85.578125 239.125 C 83.910156 238.277344 82.28125 237.414062 80.699219 236.527344 C 79.113281 235.644531 77.574219 234.738281 76.078125 233.816406 C 74.582031 232.890625 73.128906 231.949219 71.726562 230.988281 C 70.320312 230.03125 68.960938 229.054688 67.652344 228.058594 C 66.339844 227.066406 65.078125 226.058594 63.867188 225.03125 C 62.652344 224.007812 61.492188 222.96875 60.378906 221.914062 C 59.265625 220.859375 58.207031 219.792969 57.199219 218.714844 C 56.191406 217.632812 55.234375 216.542969 54.332031 215.4375 C 53.429688 214.332031 52.578125 213.21875 51.785156 212.09375 C 50.992188 210.96875 50.25 209.835938 49.566406 208.691406 C 48.882812 207.546875 48.253906 206.398438 47.679688 205.238281 C 47.105469 204.078125 46.589844 202.914062 46.128906 201.742188 C 45.667969 200.570312 45.265625 199.394531 44.917969 198.210938 C 44.574219 197.03125 44.285156 195.84375 44.054688 194.65625 C 43.820312 193.464844 43.648438 192.273438 43.53125 191.082031 C 43.417969 189.886719 43.359375 188.695312 43.359375 187.5 C 43.359375 186.304688 43.417969 185.109375 43.53125 183.917969 C 43.648438 182.722656 43.820312 181.53125 44.054688 180.34375 C 44.285156 179.152344 44.574219 177.96875 44.917969 176.785156 C 45.265625 175.605469 45.667969 174.425781 46.128906 173.253906 C 46.589844 172.082031 47.105469 170.917969 47.679688 169.757812 C 48.253906 168.601562 48.882812 167.449219 49.566406 166.304688 C 50.25 165.164062 50.992188 164.027344 51.785156 162.902344 C 52.578125 161.777344 53.429688 160.664062 54.332031 159.558594 C 55.234375 158.457031 56.191406 157.363281 57.199219 156.285156 C 58.207031 155.203125 59.265625 154.136719 60.378906 153.082031 C 61.492188 152.03125 62.652344 150.992188 63.867188 149.964844 C 65.078125 148.941406 66.339844 147.929688 67.652344 146.9375 C 68.960938 145.945312 70.320312 144.96875 71.726562 144.007812 C 73.128906 143.046875 74.582031 142.105469 76.078125 141.183594 C 77.574219 140.257812 79.113281 139.355469 80.699219 138.46875 C 82.28125 137.585938 83.910156 136.71875 85.578125 135.875 C 87.246094 135.03125 88.953125 134.207031 90.699219 133.402344 C 92.449219 132.601562 94.234375 131.820312 96.058594 131.0625 C 97.882812 130.304688 99.742188 129.570312 101.636719 128.859375 C 103.53125 128.148438 105.457031 127.457031 107.417969 126.796875 C 109.382812 126.132812 111.375 125.492188 113.398438 124.878906 C 115.421875 124.265625 117.472656 123.675781 119.550781 123.113281 C 121.632812 122.546875 123.738281 122.011719 125.871094 121.5 C 128.003906 120.988281 130.160156 120.503906 132.339844 120.046875 C 134.519531 119.589844 136.71875 119.160156 138.941406 118.757812 C 141.160156 118.355469 143.402344 117.980469 145.65625 117.636719 C 147.914062 117.289062 150.1875 116.96875 152.476562 116.679688 C 154.765625 116.390625 157.066406 116.128906 159.378906 115.894531 C 161.691406 115.660156 164.015625 115.457031 166.351562 115.28125 C 168.683594 115.105469 171.023438 114.960938 173.371094 114.84375 C 175.71875 114.726562 178.070312 114.636719 180.425781 114.578125 C 182.785156 114.519531 185.140625 114.492188 187.5 114.492188 C 189.859375 114.492188 192.214844 114.519531 194.574219 114.578125 C 196.929688 114.636719 199.28125 114.726562 201.628906 114.84375 C 203.976562 114.960938 206.316406 115.105469 208.648438 115.28125 C 210.984375 115.457031 213.308594 115.660156 215.621094 115.894531 C 217.933594 116.128906 220.234375 116.390625 222.523438 116.679688 C 224.8125 116.96875 227.085938 117.289062 229.34375 117.636719 C 231.597656 117.980469 233.839844 118.355469 236.058594 118.757812 C 238.28125 119.160156 240.480469 119.589844 242.660156 120.046875 C 244.839844 120.503906 246.996094 120.988281 249.128906 121.5 C 251.261719 122.011719 253.367188 122.546875 255.449219 123.113281 C 257.527344 123.675781 259.578125 124.265625 261.601562 124.878906 C 263.625 125.492188 265.617188 126.132812 267.582031 126.796875 C 269.542969 127.457031 271.46875 128.148438 273.363281 128.859375 C 275.257812 129.570312 277.117188 130.304688 278.941406 131.0625 C 280.765625 131.820312 282.550781 132.601562 284.300781 133.402344 C 286.046875 134.207031 287.753906 135.03125 289.421875 135.875 C 291.089844 136.71875 292.71875 137.585938 294.300781 138.46875 C 295.886719 139.355469 297.425781 140.257812 298.921875 141.183594 C 300.417969 142.105469 301.871094 143.046875 303.273438 144.007812 C 304.679688 144.96875 306.039062 145.945312 307.347656 146.9375 C 308.660156 147.929688 309.921875 148.941406 311.132812 149.964844 C 312.347656 150.992188 313.507812 152.03125 314.621094 153.082031 C 315.734375 154.136719 316.792969 155.203125 317.800781 156.285156 C 318.808594 157.363281 319.765625 158.457031 320.667969 159.558594 C 321.570312 160.664062 322.421875 161.777344 323.214844 162.902344 C 324.007812 164.027344 324.75 165.164062 325.433594 166.304688 C 326.117188 167.449219 326.746094 168.601562 327.320312 169.757812 C 327.894531 170.917969 328.410156 172.082031 328.871094 173.253906 C 329.332031 174.425781 329.734375 175.605469 330.082031 176.785156 C 330.425781 177.96875 330.714844 179.152344 330.945312 180.34375 C 331.179688 181.53125 331.351562 182.722656 331.46875 183.917969 C 331.582031 185.109375 331.640625 186.304688 331.640625 187.5 Z M 331.640625 187.5 " fill-opacity="1" fill-rule="nonzero"/><path fill="#a6a6a6" d="M 216.679688 211.171875 L 223.828125 174.375 C 225.46875 166.054688 224.0625 159.84375 219.84375 155.976562 C 215.742188 152.226562 208.710938 150.351562 198.398438 150.351562 L 185.976562 150.351562 L 189.492188 132.070312 C 189.609375 131.367188 189.492188 130.664062 189.023438 130.078125 C 188.554688 129.492188 187.96875 129.257812 187.265625 129.257812 L 170.15625 129.257812 C 168.984375 129.257812 168.046875 130.078125 167.8125 131.132812 L 160.195312 170.15625 C 159.492188 165.703125 157.851562 161.953125 155.039062 158.90625 C 150 153.164062 142.148438 150.234375 131.484375 150.234375 L 98.554688 150.234375 C 97.382812 150.234375 96.445312 151.054688 96.210938 152.109375 L 80.859375 231.328125 C 80.742188 232.03125 80.859375 232.734375 81.328125 233.320312 C 81.796875 233.90625 82.382812 234.140625 83.085938 234.140625 L 100.3125 234.140625 C 101.484375 234.140625 102.421875 233.320312 102.65625 232.265625 L 106.40625 213.164062 L 119.179688 213.164062 C 125.859375 213.164062 131.601562 212.460938 135.9375 211.054688 C 140.507812 209.53125 144.609375 207.070312 148.242188 203.671875 C 151.171875 200.976562 153.632812 197.929688 155.507812 194.648438 L 152.460938 210.46875 C 152.34375 211.171875 152.460938 211.875 152.929688 212.460938 C 153.398438 213.046875 153.984375 213.28125 154.6875 213.28125 L 171.796875 213.28125 C 172.96875 213.28125 173.90625 212.460938 174.140625 211.40625 L 182.578125 168.046875 L 194.296875 168.046875 C 199.335938 168.046875 200.742188 168.984375 201.210938 169.453125 C 201.5625 169.804688 202.265625 171.210938 201.445312 175.546875 L 194.648438 210.585938 C 194.53125 211.289062 194.648438 211.992188 195.117188 212.578125 C 195.585938 213.164062 196.171875 213.398438 196.875 213.398438 L 214.453125 213.398438 C 215.507812 213.046875 216.445312 212.226562 216.679688 211.171875 Z M 137.460938 180.703125 C 136.40625 186.210938 134.414062 190.195312 131.484375 192.421875 C 128.554688 194.648438 123.75 195.820312 117.421875 195.820312 L 109.804688 195.820312 L 115.3125 167.460938 L 125.15625 167.460938 C 132.421875 167.460938 135.351562 168.984375 136.523438 170.273438 C 138.046875 172.148438 138.398438 175.78125 137.460938 180.703125 Z M 137.460938 180.703125 " fill-opacity="1" fill-rule="nonzero"/><path fill="#a6a6a6" d="M 289.804688 158.90625 C 284.765625 153.164062 276.914062 150.234375 266.25 150.234375 L 233.085938 150.234375 C 231.914062 150.234375 230.976562 151.054688 230.742188 152.109375 L 215.390625 231.210938 C 215.273438 231.914062 215.390625 232.617188 215.859375 233.203125 C 216.328125 233.789062 216.914062 234.023438 217.617188 234.023438 L 234.84375 234.023438 C 236.015625 234.023438 236.953125 233.203125 237.1875 232.148438 L 240.9375 213.046875 L 253.710938 213.046875 C 260.390625 213.046875 266.132812 212.34375 270.46875 210.9375 C 275.039062 209.414062 279.140625 206.953125 282.773438 203.554688 C 285.820312 200.742188 288.398438 197.578125 290.273438 194.179688 C 292.148438 190.78125 293.554688 187.03125 294.375 182.929688 C 296.367188 172.734375 294.84375 164.765625 289.804688 158.90625 Z M 271.875 180.703125 C 270.820312 186.210938 268.828125 190.195312 265.898438 192.421875 C 262.96875 194.648438 258.164062 195.820312 251.835938 195.820312 L 244.21875 195.820312 L 249.726562 167.460938 L 259.570312 167.460938 C 266.835938 167.460938 269.765625 168.984375 270.9375 170.273438 C 272.578125 172.148438 272.929688 175.78125 271.875 180.703125 Z M 271.875 180.703125 " fill-opacity="1" fill-rule="nonzero"/><path fill="#ebebeb" d="M 125.15625 165.117188 C 131.71875 165.117188 136.054688 166.289062 138.28125 168.75 C 140.507812 171.210938 140.976562 175.3125 139.804688 181.171875 C 138.632812 187.265625 136.289062 191.71875 132.890625 194.296875 C 129.492188 196.875 124.335938 198.164062 117.421875 198.164062 L 106.992188 198.164062 L 113.4375 165.117188 Z M 83.203125 231.679688 L 100.429688 231.679688 L 104.53125 210.703125 L 119.296875 210.703125 C 125.859375 210.703125 131.132812 210 135.351562 208.59375 C 139.570312 207.1875 143.320312 204.960938 146.835938 201.679688 C 149.765625 198.984375 152.109375 196.054688 153.867188 192.890625 C 155.625 189.726562 156.914062 186.210938 157.617188 182.34375 C 159.492188 172.96875 158.085938 165.703125 153.515625 160.429688 C 148.945312 155.15625 141.679688 152.578125 131.71875 152.578125 L 98.554688 152.578125 Z M 83.203125 231.679688 " fill-opacity="1" fill-rule="nonzero"/><path fill="#ebebeb" d="M 170.273438 131.601562 L 187.382812 131.601562 L 183.28125 152.578125 L 198.515625 152.578125 C 208.125 152.578125 214.6875 154.21875 218.320312 157.617188 C 221.953125 161.015625 223.007812 166.40625 221.601562 173.90625 L 214.453125 210.703125 L 197.109375 210.703125 L 203.90625 175.664062 C 204.726562 171.679688 204.375 168.984375 203.085938 167.578125 C 201.796875 166.171875 198.867188 165.351562 194.53125 165.351562 L 180.820312 165.351562 L 172.03125 210.703125 L 154.921875 210.703125 Z M 170.273438 131.601562 " fill-opacity="1" fill-rule="nonzero"/><path fill="#ebebeb" d="M 259.570312 165.117188 C 266.132812 165.117188 270.46875 166.289062 272.695312 168.75 C 274.921875 171.210938 275.390625 175.3125 274.21875 181.171875 C 273.046875 187.265625 270.703125 191.71875 267.304688 194.296875 C 263.90625 196.875 258.75 198.164062 251.835938 198.164062 L 241.40625 198.164062 L 247.851562 165.117188 Z M 217.617188 231.679688 L 234.84375 231.679688 L 238.945312 210.703125 L 253.710938 210.703125 C 260.273438 210.703125 265.546875 210 269.765625 208.59375 C 273.984375 207.1875 277.734375 204.960938 281.25 201.679688 C 284.179688 198.984375 286.523438 196.054688 288.28125 192.890625 C 290.039062 189.726562 291.328125 186.210938 292.03125 182.34375 C 293.90625 172.96875 292.5 165.703125 287.929688 160.429688 C 283.359375 155.15625 276.09375 152.578125 266.132812 152.578125 L 232.96875 152.578125 Z M 217.617188 231.679688 " fill-opacity="1" fill-rule="nonzero"/></svg>