<svg xmlns="http://www.w3.org/2000/svg" xmlns:xlink="http://www.w3.org/1999/xlink" width="500" zoomAndPan="magnify" viewBox="0 0 375 374.999991" height="500" preserveAspectRatio="xMidYMid meet" version="1.0"><defs><g/><clipPath id="dc9b9d0bc3"><path d="M 87.519531 157.667969 L 286.269531 157.667969 L 286.269531 356.417969 L 87.519531 356.417969 Z M 87.519531 157.667969 " clip-rule="nonzero"/></clipPath></defs><g fill="#000000" fill-opacity="1"><g transform="translate(54.044858, 65.702222)"><g><path d="M 16.75 -31.234375 C 20.726562 -31.234375 23.816406 -30.273438 26.015625 -28.359375 C 28.210938 -26.441406 29.3125 -23.742188 29.3125 -20.265625 C 29.3125 -16.585938 28.210938 -13.726562 26.015625 -11.6875 C 23.816406 -9.65625 20.726562 -8.640625 16.75 -8.640625 L 11.1875 -8.640625 L 11.1875 0 L 3.03125 0 L 3.03125 -31.234375 Z M 16.34375 -15.140625 C 18.007812 -15.140625 19.296875 -15.554688 20.203125 -16.390625 C 21.109375 -17.222656 21.5625 -18.425781 21.5625 -20 C 21.5625 -21.507812 21.109375 -22.671875 20.203125 -23.484375 C 19.296875 -24.304688 18.007812 -24.71875 16.34375 -24.71875 L 11.1875 -24.71875 L 11.1875 -15.140625 Z M 16.34375 -15.140625 "/></g></g></g><g fill="#000000" fill-opacity="1"><g transform="translate(84.332585, 65.702222)"><g><path d="M 31 0 L 21.78125 0 L 17.234375 -8.640625 L 11.1875 -8.640625 L 11.1875 0 L 3.03125 0 L 3.03125 -31.234375 L 17.0625 -31.234375 C 21.1875 -31.234375 24.382812 -30.273438 26.65625 -28.359375 C 28.925781 -26.441406 30.0625 -23.742188 30.0625 -20.265625 C 30.0625 -17.921875 29.585938 -15.894531 28.640625 -14.1875 C 27.691406 -12.476562 26.3125 -11.148438 24.5 -10.203125 Z M 11.1875 -24.71875 L 11.1875 -15.140625 L 17.109375 -15.140625 C 18.765625 -15.140625 20.046875 -15.554688 20.953125 -16.390625 C 21.859375 -17.222656 22.3125 -18.425781 22.3125 -20 C 22.3125 -21.507812 21.859375 -22.671875 20.953125 -23.484375 C 20.046875 -24.304688 18.765625 -24.71875 17.109375 -24.71875 Z M 11.1875 -24.71875 "/></g></g></g><g fill="#000000" fill-opacity="1"><g transform="translate(116.580111, 65.702222)"><g><path d="M 17.90625 -31.71875 C 21.082031 -31.71875 23.953125 -31.019531 26.515625 -29.625 C 29.085938 -28.226562 31.109375 -26.3125 32.578125 -23.875 C 34.054688 -21.4375 34.796875 -18.707031 34.796875 -15.6875 C 34.796875 -12.625 34.054688 -9.859375 32.578125 -7.390625 C 31.109375 -4.929688 29.085938 -2.988281 26.515625 -1.5625 C 23.953125 -0.132812 21.082031 0.578125 17.90625 0.578125 C 14.726562 0.578125 11.851562 -0.125 9.28125 -1.53125 C 6.71875 -2.945312 4.703125 -4.894531 3.234375 -7.375 C 1.765625 -9.851562 1.03125 -12.625 1.03125 -15.6875 C 1.03125 -18.707031 1.765625 -21.4375 3.234375 -23.875 C 4.703125 -26.3125 6.71875 -28.226562 9.28125 -29.625 C 11.851562 -31.019531 14.726562 -31.71875 17.90625 -31.71875 Z M 18 -24.8125 C 16.457031 -24.8125 15.023438 -24.410156 13.703125 -23.609375 C 12.378906 -22.804688 11.332031 -21.695312 10.5625 -20.28125 C 9.789062 -18.875 9.40625 -17.328125 9.40625 -15.640625 C 9.40625 -13.910156 9.796875 -12.335938 10.578125 -10.921875 C 11.367188 -9.515625 12.414062 -8.40625 13.71875 -7.59375 C 15.03125 -6.78125 16.457031 -6.375 18 -6.375 C 19.539062 -6.375 20.957031 -6.78125 22.25 -7.59375 C 23.539062 -8.40625 24.554688 -9.515625 25.296875 -10.921875 C 26.046875 -12.335938 26.421875 -13.910156 26.421875 -15.640625 C 26.421875 -17.328125 26.046875 -18.875 25.296875 -20.28125 C 24.554688 -21.695312 23.539062 -22.804688 22.25 -23.609375 C 20.957031 -24.410156 19.539062 -24.8125 18 -24.8125 Z M 18 -24.8125 "/></g></g></g><g fill="#000000" fill-opacity="1"><g transform="translate(152.3909, 65.702222)"><g><path d="M 16.484375 -31.234375 C 19.742188 -31.234375 22.628906 -30.578125 25.140625 -29.265625 C 27.648438 -27.960938 29.601562 -26.128906 31 -23.765625 C 32.394531 -21.398438 33.09375 -18.691406 33.09375 -15.640625 C 33.09375 -12.578125 32.382812 -9.859375 30.96875 -7.484375 C 29.5625 -5.109375 27.570312 -3.265625 25 -1.953125 C 22.4375 -0.648438 19.492188 0 16.171875 0 L 3.03125 0 L 3.03125 -31.234375 Z M 16.703125 -6.59375 C 18.273438 -6.59375 19.671875 -6.960938 20.890625 -7.703125 C 22.109375 -8.441406 23.054688 -9.492188 23.734375 -10.859375 C 24.421875 -12.234375 24.765625 -13.796875 24.765625 -15.546875 C 24.765625 -17.328125 24.398438 -18.898438 23.671875 -20.265625 C 22.941406 -21.628906 21.9375 -22.691406 20.65625 -23.453125 C 19.382812 -24.210938 17.929688 -24.59375 16.296875 -24.59375 L 11.1875 -24.59375 L 11.1875 -6.59375 Z M 16.703125 -6.59375 "/></g></g></g><g fill="#000000" fill-opacity="1"><g transform="translate(186.509136, 65.702222)"><g><path d="M 10.640625 -12.875 C 10.640625 -10.914062 11.21875 -9.34375 12.375 -8.15625 C 13.539062 -6.96875 15.015625 -6.375 16.796875 -6.375 C 18.546875 -6.375 19.960938 -6.957031 21.046875 -8.125 C 22.128906 -9.300781 22.671875 -10.882812 22.671875 -12.875 L 22.671875 -31.234375 L 30.828125 -31.234375 L 30.828125 -12.875 C 30.828125 -10.164062 30.253906 -7.796875 29.109375 -5.765625 C 27.960938 -3.734375 26.328125 -2.164062 24.203125 -1.0625 C 22.085938 0.03125 19.601562 0.578125 16.75 0.578125 C 13.894531 0.578125 11.390625 0.03125 9.234375 -1.0625 C 7.085938 -2.164062 5.425781 -3.734375 4.25 -5.765625 C 3.082031 -7.796875 2.5 -10.164062 2.5 -12.875 L 2.5 -31.234375 L 10.640625 -31.234375 Z M 10.640625 -12.875 "/></g></g></g><g fill="#000000" fill-opacity="1"><g transform="translate(219.870185, 65.702222)"><g><path d="M 30.375 -5.25 C 28.925781 -3.707031 27.195312 -2.421875 25.1875 -1.390625 C 23.1875 -0.367188 21.144531 0.253906 19.0625 0.484375 L 18.359375 2.5 C 19.597656 2.757812 20.515625 3.207031 21.109375 3.84375 C 21.703125 4.488281 22 5.242188 22 6.109375 C 22 7.523438 21.457031 8.597656 20.375 9.328125 C 19.289062 10.054688 17.929688 10.421875 16.296875 10.421875 C 14.671875 10.421875 13.039062 10.125 11.40625 9.53125 L 12.65625 5.96875 C 13.332031 6.238281 14.085938 6.375 14.921875 6.375 C 15.453125 6.375 15.878906 6.28125 16.203125 6.09375 C 16.535156 5.914062 16.703125 5.679688 16.703125 5.390625 C 16.703125 5.066406 16.476562 4.8125 16.03125 4.625 C 15.59375 4.445312 15.03125 4.359375 14.34375 4.359375 L 13.28125 4.359375 L 14.5625 0.359375 C 11.945312 -0.0546875 9.613281 -1.003906 7.5625 -2.484375 C 5.519531 -3.972656 3.921875 -5.859375 2.765625 -8.140625 C 1.609375 -10.429688 1.03125 -12.945312 1.03125 -15.6875 C 1.03125 -18.707031 1.753906 -21.4375 3.203125 -23.875 C 4.660156 -26.3125 6.65625 -28.226562 9.1875 -29.625 C 11.726562 -31.019531 14.578125 -31.71875 17.734375 -31.71875 C 20.046875 -31.71875 22.328125 -31.234375 24.578125 -30.265625 C 26.835938 -29.304688 28.757812 -27.992188 30.34375 -26.328125 L 25.609375 -20.625 C 24.597656 -21.90625 23.394531 -22.921875 22 -23.671875 C 20.601562 -24.429688 19.222656 -24.8125 17.859375 -24.8125 C 16.285156 -24.8125 14.851562 -24.414062 13.5625 -23.625 C 12.269531 -22.84375 11.253906 -21.757812 10.515625 -20.375 C 9.773438 -19 9.40625 -17.460938 9.40625 -15.765625 C 9.40625 -14.078125 9.773438 -12.539062 10.515625 -11.15625 C 11.253906 -9.78125 12.269531 -8.695312 13.5625 -7.90625 C 14.851562 -7.125 16.285156 -6.734375 17.859375 -6.734375 C 19.140625 -6.734375 20.476562 -7.054688 21.875 -7.703125 C 23.269531 -8.359375 24.515625 -9.25 25.609375 -10.375 Z M 30.375 -5.25 "/></g></g></g><g fill="#000000" fill-opacity="1"><g transform="translate(250.692398, 65.702222)"><g><path d="M 34.65625 0 L 25.96875 0 L 23.828125 -5.53125 L 10.328125 -5.53125 L 8.15625 0 L -0.21875 0 L 13.1875 -31.234375 L 21.5625 -31.234375 Z M 17.15625 -22.890625 L 12.78125 -11.765625 L 21.421875 -11.765625 Z M 25.4375 -40.625 C 25.4375 -38.3125 25.09375 -36.5625 24.40625 -35.375 C 23.726562 -34.1875 22.628906 -33.59375 21.109375 -33.59375 C 20.398438 -33.59375 19.75 -33.703125 19.15625 -33.921875 C 18.5625 -34.148438 17.863281 -34.472656 17.0625 -34.890625 C 16.226562 -35.359375 15.601562 -35.59375 15.1875 -35.59375 C 14.351562 -35.59375 13.9375 -34.96875 13.9375 -33.71875 L 9.4375 -33.71875 C 9.4375 -36.039062 9.78125 -37.800781 10.46875 -39 C 11.15625 -40.207031 12.269531 -40.8125 13.8125 -40.8125 C 14.488281 -40.8125 15.140625 -40.691406 15.765625 -40.453125 C 16.390625 -40.210938 17.070312 -39.898438 17.8125 -39.515625 C 18.707031 -39.035156 19.332031 -38.796875 19.6875 -38.796875 C 20.550781 -38.796875 20.984375 -39.40625 20.984375 -40.625 Z M 25.4375 -40.625 "/></g></g></g><g fill="#000000" fill-opacity="1"><g transform="translate(285.122416, 65.702222)"><g><path d="M 17.90625 -31.71875 C 21.082031 -31.71875 23.953125 -31.019531 26.515625 -29.625 C 29.085938 -28.226562 31.109375 -26.3125 32.578125 -23.875 C 34.054688 -21.4375 34.796875 -18.707031 34.796875 -15.6875 C 34.796875 -12.625 34.054688 -9.859375 32.578125 -7.390625 C 31.109375 -4.929688 29.085938 -2.988281 26.515625 -1.5625 C 23.953125 -0.132812 21.082031 0.578125 17.90625 0.578125 C 14.726562 0.578125 11.851562 -0.125 9.28125 -1.53125 C 6.71875 -2.945312 4.703125 -4.894531 3.234375 -7.375 C 1.765625 -9.851562 1.03125 -12.625 1.03125 -15.6875 C 1.03125 -18.707031 1.765625 -21.4375 3.234375 -23.875 C 4.703125 -26.3125 6.71875 -28.226562 9.28125 -29.625 C 11.851562 -31.019531 14.726562 -31.71875 17.90625 -31.71875 Z M 18 -24.8125 C 16.457031 -24.8125 15.023438 -24.410156 13.703125 -23.609375 C 12.378906 -22.804688 11.332031 -21.695312 10.5625 -20.28125 C 9.789062 -18.875 9.40625 -17.328125 9.40625 -15.640625 C 9.40625 -13.910156 9.796875 -12.335938 10.578125 -10.921875 C 11.367188 -9.515625 12.414062 -8.40625 13.71875 -7.59375 C 15.03125 -6.78125 16.457031 -6.375 18 -6.375 C 19.539062 -6.375 20.957031 -6.78125 22.25 -7.59375 C 23.539062 -8.40625 24.554688 -9.515625 25.296875 -10.921875 C 26.046875 -12.335938 26.421875 -13.910156 26.421875 -15.640625 C 26.421875 -17.328125 26.046875 -18.875 25.296875 -20.28125 C 24.554688 -21.695312 23.539062 -22.804688 22.25 -23.609375 C 20.957031 -24.410156 19.539062 -24.8125 18 -24.8125 Z M 18 -24.8125 "/></g></g></g><g fill="#000000" fill-opacity="1"><g transform="translate(83.248388, 127.658883)"><g><path d="M 3.03125 0 L 3.03125 -31.234375 L 11.890625 -31.234375 L 20.9375 -12.96875 L 29.9375 -31.234375 L 38.796875 -31.234375 L 38.796875 0 L 31.578125 0 L 31.546875 -19.78125 L 23.5625 -3.125 L 18.3125 -3.125 L 10.296875 -19.78125 L 10.296875 0 Z M 3.03125 0 "/></g></g></g><g fill="#000000" fill-opacity="1"><g transform="translate(125.072177, 127.658883)"><g><path d="M 10.640625 -12.875 C 10.640625 -10.914062 11.21875 -9.34375 12.375 -8.15625 C 13.539062 -6.96875 15.015625 -6.375 16.796875 -6.375 C 18.546875 -6.375 19.960938 -6.957031 21.046875 -8.125 C 22.128906 -9.300781 22.671875 -10.882812 22.671875 -12.875 L 22.671875 -31.234375 L 30.828125 -31.234375 L 30.828125 -12.875 C 30.828125 -10.164062 30.253906 -7.796875 29.109375 -5.765625 C 27.960938 -3.734375 26.328125 -2.164062 24.203125 -1.0625 C 22.085938 0.03125 19.601562 0.578125 16.75 0.578125 C 13.894531 0.578125 11.390625 0.03125 9.234375 -1.0625 C 7.085938 -2.164062 5.425781 -3.734375 4.25 -5.765625 C 3.082031 -7.796875 2.5 -10.164062 2.5 -12.875 L 2.5 -31.234375 L 10.640625 -31.234375 Z M 10.640625 -12.875 "/></g></g></g><g fill="#000000" fill-opacity="1"><g transform="translate(158.433217, 127.658883)"><g><path d="M 24.546875 -21.828125 C 22.878906 -22.804688 21.101562 -23.609375 19.21875 -24.234375 C 17.332031 -24.859375 15.753906 -25.171875 14.484375 -25.171875 C 13.472656 -25.171875 12.675781 -24.984375 12.09375 -24.609375 C 11.507812 -24.242188 11.21875 -23.703125 11.21875 -22.984375 C 11.21875 -22.304688 11.46875 -21.734375 11.96875 -21.265625 C 12.476562 -20.804688 13.101562 -20.4375 13.84375 -20.15625 C 14.59375 -19.875 15.695312 -19.507812 17.15625 -19.0625 C 19.320312 -18.4375 21.109375 -17.8125 22.515625 -17.1875 C 23.929688 -16.570312 25.140625 -15.617188 26.140625 -14.328125 C 27.148438 -13.035156 27.65625 -11.347656 27.65625 -9.265625 C 27.65625 -7.179688 27.101562 -5.40625 26 -3.9375 C 24.90625 -2.46875 23.398438 -1.363281 21.484375 -0.625 C 19.578125 0.113281 17.445312 0.484375 15.09375 0.484375 C 12.507812 0.484375 9.929688 0.03125 7.359375 -0.875 C 4.796875 -1.78125 2.582031 -3.019531 0.71875 -4.59375 L 3.875 -10.953125 C 5.445312 -9.554688 7.3125 -8.410156 9.46875 -7.515625 C 11.625 -6.628906 13.53125 -6.1875 15.1875 -6.1875 C 16.40625 -6.1875 17.363281 -6.410156 18.0625 -6.859375 C 18.757812 -7.304688 19.109375 -7.957031 19.109375 -8.8125 C 19.109375 -9.53125 18.847656 -10.125 18.328125 -10.59375 C 17.804688 -11.070312 17.148438 -11.453125 16.359375 -11.734375 C 15.578125 -12.015625 14.472656 -12.347656 13.046875 -12.734375 C 10.910156 -13.328125 9.144531 -13.925781 7.75 -14.53125 C 6.351562 -15.144531 5.15625 -16.066406 4.15625 -17.296875 C 3.164062 -18.535156 2.671875 -20.179688 2.671875 -22.234375 C 2.671875 -24.160156 3.179688 -25.847656 4.203125 -27.296875 C 5.234375 -28.753906 6.691406 -29.875 8.578125 -30.65625 C 10.460938 -31.445312 12.648438 -31.84375 15.140625 -31.84375 C 17.398438 -31.84375 19.628906 -31.523438 21.828125 -30.890625 C 24.023438 -30.253906 25.957031 -29.398438 27.625 -28.328125 Z M 24.546875 -21.828125 "/></g></g></g><g fill="#000000" fill-opacity="1"><g transform="translate(187.206561, 127.658883)"><g><path d="M 3.03125 0 L 3.03125 -31.234375 L 11.1875 -31.234375 L 11.1875 0 Z M 3.03125 0 "/></g></g></g><g fill="#000000" fill-opacity="1"><g transform="translate(201.415065, 127.658883)"><g><path d="M 25.609375 -20.625 C 24.597656 -21.90625 23.394531 -22.921875 22 -23.671875 C 20.601562 -24.429688 19.222656 -24.8125 17.859375 -24.8125 C 16.285156 -24.8125 14.851562 -24.414062 13.5625 -23.625 C 12.269531 -22.84375 11.253906 -21.757812 10.515625 -20.375 C 9.773438 -19 9.40625 -17.460938 9.40625 -15.765625 C 9.40625 -14.078125 9.773438 -12.539062 10.515625 -11.15625 C 11.253906 -9.78125 12.269531 -8.695312 13.5625 -7.90625 C 14.851562 -7.125 16.285156 -6.734375 17.859375 -6.734375 C 19.140625 -6.734375 20.476562 -7.054688 21.875 -7.703125 C 23.269531 -8.359375 24.515625 -9.25 25.609375 -10.375 L 30.375 -5.25 C 28.6875 -3.46875 26.675781 -2.050781 24.34375 -1 C 22.007812 0.0507812 19.703125 0.578125 17.421875 0.578125 C 14.328125 0.578125 11.53125 -0.132812 9.03125 -1.5625 C 6.539062 -2.988281 4.582031 -4.929688 3.15625 -7.390625 C 1.738281 -9.859375 1.03125 -12.625 1.03125 -15.6875 C 1.03125 -18.707031 1.753906 -21.4375 3.203125 -23.875 C 4.660156 -26.3125 6.65625 -28.226562 9.1875 -29.625 C 11.726562 -31.019531 14.578125 -31.71875 17.734375 -31.71875 C 20.046875 -31.71875 22.328125 -31.234375 24.578125 -30.265625 C 26.835938 -29.304688 28.757812 -27.992188 30.34375 -26.328125 Z M 25.609375 -20.625 "/></g></g></g><g fill="#000000" fill-opacity="1"><g transform="translate(232.237286, 127.658883)"><g><path d="M 34.65625 0 L 25.96875 0 L 23.828125 -5.53125 L 10.328125 -5.53125 L 8.15625 0 L -0.21875 0 L 13.1875 -31.234375 L 21.5625 -31.234375 Z M 17.15625 -22.890625 L 12.78125 -11.765625 L 21.421875 -11.765625 Z M 17.15625 -22.890625 "/></g></g></g><g fill="#000000" fill-opacity="1"><g transform="translate(266.667305, 127.658883)"><g><path d="M 3.03125 0 L 3.03125 -31.234375 L 11.1875 -31.234375 L 11.1875 -6.953125 L 24.40625 -6.953125 L 24.40625 0 Z M 3.03125 0 "/></g></g></g><path fill="#040606" d="M 211.738281 239.296875 C 211.738281 243.207031 214.929688 246.394531 218.835938 246.394531 C 222.746094 246.394531 225.9375 243.207031 225.9375 239.296875 C 225.9375 235.386719 222.746094 232.199219 218.835938 232.199219 C 214.929688 232.199219 211.738281 235.386719 211.738281 239.296875 " fill-opacity="1" fill-rule="nonzero"/><g clip-path="url(#dc9b9d0bc3)"><path fill="#040606" d="M 233.035156 239.296875 C 233.035156 245.898438 228.488281 251.402344 222.386719 252.996094 L 222.386719 317.378906 C 222.386719 319.332031 220.792969 320.925781 218.835938 320.925781 C 216.882812 320.925781 215.289062 319.332031 215.289062 317.378906 L 215.289062 252.996094 C 209.1875 251.402344 204.640625 245.898438 204.640625 239.296875 C 204.640625 232.699219 209.1875 227.195312 215.289062 225.601562 L 215.289062 196.707031 C 215.289062 194.753906 216.882812 193.160156 218.835938 193.160156 C 220.792969 193.160156 222.386719 194.753906 222.386719 196.707031 L 222.386719 225.601562 C 228.488281 227.195312 233.035156 232.699219 233.035156 239.296875 Z M 186.894531 345.769531 C 137.96875 345.769531 98.167969 305.96875 98.167969 257.042969 C 98.167969 218.378906 124.011719 183.46875 161.011719 172.171875 C 162.871094 171.574219 164.867188 172.640625 165.449219 174.527344 C 166.015625 176.398438 164.964844 178.382812 163.089844 178.949219 C 129.042969 189.347656 105.265625 221.46875 105.265625 257.042969 C 105.265625 302.058594 141.878906 338.671875 186.894531 338.671875 C 231.910156 338.671875 268.523438 302.058594 268.523438 257.042969 C 268.523438 212.027344 231.910156 175.414062 186.894531 175.414062 C 184.941406 175.414062 183.347656 173.820312 183.347656 171.863281 C 183.347656 169.910156 184.941406 168.316406 186.894531 168.316406 C 235.820312 168.316406 275.625 208.117188 275.625 257.042969 C 275.625 305.96875 235.820312 345.769531 186.894531 345.769531 Z M 140.757812 221.550781 C 140.757812 214.953125 145.304688 209.449219 151.40625 207.855469 L 151.40625 196.707031 C 151.40625 194.753906 153 193.160156 154.953125 193.160156 C 156.910156 193.160156 158.503906 194.753906 158.503906 196.707031 L 158.503906 207.855469 C 164.601562 209.449219 169.148438 214.953125 169.148438 221.550781 C 169.148438 228.152344 164.601562 233.65625 158.503906 235.25 L 158.503906 317.378906 C 158.503906 319.332031 156.910156 320.925781 154.953125 320.925781 C 153 320.925781 151.40625 319.332031 151.40625 317.378906 L 151.40625 235.25 C 145.304688 233.65625 140.757812 228.152344 140.757812 221.550781 Z M 183.347656 275.289062 L 183.347656 196.707031 C 183.347656 194.753906 184.941406 193.160156 186.894531 193.160156 C 188.851562 193.160156 190.445312 194.753906 190.445312 196.707031 L 190.445312 275.289062 C 196.542969 276.882812 201.09375 282.386719 201.09375 288.984375 C 201.09375 295.585938 196.542969 301.089844 190.445312 302.683594 L 190.445312 317.378906 C 190.445312 319.332031 188.851562 320.925781 186.894531 320.925781 C 184.941406 320.925781 183.347656 319.332031 183.347656 317.378906 L 183.347656 302.683594 C 177.246094 301.089844 172.699219 295.585938 172.699219 288.984375 C 172.699219 282.386719 177.246094 276.882812 183.347656 275.289062 Z M 186.894531 157.667969 C 132.09375 157.667969 87.519531 202.242188 87.519531 257.042969 C 87.519531 311.847656 132.09375 356.417969 186.894531 356.417969 C 241.699219 356.417969 286.269531 311.847656 286.269531 257.042969 C 286.269531 202.242188 241.699219 157.667969 186.894531 157.667969 " fill-opacity="1" fill-rule="nonzero"/></g><path fill="#040606" d="M 186.894531 296.082031 C 190.804688 296.082031 193.992188 292.894531 193.992188 288.984375 C 193.992188 285.074219 190.804688 281.886719 186.894531 281.886719 C 182.984375 281.886719 179.796875 285.074219 179.796875 288.984375 C 179.796875 292.894531 182.984375 296.082031 186.894531 296.082031 " fill-opacity="1" fill-rule="nonzero"/><path fill="#040606" d="M 162.050781 221.550781 C 162.050781 217.644531 158.863281 214.453125 154.953125 214.453125 C 151.042969 214.453125 147.855469 217.644531 147.855469 221.550781 C 147.855469 225.460938 151.042969 228.652344 154.953125 228.652344 C 158.863281 228.652344 162.050781 225.460938 162.050781 221.550781 " fill-opacity="1" fill-rule="nonzero"/></svg>