<svg xmlns="http://www.w3.org/2000/svg" xmlns:xlink="http://www.w3.org/1999/xlink" width="500" zoomAndPan="magnify" viewBox="0 0 375 374.999991" height="500" preserveAspectRatio="xMidYMid meet" version="1.0"><defs><g/><clipPath id="5bf634b6fa"><path d="M 97 124.1875 L 278 124.1875 L 278 304.1875 L 97 304.1875 Z M 97 124.1875 " clip-rule="nonzero"/></clipPath></defs><g clip-path="url(#5bf634b6fa)"><path fill="#000000" d="M 265.601562 258.777344 C 267.480469 255.460938 269.140625 252.035156 270.585938 248.507812 C 272.03125 244.976562 273.246094 241.371094 274.230469 237.6875 C 275.21875 234.003906 275.96875 230.273438 276.480469 226.492188 C 276.992188 222.714844 277.265625 218.917969 277.296875 215.101562 C 277.324219 211.289062 277.117188 207.488281 276.664062 203.703125 C 276.210938 199.914062 275.523438 196.171875 274.59375 192.472656 C 273.667969 188.773438 272.511719 185.148438 271.125 181.59375 C 269.738281 178.042969 268.128906 174.59375 266.304688 171.246094 C 266.164062 170.976562 266.007812 170.714844 265.835938 170.460938 C 264.863281 168.722656 263.835938 167.019531 262.75 165.351562 C 261.664062 163.679688 260.527344 162.046875 259.332031 160.453125 C 258.140625 158.859375 256.894531 157.304688 255.601562 155.792969 C 254.304688 154.28125 252.960938 152.8125 251.566406 151.390625 C 250.175781 149.96875 248.738281 148.59375 247.253906 147.265625 C 245.769531 145.941406 244.242188 144.664062 242.675781 143.4375 C 241.109375 142.210938 239.5 141.039062 237.855469 139.921875 C 236.210938 138.800781 234.527344 137.738281 232.8125 136.730469 C 231.097656 135.722656 229.347656 134.773438 227.570312 133.882812 C 225.792969 132.992188 223.984375 132.160156 222.152344 131.386719 C 220.316406 130.617188 218.460938 129.90625 216.578125 129.257812 C 214.699219 128.609375 212.796875 128.027344 210.878906 127.503906 C 208.960938 126.980469 207.023438 126.523438 205.074219 126.132812 C 203.125 125.738281 201.164062 125.410156 199.191406 125.144531 C 197.222656 124.882812 195.242188 124.683594 193.257812 124.554688 C 191.273438 124.421875 189.289062 124.355469 187.300781 124.355469 C 185.308594 124.355469 183.324219 124.421875 181.339844 124.554688 C 179.355469 124.683594 177.375 124.882812 175.40625 125.144531 C 173.433594 125.410156 171.472656 125.738281 169.523438 126.132812 C 167.574219 126.523438 165.636719 126.980469 163.71875 127.503906 C 161.800781 128.027344 159.898438 128.609375 158.019531 129.257812 C 156.136719 129.90625 154.28125 130.617188 152.445312 131.386719 C 150.613281 132.160156 148.804688 132.992188 147.027344 133.882812 C 145.25 134.773438 143.5 135.722656 141.785156 136.730469 C 140.070312 137.738281 138.386719 138.800781 136.742188 139.921875 C 135.097656 141.039062 133.492188 142.210938 131.921875 143.4375 C 130.355469 144.664062 128.828125 145.941406 127.34375 147.265625 C 125.859375 148.59375 124.421875 149.96875 123.03125 151.390625 C 121.636719 152.8125 120.292969 154.28125 118.996094 155.792969 C 117.703125 157.304688 116.457031 158.859375 115.265625 160.453125 C 114.070312 162.046875 112.933594 163.679688 111.847656 165.351562 C 110.761719 167.019531 109.734375 168.722656 108.761719 170.460938 C 108.589844 170.726562 108.433594 171.003906 108.292969 171.285156 C 106.5 174.582031 104.921875 177.976562 103.550781 181.46875 C 102.183594 184.964844 101.035156 188.53125 100.113281 192.167969 C 99.1875 195.804688 98.492188 199.484375 98.027344 203.207031 C 97.5625 206.933594 97.328125 210.671875 97.328125 214.421875 C 97.328125 218.175781 97.5625 221.914062 98.027344 225.640625 C 98.492188 229.363281 99.1875 233.042969 100.113281 236.679688 C 101.035156 240.316406 102.183594 243.882812 103.550781 247.375 C 104.921875 250.871094 106.5 254.265625 108.292969 257.5625 L 108.722656 258.304688 C 109.691406 260.039062 110.71875 261.742188 111.800781 263.410156 C 112.882812 265.074219 114.019531 266.707031 115.207031 268.296875 C 116.398438 269.890625 117.636719 271.441406 118.929688 272.949219 C 120.222656 274.457031 121.5625 275.925781 122.949219 277.34375 C 124.339844 278.765625 125.773438 280.140625 127.253906 281.464844 C 128.730469 282.789062 130.253906 284.066406 131.816406 285.289062 C 133.378906 286.515625 134.980469 287.6875 136.625 288.804688 C 138.265625 289.925781 139.941406 290.988281 141.652344 291.996094 C 143.363281 293.003906 145.105469 293.953125 146.878906 294.847656 C 148.652344 295.738281 150.453125 296.570312 152.28125 297.34375 C 154.109375 298.117188 155.960938 298.828125 157.839844 299.476562 C 159.714844 300.128906 161.609375 300.714844 163.523438 301.242188 C 165.4375 301.765625 167.367188 302.226562 169.3125 302.621094 C 171.257812 303.019531 173.214844 303.351562 175.179688 303.617188 C 177.148438 303.886719 179.121094 304.085938 181.101562 304.222656 C 183.082031 304.359375 185.0625 304.429688 187.046875 304.433594 C 189.03125 304.441406 191.015625 304.378906 192.996094 304.253906 C 194.976562 304.125 196.949219 303.933594 198.917969 303.675781 C 200.886719 303.421875 202.84375 303.097656 204.792969 302.710938 C 206.738281 302.324219 208.671875 301.871094 210.585938 301.359375 C 212.503906 300.84375 214.402344 300.265625 216.28125 299.625 C 218.160156 298.984375 220.015625 298.28125 221.847656 297.519531 C 223.679688 296.753906 225.484375 295.929688 227.265625 295.046875 C 229.042969 294.164062 230.789062 293.222656 232.503906 292.222656 C 234.222656 291.222656 235.902344 290.167969 237.550781 289.058594 C 239.195312 287.949219 240.804688 286.785156 242.375 285.566406 C 243.941406 284.351562 245.46875 283.082031 246.957031 281.765625 C 248.441406 280.445312 249.882812 279.078125 251.277344 277.664062 C 252.675781 276.25 254.023438 274.792969 255.320312 273.289062 C 256.621094 271.789062 257.871094 270.242188 259.066406 268.65625 C 260.265625 267.070312 261.40625 265.445312 262.5 263.785156 C 263.589844 262.125 264.621094 260.429688 265.601562 258.699219 Z M 187.320312 288.894531 C 186.496094 288.894531 185.714844 288.894531 184.929688 288.894531 C 180.308594 283.53125 176.222656 277.78125 172.675781 271.648438 C 169.128906 265.515625 166.183594 259.109375 163.832031 252.421875 C 171.152344 251.679688 179.058594 251.246094 187.320312 251.246094 C 195.578125 251.246094 203.523438 251.71875 210.804688 252.421875 C 208.457031 259.109375 205.507812 265.515625 201.960938 271.648438 C 198.414062 277.78125 194.328125 283.53125 189.707031 288.894531 C 188.921875 288.894531 188.140625 288.894531 187.320312 288.894531 Z M 187.320312 235.5625 C 178.027344 235.570312 168.761719 236.09375 159.527344 237.128906 C 157.988281 229.625 157.21875 222.042969 157.21875 214.382812 C 157.21875 206.722656 157.988281 199.140625 159.527344 191.640625 C 168.761719 192.675781 178.027344 193.199219 187.320312 193.207031 C 196.609375 193.199219 205.875 192.675781 215.109375 191.640625 C 216.648438 199.140625 217.417969 206.722656 217.417969 214.382812 C 217.417969 222.042969 216.648438 229.625 215.109375 237.128906 C 205.875 236.09375 196.609375 235.570312 187.320312 235.5625 Z M 112.949219 214.382812 C 112.957031 209.152344 113.507812 203.976562 114.613281 198.859375 C 115.714844 193.746094 117.339844 188.800781 119.488281 184.03125 C 125.554688 185.71875 133.929688 187.757812 144.027344 189.480469 C 142.410156 197.710938 141.601562 206.015625 141.601562 214.402344 C 141.601562 222.789062 142.410156 231.097656 144.027344 239.324219 C 133.929688 241.050781 125.59375 243.246094 119.488281 244.777344 C 117.335938 240 115.707031 235.050781 114.605469 229.929688 C 113.503906 224.804688 112.953125 219.625 112.949219 214.382812 Z M 187.320312 139.875 C 188.140625 139.875 188.921875 139.875 189.707031 139.875 C 194.328125 145.238281 198.414062 150.988281 201.960938 157.117188 C 205.507812 163.25 208.457031 169.660156 210.804688 176.34375 C 203.484375 177.089844 195.578125 177.519531 187.320312 177.519531 C 179.058594 177.519531 171.113281 177.050781 163.832031 176.34375 C 166.179688 169.660156 169.128906 163.25 172.675781 157.117188 C 176.222656 150.988281 180.308594 145.238281 184.929688 139.875 C 185.714844 139.875 186.496094 139.875 187.320312 139.875 Z M 230.648438 189.441406 C 240.746094 187.71875 249.082031 185.519531 255.191406 183.992188 C 256.261719 186.371094 257.207031 188.800781 258.019531 191.28125 C 258.835938 193.761719 259.519531 196.277344 260.066406 198.832031 C 260.613281 201.382812 261.027344 203.957031 261.304688 206.554688 C 261.578125 209.148438 261.714844 211.753906 261.714844 214.363281 C 261.714844 216.976562 261.578125 219.578125 261.304688 222.175781 C 261.027344 224.773438 260.613281 227.347656 260.066406 229.898438 C 259.519531 232.453125 258.835938 234.96875 258.019531 237.449219 C 257.207031 239.925781 256.261719 242.355469 255.191406 244.738281 C 249.121094 243.050781 240.746094 241.011719 230.648438 239.285156 C 232.265625 231.058594 233.074219 222.75 233.074219 214.363281 C 233.074219 205.976562 232.265625 197.671875 230.648438 189.441406 Z M 246.929688 169.835938 C 241.488281 171.246094 234.640625 172.777344 226.695312 174.070312 C 223.246094 163.496094 218.511719 153.535156 212.488281 144.1875 C 215.90625 145.441406 219.214844 146.933594 222.414062 148.671875 C 225.613281 150.40625 228.671875 152.367188 231.582031 154.554688 C 234.496094 156.738281 237.238281 159.125 239.800781 161.710938 C 242.367188 164.296875 244.730469 167.058594 246.890625 169.992188 Z M 162.152344 144.34375 C 156.128906 153.691406 151.390625 163.652344 147.941406 174.226562 C 140.113281 172.894531 133.1875 171.402344 127.707031 169.992188 C 129.875 167.070312 132.246094 164.324219 134.816406 161.75 C 137.386719 159.179688 140.132812 156.804688 143.046875 154.632812 C 145.964844 152.460938 149.023438 150.515625 152.222656 148.789062 C 155.425781 147.066406 158.734375 145.585938 162.152344 144.34375 Z M 127.746094 258.777344 C 133.1875 257.363281 140.035156 255.835938 147.980469 254.539062 C 151.429688 265.117188 156.167969 275.078125 162.191406 284.421875 C 158.773438 283.183594 155.464844 281.703125 152.261719 279.976562 C 149.0625 278.253906 146.003906 276.304688 143.085938 274.136719 C 140.171875 271.964844 137.425781 269.589844 134.855469 267.015625 C 132.285156 264.445312 129.914062 261.695312 127.746094 258.777344 Z M 212.488281 284.421875 C 218.511719 275.078125 223.246094 265.117188 226.695312 254.539062 C 234.523438 255.875 241.449219 257.363281 246.929688 258.777344 C 244.761719 261.695312 242.390625 264.445312 239.820312 267.015625 C 237.25 269.589844 234.503906 271.964844 231.589844 274.136719 C 228.671875 276.304688 225.613281 278.253906 222.414062 279.976562 C 219.210938 281.703125 215.902344 283.183594 212.488281 284.421875 Z M 212.488281 284.421875 " fill-opacity="1" fill-rule="nonzero"/></g><g fill="#000000" fill-opacity="1"><g transform="translate(99.867607, 94.721514)"><g><path d="M 35 0 L 24.59375 0 L 19.453125 -9.75 L 12.625 -9.75 L 12.625 0 L 3.421875 0 L 3.421875 -35.25 L 19.25 -35.25 C 23.914062 -35.25 27.53125 -34.164062 30.09375 -32 C 32.65625 -29.84375 33.9375 -26.800781 33.9375 -22.875 C 33.9375 -20.226562 33.398438 -17.941406 32.328125 -16.015625 C 31.253906 -14.085938 29.695312 -12.585938 27.65625 -11.515625 Z M 12.625 -27.90625 L 12.625 -17.09375 L 19.3125 -17.09375 C 21.1875 -17.09375 22.632812 -17.5625 23.65625 -18.5 C 24.675781 -19.4375 25.1875 -20.796875 25.1875 -22.578125 C 25.1875 -24.285156 24.675781 -25.597656 23.65625 -26.515625 C 22.632812 -27.441406 21.1875 -27.90625 19.3125 -27.90625 Z M 12.625 -27.90625 "/></g></g></g><g fill="#000000" fill-opacity="1"><g transform="translate(136.265515, 94.721514)"><g><path d="M 3.421875 0 L 3.421875 -35.25 L 31.21875 -35.25 L 31.21875 -27.90625 L 12.625 -27.90625 L 12.625 -21.3125 L 29.421875 -21.3125 L 29.421875 -14.03125 L 12.625 -13.984375 L 12.625 -7.34375 L 31.734375 -7.34375 L 31.734375 0 Z M 3.421875 0 "/></g></g></g><g fill="#000000" fill-opacity="1"><g transform="translate(170.200026, 94.721514)"><g><path d="M 18.609375 -35.25 C 22.296875 -35.25 25.550781 -34.507812 28.375 -33.03125 C 31.207031 -31.5625 33.410156 -29.492188 34.984375 -26.828125 C 36.566406 -24.160156 37.359375 -21.101562 37.359375 -17.65625 C 37.359375 -14.195312 36.5625 -11.125 34.96875 -8.4375 C 33.375 -5.757812 31.128906 -3.679688 28.234375 -2.203125 C 25.335938 -0.734375 22.007812 0 18.25 0 L 3.421875 0 L 3.421875 -35.25 Z M 18.859375 -7.4375 C 20.628906 -7.4375 22.203125 -7.851562 23.578125 -8.6875 C 24.953125 -9.53125 26.023438 -10.722656 26.796875 -12.265625 C 27.566406 -13.804688 27.953125 -15.566406 27.953125 -17.546875 C 27.953125 -19.554688 27.539062 -21.332031 26.71875 -22.875 C 25.90625 -24.414062 24.773438 -25.613281 23.328125 -26.46875 C 21.890625 -27.320312 20.25 -27.75 18.40625 -27.75 L 12.625 -27.75 L 12.625 -7.4375 Z M 18.859375 -7.4375 "/></g></g></g><g fill="#000000" fill-opacity="1"><g transform="translate(208.709415, 94.721514)"><g><path d="M 3.421875 0 L 3.421875 -35.25 L 31.21875 -35.25 L 31.21875 -27.90625 L 12.625 -27.90625 L 12.625 -21.3125 L 29.421875 -21.3125 L 29.421875 -14.03125 L 12.625 -13.984375 L 12.625 -7.34375 L 31.734375 -7.34375 L 31.734375 0 Z M 3.421875 0 "/></g></g></g><g fill="#000000" fill-opacity="1"><g transform="translate(242.643926, 94.721514)"><g><path d="M 27.703125 -24.640625 C 25.828125 -25.742188 23.820312 -26.644531 21.6875 -27.34375 C 19.5625 -28.050781 17.78125 -28.40625 16.34375 -28.40625 C 15.195312 -28.40625 14.296875 -28.195312 13.640625 -27.78125 C 12.992188 -27.363281 12.671875 -26.75 12.671875 -25.9375 C 12.671875 -25.164062 12.953125 -24.519531 13.515625 -24 C 14.085938 -23.488281 14.789062 -23.070312 15.625 -22.75 C 16.46875 -22.4375 17.710938 -22.023438 19.359375 -21.515625 C 21.804688 -20.816406 23.828125 -20.113281 25.421875 -19.40625 C 27.015625 -18.707031 28.378906 -17.628906 29.515625 -16.171875 C 30.648438 -14.710938 31.21875 -12.804688 31.21875 -10.453125 C 31.21875 -8.109375 30.597656 -6.109375 29.359375 -4.453125 C 28.117188 -2.796875 26.414062 -1.546875 24.25 -0.703125 C 22.09375 0.128906 19.691406 0.546875 17.046875 0.546875 C 14.128906 0.546875 11.21875 0.0351562 8.3125 -0.984375 C 5.414062 -2.003906 2.910156 -3.398438 0.796875 -5.171875 L 4.375 -12.375 C 6.15625 -10.789062 8.257812 -9.492188 10.6875 -8.484375 C 13.113281 -7.484375 15.265625 -6.984375 17.140625 -6.984375 C 18.515625 -6.984375 19.597656 -7.234375 20.390625 -7.734375 C 21.179688 -8.242188 21.578125 -8.984375 21.578125 -9.953125 C 21.578125 -10.753906 21.28125 -11.421875 20.6875 -11.953125 C 20.101562 -12.492188 19.363281 -12.925781 18.46875 -13.25 C 17.582031 -13.570312 16.335938 -13.945312 14.734375 -14.375 C 12.316406 -15.050781 10.320312 -15.734375 8.75 -16.421875 C 7.175781 -17.109375 5.828125 -18.144531 4.703125 -19.53125 C 3.578125 -20.925781 3.015625 -22.78125 3.015625 -25.09375 C 3.015625 -27.269531 3.59375 -29.175781 4.75 -30.8125 C 5.90625 -32.457031 7.546875 -33.722656 9.671875 -34.609375 C 11.804688 -35.503906 14.28125 -35.953125 17.09375 -35.953125 C 19.644531 -35.953125 22.160156 -35.585938 24.640625 -34.859375 C 27.117188 -34.140625 29.296875 -33.179688 31.171875 -31.984375 Z M 27.703125 -24.640625 "/></g></g></g></svg>