<svg xmlns="http://www.w3.org/2000/svg" xmlns:xlink="http://www.w3.org/1999/xlink" width="500" zoomAndPan="magnify" viewBox="0 0 375 374.999991" height="500" preserveAspectRatio="xMidYMid meet" version="1.0"><defs><g/><clipPath id="79a7968ac8"><path d="M 215 274 L 297.203125 274 L 297.203125 356.007812 L 215 356.007812 Z M 215 274 " clip-rule="nonzero"/></clipPath></defs><path fill="#100f0d" d="M 213.257812 206.535156 C 213.257812 204.300781 213.804688 202.207031 214.765625 200.351562 C 215.617188 198.699219 215.691406 196.769531 214.972656 195.0625 C 209.96875 183.191406 197.761719 174.570312 184.554688 174.460938 L 184.25 174.460938 C 170.273438 174.460938 157.992188 182.734375 152.78125 194.9375 C 152.03125 196.703125 152.160156 198.683594 153.039062 200.394531 C 153.988281 202.238281 154.523438 204.324219 154.523438 206.535156 L 154.523438 210.921875 C 155.03125 213.980469 154.898438 216.886719 154.796875 219.253906 C 154.753906 220.285156 154.703125 221.253906 154.714844 222.113281 C 154.773438 223.46875 154.753906 224.78125 154.726562 225.945312 C 154.726562 226.238281 154.714844 226.566406 154.714844 226.902344 L 162.136719 228.65625 C 163.332031 228.269531 164.609375 228.066406 165.902344 228.066406 L 177.304688 228.066406 C 184.136719 228.066406 189.671875 233.601562 189.671875 240.4375 L 189.671875 242.804688 C 189.671875 249.636719 184.136719 255.175781 177.304688 255.175781 L 173.152344 255.175781 C 181.414062 259.398438 191.140625 258.804688 199.195312 252.984375 C 205.53125 248.398438 210.816406 243.109375 213.832031 236.539062 C 213.496094 235.429688 213.300781 234.265625 213.269531 233.070312 C 213.257812 232.9375 213.257812 232.789062 213.257812 232.652344 L 213.257812 206.535156 " fill-opacity="1" fill-rule="nonzero"/><path fill="#100f0d" d="M 134.132812 238.234375 L 141.042969 238.234375 C 141.070312 238.234375 141.101562 238.222656 141.128906 238.222656 L 153.136719 241.527344 L 162.710938 243.78125 C 162.78125 244.015625 162.882812 244.242188 163.007812 244.457031 C 163.574219 245.464844 164.65625 246.136719 165.902344 246.136719 L 177.304688 246.136719 C 179.148438 246.136719 180.636719 244.648438 180.636719 242.804688 L 180.636719 240.4375 C 180.636719 238.59375 179.148438 237.101562 177.304688 237.101562 L 165.902344 237.101562 C 164.902344 237.101562 164.015625 237.53125 163.402344 238.234375 L 147.351562 234.460938 C 146.964844 234.132812 146.699219 233.800781 146.542969 233.46875 C 146.582031 233.195312 146.625 232.933594 146.625 232.652344 L 146.625 206.535156 C 146.625 203.664062 144.449219 201.328125 141.65625 201.015625 C 141.71875 200.671875 141.785156 200.339844 141.84375 200.039062 C 145.660156 179.765625 163.671875 165.242188 184.636719 165.421875 C 204.683594 165.601562 222.621094 180.683594 225.894531 200.46875 C 225.929688 200.65625 225.929688 200.851562 225.9375 201.039062 C 223.242188 201.433594 221.167969 203.734375 221.167969 206.535156 L 221.167969 232.652344 C 221.167969 235.730469 223.667969 238.234375 226.75 238.234375 L 233.660156 238.234375 C 236.742188 238.234375 239.242188 235.730469 239.242188 232.652344 L 239.242188 206.535156 C 239.242188 203.453125 236.742188 200.957031 233.660156 200.957031 L 233.523438 200.957031 C 233.03125 198.488281 232.722656 195.953125 232.007812 193.570312 C 225.488281 171.902344 204.0625 156.519531 182.074219 157.886719 C 157.589844 159.398438 138.632812 175.960938 134.363281 199.226562 C 134.253906 199.820312 134.082031 200.398438 133.890625 200.980469 C 130.925781 201.105469 128.550781 203.535156 128.550781 206.535156 L 128.550781 232.652344 C 128.550781 235.730469 131.050781 238.234375 134.132812 238.234375 " fill-opacity="1" fill-rule="nonzero"/><path fill="#100f0d" d="M 215.75 281.613281 L 222.820312 274.542969 C 225.789062 271.574219 229.734375 269.941406 233.933594 269.941406 C 235.25 269.941406 236.539062 270.101562 237.789062 270.410156 C 238.875 268.601562 240.324219 267.03125 242.023438 265.785156 C 234.695312 259.527344 225.371094 255.382812 214.753906 253.980469 C 208.683594 268.359375 195.789062 270.074219 182.878906 269.917969 C 170.761719 269.773438 158.691406 267.667969 152.945312 253.910156 C 128.6875 257.769531 113.285156 272.769531 109.296875 296.238281 C 105.96875 315.828125 114.839844 328.550781 134.679688 329.117188 C 158.851562 329.800781 183.058594 329.996094 207.25 329.671875 C 205.195312 327.015625 203.964844 323.679688 203.964844 320.070312 L 203.964844 310.066406 C 203.964844 304.34375 207.042969 299.320312 211.628906 296.578125 C 210.332031 291.390625 211.707031 285.664062 215.75 281.613281 " fill-opacity="1" fill-rule="nonzero"/><g clip-path="url(#79a7968ac8)"><path fill="#100f0d" d="M 256.273438 331.753906 C 247.167969 331.753906 239.789062 324.371094 239.789062 315.265625 C 239.789062 306.160156 247.167969 298.78125 256.273438 298.78125 C 265.378906 298.78125 272.757812 306.160156 272.757812 315.265625 C 272.757812 324.371094 265.378906 331.753906 256.273438 331.753906 Z M 292.863281 305.652344 L 288.636719 305.652344 C 287.929688 303.269531 286.96875 301.003906 285.785156 298.875 L 288.808594 295.855469 C 290.535156 294.128906 290.535156 291.324219 288.808594 289.597656 L 281.738281 282.53125 C 280.011719 280.804688 277.214844 280.804688 275.484375 282.53125 L 272.410156 285.613281 C 270.296875 284.460938 268.046875 283.527344 265.695312 282.847656 L 265.695312 278.472656 C 265.695312 276.035156 263.714844 274.054688 261.273438 274.054688 L 251.273438 274.054688 C 248.832031 274.054688 246.855469 276.035156 246.855469 278.472656 L 246.855469 282.847656 C 244.5 283.527344 242.253906 284.460938 240.140625 285.613281 L 237.058594 282.53125 C 235.335938 280.804688 232.53125 280.804688 230.804688 282.53125 L 223.738281 289.597656 C 222.011719 291.324219 222.011719 294.128906 223.738281 295.855469 L 226.757812 298.875 C 225.574219 301.003906 224.617188 303.269531 223.910156 305.652344 L 219.679688 305.652344 C 217.234375 305.652344 215.265625 307.628906 215.265625 310.066406 L 215.265625 320.070312 C 215.265625 322.511719 217.234375 324.488281 219.679688 324.488281 L 223.796875 324.488281 C 224.480469 326.917969 225.4375 329.226562 226.625 331.398438 L 223.738281 334.289062 C 222.011719 336.011719 222.011719 338.8125 223.738281 340.535156 L 230.804688 347.605469 C 232.53125 349.332031 235.335938 349.332031 237.058594 347.605469 L 239.882812 344.78125 C 242.070312 345.996094 244.40625 346.980469 246.855469 347.6875 L 246.855469 351.664062 C 246.855469 354.105469 248.832031 356.085938 251.273438 356.085938 L 261.273438 356.085938 C 263.714844 356.085938 265.695312 354.105469 265.695312 351.664062 L 265.695312 347.6875 C 268.144531 346.980469 270.472656 345.996094 272.660156 344.78125 L 275.484375 347.605469 C 277.214844 349.332031 280.011719 349.332031 281.738281 347.605469 L 288.808594 340.535156 C 290.535156 338.8125 290.535156 336.011719 288.808594 334.289062 L 285.925781 331.398438 C 287.109375 329.226562 288.0625 326.917969 288.75 324.488281 L 292.863281 324.488281 C 295.308594 324.488281 297.285156 322.511719 297.285156 320.070312 L 297.285156 310.066406 C 297.285156 307.628906 295.308594 305.652344 292.863281 305.652344 " fill-opacity="1" fill-rule="nonzero"/></g><g fill="#000000" fill-opacity="1"><g transform="translate(76.734796, 66.708892)"><g><path d="M 24.953125 -22.1875 C 23.265625 -23.1875 21.457031 -24 19.53125 -24.625 C 17.613281 -25.257812 16.007812 -25.578125 14.71875 -25.578125 C 13.6875 -25.578125 12.875 -25.390625 12.28125 -25.015625 C 11.695312 -24.640625 11.40625 -24.085938 11.40625 -23.359375 C 11.40625 -22.671875 11.660156 -22.09375 12.171875 -21.625 C 12.691406 -21.15625 13.328125 -20.773438 14.078125 -20.484375 C 14.835938 -20.203125 15.957031 -19.832031 17.4375 -19.375 C 19.632812 -18.738281 21.453125 -18.101562 22.890625 -17.46875 C 24.328125 -16.84375 25.554688 -15.875 26.578125 -14.5625 C 27.609375 -13.25 28.125 -11.535156 28.125 -9.421875 C 28.125 -7.304688 27.5625 -5.5 26.4375 -4 C 25.320312 -2.507812 23.789062 -1.382812 21.84375 -0.625 C 19.894531 0.125 17.726562 0.5 15.34375 0.5 C 12.71875 0.5 10.097656 0.0390625 7.484375 -0.875 C 4.878906 -1.800781 2.625 -3.0625 0.71875 -4.65625 L 3.9375 -11.140625 C 5.539062 -9.722656 7.4375 -8.5625 9.625 -7.65625 C 11.8125 -6.75 13.75 -6.296875 15.4375 -6.296875 C 16.675781 -6.296875 17.648438 -6.519531 18.359375 -6.96875 C 19.066406 -7.425781 19.421875 -8.09375 19.421875 -8.96875 C 19.421875 -9.6875 19.15625 -10.285156 18.625 -10.765625 C 18.101562 -11.253906 17.441406 -11.640625 16.640625 -11.921875 C 15.835938 -12.210938 14.710938 -12.554688 13.265625 -12.953125 C 11.085938 -13.554688 9.289062 -14.164062 7.875 -14.78125 C 6.457031 -15.40625 5.242188 -16.34375 4.234375 -17.59375 C 3.222656 -18.84375 2.71875 -20.507812 2.71875 -22.59375 C 2.71875 -24.550781 3.238281 -26.269531 4.28125 -27.75 C 5.320312 -29.226562 6.800781 -30.367188 8.71875 -31.171875 C 10.632812 -31.972656 12.859375 -32.375 15.390625 -32.375 C 17.691406 -32.375 19.957031 -32.046875 22.1875 -31.390625 C 24.414062 -30.742188 26.378906 -29.878906 28.078125 -28.796875 Z M 24.953125 -22.1875 "/></g></g></g><g fill="#000000" fill-opacity="1"><g transform="translate(105.986465, 66.708892)"><g><path d="M 10.828125 -13.09375 C 10.828125 -11.09375 11.414062 -9.488281 12.59375 -8.28125 C 13.769531 -7.070312 15.265625 -6.46875 17.078125 -6.46875 C 18.859375 -6.46875 20.296875 -7.0625 21.390625 -8.25 C 22.492188 -9.445312 23.046875 -11.0625 23.046875 -13.09375 L 23.046875 -31.734375 L 31.328125 -31.734375 L 31.328125 -13.09375 C 31.328125 -10.34375 30.742188 -7.929688 29.578125 -5.859375 C 28.421875 -3.796875 26.765625 -2.203125 24.609375 -1.078125 C 22.453125 0.0351562 19.925781 0.59375 17.03125 0.59375 C 14.125 0.59375 11.578125 0.0351562 9.390625 -1.078125 C 7.203125 -2.203125 5.507812 -3.796875 4.3125 -5.859375 C 3.125 -7.929688 2.53125 -10.34375 2.53125 -13.09375 L 2.53125 -31.734375 L 10.828125 -31.734375 Z M 10.828125 -13.09375 "/></g></g></g><g fill="#000000" fill-opacity="1"><g transform="translate(139.902104, 66.708892)"><g><path d="M 17.03125 -31.734375 C 21.070312 -31.734375 24.207031 -30.757812 26.4375 -28.8125 C 28.675781 -26.875 29.796875 -24.140625 29.796875 -20.609375 C 29.796875 -16.859375 28.675781 -13.945312 26.4375 -11.875 C 24.207031 -9.8125 21.070312 -8.78125 17.03125 -8.78125 L 11.359375 -8.78125 L 11.359375 0 L 3.078125 0 L 3.078125 -31.734375 Z M 16.625 -15.390625 C 18.3125 -15.390625 19.613281 -15.8125 20.53125 -16.65625 C 21.457031 -17.507812 21.921875 -18.734375 21.921875 -20.328125 C 21.921875 -21.867188 21.457031 -23.050781 20.53125 -23.875 C 19.613281 -24.707031 18.3125 -25.125 16.625 -25.125 L 11.359375 -25.125 L 11.359375 -15.390625 Z M 16.625 -15.390625 "/></g></g></g><g fill="#000000" fill-opacity="1"><g transform="translate(170.693335, 66.708892)"><g><path d="M 18.203125 -32.234375 C 21.429688 -32.234375 24.347656 -31.523438 26.953125 -30.109375 C 29.566406 -28.691406 31.617188 -26.742188 33.109375 -24.265625 C 34.609375 -21.796875 35.359375 -19.019531 35.359375 -15.9375 C 35.359375 -12.832031 34.609375 -10.023438 33.109375 -7.515625 C 31.617188 -5.015625 29.566406 -3.035156 26.953125 -1.578125 C 24.347656 -0.128906 21.429688 0.59375 18.203125 0.59375 C 14.972656 0.59375 12.050781 -0.125 9.4375 -1.5625 C 6.832031 -3 4.78125 -4.976562 3.28125 -7.5 C 1.789062 -10.019531 1.046875 -12.832031 1.046875 -15.9375 C 1.046875 -19.019531 1.789062 -21.796875 3.28125 -24.265625 C 4.78125 -26.742188 6.832031 -28.691406 9.4375 -30.109375 C 12.050781 -31.523438 14.972656 -32.234375 18.203125 -32.234375 Z M 18.296875 -25.21875 C 16.722656 -25.21875 15.265625 -24.8125 13.921875 -24 C 12.578125 -23.1875 11.507812 -22.0625 10.71875 -20.625 C 9.9375 -19.1875 9.546875 -17.609375 9.546875 -15.890625 C 9.546875 -14.140625 9.945312 -12.546875 10.75 -11.109375 C 11.550781 -9.679688 12.613281 -8.550781 13.9375 -7.71875 C 15.269531 -6.882812 16.722656 -6.46875 18.296875 -6.46875 C 19.859375 -6.46875 21.296875 -6.882812 22.609375 -7.71875 C 23.929688 -8.550781 24.96875 -9.679688 25.71875 -11.109375 C 26.476562 -12.546875 26.859375 -14.140625 26.859375 -15.890625 C 26.859375 -17.609375 26.476562 -19.1875 25.71875 -20.625 C 24.96875 -22.0625 23.929688 -23.1875 22.609375 -24 C 21.296875 -24.8125 19.859375 -25.21875 18.296875 -25.21875 Z M 18.296875 -25.21875 "/></g></g></g><g fill="#000000" fill-opacity="1"><g transform="translate(207.099438, 66.708892)"><g><path d="M 31.515625 0 L 22.140625 0 L 17.53125 -8.78125 L 11.359375 -8.78125 L 11.359375 0 L 3.078125 0 L 3.078125 -31.734375 L 17.34375 -31.734375 C 21.539062 -31.734375 24.789062 -30.757812 27.09375 -28.8125 C 29.40625 -26.875 30.5625 -24.140625 30.5625 -20.609375 C 30.5625 -18.222656 30.078125 -16.160156 29.109375 -14.421875 C 28.148438 -12.679688 26.75 -11.332031 24.90625 -10.375 Z M 11.359375 -25.125 L 11.359375 -15.390625 L 17.390625 -15.390625 C 19.078125 -15.390625 20.378906 -15.8125 21.296875 -16.65625 C 22.222656 -17.507812 22.6875 -18.734375 22.6875 -20.328125 C 22.6875 -21.867188 22.222656 -23.050781 21.296875 -23.875 C 20.378906 -24.707031 19.078125 -25.125 17.390625 -25.125 Z M 11.359375 -25.125 "/></g></g></g><g fill="#000000" fill-opacity="1"><g transform="translate(239.883051, 66.708892)"><g><path d="M 0.3125 -24.90625 L 0.3125 -31.734375 L 27.53125 -31.734375 L 27.53125 -24.90625 L 18.015625 -24.90625 L 18.015625 0 L 9.734375 0 L 9.734375 -24.90625 Z M 0.3125 -24.90625 "/></g></g></g><g fill="#000000" fill-opacity="1"><g transform="translate(267.685726, 66.708892)"><g><path d="M 3.078125 0 L 3.078125 -31.734375 L 28.125 -31.734375 L 28.125 -25.125 L 11.359375 -25.125 L 11.359375 -19.203125 L 26.484375 -19.203125 L 26.484375 -12.640625 L 11.359375 -12.59375 L 11.359375 -6.609375 L 28.578125 -6.609375 L 28.578125 0 Z M 3.078125 0 "/></g></g></g><g fill="#000000" fill-opacity="1"><g transform="translate(83.754326, 129.708888)"><g><path d="M 0.3125 -24.90625 L 0.3125 -31.734375 L 27.53125 -31.734375 L 27.53125 -24.90625 L 18.015625 -24.90625 L 18.015625 0 L 9.734375 0 L 9.734375 -24.90625 Z M 0.3125 -24.90625 "/></g></g></g><g fill="#000000" fill-opacity="1"><g transform="translate(111.557002, 129.708888)"><g><path d="M 3.078125 0 L 3.078125 -31.734375 L 28.125 -31.734375 L 28.125 -25.125 L 11.359375 -25.125 L 11.359375 -19.203125 L 26.484375 -19.203125 L 26.484375 -12.640625 L 11.359375 -12.59375 L 11.359375 -6.609375 L 28.578125 -6.609375 L 28.578125 0 Z M 11.78125 -34.453125 L 17.21875 -41.734375 L 23.875 -39.203125 L 17.296875 -34 Z M 11.78125 -34.453125 "/></g></g></g><g fill="#000000" fill-opacity="1"><g transform="translate(142.121834, 129.708888)"><g><path d="M 26.03125 -20.96875 C 25.007812 -22.257812 23.785156 -23.289062 22.359375 -24.0625 C 20.941406 -24.832031 19.539062 -25.21875 18.15625 -25.21875 C 16.5625 -25.21875 15.101562 -24.816406 13.78125 -24.015625 C 12.46875 -23.222656 11.429688 -22.125 10.671875 -20.71875 C 9.921875 -19.3125 9.546875 -17.75 9.546875 -16.03125 C 9.546875 -14.3125 9.921875 -12.75 10.671875 -11.34375 C 11.429688 -9.9375 12.46875 -8.832031 13.78125 -8.03125 C 15.101562 -7.238281 16.5625 -6.84375 18.15625 -6.84375 C 19.457031 -6.84375 20.816406 -7.171875 22.234375 -7.828125 C 23.648438 -8.492188 24.914062 -9.398438 26.03125 -10.546875 L 30.875 -5.34375 C 29.15625 -3.53125 27.109375 -2.085938 24.734375 -1.015625 C 22.367188 0.0546875 20.023438 0.59375 17.703125 0.59375 C 14.566406 0.59375 11.726562 -0.128906 9.1875 -1.578125 C 6.65625 -3.035156 4.664062 -5.015625 3.21875 -7.515625 C 1.769531 -10.023438 1.046875 -12.832031 1.046875 -15.9375 C 1.046875 -19.019531 1.785156 -21.796875 3.265625 -24.265625 C 4.742188 -26.742188 6.769531 -28.691406 9.34375 -30.109375 C 11.925781 -31.523438 14.816406 -32.234375 18.015625 -32.234375 C 20.367188 -32.234375 22.691406 -31.742188 24.984375 -30.765625 C 27.285156 -29.785156 29.238281 -28.453125 30.84375 -26.765625 Z M 26.03125 -20.96875 "/></g></g></g><g fill="#000000" fill-opacity="1"><g transform="translate(173.456442, 129.708888)"><g><path d="M 24.8125 -12.640625 L 24.765625 -31.734375 L 32.46875 -31.734375 L 32.46875 0 L 25.21875 0 L 10.828125 -18.96875 L 10.828125 0 L 3.078125 0 L 3.078125 -31.734375 L 10.375 -31.734375 Z M 24.8125 -12.640625 "/></g></g></g><g fill="#000000" fill-opacity="1"><g transform="translate(209.047485, 129.708888)"><g><path d="M 3.078125 0 L 3.078125 -31.734375 L 11.359375 -31.734375 L 11.359375 0 Z M 3.078125 0 "/></g></g></g><g fill="#000000" fill-opacity="1"><g transform="translate(223.492194, 129.708888)"><g><path d="M 26.03125 -20.96875 C 25.007812 -22.257812 23.785156 -23.289062 22.359375 -24.0625 C 20.941406 -24.832031 19.539062 -25.21875 18.15625 -25.21875 C 16.5625 -25.21875 15.101562 -24.816406 13.78125 -24.015625 C 12.46875 -23.222656 11.429688 -22.125 10.671875 -20.71875 C 9.921875 -19.3125 9.546875 -17.75 9.546875 -16.03125 C 9.546875 -14.3125 9.921875 -12.75 10.671875 -11.34375 C 11.429688 -9.9375 12.46875 -8.832031 13.78125 -8.03125 C 15.101562 -7.238281 16.5625 -6.84375 18.15625 -6.84375 C 19.457031 -6.84375 20.816406 -7.171875 22.234375 -7.828125 C 23.648438 -8.492188 24.914062 -9.398438 26.03125 -10.546875 L 30.875 -5.34375 C 29.15625 -3.53125 27.109375 -2.085938 24.734375 -1.015625 C 22.367188 0.0546875 20.023438 0.59375 17.703125 0.59375 C 14.566406 0.59375 11.726562 -0.128906 9.1875 -1.578125 C 6.65625 -3.035156 4.664062 -5.015625 3.21875 -7.515625 C 1.769531 -10.023438 1.046875 -12.832031 1.046875 -15.9375 C 1.046875 -19.019531 1.785156 -21.796875 3.265625 -24.265625 C 4.742188 -26.742188 6.769531 -28.691406 9.34375 -30.109375 C 11.925781 -31.523438 14.816406 -32.234375 18.015625 -32.234375 C 20.367188 -32.234375 22.691406 -31.742188 24.984375 -30.765625 C 27.285156 -29.785156 29.238281 -28.453125 30.84375 -26.765625 Z M 26.03125 -20.96875 "/></g></g></g><g fill="#000000" fill-opacity="1"><g transform="translate(254.826802, 129.708888)"><g><path d="M 18.203125 -32.234375 C 21.429688 -32.234375 24.347656 -31.523438 26.953125 -30.109375 C 29.566406 -28.691406 31.617188 -26.742188 33.109375 -24.265625 C 34.609375 -21.796875 35.359375 -19.019531 35.359375 -15.9375 C 35.359375 -12.832031 34.609375 -10.023438 33.109375 -7.515625 C 31.617188 -5.015625 29.566406 -3.035156 26.953125 -1.578125 C 24.347656 -0.128906 21.429688 0.59375 18.203125 0.59375 C 14.972656 0.59375 12.050781 -0.125 9.4375 -1.5625 C 6.832031 -3 4.78125 -4.976562 3.28125 -7.5 C 1.789062 -10.019531 1.046875 -12.832031 1.046875 -15.9375 C 1.046875 -19.019531 1.789062 -21.796875 3.28125 -24.265625 C 4.78125 -26.742188 6.832031 -28.691406 9.4375 -30.109375 C 12.050781 -31.523438 14.972656 -32.234375 18.203125 -32.234375 Z M 18.296875 -25.21875 C 16.722656 -25.21875 15.265625 -24.8125 13.921875 -24 C 12.578125 -23.1875 11.507812 -22.0625 10.71875 -20.625 C 9.9375 -19.1875 9.546875 -17.609375 9.546875 -15.890625 C 9.546875 -14.140625 9.945312 -12.546875 10.75 -11.109375 C 11.550781 -9.679688 12.613281 -8.550781 13.9375 -7.71875 C 15.269531 -6.882812 16.722656 -6.46875 18.296875 -6.46875 C 19.859375 -6.46875 21.296875 -6.882812 22.609375 -7.71875 C 23.929688 -8.550781 24.96875 -9.679688 25.71875 -11.109375 C 26.476562 -12.546875 26.859375 -14.140625 26.859375 -15.890625 C 26.859375 -17.609375 26.476562 -19.1875 25.71875 -20.625 C 24.96875 -22.0625 23.929688 -23.1875 22.609375 -24 C 21.296875 -24.8125 19.859375 -25.21875 18.296875 -25.21875 Z M 18.296875 -25.21875 "/></g></g></g></svg>