<svg xmlns="http://www.w3.org/2000/svg" xmlns:xlink="http://www.w3.org/1999/xlink" width="500" zoomAndPan="magnify" viewBox="0 0 375 374.999991" height="500" preserveAspectRatio="xMidYMid meet" version="1.0"><defs><g/><clipPath id="f22cdda2c7"><path d="M 172 112.015625 L 277 112.015625 L 277 206 L 172 206 Z M 172 112.015625 " clip-rule="nonzero"/></clipPath><clipPath id="5c403e3861"><path d="M 172 214 L 277 214 L 277 307.765625 L 172 307.765625 Z M 172 214 " clip-rule="nonzero"/></clipPath></defs><path fill="#000000" d="M 102.6875 274.316406 L 162.683594 286.195312 L 162.683594 214.113281 L 98.007812 214.113281 L 98.007812 268.828125 C 98.003906 269.488281 98.117188 270.128906 98.34375 270.75 C 98.570312 271.375 98.898438 271.9375 99.328125 272.441406 C 99.757812 272.945312 100.261719 273.355469 100.839844 273.679688 C 101.417969 274.003906 102.03125 274.214844 102.6875 274.316406 Z M 102.6875 274.316406 " fill-opacity="1" fill-rule="nonzero"/><path fill="#000000" d="M 98.007812 205.980469 L 162.683594 205.980469 L 162.683594 133.859375 L 102.6875 145.777344 C 102.03125 145.878906 101.417969 146.089844 100.839844 146.414062 C 100.261719 146.738281 99.757812 147.152344 99.328125 147.65625 C 98.898438 148.160156 98.570312 148.722656 98.34375 149.34375 C 98.117188 149.964844 98.003906 150.605469 98.007812 151.269531 Z M 98.007812 205.980469 " fill-opacity="1" fill-rule="nonzero"/><g clip-path="url(#f22cdda2c7)"><path fill="#000000" d="M 172.773438 205.980469 L 276.988281 205.980469 L 276.988281 118.117188 C 277.007812 117.6875 276.972656 117.261719 276.894531 116.839844 C 276.8125 116.417969 276.683594 116.007812 276.507812 115.617188 C 276.335938 115.222656 276.117188 114.855469 275.859375 114.515625 C 275.597656 114.171875 275.304688 113.863281 274.972656 113.585938 C 274.644531 113.3125 274.285156 113.078125 273.902344 112.882812 C 273.519531 112.691406 273.117188 112.542969 272.699219 112.441406 C 272.28125 112.34375 271.859375 112.289062 271.429688 112.285156 C 271 112.28125 270.574219 112.328125 270.15625 112.421875 L 172.773438 131.863281 Z M 172.773438 205.980469 " fill-opacity="1" fill-rule="nonzero"/></g><g clip-path="url(#5c403e3861)"><path fill="#000000" d="M 172.773438 288.230469 L 270.15625 307.675781 C 270.574219 307.769531 271 307.8125 271.429688 307.808594 C 271.859375 307.804688 272.28125 307.753906 272.699219 307.652344 C 273.117188 307.550781 273.519531 307.402344 273.902344 307.210938 C 274.285156 307.015625 274.644531 306.78125 274.972656 306.507812 C 275.304688 306.234375 275.597656 305.925781 275.859375 305.582031 C 276.117188 305.238281 276.335938 304.871094 276.507812 304.476562 C 276.683594 304.085938 276.8125 303.679688 276.894531 303.257812 C 276.972656 302.835938 277.007812 302.410156 276.988281 301.980469 L 276.988281 214.113281 L 172.773438 214.113281 Z M 172.773438 288.230469 " fill-opacity="1" fill-rule="nonzero"/></g><g fill="#000000" fill-opacity="1"><g transform="translate(62.800782, 79.571479)"><g><path d="M 34.984375 -8.375 L 41.046875 -31.046875 L 49.375 -31.046875 L 38.875 0 L 30.546875 0 L 24.671875 -21.125 L 18.6875 0 L 10.359375 0 L -0.09375 -31.046875 L 8.640625 -31.046875 L 14.75 -8.375 L 20.859375 -31.046875 L 28.78125 -31.046875 Z M 34.984375 -8.375 "/></g></g></g><g fill="#000000" fill-opacity="1"><g transform="translate(112.077115, 79.571479)"><g><path d="M 3.015625 0 L 3.015625 -31.046875 L 11.109375 -31.046875 L 11.109375 0 Z M 3.015625 0 "/></g></g></g><g fill="#000000" fill-opacity="1"><g transform="translate(126.200336, 79.571479)"><g><path d="M 24.265625 -12.359375 L 24.21875 -31.046875 L 31.75 -31.046875 L 31.75 0 L 24.671875 0 L 10.578125 -18.546875 L 10.578125 0 L 3.015625 0 L 3.015625 -31.046875 L 10.140625 -31.046875 Z M 24.265625 -12.359375 "/></g></g></g><g fill="#000000" fill-opacity="1"><g transform="translate(160.999254, 79.571479)"><g><path d="M 16.390625 -31.046875 C 19.628906 -31.046875 22.492188 -30.394531 24.984375 -29.09375 C 27.484375 -27.789062 29.425781 -25.96875 30.8125 -23.625 C 32.207031 -21.28125 32.90625 -18.585938 32.90625 -15.546875 C 32.90625 -12.503906 32.203125 -9.800781 30.796875 -7.4375 C 29.390625 -5.070312 27.410156 -3.238281 24.859375 -1.9375 C 22.304688 -0.644531 19.378906 0 16.078125 0 L 3.015625 0 L 3.015625 -31.046875 Z M 16.609375 -6.546875 C 18.171875 -6.546875 19.554688 -6.914062 20.765625 -7.65625 C 21.972656 -8.394531 22.914062 -9.441406 23.59375 -10.796875 C 24.28125 -12.160156 24.625 -13.710938 24.625 -15.453125 C 24.625 -17.222656 24.257812 -18.785156 23.53125 -20.140625 C 22.8125 -21.503906 21.816406 -22.5625 20.546875 -23.3125 C 19.273438 -24.0625 17.828125 -24.4375 16.203125 -24.4375 L 11.109375 -24.4375 L 11.109375 -6.546875 Z M 16.609375 -6.546875 "/></g></g></g><g fill="#000000" fill-opacity="1"><g transform="translate(194.912707, 79.571479)"><g><path d="M 17.796875 -31.53125 C 20.960938 -31.53125 23.820312 -30.832031 26.375 -29.4375 C 28.925781 -28.050781 30.929688 -26.148438 32.390625 -23.734375 C 33.847656 -21.316406 34.578125 -18.601562 34.578125 -15.59375 C 34.578125 -12.550781 33.847656 -9.800781 32.390625 -7.34375 C 30.929688 -4.894531 28.925781 -2.960938 26.375 -1.546875 C 23.820312 -0.128906 20.960938 0.578125 17.796875 0.578125 C 14.640625 0.578125 11.785156 -0.117188 9.234375 -1.515625 C 6.679688 -2.921875 4.671875 -4.859375 3.203125 -7.328125 C 1.742188 -9.796875 1.015625 -12.550781 1.015625 -15.59375 C 1.015625 -18.601562 1.742188 -21.316406 3.203125 -23.734375 C 4.671875 -26.148438 6.679688 -28.050781 9.234375 -29.4375 C 11.785156 -30.832031 14.640625 -31.53125 17.796875 -31.53125 Z M 17.890625 -24.671875 C 16.359375 -24.671875 14.929688 -24.269531 13.609375 -23.46875 C 12.296875 -22.675781 11.253906 -21.578125 10.484375 -20.171875 C 9.722656 -18.765625 9.34375 -17.222656 9.34375 -15.546875 C 9.34375 -13.828125 9.734375 -12.265625 10.515625 -10.859375 C 11.296875 -9.460938 12.335938 -8.359375 13.640625 -7.546875 C 14.941406 -6.734375 16.359375 -6.328125 17.890625 -6.328125 C 19.421875 -6.328125 20.828125 -6.734375 22.109375 -7.546875 C 23.398438 -8.359375 24.414062 -9.460938 25.15625 -10.859375 C 25.894531 -12.265625 26.265625 -13.828125 26.265625 -15.546875 C 26.265625 -17.222656 25.894531 -18.765625 25.15625 -20.171875 C 24.414062 -21.578125 23.398438 -22.675781 22.109375 -23.46875 C 20.828125 -24.269531 19.421875 -24.671875 17.890625 -24.671875 Z M 17.890625 -24.671875 "/></g></g></g><g fill="#000000" fill-opacity="1"><g transform="translate(230.508546, 79.571479)"><g><path d="M 34.984375 -8.375 L 41.046875 -31.046875 L 49.375 -31.046875 L 38.875 0 L 30.546875 0 L 24.671875 -21.125 L 18.6875 0 L 10.359375 0 L -0.09375 -31.046875 L 8.640625 -31.046875 L 14.75 -8.375 L 20.859375 -31.046875 L 28.78125 -31.046875 Z M 34.984375 -8.375 "/></g></g></g><g fill="#000000" fill-opacity="1"><g transform="translate(279.784868, 79.571479)"><g><path d="M 24.40625 -21.703125 C 22.75 -22.671875 20.984375 -23.460938 19.109375 -24.078125 C 17.234375 -24.703125 15.660156 -25.015625 14.390625 -25.015625 C 13.390625 -25.015625 12.597656 -24.828125 12.015625 -24.453125 C 11.441406 -24.085938 11.15625 -23.550781 11.15625 -22.84375 C 11.15625 -22.164062 11.40625 -21.597656 11.90625 -21.140625 C 12.414062 -20.679688 13.035156 -20.3125 13.765625 -20.03125 C 14.503906 -19.75 15.597656 -19.390625 17.046875 -18.953125 C 19.203125 -18.328125 20.976562 -17.703125 22.375 -17.078125 C 23.78125 -16.460938 24.984375 -15.515625 25.984375 -14.234375 C 26.992188 -12.953125 27.5 -11.273438 27.5 -9.203125 C 27.5 -7.140625 26.953125 -5.378906 25.859375 -3.921875 C 24.765625 -2.460938 23.265625 -1.363281 21.359375 -0.625 C 19.460938 0.113281 17.347656 0.484375 15.015625 0.484375 C 12.441406 0.484375 9.878906 0.0351562 7.328125 -0.859375 C 4.773438 -1.765625 2.566406 -3 0.703125 -4.5625 L 3.859375 -10.890625 C 5.421875 -9.503906 7.269531 -8.367188 9.40625 -7.484375 C 11.550781 -6.597656 13.445312 -6.15625 15.09375 -6.15625 C 16.3125 -6.15625 17.265625 -6.375 17.953125 -6.8125 C 18.648438 -7.257812 19 -7.910156 19 -8.765625 C 19 -9.472656 18.738281 -10.0625 18.21875 -10.53125 C 17.707031 -11.007812 17.054688 -11.390625 16.265625 -11.671875 C 15.484375 -11.953125 14.382812 -12.285156 12.96875 -12.671875 C 10.84375 -13.253906 9.085938 -13.847656 7.703125 -14.453125 C 6.316406 -15.054688 5.128906 -15.972656 4.140625 -17.203125 C 3.148438 -18.429688 2.65625 -20.0625 2.65625 -22.09375 C 2.65625 -24.007812 3.164062 -25.691406 4.1875 -27.140625 C 5.207031 -28.585938 6.65625 -29.703125 8.53125 -30.484375 C 10.40625 -31.265625 12.582031 -31.65625 15.0625 -31.65625 C 17.300781 -31.65625 19.507812 -31.335938 21.6875 -30.703125 C 23.875 -30.066406 25.796875 -29.21875 27.453125 -28.15625 Z M 24.40625 -21.703125 "/></g></g></g></svg>